<svg version="1.1" xmlns="http://www.w3.org/2000/svg" xmlns:xlink="http://www.w3.org/1999/xlink" width="1090" height="846"><defs/><g><g transform="translate(-88,-44) scale(1,1)"><rect fill="#C0C0C0" stroke="none" x="105" y="61" width="428" height="15" opacity="0.2"/></g><g transform="translate(-88,-44) scale(1,1)"><rect fill="#C0C0C0" stroke="none" x="105" y="75" width="1070" height="812" opacity="0.2"/></g><g transform="translate(-88,-44) scale(1,1)"><rect fill="#ffffff" stroke="none" x="98" y="69" width="1070" height="811"/></g><g transform="translate(-88,-44) scale(1,1)"><path fill="none" stroke="#000000" d="M 98 69 L 1168 69 L 1168 880 L 98 880 L 98 69 Z Z" stroke-miterlimit="10"/></g><g transform="translate(-88,-44) scale(1,1)"><rect fill="#ffffff" stroke="none" x="98" y="54" width="428" height="15"/></g><g transform="translate(-88,-44) scale(1,1)"><path fill="none" stroke="#000000" d="M 98 54 L 526 54 L 526 69 L 98 69 L 98 54 Z Z" stroke-miterlimit="10"/></g><g transform="translate(-88,-44) scale(1,1)"><rect fill="#ffffff" stroke="none" x="98" y="68" width="1070" height="812"/></g><g transform="translate(-88,-44) scale(1,1)"><path fill="none" stroke="#000000" d="M 98 68 L 1168 68 L 1168 880 L 98 880 L 98 68 Z Z" stroke-miterlimit="10"/></g><g transform="translate(-88,-44) scale(1,1)"><g><path fill="none" stroke="none"/><text fill="#000000" stroke="none" font-family="Arial" font-size="13px" font-style="normal" font-weight="bold" text-decoration="none" x="576.274169921875" y="88.5">miage.pds.prospect</text></g></g><g transform="translate(-88,-44) scale(1,1)"><rect fill="#C0C0C0" stroke="none" x="695" y="167" width="166.39999999999998" height="15" opacity="0.2"/></g><g transform="translate(-88,-44) scale(1,1)"><rect fill="#C0C0C0" stroke="none" x="695" y="181" width="416" height="386" opacity="0.2"/></g><g transform="translate(-88,-44) scale(1,1)"><rect fill="#ffffff" stroke="none" x="688" y="175" width="416" height="385"/></g><g transform="translate(-88,-44) scale(1,1)"><path fill="none" stroke="#000000" d="M 688 175 L 1104 175 L 1104 560 L 688 560 L 688 175 Z Z" stroke-miterlimit="10"/></g><g transform="translate(-88,-44) scale(1,1)"><rect fill="#ffffff" stroke="none" x="688" y="160" width="166.39999999999998" height="15"/></g><g transform="translate(-88,-44) scale(1,1)"><path fill="none" stroke="#000000" d="M 688 160 L 854.4 160 L 854.4 175 L 688 175 L 688 160 Z Z" stroke-miterlimit="10"/></g><g transform="translate(-88,-44) scale(1,1)"><rect fill="#ffffff" stroke="none" x="688" y="174" width="416" height="386"/></g><g transform="translate(-88,-44) scale(1,1)"><path fill="none" stroke="#000000" d="M 688 174 L 1104 174 L 1104 560 L 688 560 L 688 174 Z Z" stroke-miterlimit="10"/></g><g transform="translate(-88,-44) scale(1,1)"><g><path fill="none" stroke="none"/><text fill="#000000" stroke="none" font-family="Arial" font-size="13px" font-style="normal" font-weight="bold" text-decoration="none" x="878.29638671875" y="194.5">model</text></g></g><g transform="translate(-88,-44) scale(1,1)"><g><path fill="none" stroke="none"/><text fill="#000000" stroke="none" font-family="Arial" font-size="13px" font-style="normal" font-weight="normal" text-decoration="none" x="820.13916015625" y="209.5">(from miage.pds.prospect)</text></g></g><g transform="translate(-88,-44) scale(1,1)"><rect fill="#C0C0C0" stroke="none" x="755" y="339" width="125.3017578125" height="130" opacity="0.2"/></g><g transform="translate(-88,-44) scale(1,1)"><rect fill="#ffffff" stroke="none" x="748" y="332" width="125.3017578125" height="130"/></g><g transform="translate(-88,-44) scale(1,1)"><path fill="none" stroke="#000000" d="M 748 332 L 873.3017578125 332 L 873.3017578125 462 L 748 462 L 748 332 Z Z" stroke-miterlimit="10"/></g><g transform="translate(-88,-44) scale(1,1)"><path fill="none" stroke="#000000" d="M 748 372 L 873.3017578125 372" stroke-miterlimit="10"/></g><g transform="translate(-88,-44) scale(1,1)"><path fill="none" stroke="#000000" d="M 748 425 L 873.3017578125 425" stroke-miterlimit="10"/></g><g transform="translate(-88,-44) scale(1,1)"><g><path fill="none" stroke="none"/><text fill="#000000" stroke="none" font-family="Arial" font-size="13px" font-style="normal" font-weight="bold" text-decoration="none" x="756.4609375" y="351.5">UserClientRelation</text></g></g><g transform="translate(-88,-44) scale(1,1)"><g><path fill="none" stroke="none"/><text fill="#000000" stroke="none" font-family="Arial" font-size="13px" font-style="normal" font-weight="normal" text-decoration="none" x="773.812255859375" y="366.5">(from model)</text></g></g><g transform="translate(-88,-44) scale(1,1)"><g><path fill="none" stroke="none"/><text fill="#000000" stroke="none" font-family="Arial" font-size="13px" font-style="normal" font-weight="normal" text-decoration="none" x="753" y="389.5">-id: int</text></g></g><g transform="translate(-88,-44) scale(1,1)"><g><path fill="none" stroke="none"/><text fill="#000000" stroke="none" font-family="Arial" font-size="13px" font-style="normal" font-weight="normal" text-decoration="none" x="753" y="404.5">-idClient: int</text></g></g><g transform="translate(-88,-44) scale(1,1)"><g><path fill="none" stroke="none"/><text fill="#000000" stroke="none" font-family="Arial" font-size="13px" font-style="normal" font-weight="normal" text-decoration="none" x="753" y="419.5">-idUser: int</text></g></g><g transform="translate(-88,-44) scale(1,1)"><g><path fill="none" stroke="none"/><text fill="#000000" stroke="none" font-family="Arial" font-size="13px" font-style="normal" font-weight="normal" text-decoration="none" x="753" y="442.5">+getter()</text></g></g><g transform="translate(-88,-44) scale(1,1)"><g><path fill="none" stroke="none"/><text fill="#000000" stroke="none" font-family="Arial" font-size="13px" font-style="normal" font-weight="normal" text-decoration="none" x="753" y="457.5">+setter()</text></g></g><g transform="translate(-88,-44) scale(1,1)"><rect fill="#C0C0C0" stroke="none" x="951" y="271" width="121.70263671875" height="250" opacity="0.2"/></g><g transform="translate(-88,-44) scale(1,1)"><rect fill="#ffffff" stroke="none" x="944" y="264" width="121.70263671875" height="250"/></g><g transform="translate(-88,-44) scale(1,1)"><path fill="none" stroke="#000000" d="M 944 264 L 1065.70263671875 264 L 1065.70263671875 514 L 944 514 L 944 264 Z Z" stroke-miterlimit="10"/></g><g transform="translate(-88,-44) scale(1,1)"><path fill="none" stroke="#000000" d="M 944 304 L 1065.70263671875 304" stroke-miterlimit="10"/></g><g transform="translate(-88,-44) scale(1,1)"><path fill="none" stroke="#000000" d="M 944 462 L 1065.70263671875 462" stroke-miterlimit="10"/></g><g transform="translate(-88,-44) scale(1,1)"><g><path fill="none" stroke="none"/><text fill="#000000" stroke="none" font-family="Arial" font-size="13px" font-style="normal" font-weight="bold" text-decoration="none" x="979.200439453125" y="283.5">Prospect</text></g></g><g transform="translate(-88,-44) scale(1,1)"><g><path fill="none" stroke="none"/><text fill="#000000" stroke="none" font-family="Arial" font-size="13px" font-style="normal" font-weight="normal" text-decoration="none" x="968.0126953125" y="298.5">(from model)</text></g></g><g transform="translate(-88,-44) scale(1,1)"><g><path fill="none" stroke="none"/><text fill="#000000" stroke="none" font-family="Arial" font-size="13px" font-style="normal" font-weight="normal" text-decoration="none" x="949" y="321.5">-id: int</text></g></g><g transform="translate(-88,-44) scale(1,1)"><g><path fill="none" stroke="none"/><text fill="#000000" stroke="none" font-family="Arial" font-size="13px" font-style="normal" font-weight="normal" text-decoration="none" x="949" y="336.5">-name: String</text></g></g><g transform="translate(-88,-44) scale(1,1)"><g><path fill="none" stroke="none"/><text fill="#000000" stroke="none" font-family="Arial" font-size="13px" font-style="normal" font-weight="normal" text-decoration="none" x="949" y="351.5">-finessNumber: int</text></g></g><g transform="translate(-88,-44) scale(1,1)"><g><path fill="none" stroke="none"/><text fill="#000000" stroke="none" font-family="Arial" font-size="13px" font-style="normal" font-weight="normal" text-decoration="none" x="949" y="366.5">-siretNumber: int</text></g></g><g transform="translate(-88,-44) scale(1,1)"><g><path fill="none" stroke="none"/><text fill="#000000" stroke="none" font-family="Arial" font-size="13px" font-style="normal" font-weight="normal" text-decoration="none" x="949" y="381.5">-streetNumber: int</text></g></g><g transform="translate(-88,-44) scale(1,1)"><g><path fill="none" stroke="none"/><text fill="#000000" stroke="none" font-family="Arial" font-size="13px" font-style="normal" font-weight="normal" text-decoration="none" x="949" y="396.5">-zipCode: int</text></g></g><g transform="translate(-88,-44) scale(1,1)"><g><path fill="none" stroke="none"/><text fill="#000000" stroke="none" font-family="Arial" font-size="13px" font-style="normal" font-weight="normal" text-decoration="none" x="949" y="411.5">-streetName: String</text></g></g><g transform="translate(-88,-44) scale(1,1)"><g><path fill="none" stroke="none"/><text fill="#000000" stroke="none" font-family="Arial" font-size="13px" font-style="normal" font-weight="normal" text-decoration="none" x="949" y="426.5">-city: String</text></g></g><g transform="translate(-88,-44) scale(1,1)"><g><path fill="none" stroke="none"/><text fill="#000000" stroke="none" font-family="Arial" font-size="13px" font-style="normal" font-weight="normal" text-decoration="none" x="949" y="441.5">-place: int</text></g></g><g transform="translate(-88,-44) scale(1,1)"><g><path fill="none" stroke="none"/><text fill="#000000" stroke="none" font-family="Arial" font-size="13px" font-style="normal" font-weight="normal" text-decoration="none" x="949" y="456.5">-website: String</text></g></g><g transform="translate(-88,-44) scale(1,1)"><g><path fill="none" stroke="none"/><text fill="#000000" stroke="none" font-family="Arial" font-size="13px" font-style="normal" font-weight="normal" text-decoration="none" x="949" y="479.5">+getter()</text></g></g><g transform="translate(-88,-44) scale(1,1)"><g><path fill="none" stroke="none"/><text fill="#000000" stroke="none" font-family="Arial" font-size="13px" font-style="normal" font-weight="normal" text-decoration="none" x="949" y="494.5">+setter()</text></g></g><g transform="translate(-88,-44) scale(1,1)"><g><path fill="none" stroke="none"/><text fill="#000000" stroke="none" font-family="Arial" font-size="13px" font-style="normal" font-weight="normal" text-decoration="none" x="949" y="509.5">+toString()</text></g></g><g transform="translate(-88,-44) scale(1,1)"><path fill="none" stroke="#000000" d="M 944 394 L 873 394" stroke-miterlimit="10"/></g><g transform="translate(-88,-44) scale(1,1)"><rect fill="#C0C0C0" stroke="none" x="191" y="596" width="339.20000000000005" height="15" opacity="0.2"/></g><g transform="translate(-88,-44) scale(1,1)"><rect fill="#C0C0C0" stroke="none" x="191" y="610" width="848" height="229" opacity="0.2"/></g><g transform="translate(-88,-44) scale(1,1)"><rect fill="#ffffff" stroke="none" x="184" y="604" width="848" height="228"/></g><g transform="translate(-88,-44) scale(1,1)"><path fill="none" stroke="#000000" d="M 184 604 L 1032 604 L 1032 832 L 184 832 L 184 604 Z Z" stroke-miterlimit="10"/></g><g transform="translate(-88,-44) scale(1,1)"><rect fill="#ffffff" stroke="none" x="184" y="589" width="339.20000000000005" height="15"/></g><g transform="translate(-88,-44) scale(1,1)"><path fill="none" stroke="#000000" d="M 184 589 L 523.2 589 L 523.2 604 L 184 604 L 184 589 Z Z" stroke-miterlimit="10"/></g><g transform="translate(-88,-44) scale(1,1)"><rect fill="#ffffff" stroke="none" x="184" y="603" width="848" height="229"/></g><g transform="translate(-88,-44) scale(1,1)"><path fill="none" stroke="#000000" d="M 184 603 L 1032 603 L 1032 832 L 184 832 L 184 603 Z Z" stroke-miterlimit="10"/></g><g transform="translate(-88,-44) scale(1,1)"><g><path fill="none" stroke="none"/><text fill="#000000" stroke="none" font-family="Arial" font-size="13px" font-style="normal" font-weight="bold" text-decoration="none" x="597.155029296875" y="623.5">dao</text></g></g><g transform="translate(-88,-44) scale(1,1)"><g><path fill="none" stroke="none"/><text fill="#000000" stroke="none" font-family="Arial" font-size="13px" font-style="normal" font-weight="normal" text-decoration="none" x="532.13916015625" y="638.5">(from miage.pds.prospect)</text></g></g><g transform="translate(-88,-44) scale(1,1)"><rect fill="#C0C0C0" stroke="none" x="430" y="674" width="251.42333984375" height="72" opacity="0.2"/></g><g transform="translate(-88,-44) scale(1,1)"><rect fill="#ffffff" stroke="none" x="423" y="667" width="251.42333984375" height="72"/></g><g transform="translate(-88,-44) scale(1,1)"><path fill="none" stroke="#000000" d="M 423 667 L 674.42333984375 667 L 674.42333984375 739 L 423 739 L 423 667 Z Z" stroke-miterlimit="10"/></g><g transform="translate(-88,-44) scale(1,1)"><path fill="none" stroke="#000000" d="M 423 707 L 674.42333984375 707" stroke-miterlimit="10"/></g><g transform="translate(-88,-44) scale(1,1)"><path fill="none" stroke="#000000" d="M 423 717 L 674.42333984375 717" stroke-miterlimit="10"/></g><g transform="translate(-88,-44) scale(1,1)"><g><path fill="none" stroke="none"/><text fill="#000000" stroke="none" font-family="Arial" font-size="13px" font-style="normal" font-weight="bold" text-decoration="none" x="482.59765625" y="686.5">UserClientRelationDao</text></g></g><g transform="translate(-88,-44) scale(1,1)"><g><path fill="none" stroke="none"/><text fill="#000000" stroke="none" font-family="Arial" font-size="13px" font-style="normal" font-weight="normal" text-decoration="none" x="518.731689453125" y="701.5">(from dao)</text></g></g><g transform="translate(-88,-44) scale(1,1)"><g><path fill="none" stroke="none"/><text fill="#000000" stroke="none" font-family="Arial" font-size="13px" font-style="normal" font-weight="normal" text-decoration="none" x="428" y="734.5">+countRelationshipByIDClient(idProspect)</text></g></g><g transform="translate(-88,-44) scale(1,1)"><path fill="none" stroke="#000000" d="M 808 462 L 808 703 L 674 703" stroke-miterlimit="10"/></g><g transform="translate(-88,-44) scale(1,1)"><rect fill="#C0C0C0" stroke="none" x="199" y="159" width="185.60000000000002" height="15" opacity="0.2"/></g><g transform="translate(-88,-44) scale(1,1)"><rect fill="#C0C0C0" stroke="none" x="199" y="173" width="464" height="394" opacity="0.2"/></g><g transform="translate(-88,-44) scale(1,1)"><rect fill="#ffffff" stroke="none" x="192" y="167" width="464" height="393"/></g><g transform="translate(-88,-44) scale(1,1)"><path fill="none" stroke="#000000" d="M 192 167 L 656 167 L 656 560 L 192 560 L 192 167 Z Z" stroke-miterlimit="10"/></g><g transform="translate(-88,-44) scale(1,1)"><rect fill="#ffffff" stroke="none" x="192" y="152" width="185.60000000000002" height="15"/></g><g transform="translate(-88,-44) scale(1,1)"><path fill="none" stroke="#000000" d="M 192 152 L 377.6 152 L 377.6 167 L 192 167 L 192 152 Z Z" stroke-miterlimit="10"/></g><g transform="translate(-88,-44) scale(1,1)"><rect fill="#ffffff" stroke="none" x="192" y="166" width="464" height="394"/></g><g transform="translate(-88,-44) scale(1,1)"><path fill="none" stroke="#000000" d="M 192 166 L 656 166 L 656 560 L 192 560 L 192 166 Z Z" stroke-miterlimit="10"/></g><g transform="translate(-88,-44) scale(1,1)"><g><path fill="none" stroke="none"/><text fill="#000000" stroke="none" font-family="Arial" font-size="13px" font-style="normal" font-weight="bold" text-decoration="none" x="397.266845703125" y="186.5">controller</text></g></g><g transform="translate(-88,-44) scale(1,1)"><g><path fill="none" stroke="none"/><text fill="#000000" stroke="none" font-family="Arial" font-size="13px" font-style="normal" font-weight="normal" text-decoration="none" x="348.13916015625" y="201.5">(from miage.pds.prospect)</text></g></g><g transform="translate(-88,-44) scale(1,1)"><rect fill="#C0C0C0" stroke="none" x="239" y="351" width="376" height="115" opacity="0.2"/></g><g transform="translate(-88,-44) scale(1,1)"><rect fill="#ffffff" stroke="none" x="232" y="344" width="376" height="115"/></g><g transform="translate(-88,-44) scale(1,1)"><path fill="none" stroke="#000000" d="M 232 344 L 608 344 L 608 459 L 232 459 L 232 344 Z Z" stroke-miterlimit="10"/></g><g transform="translate(-88,-44) scale(1,1)"><path fill="none" stroke="#000000" d="M 232 384 L 608 384" stroke-miterlimit="10"/></g><g transform="translate(-88,-44) scale(1,1)"><path fill="none" stroke="#000000" d="M 232 422 L 608 422" stroke-miterlimit="10"/></g><g transform="translate(-88,-44) scale(1,1)"><g><path fill="none" stroke="none"/><text fill="#000000" stroke="none" font-family="Arial" font-size="13px" font-style="normal" font-weight="bold" text-decoration="none" x="366.171875" y="363.5">ProspectController</text></g></g><g transform="translate(-88,-44) scale(1,1)"><g><path fill="none" stroke="none"/><text fill="#000000" stroke="none" font-family="Arial" font-size="13px" font-style="normal" font-weight="normal" text-decoration="none" x="374.1318359375" y="378.5">(from controller)</text></g></g><g transform="translate(-88,-44) scale(1,1)"><g><path fill="none" stroke="none"/><text fill="#000000" stroke="none" font-family="Arial" font-size="13px" font-style="normal" font-weight="normal" text-decoration="none" x="237" y="401.5">-mongoService: MongoService</text></g></g><g transform="translate(-88,-44) scale(1,1)"><g><path fill="none" stroke="none"/><text fill="#000000" stroke="none" font-family="Arial" font-size="13px" font-style="normal" font-weight="normal" text-decoration="none" x="237" y="416.5">-userClientRelationDAO: UserClientRelationDao</text></g></g><g transform="translate(-88,-44) scale(1,1)"><g><path fill="none" stroke="none"/><text fill="#000000" stroke="none" font-family="Arial" font-size="13px" font-style="normal" font-weight="normal" text-decoration="none" x="237" y="439.5">+analyzeProspectByRelationLv(HashMap User, Prospect)</text></g></g><g transform="translate(-88,-44) scale(1,1)"><g><path fill="none" stroke="none"/><text fill="#000000" stroke="none" font-family="Arial" font-size="13px" font-style="normal" font-weight="normal" text-decoration="none" x="237" y="454.5">+analyseProspect()</text></g></g><g transform="translate(-88,-44) scale(1,1)"><path fill="none" stroke="#000000" d="M 608 403 L 748 403" stroke-miterlimit="10"/></g><g transform="translate(-88,-44) scale(1,1)"><path fill="none" stroke="#000000" d="M 504 459 L 504 667" stroke-miterlimit="10"/></g><g transform="translate(-88,-44) scale(1,1)"><path fill="none" stroke="#000000" d="M 499.790482243984 656.8373251423759 L 504 667 L 508.209517756016 656.8373251423759" stroke-miterlimit="10"/></g></g></svg>