<svg version="1.1" xmlns="http://www.w3.org/2000/svg" xmlns:xlink="http://www.w3.org/1999/xlink" width="164.8271484375" height="107"><defs/><g><g transform="translate(-318,-262) scale(1,1)"><rect fill="#C0C0C0" stroke="none" x="335" y="279" width="144.8271484375" height="87" opacity="0.2"/></g><g transform="translate(-318,-262) scale(1,1)"><rect fill="#ffffff" stroke="none" x="328" y="272" width="144.8271484375" height="87"/></g><g transform="translate(-318,-262) scale(1,1)"><path fill="none" stroke="#000000" d="M 328 272 L 472.8271484375 272 L 472.8271484375 359 L 328 359 L 328 272 Z Z" stroke-miterlimit="10"/></g><g transform="translate(-318,-262) scale(1,1)"><path fill="none" stroke="#000000" d="M 328 297 L 472.8271484375 297" stroke-miterlimit="10"/></g><g transform="translate(-318,-262) scale(1,1)"><path fill="none" stroke="#000000" d="M 328 350 L 472.8271484375 350" stroke-miterlimit="10"/></g><g transform="translate(-318,-262) scale(1,1)"><g><path fill="none" stroke="none"/><text fill="#000000" stroke="none" font-family="Arial" font-size="13px" font-style="normal" font-weight="bold" text-decoration="none" x="338.273193359375" y="291.5">PreformatedMessage</text></g></g><g transform="translate(-318,-262) scale(1,1)"><g><path fill="none" stroke="none"/><text fill="#000000" stroke="none" font-family="Arial" font-size="13px" font-style="normal" font-weight="normal" text-decoration="none" x="333" y="314.5">+idMessage: int</text></g></g><g transform="translate(-318,-262) scale(1,1)"><g><path fill="none" stroke="none"/><text fill="#000000" stroke="none" font-family="Arial" font-size="13px" font-style="normal" font-weight="normal" text-decoration="none" x="333" y="329.5">+message: String</text></g></g><g transform="translate(-318,-262) scale(1,1)"><g><path fill="none" stroke="none"/><text fill="#000000" stroke="none" font-family="Arial" font-size="13px" font-style="normal" font-weight="normal" text-decoration="none" x="333" y="344.5">+List&lt;String&gt; message</text></g></g></g></svg>