<svg version="1.1" xmlns="http://www.w3.org/2000/svg" xmlns:xlink="http://www.w3.org/1999/xlink" width="924" height="668"><defs/><g><g transform="translate(-46,-30) scale(1,1)"><path fill="#C0C0C0" stroke="none" d="M 63 57 L 956 57 L 956 694 L 63 694" opacity="0.2"/></g><g transform="translate(-46,-30) scale(1,1)"><path fill="#C0C0C0" stroke="none" d="M 63 57 L 73 47 L 966 47 L 956 57" opacity="0.2"/></g><g transform="translate(-46,-30) scale(1,1)"><path fill="#C0C0C0" stroke="none" d="M 966 47 L 956 57 L 956 694 L 966 684" opacity="0.2"/></g><g transform="translate(-46,-30) scale(1,1)"><path fill="#ffffff" stroke="none" d="M 56 50 L 949 50 L 949 687 L 56 687"/></g><g transform="translate(-46,-30) scale(1,1)"><path fill="#ffffff" stroke="none" d="M 56 50 L 66 40 L 959 40 L 949 50"/></g><g transform="translate(-46,-30) scale(1,1)"><path fill="#ffffff" stroke="none" d="M 959 40 L 949 50 L 949 687 L 959 677"/></g><g transform="translate(-46,-30) scale(1,1)"><path fill="none" stroke="#000000" d="M 56 50 L 949 50 L 949 687 L 56 687 L 56 50" stroke-miterlimit="10"/></g><g transform="translate(-46,-30) scale(1,1)"><path fill="none" stroke="#000000" d="M 56 50 L 66 40 L 959 40 L 949 50 L 56 50" stroke-miterlimit="10"/></g><g transform="translate(-46,-30) scale(1,1)"><path fill="none" stroke="#000000" d="M 959 40 L 949 50 L 949 687 L 959 677 L 959 40" stroke-miterlimit="10"/></g><g transform="translate(-46,-30) scale(1,1)"><g><path fill="none" stroke="none"/><text fill="#000000" stroke="none" font-family="Arial" font-size="13px" font-style="normal" font-weight="bold" text-decoration="none" x="458.54736328125" y="69.5">Ubuntu 14.04.3</text></g></g><g transform="translate(-46,-30) scale(1,1)"><path fill="#C0C0C0" stroke="none" d="M 135 121 L 820 121 L 820 630 L 135 630" opacity="0.2"/></g><g transform="translate(-46,-30) scale(1,1)"><path fill="#C0C0C0" stroke="none" d="M 135 121 L 145 111 L 830 111 L 820 121" opacity="0.2"/></g><g transform="translate(-46,-30) scale(1,1)"><path fill="#C0C0C0" stroke="none" d="M 830 111 L 820 121 L 820 630 L 830 620" opacity="0.2"/></g><g transform="translate(-46,-30) scale(1,1)"><path fill="#ffffff" stroke="none" d="M 128 114 L 813 114 L 813 623 L 128 623"/></g><g transform="translate(-46,-30) scale(1,1)"><path fill="#ffffff" stroke="none" d="M 128 114 L 138 104 L 823 104 L 813 114"/></g><g transform="translate(-46,-30) scale(1,1)"><path fill="#ffffff" stroke="none" d="M 823 104 L 813 114 L 813 623 L 823 613"/></g><g transform="translate(-46,-30) scale(1,1)"><path fill="none" stroke="#000000" d="M 128 114 L 813 114 L 813 623 L 128 623 L 128 114" stroke-miterlimit="10"/></g><g transform="translate(-46,-30) scale(1,1)"><path fill="none" stroke="#000000" d="M 128 114 L 138 104 L 823 104 L 813 114 L 128 114" stroke-miterlimit="10"/></g><g transform="translate(-46,-30) scale(1,1)"><path fill="none" stroke="#000000" d="M 823 104 L 813 114 L 813 623 L 823 613 L 823 104" stroke-miterlimit="10"/></g><g transform="translate(-46,-30) scale(1,1)"><g><path fill="none" stroke="none"/><text fill="#000000" stroke="none" font-family="Arial" font-size="13px" font-style="normal" font-weight="normal" text-decoration="none" x="424.011474609375" y="131.5">«10.0.0.5:8082»</text></g></g><g transform="translate(-46,-30) scale(1,1)"><g><path fill="none" stroke="none"/><text fill="#000000" stroke="none" font-family="Arial" font-size="13px" font-style="normal" font-weight="bold" text-decoration="none" x="436.6845703125" y="146.5">Rest Server</text></g></g><g transform="translate(-46,-30) scale(1,1)"><rect fill="#C0C0C0" stroke="none" x="278" y="282" width="185.181640625" height="44" opacity="0.2"/></g><g transform="translate(-46,-30) scale(1,1)"><rect fill="#ffffff" stroke="none" x="271" y="275" width="185.181640625" height="44"/></g><g transform="translate(-46,-30) scale(1,1)"><path fill="none" stroke="#000000" d="M 271 275 L 456.181640625 275 L 456.181640625 319 L 271 319 L 271 275 Z Z" stroke-miterlimit="10"/></g><g transform="translate(-46,-30) scale(1,1)"><rect fill="#ffffff" stroke="none" x="261" y="282" width="20" height="10"/></g><g transform="translate(-46,-30) scale(1,1)"><path fill="none" stroke="#000000" d="M 261 282 L 281 282 L 281 292 L 261 292 L 261 282 Z Z" stroke-miterlimit="10"/></g><g transform="translate(-46,-30) scale(1,1)"><rect fill="#ffffff" stroke="none" x="261" y="302" width="20" height="10"/></g><g transform="translate(-46,-30) scale(1,1)"><path fill="none" stroke="#000000" d="M 261 302 L 281 302 L 281 312 L 261 312 L 261 302 Z Z" stroke-miterlimit="10"/></g><g transform="translate(-46,-30) scale(1,1)"><g><path fill="none" stroke="none"/><text fill="#000000" stroke="none" font-family="Arial" font-size="13px" font-style="normal" font-weight="normal" text-decoration="none" x="350.88720703125" y="292.5">«war»</text></g></g><g transform="translate(-46,-30) scale(1,1)"><g><path fill="none" stroke="none"/><text fill="#000000" stroke="none" font-family="Arial" font-size="13px" font-style="normal" font-weight="bold" text-decoration="none" x="287.67724609375" y="307.5">RestServer SNAPSHOT 1.0</text></g></g><g transform="translate(-46,-30) scale(1,1)"><rect fill="#C0C0C0" stroke="none" x="585" y="444" width="80.369140625" height="44" opacity="0.2"/></g><g transform="translate(-46,-30) scale(1,1)"><rect fill="#ffffff" stroke="none" x="578" y="437" width="80.369140625" height="44"/></g><g transform="translate(-46,-30) scale(1,1)"><path fill="none" stroke="#000000" d="M 578 437 L 658.369140625 437 L 658.369140625 481 L 578 481 L 578 437 Z Z" stroke-miterlimit="10"/></g><g transform="translate(-46,-30) scale(1,1)"><rect fill="#ffffff" stroke="none" x="568" y="444" width="20" height="10"/></g><g transform="translate(-46,-30) scale(1,1)"><path fill="none" stroke="#000000" d="M 568 444 L 588 444 L 588 454 L 568 454 L 568 444 Z Z" stroke-miterlimit="10"/></g><g transform="translate(-46,-30) scale(1,1)"><rect fill="#ffffff" stroke="none" x="568" y="464" width="20" height="10"/></g><g transform="translate(-46,-30) scale(1,1)"><path fill="none" stroke="#000000" d="M 568 464 L 588 464 L 588 474 L 568 474 L 568 464 Z Z" stroke-miterlimit="10"/></g><g transform="translate(-46,-30) scale(1,1)"><g><path fill="none" stroke="none"/><text fill="#000000" stroke="none" font-family="Arial" font-size="13px" font-style="normal" font-weight="normal" text-decoration="none" x="595.71826171875" y="454.5">«noSQL»</text></g></g><g transform="translate(-46,-30) scale(1,1)"><g><path fill="none" stroke="none"/><text fill="#000000" stroke="none" font-family="Arial" font-size="13px" font-style="normal" font-weight="bold" text-decoration="none" x="594.280517578125" y="469.5">MongoDB</text></g></g><g transform="translate(-46,-30) scale(1,1)"><rect fill="#C0C0C0" stroke="none" x="241" y="180" width="102.078125" height="44" opacity="0.2"/></g><g transform="translate(-46,-30) scale(1,1)"><rect fill="#ffffff" stroke="none" x="234" y="173" width="102.078125" height="44"/></g><g transform="translate(-46,-30) scale(1,1)"><path fill="none" stroke="#000000" d="M 234 173 L 336.078125 173 L 336.078125 217 L 234 217 L 234 173 Z Z" stroke-miterlimit="10"/></g><g transform="translate(-46,-30) scale(1,1)"><rect fill="#ffffff" stroke="none" x="224" y="180" width="20" height="10"/></g><g transform="translate(-46,-30) scale(1,1)"><path fill="none" stroke="#000000" d="M 224 180 L 244 180 L 244 190 L 224 190 L 224 180 Z Z" stroke-miterlimit="10"/></g><g transform="translate(-46,-30) scale(1,1)"><rect fill="#ffffff" stroke="none" x="224" y="200" width="20" height="10"/></g><g transform="translate(-46,-30) scale(1,1)"><path fill="none" stroke="#000000" d="M 224 200 L 244 200 L 244 210 L 224 210 L 224 200 Z Z" stroke-miterlimit="10"/></g><g transform="translate(-46,-30) scale(1,1)"><g><path fill="none" stroke="none"/><text fill="#000000" stroke="none" font-family="Arial" font-size="13px" font-style="normal" font-weight="normal" text-decoration="none" x="275.58544921875" y="190.5">«jar»</text></g></g><g transform="translate(-46,-30) scale(1,1)"><g><path fill="none" stroke="none"/><text fill="#000000" stroke="none" font-family="Arial" font-size="13px" font-style="normal" font-weight="bold" text-decoration="none" x="250.293212890625" y="205.5">Morphia 1.0.1</text></g></g><g transform="translate(-46,-30) scale(1,1)"><path fill="none" stroke="#000000" d="M 340 274 L 298 218" stroke-miterlimit="10" stroke-dasharray="3"/></g><g transform="translate(-46,-30) scale(1,1)"><path fill="none" stroke="#000000" d="M 307.46521911938726 223.60442923248974 L 298 218 L 300.7299907097617 228.65585053970892" stroke-miterlimit="10"/></g><g transform="translate(-46,-30) scale(1,1)"><rect fill="#C0C0C0" stroke="none" x="464" y="196" width="76.07177734375" height="44" opacity="0.2"/></g><g transform="translate(-46,-30) scale(1,1)"><rect fill="#ffffff" stroke="none" x="457" y="189" width="76.07177734375" height="44"/></g><g transform="translate(-46,-30) scale(1,1)"><path fill="none" stroke="#000000" d="M 457 189 L 533.07177734375 189 L 533.07177734375 233 L 457 233 L 457 189 Z Z" stroke-miterlimit="10"/></g><g transform="translate(-46,-30) scale(1,1)"><rect fill="#ffffff" stroke="none" x="447" y="196" width="20" height="10"/></g><g transform="translate(-46,-30) scale(1,1)"><path fill="none" stroke="#000000" d="M 447 196 L 467 196 L 467 206 L 447 206 L 447 196 Z Z" stroke-miterlimit="10"/></g><g transform="translate(-46,-30) scale(1,1)"><rect fill="#ffffff" stroke="none" x="447" y="216" width="20" height="10"/></g><g transform="translate(-46,-30) scale(1,1)"><path fill="none" stroke="#000000" d="M 447 216 L 467 216 L 467 226 L 447 226 L 447 216 Z Z" stroke-miterlimit="10"/></g><g transform="translate(-46,-30) scale(1,1)"><g><path fill="none" stroke="none"/><text fill="#000000" stroke="none" font-family="Arial" font-size="13px" font-style="normal" font-weight="normal" text-decoration="none" x="485.582275390625" y="206.5">«jar»</text></g></g><g transform="translate(-46,-30) scale(1,1)"><g><path fill="none" stroke="none"/><text fill="#000000" stroke="none" font-family="Arial" font-size="13px" font-style="normal" font-weight="bold" text-decoration="none" x="472.944091796875" y="221.5">Tomcat 8</text></g></g><g transform="translate(-46,-30) scale(1,1)"><path fill="none" stroke="#000000" d="M 393 274 L 455 234" stroke-miterlimit="10" stroke-dasharray="3"/></g><g transform="translate(-46,-30) scale(1,1)"><path fill="none" stroke="#000000" d="M 448.7424310646751 243.04670277060416 L 455 234 L 444.17824569561617 235.9722154485628" stroke-miterlimit="10"/></g><g transform="translate(-46,-30) scale(1,1)"><rect fill="#C0C0C0" stroke="none" x="243" y="400" width="55.130859375" height="44" opacity="0.2"/></g><g transform="translate(-46,-30) scale(1,1)"><rect fill="#ffffff" stroke="none" x="236" y="393" width="55.130859375" height="44"/></g><g transform="translate(-46,-30) scale(1,1)"><path fill="none" stroke="#000000" d="M 236 393 L 291.130859375 393 L 291.130859375 437 L 236 437 L 236 393 Z Z" stroke-miterlimit="10"/></g><g transform="translate(-46,-30) scale(1,1)"><rect fill="#ffffff" stroke="none" x="226" y="400" width="20" height="10"/></g><g transform="translate(-46,-30) scale(1,1)"><path fill="none" stroke="#000000" d="M 226 400 L 246 400 L 246 410 L 226 410 L 226 400 Z Z" stroke-miterlimit="10"/></g><g transform="translate(-46,-30) scale(1,1)"><rect fill="#ffffff" stroke="none" x="226" y="420" width="20" height="10"/></g><g transform="translate(-46,-30) scale(1,1)"><path fill="none" stroke="#000000" d="M 226 420 L 246 420 L 246 430 L 226 430 L 226 420 Z Z" stroke-miterlimit="10"/></g><g transform="translate(-46,-30) scale(1,1)"><g><path fill="none" stroke="none"/><text fill="#000000" stroke="none" font-family="Arial" font-size="13px" font-style="normal" font-weight="normal" text-decoration="none" x="252.661376953125" y="410.5">«api»</text></g></g><g transform="translate(-46,-30) scale(1,1)"><g><path fill="none" stroke="none"/><text fill="#000000" stroke="none" font-family="Arial" font-size="13px" font-style="normal" font-weight="bold" text-decoration="none" x="250.864990234375" y="425.5">JRE 8</text></g></g><g transform="translate(-46,-30) scale(1,1)"><path fill="none" stroke="#000000" d="M 339 320 L 277 392" stroke-miterlimit="10" stroke-dasharray="3"/></g><g transform="translate(-46,-30) scale(1,1)"><path fill="none" stroke="#000000" d="M 280.44153923327826 381.55223431992243 L 277 392 L 286.8212216902015 387.0458497689397" stroke-miterlimit="10"/></g><g transform="translate(-46,-30) scale(1,1)"><path fill="#C0C0C0" stroke="none" d="M 592.700439453125 330.5 C 592.700439453125 324.1487248 597.849164253125 319 604.200439453125 319 C 610.551714653125 319 615.700439453125 324.1487248 615.700439453125 330.5 C 615.700439453125 336.8512752 610.551714653125 342 604.200439453125 342 C 597.849164253125 342 592.700439453125 336.8512752 592.700439453125 330.5 Z" opacity="0.2"/></g><g transform="translate(-46,-30) scale(1,1)"><path fill="none" stroke="#000000" d="M 601.1905925086759 333.70929196661615 A 11.5 11.5 0 0 1 592.8094074913241 312.29070803338385" stroke-miterlimit="10"/></g><g transform="translate(-46,-30) scale(1,1)"><path fill="#ffffff" stroke="none" d="M 588.700439453125 323.5 C 588.700439453125 318.8055792 592.506018653125 315 597.200439453125 315 C 601.894860253125 315 605.700439453125 318.8055792 605.700439453125 323.5 C 605.700439453125 328.1944208 601.894860253125 332 597.200439453125 332 C 592.506018653125 332 588.700439453125 328.1944208 588.700439453125 323.5 Z"/></g><g transform="translate(-46,-30) scale(1,1)"><path fill="none" stroke="#000000" d="M 588.700439453125 323.5 C 588.700439453125 318.8055792 592.506018653125 315 597.200439453125 315 C 601.894860253125 315 605.700439453125 318.8055792 605.700439453125 323.5 C 605.700439453125 328.1944208 601.894860253125 332 597.200439453125 332 C 592.506018653125 332 588.700439453125 328.1944208 588.700439453125 323.5 Z" stroke-miterlimit="10"/></g><g transform="translate(-46,-30) scale(1,1)"><g><path fill="none" stroke="none"/><text fill="#000000" stroke="none" font-family="Arial" font-size="13px" font-style="normal" font-weight="bold" text-decoration="none" x="579.864990234375" y="354.5">JSON</text></g></g><g transform="translate(-46,-30) scale(1,1)"><path fill="none" stroke="#000000" d="M 457 313 L 585.700439453125 327.4215671705163" stroke-miterlimit="10"/></g><g transform="translate(-46,-30) scale(1,1)"><path fill="none" stroke="#000000" d="M 610 436 L 597.9473684210526 335" stroke-miterlimit="10"/></g></g></svg>