<svg version="1.1" xmlns="http://www.w3.org/2000/svg" xmlns:xlink="http://www.w3.org/1999/xlink" width="1012" height="540"><defs/><g><g transform="translate(-38,-30) scale(1,1)"><rect fill="#C0C0C0" stroke="none" x="55" y="47" width="396.8" height="15" opacity="0.2"/></g><g transform="translate(-38,-30) scale(1,1)"><rect fill="#C0C0C0" stroke="none" x="55" y="61" width="992" height="506" opacity="0.2"/></g><g transform="translate(-38,-30) scale(1,1)"><rect fill="#ffffff" stroke="none" x="48" y="55" width="992" height="505"/></g><g transform="translate(-38,-30) scale(1,1)"><path fill="none" stroke="#000000" d="M 48 55 L 1040 55 L 1040 560 L 48 560 L 48 55 Z Z" stroke-miterlimit="10"/></g><g transform="translate(-38,-30) scale(1,1)"><rect fill="#ffffff" stroke="none" x="48" y="40" width="396.8" height="15"/></g><g transform="translate(-38,-30) scale(1,1)"><path fill="none" stroke="#000000" d="M 48 40 L 444.8 40 L 444.8 55 L 48 55 L 48 40 Z Z" stroke-miterlimit="10"/></g><g transform="translate(-38,-30) scale(1,1)"><rect fill="#ffffff" stroke="none" x="48" y="54" width="992" height="506"/></g><g transform="translate(-38,-30) scale(1,1)"><path fill="none" stroke="#000000" d="M 48 54 L 1040 54 L 1040 560 L 48 560 L 48 54 Z Z" stroke-miterlimit="10"/></g><g transform="translate(-38,-30) scale(1,1)"><g><path fill="none" stroke="none"/><text fill="#000000" stroke="none" font-family="Arial" font-size="13px" font-style="normal" font-weight="bold" text-decoration="none" x="487.274169921875" y="74.5">miage.pds.prospect</text></g></g><g transform="translate(-38,-30) scale(1,1)"><rect fill="#C0C0C0" stroke="none" x="111" y="151" width="166.39999999999998" height="15" opacity="0.2"/></g><g transform="translate(-38,-30) scale(1,1)"><rect fill="#C0C0C0" stroke="none" x="111" y="165" width="416" height="338" opacity="0.2"/></g><g transform="translate(-38,-30) scale(1,1)"><rect fill="#ffffff" stroke="none" x="104" y="159" width="416" height="337"/></g><g transform="translate(-38,-30) scale(1,1)"><path fill="none" stroke="#000000" d="M 104 159 L 520 159 L 520 496 L 104 496 L 104 159 Z Z" stroke-miterlimit="10"/></g><g transform="translate(-38,-30) scale(1,1)"><rect fill="#ffffff" stroke="none" x="104" y="144" width="166.39999999999998" height="15"/></g><g transform="translate(-38,-30) scale(1,1)"><path fill="none" stroke="#000000" d="M 104 144 L 270.4 144 L 270.4 159 L 104 159 L 104 144 Z Z" stroke-miterlimit="10"/></g><g transform="translate(-38,-30) scale(1,1)"><rect fill="#ffffff" stroke="none" x="104" y="158" width="416" height="338"/></g><g transform="translate(-38,-30) scale(1,1)"><path fill="none" stroke="#000000" d="M 104 158 L 520 158 L 520 496 L 104 496 L 104 158 Z Z" stroke-miterlimit="10"/></g><g transform="translate(-38,-30) scale(1,1)"><g><path fill="none" stroke="none"/><text fill="#000000" stroke="none" font-family="Arial" font-size="13px" font-style="normal" font-weight="bold" text-decoration="none" x="285.266845703125" y="178.5">controller</text></g></g><g transform="translate(-38,-30) scale(1,1)"><g><path fill="none" stroke="none"/><text fill="#000000" stroke="none" font-family="Arial" font-size="13px" font-style="normal" font-weight="normal" text-decoration="none" x="236.13916015625" y="193.5">(from miage.pds.prospect)</text></g></g><g transform="translate(-38,-30) scale(1,1)"><rect fill="#C0C0C0" stroke="none" x="583" y="151" width="156.79999999999995" height="15" opacity="0.2"/></g><g transform="translate(-38,-30) scale(1,1)"><rect fill="#C0C0C0" stroke="none" x="583" y="165" width="392" height="362" opacity="0.2"/></g><g transform="translate(-38,-30) scale(1,1)"><rect fill="#ffffff" stroke="none" x="576" y="159" width="392" height="361"/></g><g transform="translate(-38,-30) scale(1,1)"><path fill="none" stroke="#000000" d="M 576 159 L 968 159 L 968 520 L 576 520 L 576 159 Z Z" stroke-miterlimit="10"/></g><g transform="translate(-38,-30) scale(1,1)"><rect fill="#ffffff" stroke="none" x="576" y="144" width="156.79999999999995" height="15"/></g><g transform="translate(-38,-30) scale(1,1)"><path fill="none" stroke="#000000" d="M 576 144 L 732.8 144 L 732.8 159 L 576 159 L 576 144 Z Z" stroke-miterlimit="10"/></g><g transform="translate(-38,-30) scale(1,1)"><rect fill="#ffffff" stroke="none" x="576" y="158" width="392" height="362"/></g><g transform="translate(-38,-30) scale(1,1)"><path fill="none" stroke="#000000" d="M 576 158 L 968 158 L 968 520 L 576 520 L 576 158 Z Z" stroke-miterlimit="10"/></g><g transform="translate(-38,-30) scale(1,1)"><g><path fill="none" stroke="none"/><text fill="#000000" stroke="none" font-family="Arial" font-size="13px" font-style="normal" font-weight="bold" text-decoration="none" x="754.29638671875" y="178.5">model</text></g></g><g transform="translate(-38,-30) scale(1,1)"><g><path fill="none" stroke="none"/><text fill="#000000" stroke="none" font-family="Arial" font-size="13px" font-style="normal" font-weight="normal" text-decoration="none" x="696.13916015625" y="193.5">(from miage.pds.prospect)</text></g></g><g transform="translate(-38,-30) scale(1,1)"><rect fill="#C0C0C0" stroke="none" x="695" y="247" width="121.70263671875" height="250" opacity="0.2"/></g><g transform="translate(-38,-30) scale(1,1)"><rect fill="#ffffff" stroke="none" x="688" y="240" width="121.70263671875" height="250"/></g><g transform="translate(-38,-30) scale(1,1)"><path fill="none" stroke="#000000" d="M 688 240 L 809.70263671875 240 L 809.70263671875 490 L 688 490 L 688 240 Z Z" stroke-miterlimit="10"/></g><g transform="translate(-38,-30) scale(1,1)"><path fill="none" stroke="#000000" d="M 688 280 L 809.70263671875 280" stroke-miterlimit="10"/></g><g transform="translate(-38,-30) scale(1,1)"><path fill="none" stroke="#000000" d="M 688 438 L 809.70263671875 438" stroke-miterlimit="10"/></g><g transform="translate(-38,-30) scale(1,1)"><g><path fill="none" stroke="none"/><text fill="#000000" stroke="none" font-family="Arial" font-size="13px" font-style="normal" font-weight="bold" text-decoration="none" x="723.200439453125" y="259.5">Prospect</text></g></g><g transform="translate(-38,-30) scale(1,1)"><g><path fill="none" stroke="none"/><text fill="#000000" stroke="none" font-family="Arial" font-size="13px" font-style="normal" font-weight="normal" text-decoration="none" x="712.0126953125" y="274.5">(from model)</text></g></g><g transform="translate(-38,-30) scale(1,1)"><g><path fill="none" stroke="none"/><text fill="#000000" stroke="none" font-family="Arial" font-size="13px" font-style="normal" font-weight="normal" text-decoration="none" x="693" y="297.5">-id: int</text></g></g><g transform="translate(-38,-30) scale(1,1)"><g><path fill="none" stroke="none"/><text fill="#000000" stroke="none" font-family="Arial" font-size="13px" font-style="normal" font-weight="normal" text-decoration="none" x="693" y="312.5">-name: String</text></g></g><g transform="translate(-38,-30) scale(1,1)"><g><path fill="none" stroke="none"/><text fill="#000000" stroke="none" font-family="Arial" font-size="13px" font-style="normal" font-weight="normal" text-decoration="none" x="693" y="327.5">-finessNumber: int</text></g></g><g transform="translate(-38,-30) scale(1,1)"><g><path fill="none" stroke="none"/><text fill="#000000" stroke="none" font-family="Arial" font-size="13px" font-style="normal" font-weight="normal" text-decoration="none" x="693" y="342.5">-siretNumber: int</text></g></g><g transform="translate(-38,-30) scale(1,1)"><g><path fill="none" stroke="none"/><text fill="#000000" stroke="none" font-family="Arial" font-size="13px" font-style="normal" font-weight="normal" text-decoration="none" x="693" y="357.5">-streetNumber: int</text></g></g><g transform="translate(-38,-30) scale(1,1)"><g><path fill="none" stroke="none"/><text fill="#000000" stroke="none" font-family="Arial" font-size="13px" font-style="normal" font-weight="normal" text-decoration="none" x="693" y="372.5">-zipCode: int</text></g></g><g transform="translate(-38,-30) scale(1,1)"><g><path fill="none" stroke="none"/><text fill="#000000" stroke="none" font-family="Arial" font-size="13px" font-style="normal" font-weight="normal" text-decoration="none" x="693" y="387.5">-streetName: String</text></g></g><g transform="translate(-38,-30) scale(1,1)"><g><path fill="none" stroke="none"/><text fill="#000000" stroke="none" font-family="Arial" font-size="13px" font-style="normal" font-weight="normal" text-decoration="none" x="693" y="402.5">-city: String</text></g></g><g transform="translate(-38,-30) scale(1,1)"><g><path fill="none" stroke="none"/><text fill="#000000" stroke="none" font-family="Arial" font-size="13px" font-style="normal" font-weight="normal" text-decoration="none" x="693" y="417.5">-place: int</text></g></g><g transform="translate(-38,-30) scale(1,1)"><g><path fill="none" stroke="none"/><text fill="#000000" stroke="none" font-family="Arial" font-size="13px" font-style="normal" font-weight="normal" text-decoration="none" x="693" y="432.5">-website: String</text></g></g><g transform="translate(-38,-30) scale(1,1)"><g><path fill="none" stroke="none"/><text fill="#000000" stroke="none" font-family="Arial" font-size="13px" font-style="normal" font-weight="normal" text-decoration="none" x="693" y="455.5">+getter()</text></g></g><g transform="translate(-38,-30) scale(1,1)"><g><path fill="none" stroke="none"/><text fill="#000000" stroke="none" font-family="Arial" font-size="13px" font-style="normal" font-weight="normal" text-decoration="none" x="693" y="470.5">+setter()</text></g></g><g transform="translate(-38,-30) scale(1,1)"><g><path fill="none" stroke="none"/><text fill="#000000" stroke="none" font-family="Arial" font-size="13px" font-style="normal" font-weight="normal" text-decoration="none" x="693" y="485.5">+toString()</text></g></g><g transform="translate(-38,-30) scale(1,1)"><rect fill="#C0C0C0" stroke="none" x="151" y="258" width="360.5078125" height="100" opacity="0.2"/></g><g transform="translate(-38,-30) scale(1,1)"><rect fill="#ffffff" stroke="none" x="144" y="251" width="360.5078125" height="100"/></g><g transform="translate(-38,-30) scale(1,1)"><path fill="none" stroke="#000000" d="M 144 251 L 504.5078125 251 L 504.5078125 351 L 144 351 L 144 251 Z Z" stroke-miterlimit="10"/></g><g transform="translate(-38,-30) scale(1,1)"><path fill="none" stroke="#000000" d="M 144 291 L 504.5078125 291" stroke-miterlimit="10"/></g><g transform="translate(-38,-30) scale(1,1)"><path fill="none" stroke="#000000" d="M 144 314 L 504.5078125 314" stroke-miterlimit="10"/></g><g transform="translate(-38,-30) scale(1,1)"><g><path fill="none" stroke="none"/><text fill="#000000" stroke="none" font-family="Arial" font-size="13px" font-style="normal" font-weight="bold" text-decoration="none" x="270.42578125" y="270.5">ProspectController</text></g></g><g transform="translate(-38,-30) scale(1,1)"><g><path fill="none" stroke="none"/><text fill="#000000" stroke="none" font-family="Arial" font-size="13px" font-style="normal" font-weight="normal" text-decoration="none" x="278.3857421875" y="285.5">(from controller)</text></g></g><g transform="translate(-38,-30) scale(1,1)"><g><path fill="none" stroke="none"/><text fill="#000000" stroke="none" font-family="Arial" font-size="13px" font-style="normal" font-weight="normal" text-decoration="none" x="149" y="308.5">-mongoService: MongoService</text></g></g><g transform="translate(-38,-30) scale(1,1)"><g><path fill="none" stroke="none"/><text fill="#000000" stroke="none" font-family="Arial" font-size="13px" font-style="normal" font-weight="normal" text-decoration="none" x="149" y="331.5">+analyzeProspectByPlaceNumber(HashMap User, Prospect)</text></g></g><g transform="translate(-38,-30) scale(1,1)"><g><path fill="none" stroke="none"/><text fill="#000000" stroke="none" font-family="Arial" font-size="13px" font-style="normal" font-weight="normal" text-decoration="none" x="149" y="346.5">+analyseProspect()</text></g></g><g transform="translate(-38,-30) scale(1,1)"><path fill="none" stroke="#000000" d="M 506 328 L 687 356" stroke-miterlimit="10"/></g></g></svg>