<svg version="1.1" xmlns="http://www.w3.org/2000/svg" xmlns:xlink="http://www.w3.org/1999/xlink" width="719" height="503"><defs/><g><g transform="translate(5,5) scale(1,1)"><path fill="none" stroke="#000000" d="M 5 5 L 704 5 L 704 488 L 5 488 L 5 5" stroke-miterlimit="10"/></g><g transform="translate(5,5) scale(1,1)"><path fill="#ffffff" stroke="none" d="M 5 5 L 5 27 L 474.0322265625 27 L 485.0322265625 16 L 485.0322265625 5 L 5 5"/></g><g transform="translate(5,5) scale(1,1)"><path fill="none" stroke="#000000" d="M 5 5 L 5 27 L 474.0322265625 27 L 485.0322265625 16 L 485.0322265625 5 L 5 5 L 5 5" stroke-miterlimit="10"/></g><g transform="translate(5,5) scale(1,1)"><g><path fill="none" stroke="none"/><text fill="#000000" stroke="none" font-family="Arial" font-size="13px" font-style="normal" font-weight="normal" text-decoration="none" x="75.97900390625" y="22.5">The system analyses the prospect list by their place number - DSCP</text></g></g><g transform="translate(5,5) scale(1,1)"><g><path fill="none" stroke="none"/><text fill="#000000" stroke="none" font-family="Arial" font-size="13px" font-style="normal" font-weight="bold" text-decoration="none" x="10" y="22.5">interaction</text></g></g><g transform="translate(5,5) scale(1,1)"><rect fill="#C0C0C0" stroke="none" x="111" y="47" width="136.74267578125" height="39" opacity="0.2"/></g><g transform="translate(5,5) scale(1,1)"><rect fill="#ffffff" stroke="none" x="104" y="40" width="136.74267578125" height="39"/></g><g transform="translate(5,5) scale(1,1)"><path fill="none" stroke="#000000" d="M 104 40 L 240.74267578125 40 L 240.74267578125 79 L 104 79 L 104 40 Z Z" stroke-miterlimit="10"/></g><g transform="translate(5,5) scale(1,1)"><g><path fill="none" stroke="none"/><text fill="#000000" stroke="none" font-family="Arial" font-size="13px" font-style="normal" font-weight="normal" text-decoration="none" x="138.408203125" y="57.5">«controller»</text></g></g><g transform="translate(5,5) scale(1,1)"><g><path fill="none" stroke="none"/><text fill="#000000" stroke="none" font-family="Arial" font-size="13px" font-style="normal" font-weight="bold" text-decoration="none" x="118.543212890625" y="72.5">ProspectController</text></g></g><g transform="translate(5,5) scale(1,1)"><path fill="none" stroke="#000000" d="M 173.5 80 L 173.5 432" stroke-miterlimit="10" stroke-dasharray="3"/></g><g transform="translate(5,5) scale(1,1)"><rect fill="#C0C0C0" stroke="none" x="431" y="47" width="74.630859375" height="39" opacity="0.2"/></g><g transform="translate(5,5) scale(1,1)"><rect fill="#ffffff" stroke="none" x="424" y="40" width="74.630859375" height="39"/></g><g transform="translate(5,5) scale(1,1)"><path fill="none" stroke="#000000" d="M 424 40 L 498.630859375 40 L 498.630859375 79 L 424 79 L 424 40 Z Z" stroke-miterlimit="10"/></g><g transform="translate(5,5) scale(1,1)"><g><path fill="none" stroke="none"/><text fill="#000000" stroke="none" font-family="Arial" font-size="13px" font-style="normal" font-weight="normal" text-decoration="none" x="436.3818359375" y="57.5">«model»</text></g></g><g transform="translate(5,5) scale(1,1)"><g><path fill="none" stroke="none"/><text fill="#000000" stroke="none" font-family="Arial" font-size="13px" font-style="normal" font-weight="bold" text-decoration="none" x="435.66455078125" y="72.5">Prospect</text></g></g><g transform="translate(5,5) scale(1,1)"><path fill="none" stroke="#000000" d="M 462.5 80 L 462.5 424" stroke-miterlimit="10" stroke-dasharray="3"/></g><g transform="translate(5,5) scale(1,1)"><path fill="none" stroke="#000000" d="M 40 120 L 647 120 L 647 375 L 40 375 L 40 120" stroke-miterlimit="10"/></g><g transform="translate(5,5) scale(1,1)"><path fill="#ffffff" stroke="none" d="M 40 120 L 40 142 L 259.048828125 142 L 270.048828125 131 L 270.048828125 120 L 40 120"/></g><g transform="translate(5,5) scale(1,1)"><path fill="none" stroke="#000000" d="M 40 120 L 40 142 L 259.048828125 142 L 270.048828125 131 L 270.048828125 120 L 40 120 L 40 120" stroke-miterlimit="10"/></g><g transform="translate(5,5) scale(1,1)"><g><path fill="none" stroke="none"/><text fill="#000000" stroke="none" font-family="Arial" font-size="13px" font-style="normal" font-weight="normal" text-decoration="none" x="71.9599609375" y="137.5">Prospect prospect: prospectList</text></g></g><g transform="translate(5,5) scale(1,1)"><g><path fill="none" stroke="none"/><text fill="#000000" stroke="none" font-family="Arial" font-size="13px" font-style="normal" font-weight="bold" text-decoration="none" x="45" y="137.5">seq</text></g></g><g transform="translate(5,5) scale(1,1)"><path fill="none" stroke="#000000" d="M 173 152 L 455 152" stroke-miterlimit="10"/></g><g transform="translate(5,5) scale(1,1)"><path fill="#000000" stroke="none" d="M 444.83732514237585 156.209517756016 L 455 152 L 444.83732514237585 147.790482243984"/></g><g transform="translate(5,5) scale(1,1)"><path fill="none" stroke="#000000" d="M 444.83732514237585 156.209517756016 L 455 152 L 444.83732514237585 147.790482243984 L 444.83732514237585 156.209517756016" stroke-miterlimit="10"/></g><g transform="translate(5,5) scale(1,1)"><g><path fill="none" stroke="none"/><text fill="#000000" stroke="none" font-family="Arial" font-size="13px" font-style="normal" font-weight="normal" text-decoration="none" x="275" y="140">1 : getPlace()</text></g></g><g transform="translate(5,5) scale(1,1)"><rect fill="#ffffff" stroke="none" x="455" y="152" width="13" height="40"/></g><g transform="translate(5,5) scale(1,1)"><path fill="none" stroke="#000000" d="M 455 152 L 468 152 L 468 192 L 455 192 L 455 152 Z Z" stroke-miterlimit="10"/></g><g transform="translate(5,5) scale(1,1)"><path fill="none" stroke="#000000" d="M 455 183 L 173 183" stroke-miterlimit="10" stroke-dasharray="3"/></g><g transform="translate(5,5) scale(1,1)"><path fill="none" stroke="#000000" d="M 183.16267485762415 178.790482243984 L 173 183 L 183.16267485762415 187.209517756016" stroke-miterlimit="10"/></g><g transform="translate(5,5) scale(1,1)"><g><path fill="none" stroke="none"/><text fill="#000000" stroke="none" font-family="Arial" font-size="13px" font-style="normal" font-weight="normal" text-decoration="none" x="270" y="200">2 : return place</text></g></g><g transform="translate(5,5) scale(1,1)"><path fill="none" stroke="#000000" d="M 173 208 L 203 208 L 203 228 L 179 228" stroke-miterlimit="10"/></g><g transform="translate(5,5) scale(1,1)"><path fill="#000000" stroke="none" d="M 189.16267485762415 223.790482243984 L 179 228 L 189.16267485762415 232.209517756016"/></g><g transform="translate(5,5) scale(1,1)"><path fill="none" stroke="#000000" d="M 189.16267485762415 223.790482243984 L 179 228 L 189.16267485762415 232.209517756016 L 189.16267485762415 223.790482243984" stroke-miterlimit="10"/></g><g transform="translate(5,5) scale(1,1)"><g><path fill="none" stroke="none"/><text fill="#000000" stroke="none" font-family="Arial" font-size="13px" font-style="normal" font-weight="normal" text-decoration="none" x="205" y="224">3 : max(placeList)</text></g></g><g transform="translate(5,5) scale(1,1)"><rect fill="#ffffff" stroke="none" x="166" y="228" width="13" height="28"/></g><g transform="translate(5,5) scale(1,1)"><path fill="none" stroke="#000000" d="M 166 228 L 179 228 L 179 256 L 166 256 L 166 228 Z Z" stroke-miterlimit="10"/></g><g transform="translate(5,5) scale(1,1)"><path fill="none" stroke="#000000" d="M 179 248 L 209 248 L 209 268 L 179 268" stroke-miterlimit="10"/></g><g transform="translate(5,5) scale(1,1)"><path fill="#000000" stroke="none" d="M 189.16267485762415 263.790482243984 L 179 268 L 189.16267485762415 272.209517756016"/></g><g transform="translate(5,5) scale(1,1)"><path fill="none" stroke="#000000" d="M 189.16267485762415 263.790482243984 L 179 268 L 189.16267485762415 272.209517756016 L 189.16267485762415 263.790482243984" stroke-miterlimit="10"/></g><g transform="translate(5,5) scale(1,1)"><g><path fill="none" stroke="none"/><text fill="#000000" stroke="none" font-family="Arial" font-size="13px" font-style="normal" font-weight="normal" text-decoration="none" x="223" y="264">4 : analyzeProspectByPlaceNumber(HashMapUser, Prospect)</text></g></g><g transform="translate(5,5) scale(1,1)"><rect fill="#ffffff" stroke="none" x="166" y="268" width="13" height="52"/></g><g transform="translate(5,5) scale(1,1)"><path fill="none" stroke="#000000" d="M 166 268 L 179 268 L 179 320 L 166 320 L 166 268 Z Z" stroke-miterlimit="10"/></g><g transform="translate(5,5) scale(1,1)"><path fill="none" stroke="#000000" d="M 179 288 L 209 288 L 209 308 L 179 308" stroke-miterlimit="10" stroke-dasharray="3"/></g><g transform="translate(5,5) scale(1,1)"><path fill="none" stroke="#000000" d="M 189.16267485762415 303.790482243984 L 179 308 L 189.16267485762415 312.209517756016" stroke-miterlimit="10"/></g><g transform="translate(5,5) scale(1,1)"><g><path fill="none" stroke="none"/><text fill="#000000" stroke="none" font-family="Arial" font-size="13px" font-style="normal" font-weight="normal" text-decoration="none" x="224" y="304">5 : return HashMap</text></g></g></g></svg>