<svg version="1.1" xmlns="http://www.w3.org/2000/svg" xmlns:xlink="http://www.w3.org/1999/xlink" width="824.44091796875" height="360"><defs/><g><g transform="translate(-190,-270) scale(1,1)"><rect fill="#C0C0C0" stroke="none" x="249" y="431" width="185.181640625" height="44" opacity="0.2"/></g><g transform="translate(-190,-270) scale(1,1)"><rect fill="#ffffff" stroke="none" x="242" y="424" width="185.181640625" height="44"/></g><g transform="translate(-190,-270) scale(1,1)"><path fill="none" stroke="#000000" d="M 242 424 L 427.181640625 424 L 427.181640625 468 L 242 468 L 242 424 Z Z" stroke-miterlimit="10"/></g><g transform="translate(-190,-270) scale(1,1)"><rect fill="#ffffff" stroke="none" x="232" y="431" width="20" height="10"/></g><g transform="translate(-190,-270) scale(1,1)"><path fill="none" stroke="#000000" d="M 232 431 L 252 431 L 252 441 L 232 441 L 232 431 Z Z" stroke-miterlimit="10"/></g><g transform="translate(-190,-270) scale(1,1)"><rect fill="#ffffff" stroke="none" x="232" y="451" width="20" height="10"/></g><g transform="translate(-190,-270) scale(1,1)"><path fill="none" stroke="#000000" d="M 232 451 L 252 451 L 252 461 L 232 461 L 232 451 Z Z" stroke-miterlimit="10"/></g><g transform="translate(-190,-270) scale(1,1)"><g><path fill="none" stroke="none"/><text fill="#000000" stroke="none" font-family="Arial" font-size="13px" font-style="normal" font-weight="normal" text-decoration="none" x="321.88720703125" y="441.5">«war»</text></g></g><g transform="translate(-190,-270) scale(1,1)"><g><path fill="none" stroke="none"/><text fill="#000000" stroke="none" font-family="Arial" font-size="13px" font-style="normal" font-weight="bold" text-decoration="none" x="258.67724609375" y="456.5">RestServer SNAPSHOT 1.0</text></g></g><g transform="translate(-190,-270) scale(1,1)"><rect fill="#C0C0C0" stroke="none" x="489" y="295" width="98.44091796875" height="44" opacity="0.2"/></g><g transform="translate(-190,-270) scale(1,1)"><rect fill="#ffffff" stroke="none" x="482" y="288" width="98.44091796875" height="44"/></g><g transform="translate(-190,-270) scale(1,1)"><path fill="none" stroke="#000000" d="M 482 288 L 580.44091796875 288 L 580.44091796875 332 L 482 332 L 482 288 Z Z" stroke-miterlimit="10"/></g><g transform="translate(-190,-270) scale(1,1)"><rect fill="#ffffff" stroke="none" x="472" y="295" width="20" height="10"/></g><g transform="translate(-190,-270) scale(1,1)"><path fill="none" stroke="#000000" d="M 472 295 L 492 295 L 492 305 L 472 305 L 472 295 Z Z" stroke-miterlimit="10"/></g><g transform="translate(-190,-270) scale(1,1)"><rect fill="#ffffff" stroke="none" x="472" y="315" width="20" height="10"/></g><g transform="translate(-190,-270) scale(1,1)"><path fill="none" stroke="#000000" d="M 472 315 L 492 315 L 492 325 L 472 325 L 472 315 Z Z" stroke-miterlimit="10"/></g><g transform="translate(-190,-270) scale(1,1)"><g><path fill="none" stroke="none"/><text fill="#000000" stroke="none" font-family="Arial" font-size="13px" font-style="normal" font-weight="normal" text-decoration="none" x="520.31640625" y="305.5">«api»</text></g></g><g transform="translate(-190,-270) scale(1,1)"><g><path fill="none" stroke="none"/><text fill="#000000" stroke="none" font-family="Arial" font-size="13px" font-style="normal" font-weight="bold" text-decoration="none" x="518.52001953125" y="320.5">JRE 8</text></g></g><g transform="translate(-190,-270) scale(1,1)"><rect fill="#C0C0C0" stroke="none" x="217" y="287" width="98.44091796875" height="44" opacity="0.2"/></g><g transform="translate(-190,-270) scale(1,1)"><rect fill="#ffffff" stroke="none" x="210" y="280" width="98.44091796875" height="44"/></g><g transform="translate(-190,-270) scale(1,1)"><path fill="none" stroke="#000000" d="M 210 280 L 308.44091796875 280 L 308.44091796875 324 L 210 324 L 210 280 Z Z" stroke-miterlimit="10"/></g><g transform="translate(-190,-270) scale(1,1)"><rect fill="#ffffff" stroke="none" x="200" y="287" width="20" height="10"/></g><g transform="translate(-190,-270) scale(1,1)"><path fill="none" stroke="#000000" d="M 200 287 L 220 287 L 220 297 L 200 297 L 200 287 Z Z" stroke-miterlimit="10"/></g><g transform="translate(-190,-270) scale(1,1)"><rect fill="#ffffff" stroke="none" x="200" y="307" width="20" height="10"/></g><g transform="translate(-190,-270) scale(1,1)"><path fill="none" stroke="#000000" d="M 200 307 L 220 307 L 220 317 L 200 317 L 200 307 Z Z" stroke-miterlimit="10"/></g><g transform="translate(-190,-270) scale(1,1)"><g><path fill="none" stroke="none"/><text fill="#000000" stroke="none" font-family="Arial" font-size="13px" font-style="normal" font-weight="normal" text-decoration="none" x="249.766845703125" y="297.5">«jar»</text></g></g><g transform="translate(-190,-270) scale(1,1)"><g><path fill="none" stroke="none"/><text fill="#000000" stroke="none" font-family="Arial" font-size="13px" font-style="normal" font-weight="bold" text-decoration="none" x="237.128662109375" y="312.5">Tomcat 8</text></g></g><g transform="translate(-190,-270) scale(1,1)"><rect fill="#C0C0C0" stroke="none" x="281" y="583" width="102.078125" height="44" opacity="0.2"/></g><g transform="translate(-190,-270) scale(1,1)"><rect fill="#ffffff" stroke="none" x="274" y="576" width="102.078125" height="44"/></g><g transform="translate(-190,-270) scale(1,1)"><path fill="none" stroke="#000000" d="M 274 576 L 376.078125 576 L 376.078125 620 L 274 620 L 274 576 Z Z" stroke-miterlimit="10"/></g><g transform="translate(-190,-270) scale(1,1)"><rect fill="#ffffff" stroke="none" x="264" y="583" width="20" height="10"/></g><g transform="translate(-190,-270) scale(1,1)"><path fill="none" stroke="#000000" d="M 264 583 L 284 583 L 284 593 L 264 593 L 264 583 Z Z" stroke-miterlimit="10"/></g><g transform="translate(-190,-270) scale(1,1)"><rect fill="#ffffff" stroke="none" x="264" y="603" width="20" height="10"/></g><g transform="translate(-190,-270) scale(1,1)"><path fill="none" stroke="#000000" d="M 264 603 L 284 603 L 284 613 L 264 613 L 264 603 Z Z" stroke-miterlimit="10"/></g><g transform="translate(-190,-270) scale(1,1)"><g><path fill="none" stroke="none"/><text fill="#000000" stroke="none" font-family="Arial" font-size="13px" font-style="normal" font-weight="normal" text-decoration="none" x="315.58544921875" y="593.5">«jar»</text></g></g><g transform="translate(-190,-270) scale(1,1)"><g><path fill="none" stroke="none"/><text fill="#000000" stroke="none" font-family="Arial" font-size="13px" font-style="normal" font-weight="bold" text-decoration="none" x="290.293212890625" y="608.5">Morphia 1.0.1</text></g></g><g transform="translate(-190,-270) scale(1,1)"><rect fill="#C0C0C0" stroke="none" x="913" y="431" width="98.44091796875" height="44" opacity="0.2"/></g><g transform="translate(-190,-270) scale(1,1)"><rect fill="#ffffff" stroke="none" x="906" y="424" width="98.44091796875" height="44"/></g><g transform="translate(-190,-270) scale(1,1)"><path fill="none" stroke="#000000" d="M 906 424 L 1004.44091796875 424 L 1004.44091796875 468 L 906 468 L 906 424 Z Z" stroke-miterlimit="10"/></g><g transform="translate(-190,-270) scale(1,1)"><rect fill="#ffffff" stroke="none" x="896" y="431" width="20" height="10"/></g><g transform="translate(-190,-270) scale(1,1)"><path fill="none" stroke="#000000" d="M 896 431 L 916 431 L 916 441 L 896 441 L 896 431 Z Z" stroke-miterlimit="10"/></g><g transform="translate(-190,-270) scale(1,1)"><rect fill="#ffffff" stroke="none" x="896" y="451" width="20" height="10"/></g><g transform="translate(-190,-270) scale(1,1)"><path fill="none" stroke="#000000" d="M 896 451 L 916 451 L 916 461 L 896 461 L 896 451 Z Z" stroke-miterlimit="10"/></g><g transform="translate(-190,-270) scale(1,1)"><g><path fill="none" stroke="none"/><text fill="#000000" stroke="none" font-family="Arial" font-size="13px" font-style="normal" font-weight="normal" text-decoration="none" x="932.754150390625" y="441.5">«noSQL»</text></g></g><g transform="translate(-190,-270) scale(1,1)"><g><path fill="none" stroke="none"/><text fill="#000000" stroke="none" font-family="Arial" font-size="13px" font-style="normal" font-weight="bold" text-decoration="none" x="931.31640625" y="456.5">MongoDB</text></g></g><g transform="translate(-190,-270) scale(1,1)"><path fill="#C0C0C0" stroke="none" d="M 646.7099609375 458.5 C 646.7099609375 452.1487248 651.8586857375 447 658.2099609375 447 C 664.5612361375 447 669.7099609375 452.1487248 669.7099609375 458.5 C 669.7099609375 464.8512752 664.5612361375 470 658.2099609375 470 C 651.8586857375 470 646.7099609375 464.8512752 646.7099609375 458.5 Z" opacity="0.2"/></g><g transform="translate(-190,-270) scale(1,1)"><path fill="none" stroke="#000000" d="M 651 462.5 A 11.5 11.5 0 0 1 651 439.5" stroke-miterlimit="10"/></g><g transform="translate(-190,-270) scale(1,1)"><path fill="#ffffff" stroke="none" d="M 642.7099609375 451.5 C 642.7099609375 446.8055792 646.5155401375 443 651.2099609375 443 C 655.9043817375 443 659.7099609375 446.8055792 659.7099609375 451.5 C 659.7099609375 456.1944208 655.9043817375 460 651.2099609375 460 C 646.5155401375 460 642.7099609375 456.1944208 642.7099609375 451.5 Z"/></g><g transform="translate(-190,-270) scale(1,1)"><path fill="none" stroke="#000000" d="M 642.7099609375 451.5 C 642.7099609375 446.8055792 646.5155401375 443 651.2099609375 443 C 655.9043817375 443 659.7099609375 446.8055792 659.7099609375 451.5 C 659.7099609375 456.1944208 655.9043817375 460 651.2099609375 460 C 646.5155401375 460 642.7099609375 456.1944208 642.7099609375 451.5 Z" stroke-miterlimit="10"/></g><g transform="translate(-190,-270) scale(1,1)"><g><path fill="none" stroke="none"/><text fill="#000000" stroke="none" font-family="Arial" font-size="13px" font-style="normal" font-weight="bold" text-decoration="none" x="633.87451171875" y="482.5">JSON</text></g></g><g transform="translate(-190,-270) scale(1,1)"><path fill="none" stroke="#000000" d="M 344 424 L 344 312 L 308 312" stroke-miterlimit="10" stroke-dasharray="3"/></g><g transform="translate(-190,-270) scale(1,1)"><path fill="none" stroke="#000000" d="M 318.16267485762415 307.790482243984 L 308 312 L 318.16267485762415 316.209517756016" stroke-miterlimit="10"/></g><g transform="translate(-190,-270) scale(1,1)"><path fill="none" stroke="#000000" d="M 344 424 L 344 312 L 472 312" stroke-miterlimit="10" stroke-dasharray="3"/></g><g transform="translate(-190,-270) scale(1,1)"><path fill="none" stroke="#000000" d="M 461.83732514237585 316.209517756016 L 472 312 L 461.83732514237585 307.790482243984" stroke-miterlimit="10"/></g><g transform="translate(-190,-270) scale(1,1)"><path fill="none" stroke="#000000" d="M 328 468 L 328 576" stroke-miterlimit="10" stroke-dasharray="3"/></g><g transform="translate(-190,-270) scale(1,1)"><path fill="none" stroke="#000000" d="M 323.790482243984 565.8373251423759 L 328 576 L 332.209517756016 565.8373251423759" stroke-miterlimit="10"/></g><g transform="translate(-190,-270) scale(1,1)"><path fill="none" stroke="#000000" d="M 427 451 L 639.7099609375 451" stroke-miterlimit="10"/></g><g transform="translate(-190,-270) scale(1,1)"><path fill="none" stroke="#000000" d="M 896 451 L 662.7099609375 451" stroke-miterlimit="10"/></g></g></svg>