<svg version="1.1" xmlns="http://www.w3.org/2000/svg" xmlns:xlink="http://www.w3.org/1999/xlink" width="1060" height="634"><defs/><g><g transform="translate(10,-6) scale(1,1)"><path fill="none" stroke="#000000" d="M 0 16 L 1040 16 L 1040 610 L 0 610 L 0 16" stroke-miterlimit="10"/></g><g transform="translate(10,-6) scale(1,1)"><path fill="#ffffff" stroke="none" d="M 0 16 L 0 38 L 314.42236328125 38 L 325.42236328125 27 L 325.42236328125 16 L 0 16"/></g><g transform="translate(10,-6) scale(1,1)"><path fill="none" stroke="#000000" d="M 0 16 L 0 38 L 314.42236328125 38 L 325.42236328125 27 L 325.42236328125 16 L 0 16 L 0 16" stroke-miterlimit="10"/></g><g transform="translate(10,-6) scale(1,1)"><g><path fill="none" stroke="none"/><text fill="#000000" stroke="none" font-family="Arial" font-size="13px" font-style="normal" font-weight="normal" text-decoration="none" x="70.97900390625" y="33.5">A user logs a call in the CRM Application </text></g></g><g transform="translate(10,-6) scale(1,1)"><g><path fill="none" stroke="none"/><text fill="#000000" stroke="none" font-family="Arial" font-size="13px" font-style="normal" font-weight="bold" text-decoration="none" x="5" y="33.5">interaction</text></g></g><g transform="translate(10,-6) scale(1,1)"><rect fill="#C0C0C0" stroke="none" x="687" y="47" width="167.08447265625" height="39" opacity="0.2"/></g><g transform="translate(10,-6) scale(1,1)"><rect fill="#ffffff" stroke="none" x="680" y="40" width="167.08447265625" height="39"/></g><g transform="translate(10,-6) scale(1,1)"><path fill="none" stroke="#000000" d="M 680 40 L 847.08447265625 40 L 847.08447265625 79 L 680 79 L 680 40 Z Z" stroke-miterlimit="10"/></g><g transform="translate(10,-6) scale(1,1)"><g><path fill="none" stroke="none"/><text fill="#000000" stroke="none" font-family="Arial" font-size="13px" font-style="normal" font-weight="bold" text-decoration="none" x="712.6181640625" y="59.5">CRM Rest Server</text></g></g><g transform="translate(10,-6) scale(1,1)"><path fill="none" stroke="#000000" d="M 764.5 80 L 764.5 549" stroke-miterlimit="10" stroke-dasharray="3"/></g><g transform="translate(10,-6) scale(1,1)"><rect fill="#C0C0C0" stroke="none" x="167" y="47" width="71.736328125" height="39" opacity="0.2"/></g><g transform="translate(10,-6) scale(1,1)"><rect fill="#ffffff" stroke="none" x="160" y="40" width="71.736328125" height="39"/></g><g transform="translate(10,-6) scale(1,1)"><path fill="none" stroke="#000000" d="M 160 40 L 231.736328125 40 L 231.736328125 79 L 160 79 L 160 40 Z Z" stroke-miterlimit="10"/></g><g transform="translate(10,-6) scale(1,1)"><g><path fill="none" stroke="none"/><text fill="#000000" stroke="none" font-family="Arial" font-size="13px" font-style="normal" font-weight="bold" text-decoration="none" x="175.28271484375" y="59.5">Activity</text></g></g><g transform="translate(10,-6) scale(1,1)"><path fill="none" stroke="#000000" d="M 196.5 80 L 196.5 630" stroke-miterlimit="10" stroke-dasharray="3"/></g><g transform="translate(10,-6) scale(1,1)"><rect fill="#C0C0C0" stroke="none" x="359" y="47" width="71.736328125" height="39" opacity="0.2"/></g><g transform="translate(10,-6) scale(1,1)"><rect fill="#ffffff" stroke="none" x="352" y="40" width="71.736328125" height="39"/></g><g transform="translate(10,-6) scale(1,1)"><path fill="none" stroke="#000000" d="M 352 40 L 423.736328125 40 L 423.736328125 79 L 352 79 L 352 40 Z Z" stroke-miterlimit="10"/></g><g transform="translate(10,-6) scale(1,1)"><g><path fill="none" stroke="none"/><text fill="#000000" stroke="none" font-family="Arial" font-size="13px" font-style="normal" font-weight="bold" text-decoration="none" x="374.14453125" y="59.5">User</text></g></g><g transform="translate(10,-6) scale(1,1)"><path fill="none" stroke="#000000" d="M 388.5 80 L 388.5 626" stroke-miterlimit="10" stroke-dasharray="3"/></g><g transform="translate(10,-6) scale(1,1)"><rect fill="#C0C0C0" stroke="none" x="479" y="47" width="133.892578125" height="39" opacity="0.2"/></g><g transform="translate(10,-6) scale(1,1)"><rect fill="#ffffff" stroke="none" x="472" y="40" width="133.892578125" height="39"/></g><g transform="translate(10,-6) scale(1,1)"><path fill="none" stroke="#000000" d="M 472 40 L 605.892578125 40 L 605.892578125 79 L 472 79 L 472 40 Z Z" stroke-miterlimit="10"/></g><g transform="translate(10,-6) scale(1,1)"><g><path fill="none" stroke="none"/><text fill="#000000" stroke="none" font-family="Arial" font-size="13px" font-style="normal" font-weight="bold" text-decoration="none" x="503.548583984375" y="59.5">CRAService</text></g></g><g transform="translate(10,-6) scale(1,1)"><path fill="none" stroke="#000000" d="M 539.5 80 L 539.5 561" stroke-miterlimit="10" stroke-dasharray="3"/></g><g transform="translate(10,-6) scale(1,1)"><rect fill="#C0C0C0" stroke="none" x="7" y="47" width="87.6689453125" height="39" opacity="0.2"/></g><g transform="translate(10,-6) scale(1,1)"><rect fill="#ffffff" stroke="none" x="0" y="40" width="87.6689453125" height="39"/></g><g transform="translate(10,-6) scale(1,1)"><path fill="none" stroke="#000000" d="M 0 40 L 87.6689453125 40 L 87.6689453125 79 L 0 79 L 0 40 Z Z" stroke-miterlimit="10"/></g><g transform="translate(10,-6) scale(1,1)"><g><path fill="none" stroke="none"/><text fill="#000000" stroke="none" font-family="Arial" font-size="13px" font-style="normal" font-weight="bold" text-decoration="none" x="16.0126953125" y="59.5">EventBus</text></g></g><g transform="translate(10,-6) scale(1,1)"><path fill="none" stroke="#000000" d="M 44.5 80 L 44.5 306" stroke-miterlimit="10" stroke-dasharray="3"/></g><g transform="translate(10,-6) scale(1,1)"><path fill="none" stroke="#000000" d="M 116 104 L 116 247" stroke-miterlimit="10" stroke-dasharray="3"/></g><g transform="translate(10,-6) scale(1,1)"><path fill="#ffffff" stroke="none" d="M 64 248 L 157 248 L 167 258 L 167 310 L 64 310 L 64 248"/></g><g transform="translate(10,-6) scale(1,1)"><path fill="none" stroke="#000000" d="M 64 248 L 157 248 L 167 258 L 167 310 L 64 310 L 64 248 L 64 248" stroke-miterlimit="10"/></g><g transform="translate(10,-6) scale(1,1)"><path fill="none" stroke="#000000" d="M 157 248 L 157 258 L 167 258 L 157 248" stroke-miterlimit="10"/></g><g transform="translate(10,-6) scale(1,1)"><g><path fill="none" stroke="none"/><text fill="#000000" stroke="none" font-family="Arial" font-size="13px" font-style="normal" font-weight="normal" text-decoration="none" x="69" y="266">on call ended</text><text fill="#000000" stroke="none" font-family="Arial" font-size="13px" font-style="normal" font-weight="normal" text-decoration="none" x="69" y="279">event received</text></g></g><g transform="translate(10,-6) scale(1,1)"><path fill="none" stroke="#000000" d="M 44 104 L 189 104" stroke-miterlimit="10"/></g><g transform="translate(10,-6) scale(1,1)"><path fill="#000000" stroke="none" d="M 178.83732514237585 108.20951775601598 L 189 104 L 178.83732514237585 99.79048224398402"/></g><g transform="translate(10,-6) scale(1,1)"><path fill="none" stroke="#000000" d="M 178.83732514237585 108.20951775601598 L 189 104 L 178.83732514237585 99.79048224398402 L 178.83732514237585 108.20951775601598" stroke-miterlimit="10"/></g><g transform="translate(10,-6) scale(1,1)"><g><path fill="none" stroke="none"/><text fill="#000000" stroke="none" font-family="Arial" font-size="13px" font-style="normal" font-weight="normal" text-decoration="none" x="61" y="101">1 : LaunchAcitivty()</text></g></g><g transform="translate(10,-6) scale(1,1)"><rect fill="#ffffff" stroke="none" x="189" y="104" width="13" height="28"/></g><g transform="translate(10,-6) scale(1,1)"><path fill="none" stroke="#000000" d="M 189 104 L 202 104 L 202 132 L 189 132 L 189 104 Z Z" stroke-miterlimit="10"/></g><g transform="translate(10,-6) scale(1,1)"><path fill="none" stroke="#000000" d="M 202 120 L 381 120" stroke-miterlimit="10"/></g><g transform="translate(10,-6) scale(1,1)"><path fill="#000000" stroke="none" d="M 370.83732514237585 124.20951775601598 L 381 120 L 370.83732514237585 115.79048224398402"/></g><g transform="translate(10,-6) scale(1,1)"><path fill="none" stroke="#000000" d="M 370.83732514237585 124.20951775601598 L 381 120 L 370.83732514237585 115.79048224398402 L 370.83732514237585 124.20951775601598" stroke-miterlimit="10"/></g><g transform="translate(10,-6) scale(1,1)"><g><path fill="none" stroke="none"/><text fill="#000000" stroke="none" font-family="Arial" font-size="13px" font-style="normal" font-weight="normal" text-decoration="none" x="243" y="117">2 : Register call?</text></g></g><g transform="translate(10,-6) scale(1,1)"><rect fill="#ffffff" stroke="none" x="381" y="120" width="13" height="56"/></g><g transform="translate(10,-6) scale(1,1)"><path fill="none" stroke="#000000" d="M 381 120 L 394 120 L 394 176 L 381 176 L 381 120 Z Z" stroke-miterlimit="10"/></g><g transform="translate(10,-6) scale(1,1)"><path fill="none" stroke="#000000" d="M 381 160 L 202 160" stroke-miterlimit="10"/></g><g transform="translate(10,-6) scale(1,1)"><path fill="#000000" stroke="none" d="M 212.16267485762415 155.790482243984 L 202 160 L 212.16267485762415 164.209517756016"/></g><g transform="translate(10,-6) scale(1,1)"><path fill="none" stroke="#000000" d="M 212.16267485762415 155.790482243984 L 202 160 L 212.16267485762415 164.209517756016 L 212.16267485762415 155.790482243984" stroke-miterlimit="10"/></g><g transform="translate(10,-6) scale(1,1)"><g><path fill="none" stroke="none"/><text fill="#000000" stroke="none" font-family="Arial" font-size="13px" font-style="normal" font-weight="normal" text-decoration="none" x="244" y="177">3 : yes (register)</text></g></g><g transform="translate(10,-6) scale(1,1)"><rect fill="#ffffff" stroke="none" x="189" y="160" width="13" height="45"/></g><g transform="translate(10,-6) scale(1,1)"><path fill="none" stroke="#000000" d="M 189 160 L 202 160 L 202 205 L 189 205 L 189 160 Z Z" stroke-miterlimit="10"/></g><g transform="translate(10,-6) scale(1,1)"><path fill="none" stroke="#000000" d="M 196 216 L 388 216" stroke-miterlimit="10" stroke-dasharray="3"/></g><g transform="translate(10,-6) scale(1,1)"><path fill="none" stroke="#000000" d="M 377.83732514237585 220.209517756016 L 388 216 L 377.83732514237585 211.790482243984" stroke-miterlimit="10"/></g><g transform="translate(10,-6) scale(1,1)"><g><path fill="none" stroke="none"/><text fill="#000000" stroke="none" font-family="Arial" font-size="13px" font-style="normal" font-weight="normal" text-decoration="none" x="247" y="213">4 : show activity</text></g></g><g transform="translate(10,-6) scale(1,1)"><path fill="none" stroke="#000000" d="M 388 248 L 202 248" stroke-miterlimit="10"/></g><g transform="translate(10,-6) scale(1,1)"><path fill="#000000" stroke="none" d="M 212.16267485762415 243.790482243984 L 202 248 L 212.16267485762415 252.209517756016"/></g><g transform="translate(10,-6) scale(1,1)"><path fill="none" stroke="#000000" d="M 212.16267485762415 243.790482243984 L 202 248 L 212.16267485762415 252.209517756016 L 212.16267485762415 243.790482243984" stroke-miterlimit="10"/></g><g transform="translate(10,-6) scale(1,1)"><g><path fill="none" stroke="none"/><text fill="#000000" stroke="none" font-family="Arial" font-size="13px" font-style="normal" font-weight="normal" text-decoration="none" x="251" y="265">5 : submitForm</text></g></g><g transform="translate(10,-6) scale(1,1)"><rect fill="#ffffff" stroke="none" x="189" y="248" width="13" height="28"/></g><g transform="translate(10,-6) scale(1,1)"><path fill="none" stroke="#000000" d="M 189 248 L 202 248 L 202 276 L 189 276 L 189 248 Z Z" stroke-miterlimit="10"/></g><g transform="translate(10,-6) scale(1,1)"><path fill="none" stroke="#000000" d="M 196 304 L 226 304 L 226 324 L 202 324" stroke-miterlimit="10"/></g><g transform="translate(10,-6) scale(1,1)"><path fill="#000000" stroke="none" d="M 212.16267485762415 319.790482243984 L 202 324 L 212.16267485762415 328.209517756016"/></g><g transform="translate(10,-6) scale(1,1)"><path fill="none" stroke="#000000" d="M 212.16267485762415 319.790482243984 L 202 324 L 212.16267485762415 328.209517756016 L 212.16267485762415 319.790482243984" stroke-miterlimit="10"/></g><g transform="translate(10,-6) scale(1,1)"><g><path fill="none" stroke="none"/><text fill="#000000" stroke="none" font-family="Arial" font-size="13px" font-style="normal" font-weight="normal" text-decoration="none" x="207" y="320">6 : createJsonMsg</text></g></g><g transform="translate(10,-6) scale(1,1)"><rect fill="#ffffff" stroke="none" x="189" y="324" width="13" height="28"/></g><g transform="translate(10,-6) scale(1,1)"><path fill="none" stroke="#000000" d="M 189 324 L 202 324 L 202 352 L 189 352 L 189 324 Z Z" stroke-miterlimit="10"/></g><g transform="translate(10,-6) scale(1,1)"><path fill="none" stroke="#000000" d="M 196 376 L 532 376" stroke-miterlimit="10"/></g><g transform="translate(10,-6) scale(1,1)"><path fill="#000000" stroke="none" d="M 521.8373251423759 380.209517756016 L 532 376 L 521.8373251423758 371.790482243984"/></g><g transform="translate(10,-6) scale(1,1)"><path fill="none" stroke="#000000" d="M 521.8373251423759 380.209517756016 L 532 376 L 521.8373251423758 371.790482243984 L 521.8373251423759 380.209517756016" stroke-miterlimit="10"/></g><g transform="translate(10,-6) scale(1,1)"><g><path fill="none" stroke="none"/><text fill="#000000" stroke="none" font-family="Arial" font-size="13px" font-style="normal" font-weight="normal" text-decoration="none" x="303" y="372">7 : callService(msg)</text></g></g><g transform="translate(10,-6) scale(1,1)"><rect fill="#ffffff" stroke="none" x="532" y="376" width="13" height="28"/></g><g transform="translate(10,-6) scale(1,1)"><path fill="none" stroke="#000000" d="M 532 376 L 545 376 L 545 404 L 532 404 L 532 376 Z Z" stroke-miterlimit="10"/></g><g transform="translate(10,-6) scale(1,1)"><path fill="none" stroke="#000000" d="M 545 400 L 757 400" stroke-miterlimit="10"/></g><g transform="translate(10,-6) scale(1,1)"><path fill="#000000" stroke="none" d="M 746.8373251423759 404.209517756016 L 757 400 L 746.8373251423758 395.790482243984"/></g><g transform="translate(10,-6) scale(1,1)"><path fill="none" stroke="#000000" d="M 746.8373251423759 404.209517756016 L 757 400 L 746.8373251423758 395.790482243984 L 746.8373251423759 404.209517756016" stroke-miterlimit="10"/></g><g transform="translate(10,-6) scale(1,1)"><g><path fill="none" stroke="none"/><text fill="#000000" stroke="none" font-family="Arial" font-size="13px" font-style="normal" font-weight="normal" text-decoration="none" x="582" y="397">8 : Post /createcra(msg)</text></g></g><g transform="translate(10,-6) scale(1,1)"><g><path fill="none" stroke="none"/><text fill="#000000" stroke="none" font-family="Arial" font-size="13px" font-style="normal" font-weight="normal" text-decoration="none" x="619" y="421">«http»</text></g></g><g transform="translate(10,-6) scale(1,1)"><rect fill="#ffffff" stroke="none" x="757" y="400" width="13" height="48"/></g><g transform="translate(10,-6) scale(1,1)"><path fill="none" stroke="#000000" d="M 757 400 L 770 400 L 770 448 L 757 448 L 757 400 Z Z" stroke-miterlimit="10"/></g><g transform="translate(10,-6) scale(1,1)"><path fill="none" stroke="#000000" d="M 770 440 L 800 440 L 800 460 L 770 460" stroke-miterlimit="10"/></g><g transform="translate(10,-6) scale(1,1)"><path fill="#000000" stroke="none" d="M 780.1626748576241 455.790482243984 L 770 460 L 780.1626748576241 464.209517756016"/></g><g transform="translate(10,-6) scale(1,1)"><path fill="none" stroke="#000000" d="M 780.1626748576241 455.790482243984 L 770 460 L 780.1626748576241 464.209517756016 L 780.1626748576241 455.790482243984" stroke-miterlimit="10"/></g><g transform="translate(10,-6) scale(1,1)"><g><path fill="none" stroke="none"/><text fill="#000000" stroke="none" font-family="Arial" font-size="13px" font-style="normal" font-weight="normal" text-decoration="none" x="776" y="456">9 : saveCraInDb(msg)</text></g></g><g transform="translate(10,-6) scale(1,1)"><rect fill="#ffffff" stroke="none" x="757" y="460" width="13" height="28"/></g><g transform="translate(10,-6) scale(1,1)"><path fill="none" stroke="#000000" d="M 757 460 L 770 460 L 770 488 L 757 488 L 757 460 Z Z" stroke-miterlimit="10"/></g><g transform="translate(10,-6) scale(1,1)"><path fill="none" stroke="#000000" d="M 196 456 L 388 456" stroke-miterlimit="10" stroke-dasharray="3"/></g><g transform="translate(10,-6) scale(1,1)"><path fill="none" stroke="#000000" d="M 377.83732514237585 460.209517756016 L 388 456 L 377.83732514237585 451.790482243984" stroke-miterlimit="10"/></g><g transform="translate(10,-6) scale(1,1)"><g><path fill="none" stroke="none"/><text fill="#000000" stroke="none" font-family="Arial" font-size="13px" font-style="normal" font-weight="normal" text-decoration="none" x="246" y="453">10 : show status</text></g></g><g transform="translate(10,-6) scale(1,1)"><path fill="none" stroke="#000000" d="M 764 504 L 539 504" stroke-miterlimit="10" stroke-dasharray="3"/></g><g transform="translate(10,-6) scale(1,1)"><path fill="none" stroke="#000000" d="M 549.1626748576241 499.790482243984 L 539 504 L 549.1626748576241 508.209517756016" stroke-miterlimit="10"/></g><g transform="translate(10,-6) scale(1,1)"><g><path fill="none" stroke="none"/><text fill="#000000" stroke="none" font-family="Arial" font-size="13px" font-style="normal" font-weight="normal" text-decoration="none" x="592" y="521">11 : response status</text></g></g><g transform="translate(10,-6) scale(1,1)"><g><path fill="none" stroke="none"/><text fill="#000000" stroke="none" font-family="Arial" font-size="13px" font-style="normal" font-weight="normal" text-decoration="none" x="632" y="536">«http»</text></g></g><g transform="translate(10,-6) scale(1,1)"><path fill="none" stroke="#000000" d="M 539 531 L 196 531" stroke-miterlimit="10" stroke-dasharray="3"/></g><g transform="translate(10,-6) scale(1,1)"><path fill="none" stroke="#000000" d="M 206.16267485762415 526.790482243984 L 196 531 L 206.16267485762415 535.209517756016" stroke-miterlimit="10"/></g><g transform="translate(10,-6) scale(1,1)"><g><path fill="none" stroke="none"/><text fill="#000000" stroke="none" font-family="Arial" font-size="13px" font-style="normal" font-weight="normal" text-decoration="none" x="311" y="548">12 : reponse status</text></g></g><g transform="translate(10,-6) scale(1,1)"><path fill="none" stroke="#000000" d="M 196 584 L 381 584" stroke-miterlimit="10"/></g><g transform="translate(10,-6) scale(1,1)"><path fill="none" stroke="#000000" d="M 370.83732514237585 588.209517756016 L 381 584 L 370.83732514237585 579.790482243984" stroke-miterlimit="10"/></g><g transform="translate(10,-6) scale(1,1)"><g><path fill="none" stroke="none"/><text fill="#000000" stroke="none" font-family="Arial" font-size="13px" font-style="normal" font-weight="normal" text-decoration="none" x="235" y="581">13 : show reponse</text></g></g><g transform="translate(10,-6) scale(1,1)"><rect fill="#ffffff" stroke="none" x="381" y="584" width="13" height="28"/></g><g transform="translate(10,-6) scale(1,1)"><path fill="none" stroke="#000000" d="M 381 584 L 394 584 L 394 612 L 381 612 L 381 584 Z Z" stroke-miterlimit="10"/></g></g></svg>