<svg version="1.1" xmlns="http://www.w3.org/2000/svg" xmlns:xlink="http://www.w3.org/1999/xlink" width="1037" height="712"><defs/><g><g transform="translate(10,30) scale(1,1)"><path fill="none" stroke="#000000" d="M 0 0 L 987 0 L 987 672 L 0 672 L 0 0" stroke-miterlimit="10"/></g><g transform="translate(10,30) scale(1,1)"><path fill="#ffffff" stroke="none" d="M 0 0 L 0 22 L 310.810546875 22 L 321.810546875 11 L 321.810546875 0 L 0 0"/></g><g transform="translate(10,30) scale(1,1)"><path fill="none" stroke="#000000" d="M 0 0 L 0 22 L 310.810546875 22 L 321.810546875 11 L 321.810546875 0 L 0 0 L 0 0" stroke-miterlimit="10"/></g><g transform="translate(10,30) scale(1,1)"><g><path fill="none" stroke="none"/><text fill="#000000" stroke="none" font-family="Arial" font-size="13px" font-style="normal" font-weight="normal" text-decoration="none" x="70.97900390625" y="17.5">A user logs a call in the CRM Application</text></g></g><g transform="translate(10,30) scale(1,1)"><g><path fill="none" stroke="none"/><text fill="#000000" stroke="none" font-family="Arial" font-size="13px" font-style="normal" font-weight="bold" text-decoration="none" x="5" y="17.5">interaction</text></g></g><g transform="translate(10,30) scale(1,1)"><rect fill="#C0C0C0" stroke="none" x="615" y="47" width="119.39453125" height="39" opacity="0.2"/></g><g transform="translate(10,30) scale(1,1)"><rect fill="#ffffff" stroke="none" x="608" y="40" width="119.39453125" height="39"/></g><g transform="translate(10,30) scale(1,1)"><path fill="none" stroke="#000000" d="M 608 40 L 727.39453125 40 L 727.39453125 79 L 608 79 L 608 40 Z Z" stroke-miterlimit="10"/></g><g transform="translate(10,30) scale(1,1)"><g><path fill="none" stroke="none"/><text fill="#000000" stroke="none" font-family="Arial" font-size="13px" font-style="normal" font-weight="normal" text-decoration="none" x="632.2900390625" y="57.5">«Controller»</text></g></g><g transform="translate(10,30) scale(1,1)"><g><path fill="none" stroke="none"/><text fill="#000000" stroke="none" font-family="Arial" font-size="13px" font-style="normal" font-weight="bold" text-decoration="none" x="620.378662109375" y="72.5">REST Controller</text></g></g><g transform="translate(10,30) scale(1,1)"><path fill="none" stroke="#000000" d="M 668.5 80 L 668.5 635" stroke-miterlimit="10" stroke-dasharray="3"/></g><g transform="translate(10,30) scale(1,1)"><rect fill="#C0C0C0" stroke="none" x="799" y="47" width="76.80810546875" height="39" opacity="0.2"/></g><g transform="translate(10,30) scale(1,1)"><rect fill="#ffffff" stroke="none" x="792" y="40" width="76.80810546875" height="39"/></g><g transform="translate(10,30) scale(1,1)"><path fill="none" stroke="#000000" d="M 792 40 L 868.80810546875 40 L 868.80810546875 79 L 792 79 L 792 40 Z Z" stroke-miterlimit="10"/></g><g transform="translate(10,30) scale(1,1)"><g><path fill="none" stroke="none"/><text fill="#000000" stroke="none" font-family="Arial" font-size="13px" font-style="normal" font-weight="normal" text-decoration="none" x="809.088623046875" y="57.5">«DAO»</text></g></g><g transform="translate(10,30) scale(1,1)"><g><path fill="none" stroke="none"/><text fill="#000000" stroke="none" font-family="Arial" font-size="13px" font-style="normal" font-weight="bold" text-decoration="none" x="818.47998046875" y="72.5">Dao</text></g></g><g transform="translate(10,30) scale(1,1)"><path fill="none" stroke="#000000" d="M 831.5 80 L 831.5 578" stroke-miterlimit="10" stroke-dasharray="3"/></g><g transform="translate(10,30) scale(1,1)"><rect fill="#C0C0C0" stroke="none" x="175" y="47" width="74.630859375" height="39" opacity="0.2"/></g><g transform="translate(10,30) scale(1,1)"><rect fill="#ffffff" stroke="none" x="168" y="40" width="74.630859375" height="39"/></g><g transform="translate(10,30) scale(1,1)"><path fill="none" stroke="#000000" d="M 168 40 L 242.630859375 40 L 242.630859375 79 L 168 79 L 168 40 Z Z" stroke-miterlimit="10"/></g><g transform="translate(10,30) scale(1,1)"><g><path fill="none" stroke="none"/><text fill="#000000" stroke="none" font-family="Arial" font-size="13px" font-style="normal" font-weight="normal" text-decoration="none" x="177.5" y="57.5">«Activity»</text></g></g><g transform="translate(10,30) scale(1,1)"><g><path fill="none" stroke="none"/><text fill="#000000" stroke="none" font-family="Arial" font-size="13px" font-style="normal" font-weight="bold" text-decoration="none" x="184.72998046875" y="72.5">Activity</text></g></g><g transform="translate(10,30) scale(1,1)"><path fill="none" stroke="#000000" d="M 206.5 80 L 206.5 642" stroke-miterlimit="10" stroke-dasharray="3"/></g><g transform="translate(10,30) scale(1,1)"><rect fill="#C0C0C0" stroke="none" x="375" y="47" width="71.736328125" height="39" opacity="0.2"/></g><g transform="translate(10,30) scale(1,1)"><rect fill="#ffffff" stroke="none" x="368" y="40" width="71.736328125" height="39"/></g><g transform="translate(10,30) scale(1,1)"><path fill="none" stroke="#000000" d="M 368 40 L 439.736328125 40 L 439.736328125 79 L 368 79 L 368 40 Z Z" stroke-miterlimit="10"/></g><g transform="translate(10,30) scale(1,1)"><g><path fill="none" stroke="none"/><text fill="#000000" stroke="none" font-family="Arial" font-size="13px" font-style="normal" font-weight="bold" text-decoration="none" x="390.14453125" y="59.5">User</text></g></g><g transform="translate(10,30) scale(1,1)"><path fill="none" stroke="#000000" d="M 404.5 80 L 404.5 642" stroke-miterlimit="10" stroke-dasharray="3"/></g><g transform="translate(10,30) scale(1,1)"><rect fill="#C0C0C0" stroke="none" x="7" y="47" width="81.8798828125" height="39" opacity="0.2"/></g><g transform="translate(10,30) scale(1,1)"><rect fill="#ffffff" stroke="none" x="0" y="40" width="81.8798828125" height="39"/></g><g transform="translate(10,30) scale(1,1)"><path fill="none" stroke="#000000" d="M 0 40 L 81.8798828125 40 L 81.8798828125 79 L 0 79 L 0 40 Z Z" stroke-miterlimit="10"/></g><g transform="translate(10,30) scale(1,1)"><g><path fill="none" stroke="none"/><text fill="#000000" stroke="none" font-family="Arial" font-size="13px" font-style="normal" font-weight="normal" text-decoration="none" x="9.5" y="57.5">«skeleton»</text></g></g><g transform="translate(10,30) scale(1,1)"><g><path fill="none" stroke="none"/><text fill="#000000" stroke="none" font-family="Arial" font-size="13px" font-style="normal" font-weight="bold" text-decoration="none" x="13.1181640625" y="72.5">EventBus</text></g></g><g transform="translate(10,30) scale(1,1)"><path fill="none" stroke="#000000" d="M 41.5 80 L 41.5 432" stroke-miterlimit="10" stroke-dasharray="3"/></g><g transform="translate(10,30) scale(1,1)"><path fill="#ffffff" stroke="none" d="M 80 296 L 138 296 L 148 306 L 148 358 L 80 358 L 80 296"/></g><g transform="translate(10,30) scale(1,1)"><path fill="none" stroke="#000000" d="M 80 296 L 138 296 L 148 306 L 148 358 L 80 358 L 80 296 L 80 296" stroke-miterlimit="10"/></g><g transform="translate(10,30) scale(1,1)"><path fill="none" stroke="#000000" d="M 138 296 L 138 306 L 148 306 L 138 296" stroke-miterlimit="10"/></g><g transform="translate(10,30) scale(1,1)"><g><path fill="none" stroke="none"/><text fill="#000000" stroke="none" font-family="Arial" font-size="13px" font-style="normal" font-weight="normal" text-decoration="none" x="85" y="314">on call</text><text fill="#000000" stroke="none" font-family="Arial" font-size="13px" font-style="normal" font-weight="normal" text-decoration="none" x="85" y="327">ended</text><text fill="#000000" stroke="none" font-family="Arial" font-size="13px" font-style="normal" font-weight="normal" text-decoration="none" x="85" y="340">event</text><text fill="#000000" stroke="none" font-family="Arial" font-size="13px" font-style="normal" font-weight="normal" text-decoration="none" x="85" y="353">received</text></g></g><g transform="translate(10,30) scale(1,1)"><path fill="none" stroke="#000000" d="M 493 0 L 493 -20 L 1016 -20 L 1016 297 L 987 297" stroke-miterlimit="10" stroke-dasharray="3"/></g><g transform="translate(10,30) scale(1,1)"><path fill="none" stroke="#000000" d="M 115 295 L 120 96" stroke-miterlimit="10" stroke-dasharray="3"/></g><g transform="translate(10,30) scale(1,1)"><rect fill="#C0C0C0" stroke="none" x="463" y="47" width="93.42626953125" height="39" opacity="0.2"/></g><g transform="translate(10,30) scale(1,1)"><rect fill="#ffffff" stroke="none" x="456" y="40" width="93.42626953125" height="39"/></g><g transform="translate(10,30) scale(1,1)"><path fill="none" stroke="#000000" d="M 456 40 L 549.42626953125 40 L 549.42626953125 79 L 456 79 L 456 40 Z Z" stroke-miterlimit="10"/></g><g transform="translate(10,30) scale(1,1)"><g><path fill="none" stroke="none"/><text fill="#000000" stroke="none" font-family="Arial" font-size="13px" font-style="normal" font-weight="normal" text-decoration="none" x="473.80908203125" y="57.5">«Service»</text></g></g><g transform="translate(10,30) scale(1,1)"><g><path fill="none" stroke="none"/><text fill="#000000" stroke="none" font-family="Arial" font-size="13px" font-style="normal" font-weight="bold" text-decoration="none" x="467.3154296875" y="72.5">CRAService</text></g></g><g transform="translate(10,30) scale(1,1)"><path fill="none" stroke="#000000" d="M 503.5 80 L 503.5 584" stroke-miterlimit="10" stroke-dasharray="3"/></g><g transform="translate(10,30) scale(1,1)"><path fill="none" stroke="#000000" d="M 41 96 L 199 96" stroke-miterlimit="10"/></g><g transform="translate(10,30) scale(1,1)"><path fill="#000000" stroke="none" d="M 188.83732514237585 100.20951775601598 L 199 96 L 188.83732514237585 91.79048224398402"/></g><g transform="translate(10,30) scale(1,1)"><path fill="none" stroke="#000000" d="M 188.83732514237585 100.20951775601598 L 199 96 L 188.83732514237585 91.79048224398402 L 188.83732514237585 100.20951775601598" stroke-miterlimit="10"/></g><g transform="translate(10,30) scale(1,1)"><g><path fill="none" stroke="none"/><text fill="#000000" stroke="none" font-family="Arial" font-size="13px" font-style="normal" font-weight="normal" text-decoration="none" x="59" y="93">1 : LauchActivity(call)</text></g></g><g transform="translate(10,30) scale(1,1)"><g><path fill="none" stroke="none"/><text fill="#000000" stroke="none" font-family="Arial" font-size="13px" font-style="normal" font-weight="normal" text-decoration="none" x="97" y="78">«Intent»</text></g></g><g transform="translate(10,30) scale(1,1)"><rect fill="#ffffff" stroke="none" x="199" y="96" width="13" height="28"/></g><g transform="translate(10,30) scale(1,1)"><path fill="none" stroke="#000000" d="M 199 96 L 212 96 L 212 124 L 199 124 L 199 96 Z Z" stroke-miterlimit="10"/></g><g transform="translate(10,30) scale(1,1)"><path fill="none" stroke="#000000" d="M 212 112 L 397 112" stroke-miterlimit="10"/></g><g transform="translate(10,30) scale(1,1)"><path fill="#000000" stroke="none" d="M 386.83732514237585 116.20951775601598 L 397 112 L 386.83732514237585 107.79048224398402"/></g><g transform="translate(10,30) scale(1,1)"><path fill="none" stroke="#000000" d="M 386.83732514237585 116.20951775601598 L 397 112 L 386.83732514237585 107.79048224398402 L 386.83732514237585 116.20951775601598" stroke-miterlimit="10"/></g><g transform="translate(10,30) scale(1,1)"><g><path fill="none" stroke="none"/><text fill="#000000" stroke="none" font-family="Arial" font-size="13px" font-style="normal" font-weight="normal" text-decoration="none" x="256" y="109">2 : Register call?</text></g></g><g transform="translate(10,30) scale(1,1)"><rect fill="#ffffff" stroke="none" x="397" y="112" width="13" height="56"/></g><g transform="translate(10,30) scale(1,1)"><path fill="none" stroke="#000000" d="M 397 112 L 410 112 L 410 168 L 397 168 L 397 112 Z Z" stroke-miterlimit="10"/></g><g transform="translate(10,30) scale(1,1)"><path fill="none" stroke="#000000" d="M 397 160 L 212 160" stroke-miterlimit="10"/></g><g transform="translate(10,30) scale(1,1)"><path fill="#000000" stroke="none" d="M 222.16267485762415 155.790482243984 L 212 160 L 222.16267485762415 164.209517756016"/></g><g transform="translate(10,30) scale(1,1)"><path fill="none" stroke="#000000" d="M 222.16267485762415 155.790482243984 L 212 160 L 222.16267485762415 164.209517756016 L 222.16267485762415 155.790482243984" stroke-miterlimit="10"/></g><g transform="translate(10,30) scale(1,1)"><g><path fill="none" stroke="none"/><text fill="#000000" stroke="none" font-family="Arial" font-size="13px" font-style="normal" font-weight="normal" text-decoration="none" x="246" y="177">3 : yes / register call</text></g></g><g transform="translate(10,30) scale(1,1)"><rect fill="#ffffff" stroke="none" x="199" y="160" width="13" height="40"/></g><g transform="translate(10,30) scale(1,1)"><path fill="none" stroke="#000000" d="M 199 160 L 212 160 L 212 200 L 199 200 L 199 160 Z Z" stroke-miterlimit="10"/></g><g transform="translate(10,30) scale(1,1)"><path fill="none" stroke="#000000" d="M 206 208 L 404 208" stroke-miterlimit="10" stroke-dasharray="3"/></g><g transform="translate(10,30) scale(1,1)"><path fill="none" stroke="#000000" d="M 393.83732514237585 212.209517756016 L 404 208 L 393.83732514237585 203.790482243984" stroke-miterlimit="10"/></g><g transform="translate(10,30) scale(1,1)"><g><path fill="none" stroke="none"/><text fill="#000000" stroke="none" font-family="Arial" font-size="13px" font-style="normal" font-weight="normal" text-decoration="none" x="231" y="205">4 : show register call form</text></g></g><g transform="translate(10,30) scale(1,1)"><path fill="none" stroke="#000000" d="M 404 246 L 212 246" stroke-miterlimit="10"/></g><g transform="translate(10,30) scale(1,1)"><path fill="#000000" stroke="none" d="M 222.16267485762415 241.790482243984 L 212 246 L 222.16267485762415 250.209517756016"/></g><g transform="translate(10,30) scale(1,1)"><path fill="none" stroke="#000000" d="M 222.16267485762415 241.790482243984 L 212 246 L 222.16267485762415 250.209517756016 L 222.16267485762415 241.790482243984" stroke-miterlimit="10"/></g><g transform="translate(10,30) scale(1,1)"><g><path fill="none" stroke="none"/><text fill="#000000" stroke="none" font-family="Arial" font-size="13px" font-style="normal" font-weight="normal" text-decoration="none" x="251" y="263">5 : submitForm(cra)</text></g></g><g transform="translate(10,30) scale(1,1)"><rect fill="#ffffff" stroke="none" x="199" y="246" width="13" height="28"/></g><g transform="translate(10,30) scale(1,1)"><path fill="none" stroke="#000000" d="M 199 246 L 212 246 L 212 274 L 199 274 L 199 246 Z Z" stroke-miterlimit="10"/></g><g transform="translate(10,30) scale(1,1)"><path fill="none" stroke="#000000" d="M 206 296 L 236 296 L 236 316 L 212 316" stroke-miterlimit="10"/></g><g transform="translate(10,30) scale(1,1)"><path fill="#000000" stroke="none" d="M 222.16267485762415 311.790482243984 L 212 316 L 222.16267485762415 320.209517756016"/></g><g transform="translate(10,30) scale(1,1)"><path fill="none" stroke="#000000" d="M 222.16267485762415 311.790482243984 L 212 316 L 222.16267485762415 320.209517756016 L 222.16267485762415 311.790482243984" stroke-miterlimit="10"/></g><g transform="translate(10,30) scale(1,1)"><g><path fill="none" stroke="none"/><text fill="#000000" stroke="none" font-family="Arial" font-size="13px" font-style="normal" font-weight="normal" text-decoration="none" x="212" y="312">6 : prepareJsonMsg</text></g></g><g transform="translate(10,30) scale(1,1)"><rect fill="#ffffff" stroke="none" x="199" y="316" width="13" height="28"/></g><g transform="translate(10,30) scale(1,1)"><path fill="none" stroke="#000000" d="M 199 316 L 212 316 L 212 344 L 199 344 L 199 316 Z Z" stroke-miterlimit="10"/></g><g transform="translate(10,30) scale(1,1)"><path fill="none" stroke="#000000" d="M 206 375 L 496 375" stroke-miterlimit="10"/></g><g transform="translate(10,30) scale(1,1)"><path fill="#000000" stroke="none" d="M 485.83732514237585 379.209517756016 L 496 375 L 485.83732514237585 370.790482243984"/></g><g transform="translate(10,30) scale(1,1)"><path fill="none" stroke="#000000" d="M 485.83732514237585 379.209517756016 L 496 375 L 485.83732514237585 370.790482243984 L 485.83732514237585 379.209517756016" stroke-miterlimit="10"/></g><g transform="translate(10,30) scale(1,1)"><g><path fill="none" stroke="none"/><text fill="#000000" stroke="none" font-family="Arial" font-size="13px" font-style="normal" font-weight="normal" text-decoration="none" x="279" y="364">7 : callService(msg)</text></g></g><g transform="translate(10,30) scale(1,1)"><rect fill="#ffffff" stroke="none" x="496" y="375" width="13" height="28"/></g><g transform="translate(10,30) scale(1,1)"><path fill="none" stroke="#000000" d="M 496 375 L 509 375 L 509 403 L 496 403 L 496 375 Z Z" stroke-miterlimit="10"/></g><g transform="translate(10,30) scale(1,1)"><path fill="none" stroke="#000000" d="M 509 384 L 661 384" stroke-miterlimit="10"/></g><g transform="translate(10,30) scale(1,1)"><path fill="#000000" stroke="none" d="M 650.8373251423759 388.209517756016 L 661 384 L 650.8373251423758 379.790482243984"/></g><g transform="translate(10,30) scale(1,1)"><path fill="none" stroke="#000000" d="M 650.8373251423759 388.209517756016 L 661 384 L 650.8373251423758 379.790482243984 L 650.8373251423759 388.209517756016" stroke-miterlimit="10"/></g><g transform="translate(10,30) scale(1,1)"><g><path fill="none" stroke="none"/><text fill="#000000" stroke="none" font-family="Arial" font-size="13px" font-style="normal" font-weight="normal" text-decoration="none" x="516" y="381">8 : Post /createcra(msg)</text></g></g><g transform="translate(10,30) scale(1,1)"><g><path fill="none" stroke="none"/><text fill="#000000" stroke="none" font-family="Arial" font-size="13px" font-style="normal" font-weight="normal" text-decoration="none" x="543" y="405">«Http/Rest»</text></g></g><g transform="translate(10,30) scale(1,1)"><rect fill="#ffffff" stroke="none" x="661" y="384" width="13" height="28"/></g><g transform="translate(10,30) scale(1,1)"><path fill="none" stroke="#000000" d="M 661 384 L 674 384 L 674 412 L 661 412 L 661 384 Z Z" stroke-miterlimit="10"/></g><g transform="translate(10,30) scale(1,1)"><path fill="none" stroke="#000000" d="M 674 400 L 704 400 L 704 420 L 674 420" stroke-miterlimit="10"/></g><g transform="translate(10,30) scale(1,1)"><path fill="#000000" stroke="none" d="M 684.1626748576241 415.790482243984 L 674 420 L 684.1626748576241 424.209517756016"/></g><g transform="translate(10,30) scale(1,1)"><path fill="none" stroke="#000000" d="M 684.1626748576241 415.790482243984 L 674 420 L 684.1626748576241 424.209517756016 L 684.1626748576241 415.790482243984" stroke-miterlimit="10"/></g><g transform="translate(10,30) scale(1,1)"><g><path fill="none" stroke="none"/><text fill="#000000" stroke="none" font-family="Arial" font-size="13px" font-style="normal" font-weight="normal" text-decoration="none" x="695" y="416">9 : parseMsg(msg)</text></g></g><g transform="translate(10,30) scale(1,1)"><rect fill="#ffffff" stroke="none" x="661" y="420" width="13" height="28"/></g><g transform="translate(10,30) scale(1,1)"><path fill="none" stroke="#000000" d="M 661 420 L 674 420 L 674 448 L 661 448 L 661 420 Z Z" stroke-miterlimit="10"/></g><g transform="translate(10,30) scale(1,1)"><path fill="none" stroke="#000000" d="M 668 456 L 824 456" stroke-miterlimit="10"/></g><g transform="translate(10,30) scale(1,1)"><path fill="#000000" stroke="none" d="M 813.8373251423759 460.209517756016 L 824 456 L 813.8373251423758 451.790482243984"/></g><g transform="translate(10,30) scale(1,1)"><path fill="none" stroke="#000000" d="M 813.8373251423759 460.209517756016 L 824 456 L 813.8373251423758 451.790482243984 L 813.8373251423759 460.209517756016" stroke-miterlimit="10"/></g><g transform="translate(10,30) scale(1,1)"><g><path fill="none" stroke="none"/><text fill="#000000" stroke="none" font-family="Arial" font-size="13px" font-style="normal" font-weight="normal" text-decoration="none" x="673" y="453">10 : saveCra(parsedMsg)</text></g></g><g transform="translate(10,30) scale(1,1)"><rect fill="#ffffff" stroke="none" x="824" y="456" width="13" height="28"/></g><g transform="translate(10,30) scale(1,1)"><path fill="none" stroke="#000000" d="M 824 456 L 837 456 L 837 484 L 824 484 L 824 456 Z Z" stroke-miterlimit="10"/></g><g transform="translate(10,30) scale(1,1)"><path fill="none" stroke="#000000" d="M 837 472 L 867 472 L 867 492 L 837 492" stroke-miterlimit="10"/></g><g transform="translate(10,30) scale(1,1)"><path fill="#000000" stroke="none" d="M 847.1626748576241 487.790482243984 L 837 492 L 847.1626748576241 496.209517756016"/></g><g transform="translate(10,30) scale(1,1)"><path fill="none" stroke="#000000" d="M 847.1626748576241 487.790482243984 L 837 492 L 847.1626748576241 496.209517756016 L 847.1626748576241 487.790482243984" stroke-miterlimit="10"/></g><g transform="translate(10,30) scale(1,1)"><g><path fill="none" stroke="none"/><text fill="#000000" stroke="none" font-family="Arial" font-size="13px" font-style="normal" font-weight="normal" text-decoration="none" x="855" y="488">11 : insertCra</text></g></g><g transform="translate(10,30) scale(1,1)"><rect fill="#ffffff" stroke="none" x="824" y="492" width="13" height="28"/></g><g transform="translate(10,30) scale(1,1)"><path fill="none" stroke="#000000" d="M 824 492 L 837 492 L 837 520 L 824 520 L 824 492 Z Z" stroke-miterlimit="10"/></g><g transform="translate(10,30) scale(1,1)"><path fill="none" stroke="#000000" d="M 206 488 L 404 488" stroke-miterlimit="10" stroke-dasharray="3"/></g><g transform="translate(10,30) scale(1,1)"><path fill="none" stroke="#000000" d="M 393.83732514237585 492.209517756016 L 404 488 L 393.83732514237585 483.790482243984" stroke-miterlimit="10"/></g><g transform="translate(10,30) scale(1,1)"><g><path fill="none" stroke="none"/><text fill="#000000" stroke="none" font-family="Arial" font-size="13px" font-style="normal" font-weight="normal" text-decoration="none" x="244" y="485">12 : show("sync OK")</text></g></g><g transform="translate(10,30) scale(1,1)"><path fill="none" stroke="#000000" d="M 831 520 L 668 520" stroke-miterlimit="10" stroke-dasharray="3"/></g><g transform="translate(10,30) scale(1,1)"><path fill="none" stroke="#000000" d="M 678.1626748576241 515.790482243984 L 668 520 L 678.1626748576241 524.209517756016" stroke-miterlimit="10"/></g><g transform="translate(10,30) scale(1,1)"><g><path fill="none" stroke="none"/><text fill="#000000" stroke="none" font-family="Arial" font-size="13px" font-style="normal" font-weight="normal" text-decoration="none" x="688" y="540">13 : insert_status("OK")</text></g></g><g transform="translate(10,30) scale(1,1)"><path fill="none" stroke="#000000" d="M 668 536 L 503 536" stroke-miterlimit="10" stroke-dasharray="3"/></g><g transform="translate(10,30) scale(1,1)"><path fill="none" stroke="#000000" d="M 513.1626748576241 531.790482243984 L 503 536 L 513.1626748576241 540.209517756016" stroke-miterlimit="10"/></g><g transform="translate(10,30) scale(1,1)"><g><path fill="none" stroke="none"/><text fill="#000000" stroke="none" font-family="Arial" font-size="13px" font-style="normal" font-weight="normal" text-decoration="none" x="532" y="553">14 : response (ok)</text></g></g><g transform="translate(10,30) scale(1,1)"><g><path fill="none" stroke="none"/><text fill="#000000" stroke="none" font-family="Arial" font-size="13px" font-style="normal" font-weight="normal" text-decoration="none" x="566" y="568">«http»</text></g></g><g transform="translate(10,30) scale(1,1)"><path fill="none" stroke="#000000" d="M 503 553 L 206 553" stroke-miterlimit="10" stroke-dasharray="3"/></g><g transform="translate(10,30) scale(1,1)"><path fill="none" stroke="#000000" d="M 216.16267485762415 548.790482243984 L 206 553 L 216.16267485762415 557.209517756016" stroke-miterlimit="10"/></g><g transform="translate(10,30) scale(1,1)"><g><path fill="none" stroke="none"/><text fill="#000000" stroke="none" font-family="Arial" font-size="13px" font-style="normal" font-weight="normal" text-decoration="none" x="274" y="570">15 : notifyResponse(status)</text></g></g><g transform="translate(10,30) scale(1,1)"><path fill="none" stroke="#000000" d="M 206 600 L 397 600" stroke-miterlimit="10"/></g><g transform="translate(10,30) scale(1,1)"><path fill="#000000" stroke="none" d="M 386.83732514237585 604.209517756016 L 397 600 L 386.83732514237585 595.790482243984"/></g><g transform="translate(10,30) scale(1,1)"><path fill="none" stroke="#000000" d="M 386.83732514237585 604.209517756016 L 397 600 L 386.83732514237585 595.790482243984 L 386.83732514237585 604.209517756016" stroke-miterlimit="10"/></g><g transform="translate(10,30) scale(1,1)"><g><path fill="none" stroke="none"/><text fill="#000000" stroke="none" font-family="Arial" font-size="13px" font-style="normal" font-weight="normal" text-decoration="none" x="251" y="597">16 : Toast(status)</text></g></g><g transform="translate(10,30) scale(1,1)"><rect fill="#ffffff" stroke="none" x="397" y="600" width="13" height="28"/></g><g transform="translate(10,30) scale(1,1)"><path fill="none" stroke="#000000" d="M 397 600 L 410 600 L 410 628 L 397 628 L 397 600 Z Z" stroke-miterlimit="10"/></g></g></svg>