<svg version="1.1" xmlns="http://www.w3.org/2000/svg" xmlns:xlink="http://www.w3.org/1999/xlink" width="572.578125" height="496"><defs/><g><g transform="translate(-94,-22) scale(1,1)"><rect fill="#C0C0C0" stroke="none" x="183" y="287" width="126.025390625" height="44" opacity="0.2"/></g><g transform="translate(-94,-22) scale(1,1)"><rect fill="#ffffff" stroke="none" x="176" y="280" width="126.025390625" height="44"/></g><g transform="translate(-94,-22) scale(1,1)"><path fill="none" stroke="#000000" d="M 176 280 L 302.025390625 280 L 302.025390625 324 L 176 324 L 176 280 Z Z" stroke-miterlimit="10"/></g><g transform="translate(-94,-22) scale(1,1)"><path fill="none" stroke="#000000" d="M 176 305 L 302.025390625 305" stroke-miterlimit="10"/></g><g transform="translate(-94,-22) scale(1,1)"><path fill="none" stroke="#000000" d="M 176 315 L 302.025390625 315" stroke-miterlimit="10"/></g><g transform="translate(-94,-22) scale(1,1)"><g><path fill="none" stroke="none"/><text fill="#000000" stroke="none" font-family="Arial" font-size="13px" font-style="normal" font-weight="bold" text-decoration="none" x="186.996826171875" y="299.5">CraRestController</text></g></g><g transform="translate(-94,-22) scale(1,1)"><rect fill="#C0C0C0" stroke="none" x="175" y="471" width="50.919921875" height="44" opacity="0.2"/></g><g transform="translate(-94,-22) scale(1,1)"><rect fill="#ffffff" stroke="none" x="168" y="464" width="50.919921875" height="44"/></g><g transform="translate(-94,-22) scale(1,1)"><path fill="none" stroke="#000000" d="M 168 464 L 218.919921875 464 L 218.919921875 508 L 168 508 L 168 464 Z Z" stroke-miterlimit="10"/></g><g transform="translate(-94,-22) scale(1,1)"><path fill="none" stroke="#000000" d="M 168 489 L 218.919921875 489" stroke-miterlimit="10"/></g><g transform="translate(-94,-22) scale(1,1)"><path fill="none" stroke="#000000" d="M 168 499 L 218.919921875 499" stroke-miterlimit="10"/></g><g transform="translate(-94,-22) scale(1,1)"><g><path fill="none" stroke="none"/><text fill="#000000" stroke="none" font-family="Arial" font-size="13px" font-style="normal" font-weight="bold" text-decoration="none" x="182.986328125" y="483.5">Cra</text></g></g><g transform="translate(-94,-22) scale(1,1)"><g><path fill="none" stroke="none"/><text fill="#000000" stroke="none" font-family="Arial" font-size="13px" font-style="normal" font-weight="normal" text-decoration="none" x="173" y="74">Server-rest</text></g></g><g transform="translate(-94,-22) scale(1,1)"><rect fill="#C0C0C0" stroke="none" x="359" y="335" width="146.2109375" height="44" opacity="0.2"/></g><g transform="translate(-94,-22) scale(1,1)"><rect fill="#ffffff" stroke="none" x="352" y="328" width="146.2109375" height="44"/></g><g transform="translate(-94,-22) scale(1,1)"><path fill="none" stroke="#000000" d="M 352 328 L 498.2109375 328 L 498.2109375 372 L 352 372 L 352 328 Z Z" stroke-miterlimit="10"/></g><g transform="translate(-94,-22) scale(1,1)"><path fill="none" stroke="#000000" d="M 352 353 L 498.2109375 353" stroke-miterlimit="10"/></g><g transform="translate(-94,-22) scale(1,1)"><path fill="none" stroke="#000000" d="M 352 363 L 498.2109375 363" stroke-miterlimit="10"/></g><g transform="translate(-94,-22) scale(1,1)"><g><path fill="none" stroke="none"/><text fill="#000000" stroke="none" font-family="Arial" font-size="13px" font-style="normal" font-weight="bold" text-decoration="none" x="360.791015625" y="347.5">MongoDataStoreCnfig</text></g></g><g transform="translate(-94,-22) scale(1,1)"><rect fill="#C0C0C0" stroke="none" x="575" y="167" width="59.5654296875" height="44" opacity="0.2"/></g><g transform="translate(-94,-22) scale(1,1)"><rect fill="#ffffff" stroke="none" x="568" y="160" width="59.5654296875" height="44"/></g><g transform="translate(-94,-22) scale(1,1)"><path fill="none" stroke="#000000" d="M 568 160 L 627.5654296875 160 L 627.5654296875 204 L 568 204 L 568 160 Z Z" stroke-miterlimit="10"/></g><g transform="translate(-94,-22) scale(1,1)"><path fill="none" stroke="#000000" d="M 568 185 L 627.5654296875 185" stroke-miterlimit="10"/></g><g transform="translate(-94,-22) scale(1,1)"><path fill="none" stroke="#000000" d="M 568 195 L 627.5654296875 195" stroke-miterlimit="10"/></g><g transform="translate(-94,-22) scale(1,1)"><g><path fill="none" stroke="none"/><text fill="#000000" stroke="none" font-family="Arial" font-size="13px" font-style="normal" font-weight="bold" text-decoration="none" x="573.2236328125" y="179.5">CraDAO</text></g></g><g transform="translate(-94,-22) scale(1,1)"><rect fill="#C0C0C0" stroke="none" x="111" y="151" width="139.025390625" height="44" opacity="0.2"/></g><g transform="translate(-94,-22) scale(1,1)"><rect fill="#ffffff" stroke="none" x="104" y="144" width="139.025390625" height="44"/></g><g transform="translate(-94,-22) scale(1,1)"><path fill="none" stroke="#000000" d="M 104 144 L 243.025390625 144 L 243.025390625 188 L 104 188 L 104 144 Z Z" stroke-miterlimit="10"/></g><g transform="translate(-94,-22) scale(1,1)"><path fill="none" stroke="#000000" d="M 104 169 L 243.025390625 169" stroke-miterlimit="10"/></g><g transform="translate(-94,-22) scale(1,1)"><path fill="none" stroke="#000000" d="M 104 179 L 243.025390625 179" stroke-miterlimit="10"/></g><g transform="translate(-94,-22) scale(1,1)"><g><path fill="none" stroke="none"/><text fill="#000000" stroke="none" font-family="Arial" font-size="13px" font-style="normal" font-weight="bold" text-decoration="none" x="114.27001953125" y="163.5">org.springframework</text></g></g><g transform="translate(-94,-22) scale(1,1)"><rect fill="#C0C0C0" stroke="none" x="351" y="143" width="59.5654296875" height="44" opacity="0.2"/></g><g transform="translate(-94,-22) scale(1,1)"><rect fill="#ffffff" stroke="none" x="344" y="136" width="59.5654296875" height="44"/></g><g transform="translate(-94,-22) scale(1,1)"><path fill="none" stroke="#000000" d="M 344 136 L 403.5654296875 136 L 403.5654296875 180 L 344 180 L 344 136 Z Z" stroke-miterlimit="10"/></g><g transform="translate(-94,-22) scale(1,1)"><path fill="none" stroke="#000000" d="M 344 161 L 403.5654296875 161" stroke-miterlimit="10"/></g><g transform="translate(-94,-22) scale(1,1)"><path fill="none" stroke="#000000" d="M 344 171 L 403.5654296875 171" stroke-miterlimit="10"/></g><g transform="translate(-94,-22) scale(1,1)"><g><path fill="none" stroke="none"/><text fill="#000000" stroke="none" font-family="Arial" font-size="13px" font-style="normal" font-weight="bold" text-decoration="none" x="351.023193359375" y="155.5">org.slf4j</text></g></g><g transform="translate(-94,-22) scale(1,1)"><path fill="none" stroke="#000000" d="M 233 325 L 199 463" stroke-miterlimit="10" stroke-dasharray="3"/></g><g transform="translate(-94,-22) scale(1,1)"><path fill="none" stroke="#000000" d="M 197.3438544728923 452.1253881911564 L 199 463 L 205.518440019955 454.1394165143457" stroke-miterlimit="10"/></g><g transform="translate(-94,-22) scale(1,1)"><path fill="none" stroke="#000000" d="M 260 279 L 352 181" stroke-miterlimit="10" stroke-dasharray="3"/></g><g transform="translate(-94,-22) scale(1,1)"><path fill="none" stroke="#000000" d="M 348.1133462792157 191.2904772899372 L 352 181 L 341.97525452454875 185.52818707127025" stroke-miterlimit="10"/></g><g transform="translate(-94,-22) scale(1,1)"><path fill="none" stroke="#000000" d="M 573 205 L 449 327" stroke-miterlimit="10" stroke-dasharray="3"/></g><g transform="translate(-94,-22) scale(1,1)"><path fill="none" stroke="#000000" d="M 453.2919992844254 316.8718835836819 L 449 327 L 459.1965615974903 322.8732420002397" stroke-miterlimit="10"/></g><g transform="translate(-94,-22) scale(1,1)"><path fill="none" stroke="#000000" d="M 567 179 L 405 161" stroke-miterlimit="10" stroke-dasharray="3"/></g><g transform="translate(-94,-22) scale(1,1)"><path fill="none" stroke="#000000" d="M 415.5653807116052 157.93850846500584 L 405 161 L 414.63565377193316 166.306050922054" stroke-miterlimit="10"/></g><g transform="translate(-94,-22) scale(1,1)"><rect fill="#C0C0C0" stroke="none" x="319" y="39" width="57.4072265625" height="44" opacity="0.2"/></g><g transform="translate(-94,-22) scale(1,1)"><rect fill="#ffffff" stroke="none" x="312" y="32" width="57.4072265625" height="44"/></g><g transform="translate(-94,-22) scale(1,1)"><path fill="none" stroke="#000000" d="M 312 32 L 369.4072265625 32 L 369.4072265625 76 L 312 76 L 312 32 Z Z" stroke-miterlimit="10"/></g><g transform="translate(-94,-22) scale(1,1)"><path fill="none" stroke="#000000" d="M 312 57 L 369.4072265625 57" stroke-miterlimit="10"/></g><g transform="translate(-94,-22) scale(1,1)"><path fill="none" stroke="#000000" d="M 312 67 L 369.4072265625 67" stroke-miterlimit="10"/></g><g transform="translate(-94,-22) scale(1,1)"><g><path fill="none" stroke="none"/><text fill="#000000" stroke="none" font-family="Arial" font-size="13px" font-style="normal" font-weight="bold" text-decoration="none" x="318.66455078125" y="51.5">java.util</text></g></g><g transform="translate(-94,-22) scale(1,1)"><path fill="none" stroke="#000000" d="M 228 279 L 184 189" stroke-miterlimit="10" stroke-dasharray="3"/></g><g transform="translate(-94,-22) scale(1,1)"><path fill="none" stroke="#000000" d="M 192.24531468475686 196.28112530789937 L 184 189 L 184.68178484672396 199.97885100649324" stroke-miterlimit="10"/></g><g transform="translate(-94,-22) scale(1,1)"><path fill="none" stroke="#000000" d="M 303 281 L 567 192" stroke-miterlimit="10"/></g><g transform="translate(-94,-22) scale(1,1)"><path fill="none" stroke="#000000" d="M 558.7145967082031 199.23547457270644 L 567 192 L 556.0250820120415 191.25758828296867" stroke-miterlimit="10"/></g><g transform="translate(-94,-22) scale(1,1)"><path fill="none" stroke="#000000" d="M 248 279 L 331 77" stroke-miterlimit="10" stroke-dasharray="3"/></g><g transform="translate(-94,-22) scale(1,1)"><path fill="none" stroke="#000000" d="M 331.031231552603 87.999955663098 L 331 77 L 323.2439408005046 84.80022728476055" stroke-miterlimit="10"/></g><g transform="translate(-94,-22) scale(1,1)"><path fill="none" stroke="#000000" d="M 567 167 L 370 69" stroke-miterlimit="10" stroke-dasharray="3"/></g><g transform="translate(-94,-22) scale(1,1)"><path fill="none" stroke="#000000" d="M 380.97388854674955 69.75747618016615 L 370 69 L 377.22409446380925 77.29532755097476" stroke-miterlimit="10"/></g><g transform="translate(-94,-22) scale(1,1)"><rect fill="#C0C0C0" stroke="none" x="591" y="279" width="72.578125" height="44" opacity="0.2"/></g><g transform="translate(-94,-22) scale(1,1)"><rect fill="#ff0000" stroke="none" x="584" y="272" width="72.578125" height="44"/></g><g transform="translate(-94,-22) scale(1,1)"><path fill="none" stroke="#000000" d="M 584 272 L 656.578125 272 L 656.578125 316 L 584 316 L 584 272 Z Z" stroke-miterlimit="10"/></g><g transform="translate(-94,-22) scale(1,1)"><path fill="none" stroke="#000000" d="M 584 297 L 656.578125 297" stroke-miterlimit="10"/></g><g transform="translate(-94,-22) scale(1,1)"><path fill="none" stroke="#000000" d="M 584 307 L 656.578125 307" stroke-miterlimit="10"/></g><g transform="translate(-94,-22) scale(1,1)"><g><path fill="none" stroke="none"/><text fill="#000000" stroke="none" font-family="Arial" font-size="13px" font-style="normal" font-weight="bold" text-decoration="none" x="590.30908203125" y="291.5">BasicDAO</text></g></g><g transform="translate(-94,-22) scale(1,1)"><path fill="none" stroke="#000000" d="M 602 205 L 615 271" stroke-miterlimit="10"/></g><g transform="translate(-94,-22) scale(1,1)"><path fill="#FFFFFF" stroke="none" d="M 602.8116723460744 252.68485137923935 L 615 271 L 619.3323166527649 249.43078507640635"/></g><g transform="translate(-94,-22) scale(1,1)"><path fill="none" stroke="#000000" d="M 602.8116723460744 252.68485137923935 L 615 271 L 619.3323166527649 249.43078507640635 L 602.8116723460744 252.68485137923935" stroke-miterlimit="10"/></g><g transform="translate(-94,-22) scale(1,1)"><rect fill="#C0C0C0" stroke="none" x="352" y="471" width="92.75732421875" height="44" opacity="0.2"/></g><g transform="translate(-94,-22) scale(1,1)"><rect fill="#ffffff" stroke="none" x="345" y="464" width="92.75732421875" height="44"/></g><g transform="translate(-94,-22) scale(1,1)"><path fill="none" stroke="#000000" d="M 345 464 L 437.75732421875 464 L 437.75732421875 508 L 345 508 L 345 464 Z Z" stroke-miterlimit="10"/></g><g transform="translate(-94,-22) scale(1,1)"><path fill="none" stroke="#000000" d="M 345 489 L 437.75732421875 489" stroke-miterlimit="10"/></g><g transform="translate(-94,-22) scale(1,1)"><path fill="none" stroke="#000000" d="M 345 499 L 437.75732421875 499" stroke-miterlimit="10"/></g><g transform="translate(-94,-22) scale(1,1)"><g><path fill="none" stroke="none"/><text fill="#000000" stroke="none" font-family="Arial" font-size="13px" font-style="normal" font-weight="bold" text-decoration="none" x="353.07373046875" y="483.5">org.mongodb</text></g></g><g transform="translate(-94,-22) scale(1,1)"><path fill="none" stroke="#000000" d="M 419 373 L 397 463" stroke-miterlimit="10" stroke-dasharray="3"/></g><g transform="translate(-94,-22) scale(1,1)"><path fill="none" stroke="#000000" d="M 395.3240371864312 452.12842473937036 L 397 463 L 403.50227991848016 454.12755074053786" stroke-miterlimit="10"/></g></g></svg>