<svg version="1.1" xmlns="http://www.w3.org/2000/svg" xmlns:xlink="http://www.w3.org/1999/xlink" width="804" height="1396"><defs/><g><g transform="translate(10,10) scale(1,1)"><rect fill="#ffffff" stroke="none" x="0" y="0" width="776" height="656"/></g><g transform="translate(10,10) scale(1,1)"><path fill="none" stroke="#000000" d="M 0 0 L 776 0 L 776 656 L 0 656 L 0 0 Z Z" stroke-miterlimit="10"/></g><g transform="translate(10,10) scale(1,1)"><rect fill="#ffffff" stroke="none" x="488" y="728" width="296" height="648"/></g><g transform="translate(10,10) scale(1,1)"><path fill="none" stroke="#000000" d="M 488 728 L 784 728 L 784 1376 L 488 1376 L 488 728 Z Z" stroke-miterlimit="10"/></g><g transform="translate(10,10) scale(1,1)"><rect fill="#C0C0C0" stroke="none" x="239" y="31" width="158.5380859375" height="44" opacity="0.2"/></g><g transform="translate(10,10) scale(1,1)"><rect fill="#ffffff" stroke="none" x="232" y="24" width="158.5380859375" height="44"/></g><g transform="translate(10,10) scale(1,1)"><path fill="none" stroke="#000000" d="M 232 24 L 390.5380859375 24 L 390.5380859375 68 L 232 68 L 232 24 Z Z" stroke-miterlimit="10"/></g><g transform="translate(10,10) scale(1,1)"><path fill="none" stroke="#000000" d="M 232 49 L 390.5380859375 49" stroke-miterlimit="10"/></g><g transform="translate(10,10) scale(1,1)"><path fill="none" stroke="#000000" d="M 232 59 L 390.5380859375 59" stroke-miterlimit="10"/></g><g transform="translate(10,10) scale(1,1)"><g><path fill="none" stroke="none"/><text fill="#000000" stroke="none" font-family="Arial" font-size="13px" font-style="normal" font-weight="bold" text-decoration="none" x="241.530517578125" y="43.5">ListenerCallEndedEvent</text></g></g><g transform="translate(10,10) scale(1,1)"><rect fill="#C0C0C0" stroke="none" x="111" y="31" width="55.26171875" height="44" opacity="0.2"/></g><g transform="translate(10,10) scale(1,1)"><rect fill="#ff0000" stroke="none" x="104" y="24" width="55.26171875" height="44"/></g><g transform="translate(10,10) scale(1,1)"><path fill="none" stroke="#000000" d="M 104 24 L 159.26171875 24 L 159.26171875 68 L 104 68 L 104 24 Z Z" stroke-miterlimit="10"/></g><g transform="translate(10,10) scale(1,1)"><path fill="none" stroke="#000000" d="M 104 49 L 159.26171875 49" stroke-miterlimit="10"/></g><g transform="translate(10,10) scale(1,1)"><path fill="none" stroke="#000000" d="M 104 59 L 159.26171875 59" stroke-miterlimit="10"/></g><g transform="translate(10,10) scale(1,1)"><g><path fill="none" stroke="none"/><text fill="#000000" stroke="none" font-family="Arial" font-size="13px" font-style="normal" font-weight="bold" text-decoration="none" x="109.956787109375" y="43.5">Service</text></g></g><g transform="translate(10,10) scale(1,1)"><path fill="none" stroke="#000000" d="M 231 46 L 160 46" stroke-miterlimit="10"/></g><g transform="translate(10,10) scale(1,1)"><path fill="#FFFFFF" stroke="none" d="M 180.3253497152483 37.580964487968025 L 160 46 L 180.3253497152483 54.419035512031975"/></g><g transform="translate(10,10) scale(1,1)"><path fill="none" stroke="#000000" d="M 180.3253497152483 37.580964487968025 L 160 46 L 180.3253497152483 54.419035512031975 L 180.3253497152483 37.580964487968025" stroke-miterlimit="10"/></g><g transform="translate(10,10) scale(1,1)"><rect fill="#C0C0C0" stroke="none" x="39" y="31" width="50.919921875" height="44" opacity="0.2"/></g><g transform="translate(10,10) scale(1,1)"><rect fill="#ff0000" stroke="none" x="32" y="24" width="50.919921875" height="44"/></g><g transform="translate(10,10) scale(1,1)"><path fill="none" stroke="#000000" d="M 32 24 L 82.919921875 24 L 82.919921875 68 L 32 68 L 32 24 Z Z" stroke-miterlimit="10"/></g><g transform="translate(10,10) scale(1,1)"><path fill="none" stroke="#000000" d="M 32 49 L 82.919921875 49" stroke-miterlimit="10"/></g><g transform="translate(10,10) scale(1,1)"><path fill="none" stroke="#000000" d="M 32 59 L 82.919921875 59" stroke-miterlimit="10"/></g><g transform="translate(10,10) scale(1,1)"><g><path fill="none" stroke="none"/><text fill="#000000" stroke="none" font-family="Arial" font-size="13px" font-style="normal" font-weight="bold" text-decoration="none" x="46.259521484375" y="43.5">Bus</text></g></g><g transform="translate(10,10) scale(1,1)"><rect fill="#C0C0C0" stroke="none" x="23" y="127" width="83.3818359375" height="44" opacity="0.2"/></g><g transform="translate(10,10) scale(1,1)"><rect fill="#ffffff" stroke="none" x="16" y="120" width="83.3818359375" height="44"/></g><g transform="translate(10,10) scale(1,1)"><path fill="none" stroke="#000000" d="M 16 120 L 99.3818359375 120 L 99.3818359375 164 L 16 164 L 16 120 Z Z" stroke-miterlimit="10"/></g><g transform="translate(10,10) scale(1,1)"><path fill="none" stroke="#000000" d="M 16 145 L 99.3818359375 145" stroke-miterlimit="10"/></g><g transform="translate(10,10) scale(1,1)"><path fill="none" stroke="#000000" d="M 16 155 L 99.3818359375 155" stroke-miterlimit="10"/></g><g transform="translate(10,10) scale(1,1)"><g><path fill="none" stroke="none"/><text fill="#000000" stroke="none" font-family="Arial" font-size="13px" font-style="normal" font-weight="bold" text-decoration="none" x="24.08642578125" y="139.5">AndroidBus</text></g></g><g transform="translate(10,10) scale(1,1)"><rect fill="#C0C0C0" stroke="none" x="199" y="311" width="112.99365234375" height="44" opacity="0.2"/></g><g transform="translate(10,10) scale(1,1)"><rect fill="#ffffff" stroke="none" x="192" y="304" width="112.99365234375" height="44"/></g><g transform="translate(10,10) scale(1,1)"><path fill="none" stroke="#000000" d="M 192 304 L 304.99365234375 304 L 304.99365234375 348 L 192 348 L 192 304 Z Z" stroke-miterlimit="10"/></g><g transform="translate(10,10) scale(1,1)"><path fill="none" stroke="#000000" d="M 192 329 L 304.99365234375 329" stroke-miterlimit="10"/></g><g transform="translate(10,10) scale(1,1)"><path fill="none" stroke="#000000" d="M 192 339 L 304.99365234375 339" stroke-miterlimit="10"/></g><g transform="translate(10,10) scale(1,1)"><g><path fill="none" stroke="none"/><text fill="#000000" stroke="none" font-family="Arial" font-size="13px" font-style="normal" font-weight="bold" text-decoration="none" x="200.44189453125" y="323.5">AddlogFragment</text></g></g><g transform="translate(10,10) scale(1,1)"><rect fill="#C0C0C0" stroke="none" x="23" y="343" width="108.66455078125" height="44" opacity="0.2"/></g><g transform="translate(10,10) scale(1,1)"><rect fill="#ffffff" stroke="none" x="16" y="336" width="108.66455078125" height="44"/></g><g transform="translate(10,10) scale(1,1)"><path fill="none" stroke="#000000" d="M 16 336 L 124.66455078125 336 L 124.66455078125 380 L 16 380 L 16 336 Z Z" stroke-miterlimit="10"/></g><g transform="translate(10,10) scale(1,1)"><path fill="none" stroke="#000000" d="M 16 361 L 124.66455078125 361" stroke-miterlimit="10"/></g><g transform="translate(10,10) scale(1,1)"><path fill="none" stroke="#000000" d="M 16 371 L 124.66455078125 371" stroke-miterlimit="10"/></g><g transform="translate(10,10) scale(1,1)"><g><path fill="none" stroke="none"/><text fill="#000000" stroke="none" font-family="Arial" font-size="13px" font-style="normal" font-weight="bold" text-decoration="none" x="23.721435546875" y="355.5">PopupFragment</text></g></g><g transform="translate(10,10) scale(1,1)"><path fill="none" stroke="#000000" d="M 243 349 L 231 415" stroke-miterlimit="10"/></g><g transform="translate(10,10) scale(1,1)"><path fill="#FFFFFF" stroke="none" d="M 226.35267337802927 393.4964571461184 L 231 415 L 242.91914480273093 396.5085428597005"/></g><g transform="translate(10,10) scale(1,1)"><path fill="none" stroke="#000000" d="M 226.35267337802927 393.4964571461184 L 231 415 L 242.91914480273093 396.5085428597005 L 226.35267337802927 393.4964571461184" stroke-miterlimit="10"/></g><g transform="translate(10,10) scale(1,1)"><path fill="none" stroke="#000000" d="M 70 381 L 69 455" stroke-miterlimit="10"/></g><g transform="translate(10,10) scale(1,1)"><path fill="#FFFFFF" stroke="none" d="M 60.85637491630872 434.56274552450174 L 69 455 L 77.69290870834098 434.7902662514211"/></g><g transform="translate(10,10) scale(1,1)"><path fill="none" stroke="#000000" d="M 60.85637491630872 434.56274552450174 L 69 455 L 77.69290870834098 434.7902662514211 L 60.85637491630872 434.56274552450174" stroke-miterlimit="10"/></g><g transform="translate(10,10) scale(1,1)"><rect fill="#C0C0C0" stroke="none" x="239" y="191" width="50.919921875" height="44" opacity="0.2"/></g><g transform="translate(10,10) scale(1,1)"><rect fill="#ffffff" stroke="none" x="232" y="184" width="50.919921875" height="44"/></g><g transform="translate(10,10) scale(1,1)"><path fill="none" stroke="#000000" d="M 232 184 L 282.919921875 184 L 282.919921875 228 L 232 228 L 232 184 Z Z" stroke-miterlimit="10"/></g><g transform="translate(10,10) scale(1,1)"><path fill="none" stroke="#000000" d="M 232 209 L 282.919921875 209" stroke-miterlimit="10"/></g><g transform="translate(10,10) scale(1,1)"><path fill="none" stroke="#000000" d="M 232 219 L 282.919921875 219" stroke-miterlimit="10"/></g><g transform="translate(10,10) scale(1,1)"><g><path fill="none" stroke="none"/><text fill="#000000" stroke="none" font-family="Arial" font-size="13px" font-style="normal" font-weight="bold" text-decoration="none" x="246.986328125" y="203.5">Cra</text></g></g><g transform="translate(10,10) scale(1,1)"><rect fill="#C0C0C0" stroke="none" x="15" y="199" width="134.70263671875" height="44" opacity="0.2"/></g><g transform="translate(10,10) scale(1,1)"><rect fill="#ffffff" stroke="none" x="8" y="192" width="134.70263671875" height="44"/></g><g transform="translate(10,10) scale(1,1)"><path fill="none" stroke="#000000" d="M 8 192 L 142.70263671875 192 L 142.70263671875 236 L 8 236 L 8 192 Z Z" stroke-miterlimit="10"/></g><g transform="translate(10,10) scale(1,1)"><path fill="none" stroke="#000000" d="M 8 217 L 142.70263671875 217" stroke-miterlimit="10"/></g><g transform="translate(10,10) scale(1,1)"><path fill="none" stroke="#000000" d="M 8 227 L 142.70263671875 227" stroke-miterlimit="10"/></g><g transform="translate(10,10) scale(1,1)"><g><path fill="none" stroke="none"/><text fill="#000000" stroke="none" font-family="Arial" font-size="13px" font-style="normal" font-weight="bold" text-decoration="none" x="16.470458984375" y="211.5">CallDetailsFragment</text></g></g><g transform="translate(10,10) scale(1,1)"><rect fill="#C0C0C0" stroke="none" x="263" y="511" width="162.13720703125" height="44" opacity="0.2"/></g><g transform="translate(10,10) scale(1,1)"><rect fill="#ffffff" stroke="none" x="256" y="504" width="162.13720703125" height="44"/></g><g transform="translate(10,10) scale(1,1)"><path fill="none" stroke="#000000" d="M 256 504 L 418.13720703125 504 L 418.13720703125 548 L 256 548 L 256 504 Z Z" stroke-miterlimit="10"/></g><g transform="translate(10,10) scale(1,1)"><path fill="none" stroke="#000000" d="M 256 529 L 418.13720703125 529" stroke-miterlimit="10"/></g><g transform="translate(10,10) scale(1,1)"><path fill="none" stroke="#000000" d="M 256 539 L 418.13720703125 539" stroke-miterlimit="10"/></g><g transform="translate(10,10) scale(1,1)"><g><path fill="none" stroke="none"/><text fill="#000000" stroke="none" font-family="Arial" font-size="13px" font-style="normal" font-weight="bold" text-decoration="none" x="265.898681640625" y="523.5">DisplayCallLogFragment</text></g></g><g transform="translate(10,10) scale(1,1)"><rect fill="#C0C0C0" stroke="none" x="199" y="423" width="68.22998046875" height="44" opacity="0.2"/></g><g transform="translate(10,10) scale(1,1)"><rect fill="#ff0000" stroke="none" x="192" y="416" width="68.22998046875" height="44"/></g><g transform="translate(10,10) scale(1,1)"><path fill="none" stroke="#000000" d="M 192 416 L 260.22998046875 416 L 260.22998046875 460 L 192 460 L 192 416 Z Z" stroke-miterlimit="10"/></g><g transform="translate(10,10) scale(1,1)"><path fill="none" stroke="#000000" d="M 192 441 L 260.22998046875 441" stroke-miterlimit="10"/></g><g transform="translate(10,10) scale(1,1)"><path fill="none" stroke="#000000" d="M 192 451 L 260.22998046875 451" stroke-miterlimit="10"/></g><g transform="translate(10,10) scale(1,1)"><g><path fill="none" stroke="none"/><text fill="#000000" stroke="none" font-family="Arial" font-size="13px" font-style="normal" font-weight="bold" text-decoration="none" x="198.299560546875" y="435.5">Fragment</text></g></g><g transform="translate(10,10) scale(1,1)"><path fill="none" stroke="#000000" d="M 308 503 L 255 461" stroke-miterlimit="10"/></g><g transform="translate(10,10) scale(1,1)"><path fill="#FFFFFF" stroke="none" d="M 276.15881739411816 467.0253171271198 L 255 461 L 265.701000661883 480.22208586065466"/></g><g transform="translate(10,10) scale(1,1)"><path fill="none" stroke="#000000" d="M 276.15881739411816 467.0253171271198 L 255 461 L 265.701000661883 480.22208586065466 L 276.15881739411816 467.0253171271198" stroke-miterlimit="10"/></g><g transform="translate(10,10) scale(1,1)"><path fill="none" stroke="#000000" d="M 91 237 L 210 415" stroke-miterlimit="10"/></g><g transform="translate(10,10) scale(1,1)"><path fill="#FFFFFF" stroke="none" d="M 191.70462180884405 402.7820158437418 L 210 415 L 205.7026334659811 393.4237945673412"/></g><g transform="translate(10,10) scale(1,1)"><path fill="none" stroke="#000000" d="M 191.70462180884405 402.7820158437418 L 210 415 L 205.7026334659811 393.4237945673412 L 191.70462180884405 402.7820158437418" stroke-miterlimit="10"/></g><g transform="translate(10,10) scale(1,1)"><rect fill="#C0C0C0" stroke="none" x="23" y="463" width="107.95361328125" height="44" opacity="0.2"/></g><g transform="translate(10,10) scale(1,1)"><rect fill="#f00000" stroke="none" x="16" y="456" width="107.95361328125" height="44"/></g><g transform="translate(10,10) scale(1,1)"><path fill="none" stroke="#000000" d="M 16 456 L 123.95361328125 456 L 123.95361328125 500 L 16 500 L 16 456 Z Z" stroke-miterlimit="10"/></g><g transform="translate(10,10) scale(1,1)"><path fill="none" stroke="#000000" d="M 16 481 L 123.95361328125 481" stroke-miterlimit="10"/></g><g transform="translate(10,10) scale(1,1)"><path fill="none" stroke="#000000" d="M 16 491 L 123.95361328125 491" stroke-miterlimit="10"/></g><g transform="translate(10,10) scale(1,1)"><g><path fill="none" stroke="none"/><text fill="#000000" stroke="none" font-family="Arial" font-size="13px" font-style="normal" font-weight="bold" text-decoration="none" x="23.734130859375" y="475.5">DialogFragment</text></g></g><g transform="translate(10,10) scale(1,1)"><path fill="none" stroke="#000000" d="M 125 464 L 191 447" stroke-miterlimit="10"/></g><g transform="translate(10,10) scale(1,1)"><path fill="#FFFFFF" stroke="none" d="M 173.41709491638153 460.22276252605576 L 191 447 L 169.2171035342206 443.9169136306073"/></g><g transform="translate(10,10) scale(1,1)"><path fill="none" stroke="#000000" d="M 173.41709491638153 460.22276252605576 L 191 447 L 169.2171035342206 443.9169136306073 L 173.41709491638153 460.22276252605576" stroke-miterlimit="10"/></g><g transform="translate(10,10) scale(1,1)"><rect fill="#C0C0C0" stroke="none" x="399" y="383" width="157.0654296875" height="44" opacity="0.2"/></g><g transform="translate(10,10) scale(1,1)"><rect fill="#ffffff" stroke="none" x="392" y="376" width="157.0654296875" height="44"/></g><g transform="translate(10,10) scale(1,1)"><path fill="none" stroke="#000000" d="M 392 376 L 549.0654296875 376 L 549.0654296875 420 L 392 420 L 392 376 Z Z" stroke-miterlimit="10"/></g><g transform="translate(10,10) scale(1,1)"><path fill="none" stroke="#000000" d="M 392 401 L 549.0654296875 401" stroke-miterlimit="10"/></g><g transform="translate(10,10) scale(1,1)"><path fill="none" stroke="#000000" d="M 392 411 L 549.0654296875 411" stroke-miterlimit="10"/></g><g transform="translate(10,10) scale(1,1)"><g><path fill="none" stroke="none"/><text fill="#000000" stroke="none" font-family="Arial" font-size="13px" font-style="normal" font-weight="bold" text-decoration="none" x="404.767822265625" y="395.5">PendingLogsFragment</text></g></g><g transform="translate(10,10) scale(1,1)"><path fill="none" stroke="#000000" d="M 391 411 L 261 432" stroke-miterlimit="10"/></g><g transform="translate(10,10) scale(1,1)"><path fill="#FFFFFF" stroke="none" d="M 279.72264416459427 420.4473987567308 L 261 432 L 282.4078313299871 437.0699859710676"/></g><g transform="translate(10,10) scale(1,1)"><path fill="none" stroke="#000000" d="M 279.72264416459427 420.4473987567308 L 261 432 L 282.4078313299871 437.0699859710676 L 279.72264416459427 420.4473987567308" stroke-miterlimit="10"/></g><g transform="translate(10,10) scale(1,1)"><rect fill="#C0C0C0" stroke="none" x="567" y="23" width="117.392578125" height="57" opacity="0.2"/></g><g transform="translate(10,10) scale(1,1)"><rect fill="#ffffff" stroke="none" x="560" y="16" width="117.392578125" height="57"/></g><g transform="translate(10,10) scale(1,1)"><path fill="none" stroke="#000000" d="M 560 16 L 677.392578125 16 L 677.392578125 73 L 560 73 L 560 16 Z Z" stroke-miterlimit="10"/></g><g transform="translate(10,10) scale(1,1)"><path fill="none" stroke="#000000" d="M 560 54 L 677.392578125 54" stroke-miterlimit="10"/></g><g transform="translate(10,10) scale(1,1)"><path fill="none" stroke="#000000" d="M 560 64 L 677.392578125 64" stroke-miterlimit="10"/></g><g transform="translate(10,10) scale(1,1)"><g><path fill="none" stroke="none"/><text fill="#000000" stroke="none" font-family="Arial" font-size="13px" font-style="normal" font-weight="normal" text-decoration="none" x="586.535888671875" y="33.5">«interface»</text></g></g><g transform="translate(10,10) scale(1,1)"><g><path fill="none" stroke="none"/><text fill="#000000" stroke="none" font-family="Arial" font-size="13px" font-style="normal" font-weight="bold" text-decoration="none" x="567.75634765625" y="48.5">ServiceGenerator</text></g></g><g transform="translate(10,10) scale(1,1)"><g><path fill="none" stroke="none"/><text fill="#000000" stroke="none" font-family="Arial" font-size="13px" font-style="normal" font-weight="normal" text-decoration="none" x="693" y="26">CRMTAB</text></g></g><g transform="translate(10,10) scale(1,1)"><rect fill="#C0C0C0" stroke="none" x="663" y="303" width="85.57177734375" height="44" opacity="0.2"/></g><g transform="translate(10,10) scale(1,1)"><rect fill="#ffffff" stroke="none" x="656" y="296" width="85.57177734375" height="44"/></g><g transform="translate(10,10) scale(1,1)"><path fill="none" stroke="#000000" d="M 656 296 L 741.57177734375 296 L 741.57177734375 340 L 656 340 L 656 296 Z Z" stroke-miterlimit="10"/></g><g transform="translate(10,10) scale(1,1)"><path fill="none" stroke="#000000" d="M 656 321 L 741.57177734375 321" stroke-miterlimit="10"/></g><g transform="translate(10,10) scale(1,1)"><path fill="none" stroke="#000000" d="M 656 331 L 741.57177734375 331" stroke-miterlimit="10"/></g><g transform="translate(10,10) scale(1,1)"><g><path fill="none" stroke="none"/><text fill="#000000" stroke="none" font-family="Arial" font-size="13px" font-style="normal" font-weight="bold" text-decoration="none" x="664.11181640625" y="315.5">MainActivity</text></g></g><g transform="translate(10,10) scale(1,1)"><path fill="none" stroke="#000000" d="M 57 119 L 57 69" stroke-miterlimit="10"/></g><g transform="translate(10,10) scale(1,1)"><path fill="#FFFFFF" stroke="none" d="M 65.41903551203198 89.32534971524831 L 57 69 L 48.580964487968025 89.32534971524831"/></g><g transform="translate(10,10) scale(1,1)"><path fill="none" stroke="#000000" d="M 65.41903551203198 89.32534971524831 L 57 69 L 48.580964487968025 89.32534971524831 L 65.41903551203198 89.32534971524831" stroke-miterlimit="10"/></g><g transform="translate(10,10) scale(1,1)"><rect fill="#C0C0C0" stroke="none" x="527" y="495" width="224.28076171875" height="44" opacity="0.2"/></g><g transform="translate(10,10) scale(1,1)"><rect fill="#ffffff" stroke="none" x="520" y="488" width="224.28076171875" height="44"/></g><g transform="translate(10,10) scale(1,1)"><path fill="none" stroke="#000000" d="M 520 488 L 744.28076171875 488 L 744.28076171875 532 L 520 532 L 520 488 Z Z" stroke-miterlimit="10"/></g><g transform="translate(10,10) scale(1,1)"><path fill="none" stroke="#000000" d="M 520 513 L 744.28076171875 513" stroke-miterlimit="10"/></g><g transform="translate(10,10) scale(1,1)"><path fill="none" stroke="#000000" d="M 520 523 L 744.28076171875 523" stroke-miterlimit="10"/></g><g transform="translate(10,10) scale(1,1)"><g><path fill="none" stroke="none"/><text fill="#000000" stroke="none" font-family="Arial" font-size="13px" font-style="normal" font-weight="bold" text-decoration="none" x="532.0537109375" y="507.5">PendingLogsRecyclerViewAdapter</text></g></g><g transform="translate(10,10) scale(1,1)"><path fill="none" stroke="#000000" d="M 503 421 L 599 487" stroke-miterlimit="10"/></g><g transform="translate(10,10) scale(1,1)"><path fill="none" stroke="#000000" d="M 588.2407167160729 484.71137088714505 L 599 487 L 593.0103429945488 477.77373266390737" stroke-miterlimit="10"/></g><g transform="translate(10,10) scale(1,1)"><rect fill="#C0C0C0" stroke="none" x="423" y="591" width="189.6162109375" height="44" opacity="0.2"/></g><g transform="translate(10,10) scale(1,1)"><rect fill="#ffffff" stroke="none" x="416" y="584" width="189.6162109375" height="44"/></g><g transform="translate(10,10) scale(1,1)"><path fill="none" stroke="#000000" d="M 416 584 L 605.6162109375 584 L 605.6162109375 628 L 416 628 L 416 584 Z Z" stroke-miterlimit="10"/></g><g transform="translate(10,10) scale(1,1)"><path fill="none" stroke="#000000" d="M 416 609 L 605.6162109375 609" stroke-miterlimit="10"/></g><g transform="translate(10,10) scale(1,1)"><path fill="none" stroke="#000000" d="M 416 619 L 605.6162109375 619" stroke-miterlimit="10"/></g><g transform="translate(10,10) scale(1,1)"><g><path fill="none" stroke="none"/><text fill="#000000" stroke="none" font-family="Arial" font-size="13px" font-style="normal" font-weight="bold" text-decoration="none" x="426.628662109375" y="603.5">CallLogRecyclerViewAdapter</text></g></g><g transform="translate(10,10) scale(1,1)"><path fill="none" stroke="#000000" d="M 387 549 L 460 583" stroke-miterlimit="10"/></g><g transform="translate(10,10) scale(1,1)"><path fill="none" stroke="#000000" d="M 449.0102522234106 582.5251907678357 L 460 583 L 452.56481565147715 574.8933339958105" stroke-miterlimit="10"/></g><g transform="translate(10,10) scale(1,1)"><rect fill="#C0C0C0" stroke="none" x="367" y="95" width="92.7890625" height="44" opacity="0.2"/></g><g transform="translate(10,10) scale(1,1)"><rect fill="#ffffff" stroke="none" x="360" y="88" width="92.7890625" height="44"/></g><g transform="translate(10,10) scale(1,1)"><path fill="none" stroke="#000000" d="M 360 88 L 452.7890625 88 L 452.7890625 132 L 360 132 L 360 88 Z Z" stroke-miterlimit="10"/></g><g transform="translate(10,10) scale(1,1)"><path fill="none" stroke="#000000" d="M 360 113 L 452.7890625 113" stroke-miterlimit="10"/></g><g transform="translate(10,10) scale(1,1)"><path fill="none" stroke="#000000" d="M 360 123 L 452.7890625 123" stroke-miterlimit="10"/></g><g transform="translate(10,10) scale(1,1)"><g><path fill="none" stroke="none"/><text fill="#000000" stroke="none" font-family="Arial" font-size="13px" font-style="normal" font-weight="bold" text-decoration="none" x="367.74365234375" y="107.5">CraController</text></g></g><g transform="translate(10,10) scale(1,1)"><path fill="none" stroke="#000000" d="M 454 95 L 559 62" stroke-miterlimit="10" stroke-dasharray="3"/></g><g transform="translate(10,10) scale(1,1)"><path fill="none" stroke="#000000" d="M 550.5669974216207 69.06289370676414 L 559 62 L 548.0427466562116 61.0311867259171" stroke-miterlimit="10"/></g><g transform="translate(10,10) scale(1,1)"><path fill="none" stroke="#000000" d="M 370 133 L 284 189" stroke-miterlimit="10" stroke-dasharray="3"/></g><g transform="translate(10,10) scale(1,1)"><path fill="none" stroke="#000000" d="M 290.2192811620465 179.9269331630692 L 284 189 L 294.8133229703414 186.9820687972363" stroke-miterlimit="10"/></g><g transform="translate(10,10) scale(1,1)"><path fill="none" stroke="#000000" d="M 144 211 L 231 207" stroke-miterlimit="10" stroke-dasharray="3"/></g><g transform="translate(10,10) scale(1,1)"><path fill="none" stroke="#000000" d="M 221.04138631693783 211.67183192243974 L 231 207 L 220.65471270056867 203.26168076641054" stroke-miterlimit="10"/></g><g transform="translate(10,10) scale(1,1)"><path fill="none" stroke="#000000" d="M 250 303 L 255 229" stroke-miterlimit="10" stroke-dasharray="3"/></g><g transform="translate(10,10) scale(1,1)"><path fill="none" stroke="#000000" d="M 258.5148363971853 239.42333560339594 L 255 229 L 250.1149533634666 238.85577593895547" stroke-miterlimit="10"/></g><g transform="translate(10,10) scale(1,1)"><path fill="none" stroke="#000000" d="M 444 375 L 283 229" stroke-miterlimit="10" stroke-dasharray="3"/></g><g transform="translate(10,10) scale(1,1)"><path fill="none" stroke="#000000" d="M 293.3559975882406 232.7085460698709 L 283 229 L 287.70045804624806 238.9451341949449" stroke-miterlimit="10"/></g><g transform="translate(10,10) scale(1,1)"><rect fill="#C0C0C0" stroke="none" x="543" y="111" width="198.96630859375" height="44" opacity="0.2"/></g><g transform="translate(10,10) scale(1,1)"><rect fill="#ffffff" stroke="none" x="536" y="104" width="198.96630859375" height="44"/></g><g transform="translate(10,10) scale(1,1)"><path fill="none" stroke="#000000" d="M 536 104 L 734.96630859375 104 L 734.96630859375 148 L 536 148 L 536 104 Z Z" stroke-miterlimit="10"/></g><g transform="translate(10,10) scale(1,1)"><path fill="none" stroke="#000000" d="M 536 129 L 734.96630859375 129" stroke-miterlimit="10"/></g><g transform="translate(10,10) scale(1,1)"><path fill="none" stroke="#000000" d="M 536 139 L 734.96630859375 139" stroke-miterlimit="10"/></g><g transform="translate(10,10) scale(1,1)"><g><path fill="none" stroke="none"/><text fill="#000000" stroke="none" font-family="Arial" font-size="13px" font-style="normal" font-weight="bold" text-decoration="none" x="547.32373046875" y="123.5">DisplayAddLogFragmentEvent</text></g></g><g transform="translate(10,10) scale(1,1)"><rect fill="#C0C0C0" stroke="none" x="543" y="175" width="191.75537109375" height="44" opacity="0.2"/></g><g transform="translate(10,10) scale(1,1)"><rect fill="#ffffff" stroke="none" x="536" y="168" width="191.75537109375" height="44"/></g><g transform="translate(10,10) scale(1,1)"><path fill="none" stroke="#000000" d="M 536 168 L 727.75537109375 168 L 727.75537109375 212 L 536 212 L 536 168 Z Z" stroke-miterlimit="10"/></g><g transform="translate(10,10) scale(1,1)"><path fill="none" stroke="#000000" d="M 536 193 L 727.75537109375 193" stroke-miterlimit="10"/></g><g transform="translate(10,10) scale(1,1)"><path fill="none" stroke="#000000" d="M 536 203 L 727.75537109375 203" stroke-miterlimit="10"/></g><g transform="translate(10,10) scale(1,1)"><g><path fill="none" stroke="none"/><text fill="#000000" stroke="none" font-family="Arial" font-size="13px" font-style="normal" font-weight="bold" text-decoration="none" x="546.254150390625" y="187.5">DisplayPopUpFragmentEvent</text></g></g><g transform="translate(10,10) scale(1,1)"><rect fill="#C0C0C0" stroke="none" x="543" y="239" width="119.5" height="44" opacity="0.2"/></g><g transform="translate(10,10) scale(1,1)"><rect fill="#ffffff" stroke="none" x="536" y="232" width="119.5" height="44"/></g><g transform="translate(10,10) scale(1,1)"><path fill="none" stroke="#000000" d="M 536 232 L 655.5 232 L 655.5 276 L 536 276 L 536 232 Z Z" stroke-miterlimit="10"/></g><g transform="translate(10,10) scale(1,1)"><path fill="none" stroke="#000000" d="M 536 257 L 655.5 257" stroke-miterlimit="10"/></g><g transform="translate(10,10) scale(1,1)"><path fill="none" stroke="#000000" d="M 536 267 L 655.5 267" stroke-miterlimit="10"/></g><g transform="translate(10,10) scale(1,1)"><g><path fill="none" stroke="none"/><text fill="#000000" stroke="none" font-family="Arial" font-size="13px" font-style="normal" font-weight="bold" text-decoration="none" x="544.42919921875" y="251.5">PendingLogEvent</text></g></g><g transform="translate(10,10) scale(1,1)"><rect fill="#C0C0C0" stroke="none" x="599" y="415" width="175.84814453125" height="44" opacity="0.2"/></g><g transform="translate(10,10) scale(1,1)"><rect fill="#ffffff" stroke="none" x="592" y="408" width="175.84814453125" height="44"/></g><g transform="translate(10,10) scale(1,1)"><path fill="none" stroke="#000000" d="M 592 408 L 767.84814453125 408 L 767.84814453125 452 L 592 452 L 592 408 Z Z" stroke-miterlimit="10"/></g><g transform="translate(10,10) scale(1,1)"><path fill="none" stroke="#000000" d="M 592 433 L 767.84814453125 433" stroke-miterlimit="10"/></g><g transform="translate(10,10) scale(1,1)"><path fill="none" stroke="#000000" d="M 592 443 L 767.84814453125 443" stroke-miterlimit="10"/></g><g transform="translate(10,10) scale(1,1)"><g><path fill="none" stroke="none"/><text fill="#000000" stroke="none" font-family="Arial" font-size="13px" font-style="normal" font-weight="bold" text-decoration="none" x="602.971435546875" y="427.5">OnListFragmentInteraction</text></g></g><g transform="translate(10,10) scale(1,1)"><rect fill="#C0C0C0" stroke="none" x="471" y="303" width="136.8544921875" height="44" opacity="0.2"/></g><g transform="translate(10,10) scale(1,1)"><rect fill="#ffffff" stroke="none" x="464" y="296" width="136.8544921875" height="44"/></g><g transform="translate(10,10) scale(1,1)"><path fill="none" stroke="#000000" d="M 464 296 L 600.8544921875 296 L 600.8544921875 340 L 464 340 L 464 296 Z Z" stroke-miterlimit="10"/></g><g transform="translate(10,10) scale(1,1)"><path fill="none" stroke="#000000" d="M 464 321 L 600.8544921875 321" stroke-miterlimit="10"/></g><g transform="translate(10,10) scale(1,1)"><path fill="none" stroke="#000000" d="M 464 331 L 600.8544921875 331" stroke-miterlimit="10"/></g><g transform="translate(10,10) scale(1,1)"><g><path fill="none" stroke="none"/><text fill="#000000" stroke="none" font-family="Arial" font-size="13px" font-style="normal" font-weight="bold" text-decoration="none" x="471.727783203125" y="315.5">CallEndedEventDAO</text></g></g><g transform="translate(10,10) scale(1,1)"><rect fill="#C0C0C0" stroke="none" x="423" y="207" width="107.96630859375" height="44" opacity="0.2"/></g><g transform="translate(10,10) scale(1,1)"><rect fill="#ffffff" stroke="none" x="416" y="200" width="107.96630859375" height="44"/></g><g transform="translate(10,10) scale(1,1)"><path fill="none" stroke="#000000" d="M 416 200 L 523.96630859375 200 L 523.96630859375 244 L 416 244 L 416 200 Z Z" stroke-miterlimit="10"/></g><g transform="translate(10,10) scale(1,1)"><path fill="none" stroke="#000000" d="M 416 225 L 523.96630859375 225" stroke-miterlimit="10"/></g><g transform="translate(10,10) scale(1,1)"><path fill="none" stroke="#000000" d="M 416 235 L 523.96630859375 235" stroke-miterlimit="10"/></g><g transform="translate(10,10) scale(1,1)"><g><path fill="none" stroke="none"/><text fill="#000000" stroke="none" font-family="Arial" font-size="13px" font-style="normal" font-weight="bold" text-decoration="none" x="423.369140625" y="219.5">CallEndedEvent</text></g></g><g transform="translate(10,10) scale(1,1)"><path fill="none" stroke="#000000" d="M 517 295 L 484 245" stroke-miterlimit="10" stroke-dasharray="3"/></g><g transform="translate(10,10) scale(1,1)"><path fill="none" stroke="#000000" d="M 493.1113333773805 251.16308397527015 L 484 245 L 486.0847271448614 255.80064408873275" stroke-miterlimit="10"/></g><g transform="translate(10,10) scale(1,1)"><rect fill="#C0C0C0" stroke="none" x="343" y="215" width="54.4873046875" height="44" opacity="0.2"/></g><g transform="translate(10,10) scale(1,1)"><rect fill="#ffffff" stroke="none" x="336" y="208" width="54.4873046875" height="44"/></g><g transform="translate(10,10) scale(1,1)"><path fill="none" stroke="#000000" d="M 336 208 L 390.4873046875 208 L 390.4873046875 252 L 336 252 L 336 208 Z Z" stroke-miterlimit="10"/></g><g transform="translate(10,10) scale(1,1)"><path fill="none" stroke="#000000" d="M 336 233 L 390.4873046875 233" stroke-miterlimit="10"/></g><g transform="translate(10,10) scale(1,1)"><path fill="none" stroke="#000000" d="M 336 243 L 390.4873046875 243" stroke-miterlimit="10"/></g><g transform="translate(10,10) scale(1,1)"><g><path fill="none" stroke="none"/><text fill="#000000" stroke="none" font-family="Arial" font-size="13px" font-style="normal" font-weight="bold" text-decoration="none" x="342.2900390625" y="227.5">dbFlow</text></g></g><g transform="translate(10,10) scale(1,1)"><path fill="none" stroke="#000000" d="M 488 295 L 391 245" stroke-miterlimit="10" stroke-dasharray="3"/></g><g transform="translate(10,10) scale(1,1)"><path fill="none" stroke="#000000" d="M 401.9619103280774 245.9146157440095 L 391 245 L 398.1045101329733 253.39797212251148" stroke-miterlimit="10"/></g></g></svg>