<svg version="1.1" xmlns="http://www.w3.org/2000/svg" xmlns:xlink="http://www.w3.org/1999/xlink" width="1146.30810546875" height="476"><defs/><g><g transform="translate(-118,-102) scale(1,1)"><path fill="#C0C0C0" stroke="none" d="M 135 136.5 C 135 131.2532944 139.2532944 127 144.5 127 C 149.7467056 127 154 131.2532944 154 136.5 C 154 141.7467056 149.7467056 146 144.5 146 C 139.2532944 146 135 141.7467056 135 136.5 Z" opacity="0.2"/></g><g transform="translate(-118,-102) scale(1,1)"><path fill="#000000" stroke="none" d="M 128 129.5 C 128 124.2532944 132.2532944 120 137.5 120 C 142.7467056 120 147 124.2532944 147 129.5 C 147 134.7467056 142.7467056 139 137.5 139 C 132.2532944 139 128 134.7467056 128 129.5 Z"/></g><g transform="translate(-118,-102) scale(1,1)"><path fill="#C0C0C0" stroke="none" d="M 409 119 L 579.37158203125 119 Q 589.37158203125 119 589.37158203125 129 L 589.37158203125 149 Q 589.37158203125 159 579.37158203125 159 L 409 159 Q 399 159 399 149 L 399 129 Q 399 119 409 119 Z" opacity="0.2"/></g><g transform="translate(-118,-102) scale(1,1)"><path fill="#ffffff" stroke="none" d="M 402 112 L 572.37158203125 112 Q 582.37158203125 112 582.37158203125 122 L 582.37158203125 142 Q 582.37158203125 152 572.37158203125 152 L 402 152 Q 392 152 392 142 L 392 122 Q 392 112 402 112 Z"/></g><g transform="translate(-118,-102) scale(1,1)"><path fill="none" stroke="#000000" d="M 402 112 L 572.37158203125 112 Q 582.37158203125 112 582.37158203125 122 L 582.37158203125 142 Q 582.37158203125 152 572.37158203125 152 L 402 152 Q 392 152 392 142 L 392 122 Q 392 112 402 112 Z" stroke-miterlimit="10"/></g><g transform="translate(-118,-102) scale(1,1)"><g><path fill="none" stroke="none"/><text fill="#000000" stroke="none" font-family="Arial" font-size="13px" font-style="normal" font-weight="bold" text-decoration="none" x="403.009521484375" y="131.5">System analyse all prospects</text></g></g><g transform="translate(-118,-102) scale(1,1)"><path fill="none" stroke="#000000" d="M 147 131 L 392 131" stroke-miterlimit="10"/></g><g transform="translate(-118,-102) scale(1,1)"><path fill="none" stroke="#000000" d="M 381.83732514237585 135.209517756016 L 392 131 L 381.83732514237585 126.79048224398402" stroke-miterlimit="10"/></g><g transform="translate(-118,-102) scale(1,1)"><path fill="#C0C0C0" stroke="none" d="M 345 191 L 667.76611328125 191 Q 677.76611328125 191 677.76611328125 201 L 677.76611328125 221 Q 677.76611328125 231 667.76611328125 231 L 345 231 Q 335 231 335 221 L 335 201 Q 335 191 345 191 Z" opacity="0.2"/></g><g transform="translate(-118,-102) scale(1,1)"><path fill="#ffffff" stroke="none" d="M 338 184 L 660.76611328125 184 Q 670.76611328125 184 670.76611328125 194 L 670.76611328125 214 Q 670.76611328125 224 660.76611328125 224 L 338 224 Q 328 224 328 214 L 328 194 Q 328 184 338 184 Z"/></g><g transform="translate(-118,-102) scale(1,1)"><path fill="none" stroke="#000000" d="M 338 184 L 660.76611328125 184 Q 670.76611328125 184 670.76611328125 194 L 670.76611328125 214 Q 670.76611328125 224 660.76611328125 224 L 338 224 Q 328 224 328 214 L 328 194 Q 328 184 338 184 Z" stroke-miterlimit="10"/></g><g transform="translate(-118,-102) scale(1,1)"><g><path fill="none" stroke="none"/><text fill="#000000" stroke="none" font-family="Arial" font-size="13px" font-style="normal" font-weight="bold" text-decoration="none" x="344.385986328125" y="203.5">System find prospect who have the best sales volume</text></g></g><g transform="translate(-118,-102) scale(1,1)"><path fill="none" stroke="#000000" d="M 488 152 L 488 184" stroke-miterlimit="10"/></g><g transform="translate(-118,-102) scale(1,1)"><path fill="none" stroke="#000000" d="M 483.790482243984 173.83732514237585 L 488 184 L 492.209517756016 173.83732514237585" stroke-miterlimit="10"/></g><g transform="translate(-118,-102) scale(1,1)"><path fill="#C0C0C0" stroke="none" d="M 495 296.5 L 506.5 287 L 517 296.5 L 506.5 305 L 495 296.5" opacity="0.2"/></g><g transform="translate(-118,-102) scale(1,1)"><path fill="#ffffff" stroke="none" d="M 488 289 L 499 280 L 510 289 L 499 298 L 488 289"/></g><g transform="translate(-118,-102) scale(1,1)"><path fill="none" stroke="#000000" d="M 488 289 L 499 280 L 510 289 L 499 298 L 488 289 L 488 289" stroke-miterlimit="10"/></g><g transform="translate(-118,-102) scale(1,1)"><path fill="none" stroke="#000000" d="M 498 224 L 498 280" stroke-miterlimit="10"/></g><g transform="translate(-118,-102) scale(1,1)"><path fill="none" stroke="#000000" d="M 493.790482243984 269.83732514237585 L 498 280 L 502.209517756016 269.83732514237585" stroke-miterlimit="10"/></g><g transform="translate(-118,-102) scale(1,1)"><path fill="#C0C0C0" stroke="none" d="M 793 279 L 989.2890625 279 Q 999.2890625 279 999.2890625 289 L 999.2890625 309 Q 999.2890625 319 989.2890625 319 L 793 319 Q 783 319 783 309 L 783 289 Q 783 279 793 279 Z" opacity="0.2"/></g><g transform="translate(-118,-102) scale(1,1)"><path fill="#ffffff" stroke="none" d="M 786 272 L 982.2890625 272 Q 992.2890625 272 992.2890625 282 L 992.2890625 302 Q 992.2890625 312 982.2890625 312 L 786 312 Q 776 312 776 302 L 776 282 Q 776 272 786 272 Z"/></g><g transform="translate(-118,-102) scale(1,1)"><path fill="none" stroke="#000000" d="M 786 272 L 982.2890625 272 Q 992.2890625 272 992.2890625 282 L 992.2890625 302 Q 992.2890625 312 982.2890625 312 L 786 312 Q 776 312 776 302 L 776 282 Q 776 272 786 272 Z" stroke-miterlimit="10"/></g><g transform="translate(-118,-102) scale(1,1)"><g><path fill="none" stroke="none"/><text fill="#000000" stroke="none" font-family="Arial" font-size="13px" font-style="normal" font-weight="bold" text-decoration="none" x="789.4755859375" y="291.5">Sent a notification to collaborator</text></g></g><g transform="translate(-118,-102) scale(1,1)"><path fill="none" stroke="#000000" d="M 510 292 L 776 292" stroke-miterlimit="10"/></g><g transform="translate(-118,-102) scale(1,1)"><path fill="none" stroke="#000000" d="M 765.8373251423759 296.209517756016 L 776 292 L 765.8373251423758 287.790482243984" stroke-miterlimit="10"/></g><g transform="translate(-118,-102) scale(1,1)"><g><path fill="none" stroke="none"/><text fill="#000000" stroke="none" font-family="Arial" font-size="13px" font-style="normal" font-weight="normal" text-decoration="none" x="597" y="284">have a prospect</text></g></g><g transform="translate(-118,-102) scale(1,1)"><path fill="#C0C0C0" stroke="none" d="M 817 191 L 943.2744140625 191 Q 953.2744140625 191 953.2744140625 201 L 953.2744140625 221 Q 953.2744140625 231 943.2744140625 231 L 817 231 Q 807 231 807 221 L 807 201 Q 807 191 817 191 Z" opacity="0.2"/></g><g transform="translate(-118,-102) scale(1,1)"><path fill="#ffffff" stroke="none" d="M 810 184 L 936.2744140625 184 Q 946.2744140625 184 946.2744140625 194 L 946.2744140625 214 Q 946.2744140625 224 936.2744140625 224 L 810 224 Q 800 224 800 214 L 800 194 Q 800 184 810 184 Z"/></g><g transform="translate(-118,-102) scale(1,1)"><path fill="none" stroke="#000000" d="M 810 184 L 936.2744140625 184 Q 946.2744140625 184 946.2744140625 194 L 946.2744140625 214 Q 946.2744140625 224 936.2744140625 224 L 810 224 Q 800 224 800 214 L 800 194 Q 800 184 810 184 Z" stroke-miterlimit="10"/></g><g transform="translate(-118,-102) scale(1,1)"><g><path fill="none" stroke="none"/><text fill="#000000" stroke="none" font-family="Arial" font-size="13px" font-style="normal" font-weight="bold" text-decoration="none" x="809.181396484375" y="203.5">See all prospect detail</text></g></g><g transform="translate(-118,-102) scale(1,1)"><path fill="none" stroke="#000000" d="M 883 272 L 883 224" stroke-miterlimit="10"/></g><g transform="translate(-118,-102) scale(1,1)"><path fill="none" stroke="#000000" d="M 887.209517756016 234.16267485762415 L 883 224 L 878.790482243984 234.16267485762415" stroke-miterlimit="10"/></g><g transform="translate(-118,-102) scale(1,1)"><path fill="#C0C0C0" stroke="none" d="M 353 351 L 667.787109375 351 Q 677.787109375 351 677.787109375 361 L 677.787109375 381 Q 677.787109375 391 667.787109375 391 L 353 391 Q 343 391 343 381 L 343 361 Q 343 351 353 351 Z" opacity="0.2"/></g><g transform="translate(-118,-102) scale(1,1)"><path fill="#ffffff" stroke="none" d="M 346 344 L 660.787109375 344 Q 670.787109375 344 670.787109375 354 L 670.787109375 374 Q 670.787109375 384 660.787109375 384 L 346 384 Q 336 384 336 374 L 336 354 Q 336 344 346 344 Z"/></g><g transform="translate(-118,-102) scale(1,1)"><path fill="none" stroke="#000000" d="M 346 344 L 660.787109375 344 Q 670.787109375 344 670.787109375 354 L 670.787109375 374 Q 670.787109375 384 660.787109375 384 L 346 384 Q 336 384 336 374 L 336 354 Q 336 344 346 344 Z" stroke-miterlimit="10"/></g><g transform="translate(-118,-102) scale(1,1)"><g><path fill="none" stroke="none"/><text fill="#000000" stroke="none" font-family="Arial" font-size="13px" font-style="normal" font-weight="bold" text-decoration="none" x="353.08740234375" y="363.5">System find prospect who have the best relationship</text></g></g><g transform="translate(-118,-102) scale(1,1)"><path fill="none" stroke="#000000" d="M 499 298 L 499 344" stroke-miterlimit="10"/></g><g transform="translate(-118,-102) scale(1,1)"><path fill="none" stroke="#000000" d="M 494.790482243984 333.83732514237585 L 499 344 L 503.209517756016 333.83732514237585" stroke-miterlimit="10"/></g><g transform="translate(-118,-102) scale(1,1)"><g><path fill="none" stroke="none"/><text fill="#000000" stroke="none" font-family="Arial" font-size="13px" font-style="normal" font-weight="normal" text-decoration="none" x="504" y="325">more than one prospect</text></g></g><g transform="translate(-118,-102) scale(1,1)"><path fill="#C0C0C0" stroke="none" d="M 495 456.5 L 506.5 447 L 517 456.5 L 506.5 465 L 495 456.5" opacity="0.2"/></g><g transform="translate(-118,-102) scale(1,1)"><path fill="#ffffff" stroke="none" d="M 488 449 L 499 440 L 510 449 L 499 458 L 488 449"/></g><g transform="translate(-118,-102) scale(1,1)"><path fill="none" stroke="#000000" d="M 488 449 L 499 440 L 510 449 L 499 458 L 488 449 L 488 449" stroke-miterlimit="10"/></g><g transform="translate(-118,-102) scale(1,1)"><path fill="none" stroke="#000000" d="M 502 384 L 502 440" stroke-miterlimit="10"/></g><g transform="translate(-118,-102) scale(1,1)"><path fill="none" stroke="#000000" d="M 497.790482243984 429.83732514237585 L 502 440 L 506.209517756016 429.83732514237585" stroke-miterlimit="10"/></g><g transform="translate(-118,-102) scale(1,1)"><path fill="none" stroke="#000000" d="M 510 444 L 888 444 L 888 312" stroke-miterlimit="10"/></g><g transform="translate(-118,-102) scale(1,1)"><path fill="none" stroke="#000000" d="M 892.209517756016 322.16267485762415 L 888 312 L 883.790482243984 322.16267485762415" stroke-miterlimit="10"/></g><g transform="translate(-118,-102) scale(1,1)"><g><path fill="none" stroke="none"/><text fill="#000000" stroke="none" font-family="Arial" font-size="13px" font-style="normal" font-weight="normal" text-decoration="none" x="782" y="437">have a prospect</text></g></g><g transform="translate(-118,-102) scale(1,1)"><path fill="#C0C0C0" stroke="none" d="M 1081 191 L 1251.30810546875 191 Q 1261.30810546875 191 1261.30810546875 201 L 1261.30810546875 221 Q 1261.30810546875 231 1251.30810546875 231 L 1081 231 Q 1071 231 1071 221 L 1071 201 Q 1071 191 1081 191 Z" opacity="0.2"/></g><g transform="translate(-118,-102) scale(1,1)"><path fill="#ffffff" stroke="none" d="M 1074 184 L 1244.30810546875 184 Q 1254.30810546875 184 1254.30810546875 194 L 1254.30810546875 214 Q 1254.30810546875 224 1244.30810546875 224 L 1074 224 Q 1064 224 1064 214 L 1064 194 Q 1064 184 1074 184 Z"/></g><g transform="translate(-118,-102) scale(1,1)"><path fill="none" stroke="#000000" d="M 1074 184 L 1244.30810546875 184 Q 1254.30810546875 184 1254.30810546875 194 L 1254.30810546875 214 Q 1254.30810546875 224 1244.30810546875 224 L 1074 224 Q 1064 224 1064 214 L 1064 194 Q 1064 184 1074 184 Z" stroke-miterlimit="10"/></g><g transform="translate(-118,-102) scale(1,1)"><g><path fill="none" stroke="none"/><text fill="#000000" stroke="none" font-family="Arial" font-size="13px" font-style="normal" font-weight="bold" text-decoration="none" x="1077.1455078125" y="203.5">Insert prospect into client list</text></g></g><g transform="translate(-118,-102) scale(1,1)"><path fill="none" stroke="#000000" d="M 947 204 L 1063 204" stroke-miterlimit="10"/></g><g transform="translate(-118,-102) scale(1,1)"><path fill="none" stroke="#000000" d="M 1052.837325142376 208.209517756016 L 1063 204 L 1052.837325142376 199.790482243984" stroke-miterlimit="10"/></g><g transform="translate(-118,-102) scale(1,1)"><path fill="#C0C0C0" stroke="none" d="M 1151 339.5 C 1151 332.59644 1156.59644 327 1163.5 327 C 1170.40356 327 1176 332.59644 1176 339.5 C 1176 346.40356 1170.40356 352 1163.5 352 C 1156.59644 352 1151 346.40356 1151 339.5 Z" opacity="0.2"/></g><g transform="translate(-118,-102) scale(1,1)"><path fill="none" stroke="#000000" d="M 1144 332.5 C 1144 325.59644 1149.59644 320 1156.5 320 C 1163.40356 320 1169 325.59644 1169 332.5 C 1169 339.40356 1163.40356 345 1156.5 345 C 1149.59644 345 1144 339.40356 1144 332.5 Z" stroke-miterlimit="10"/></g><g transform="translate(-118,-102) scale(1,1)"><path fill="#000000" stroke="none" d="M 1149 332.5 C 1149 328.357864 1152.357864 325 1156.5 325 C 1160.642136 325 1164 328.357864 1164 332.5 C 1164 336.642136 1160.642136 340 1156.5 340 C 1152.357864 340 1149 336.642136 1149 332.5 Z"/></g><g transform="translate(-118,-102) scale(1,1)"><path fill="none" stroke="#000000" d="M 1152 224 L 1152 320" stroke-miterlimit="10"/></g><g transform="translate(-118,-102) scale(1,1)"><path fill="none" stroke="#000000" d="M 1147.7904822439841 309.83732514237585 L 1152 320 L 1156.2095177560159 309.83732514237585" stroke-miterlimit="10"/></g><g transform="translate(-118,-102) scale(1,1)"><path fill="#C0C0C0" stroke="none" d="M 401 535 L 639.20263671875 535 Q 649.20263671875 535 649.20263671875 545 L 649.20263671875 565 Q 649.20263671875 575 639.20263671875 575 L 401 575 Q 391 575 391 565 L 391 545 Q 391 535 401 535 Z" opacity="0.2"/></g><g transform="translate(-118,-102) scale(1,1)"><path fill="#ffffff" stroke="none" d="M 394 528 L 632.20263671875 528 Q 642.20263671875 528 642.20263671875 538 L 642.20263671875 558 Q 642.20263671875 568 632.20263671875 568 L 394 568 Q 384 568 384 558 L 384 538 Q 384 528 394 528 Z"/></g><g transform="translate(-118,-102) scale(1,1)"><path fill="none" stroke="#000000" d="M 394 528 L 632.20263671875 528 Q 642.20263671875 528 642.20263671875 538 L 642.20263671875 558 Q 642.20263671875 568 632.20263671875 568 L 394 568 Q 384 568 384 558 L 384 538 Q 384 528 394 528 Z" stroke-miterlimit="10"/></g><g transform="translate(-118,-102) scale(1,1)"><g><path fill="none" stroke="none"/><text fill="#000000" stroke="none" font-family="Arial" font-size="13px" font-style="normal" font-weight="bold" text-decoration="none" x="398.570556640625" y="547.5">System find prospect who is the biggest</text></g></g><g transform="translate(-118,-102) scale(1,1)"><path fill="none" stroke="#000000" d="M 500 458 L 500 528" stroke-miterlimit="10"/></g><g transform="translate(-118,-102) scale(1,1)"><path fill="none" stroke="#000000" d="M 495.790482243984 517.8373251423759 L 500 528 L 504.209517756016 517.8373251423759" stroke-miterlimit="10"/></g><g transform="translate(-118,-102) scale(1,1)"><g><path fill="none" stroke="none"/><text fill="#000000" stroke="none" font-family="Arial" font-size="13px" font-style="normal" font-weight="normal" text-decoration="none" x="512" y="499">more than one prospect</text></g></g><g transform="translate(-118,-102) scale(1,1)"><path fill="none" stroke="#000000" d="M 642 548 L 888 548 L 888 312" stroke-miterlimit="10"/></g><g transform="translate(-118,-102) scale(1,1)"><path fill="none" stroke="#000000" d="M 892.209517756016 322.16267485762415 L 888 312 L 883.790482243984 322.16267485762415" stroke-miterlimit="10"/></g><g transform="translate(-118,-102) scale(1,1)"><path fill="#C0C0C0" stroke="none" d="M 143 299.5 C 143 292.59644 148.59644 287 155.5 287 C 162.40356 287 168 292.59644 168 299.5 C 168 306.40356 162.40356 312 155.5 312 C 148.59644 312 143 306.40356 143 299.5 Z" opacity="0.2"/></g><g transform="translate(-118,-102) scale(1,1)"><path fill="none" stroke="#000000" d="M 136 292.5 C 136 285.59644 141.59644 280 148.5 280 C 155.40356 280 161 285.59644 161 292.5 C 161 299.40356 155.40356 305 148.5 305 C 141.59644 305 136 299.40356 136 292.5 Z" stroke-miterlimit="10"/></g><g transform="translate(-118,-102) scale(1,1)"><path fill="#000000" stroke="none" d="M 141 292.5 C 141 288.357864 144.357864 285 148.5 285 C 152.642136 285 156 288.357864 156 292.5 C 156 296.642136 152.642136 300 148.5 300 C 144.357864 300 141 296.642136 141 292.5 Z"/></g><g transform="translate(-118,-102) scale(1,1)"><path fill="none" stroke="#000000" d="M 487 289 L 162 292" stroke-miterlimit="10"/></g><g transform="translate(-118,-102) scale(1,1)"><path fill="none" stroke="#000000" d="M 172.12338648762704 287.6968562629015 L 162 292 L 172.20109735089613 296.1155331170506" stroke-miterlimit="10"/></g><g transform="translate(-118,-102) scale(1,1)"><g><path fill="none" stroke="none"/><text fill="#000000" stroke="none" font-family="Arial" font-size="13px" font-style="normal" font-weight="normal" text-decoration="none" x="291" y="311">no prospect</text></g></g><g transform="translate(-118,-102) scale(1,1)"><path fill="none" stroke="#000000" d="M 488 448 L 148 448 L 148 305" stroke-miterlimit="10"/></g><g transform="translate(-118,-102) scale(1,1)"><path fill="none" stroke="#000000" d="M 152.209517756016 315.16267485762415 L 148 305 L 143.790482243984 315.16267485762415" stroke-miterlimit="10"/></g><g transform="translate(-118,-102) scale(1,1)"><g><path fill="none" stroke="none"/><text fill="#000000" stroke="none" font-family="Arial" font-size="13px" font-style="normal" font-weight="normal" text-decoration="none" x="159" y="444">no prospect</text></g></g></g></svg>