<svg version="1.1" xmlns="http://www.w3.org/2000/svg" xmlns:xlink="http://www.w3.org/1999/xlink" width="952.61181640625" height="616"><defs/><g><g transform="translate(2,-6) scale(1,1)"><rect fill="#C0C0C0" stroke="none" x="335" y="111" width="98" height="102" opacity="0.2"/></g><g transform="translate(2,-6) scale(1,1)"><rect fill="#ffffff" stroke="none" x="328" y="104" width="98" height="102"/></g><g transform="translate(2,-6) scale(1,1)"><path fill="none" stroke="#000000" d="M 328 104 L 426 104 L 426 206 L 328 206 L 328 104 Z Z" stroke-miterlimit="10"/></g><g transform="translate(2,-6) scale(1,1)"><path fill="none" stroke="#000000" d="M 328 129 L 426 129" stroke-miterlimit="10"/></g><g transform="translate(2,-6) scale(1,1)"><path fill="none" stroke="#000000" d="M 328 197 L 426 197" stroke-miterlimit="10"/></g><g transform="translate(2,-6) scale(1,1)"><g><path fill="none" stroke="none"/><text fill="#000000" stroke="none" font-family="Arial" font-size="13px" font-style="normal" font-weight="bold" text-decoration="none" x="363.2763671875" y="123.5">User</text></g></g><g transform="translate(2,-6) scale(1,1)"><g><path fill="none" stroke="none"/><text fill="#000000" stroke="none" font-family="Arial" font-size="13px" font-style="normal" font-weight="normal" text-decoration="none" x="333" y="146.5">-id: BigInt</text></g></g><g transform="translate(2,-6) scale(1,1)"><g><path fill="none" stroke="none"/><text fill="#000000" stroke="none" font-family="Arial" font-size="13px" font-style="normal" font-weight="normal" text-decoration="none" x="333" y="161.5">-name: String</text></g></g><g transform="translate(2,-6) scale(1,1)"><g><path fill="none" stroke="none"/><text fill="#000000" stroke="none" font-family="Arial" font-size="13px" font-style="normal" font-weight="normal" text-decoration="none" x="333" y="176.5">-f_name: String</text></g></g><g transform="translate(2,-6) scale(1,1)"><g><path fill="none" stroke="none"/><text fill="#000000" stroke="none" font-family="Arial" font-size="13px" font-style="normal" font-weight="normal" text-decoration="none" x="333" y="191.5">-phone: Int</text></g></g><g transform="translate(2,-6) scale(1,1)"><rect fill="#C0C0C0" stroke="none" x="31" y="271" width="234.77978515625" height="115" opacity="0.2"/></g><g transform="translate(2,-6) scale(1,1)"><rect fill="#ffffff" stroke="none" x="24" y="264" width="234.77978515625" height="115"/></g><g transform="translate(2,-6) scale(1,1)"><path fill="none" stroke="#000000" d="M 24 264 L 258.77978515625 264 L 258.77978515625 379 L 24 379 L 24 264 Z Z" stroke-miterlimit="10"/></g><g transform="translate(2,-6) scale(1,1)"><path fill="none" stroke="#000000" d="M 24 289 L 258.77978515625 289" stroke-miterlimit="10"/></g><g transform="translate(2,-6) scale(1,1)"><path fill="none" stroke="#000000" d="M 24 357 L 258.77978515625 357" stroke-miterlimit="10"/></g><g transform="translate(2,-6) scale(1,1)"><g><path fill="none" stroke="none"/><text fill="#000000" stroke="none" font-family="Arial" font-size="13px" font-style="normal" font-weight="bold" text-decoration="none" x="101.291748046875" y="283.5">ClockinObject</text></g></g><g transform="translate(2,-6) scale(1,1)"><g><path fill="none" stroke="none"/><text fill="#000000" stroke="none" font-family="Arial" font-size="13px" font-style="normal" font-weight="normal" text-decoration="none" x="29" y="306.5">-user :User</text></g></g><g transform="translate(2,-6) scale(1,1)"><g><path fill="none" stroke="none"/><text fill="#000000" stroke="none" font-family="Arial" font-size="13px" font-style="normal" font-weight="normal" text-decoration="none" x="29" y="321.5">-tagId :String</text></g></g><g transform="translate(2,-6) scale(1,1)"><g><path fill="none" stroke="none"/><text fill="#000000" stroke="none" font-family="Arial" font-size="13px" font-style="normal" font-weight="normal" text-decoration="none" x="29" y="336.5">-date :String</text></g></g><g transform="translate(2,-6) scale(1,1)"><g><path fill="none" stroke="none"/><text fill="#000000" stroke="none" font-family="Arial" font-size="13px" font-style="normal" font-weight="normal" text-decoration="none" x="29" y="351.5">-time :String</text></g></g><g transform="translate(2,-6) scale(1,1)"><g><path fill="none" stroke="none"/><text fill="#000000" stroke="none" font-family="Arial" font-size="13px" font-style="normal" font-weight="normal" text-decoration="none" x="29" y="374.5">+ClockinObject(User user, String idtag)</text></g></g><g transform="translate(2,-6) scale(1,1)"><rect fill="#C0C0C0" stroke="none" x="319" y="311" width="260.7861328125" height="57" opacity="0.2"/></g><g transform="translate(2,-6) scale(1,1)"><rect fill="#ffffff" stroke="none" x="312" y="304" width="260.7861328125" height="57"/></g><g transform="translate(2,-6) scale(1,1)"><path fill="none" stroke="#000000" d="M 312 304 L 572.7861328125 304 L 572.7861328125 361 L 312 361 L 312 304 Z Z" stroke-miterlimit="10"/></g><g transform="translate(2,-6) scale(1,1)"><path fill="none" stroke="#000000" d="M 312 329 L 572.7861328125 329" stroke-miterlimit="10"/></g><g transform="translate(2,-6) scale(1,1)"><path fill="none" stroke="#000000" d="M 312 339 L 572.7861328125 339" stroke-miterlimit="10"/></g><g transform="translate(2,-6) scale(1,1)"><g><path fill="none" stroke="none"/><text fill="#000000" stroke="none" font-family="Arial" font-size="13px" font-style="normal" font-weight="bold" text-decoration="none" x="392.903564453125" y="323.5">ClockinController</text></g></g><g transform="translate(2,-6) scale(1,1)"><g><path fill="none" stroke="none"/><text fill="#000000" stroke="none" font-family="Arial" font-size="13px" font-style="normal" font-weight="normal" text-decoration="none" x="317" y="356.5">+clockin(String tagId,Activity context)</text></g></g><g transform="translate(2,-6) scale(1,1)"><rect fill="#C0C0C0" stroke="none" x="615" y="455" width="178.43798828125" height="72" opacity="0.2"/></g><g transform="translate(2,-6) scale(1,1)"><rect fill="#ffffff" stroke="none" x="608" y="448" width="178.43798828125" height="72"/></g><g transform="translate(2,-6) scale(1,1)"><path fill="none" stroke="#000000" d="M 608 448 L 786.43798828125 448 L 786.43798828125 520 L 608 520 L 608 448 Z Z" stroke-miterlimit="10"/></g><g transform="translate(2,-6) scale(1,1)"><path fill="none" stroke="#000000" d="M 608 473 L 786.43798828125 473" stroke-miterlimit="10"/></g><g transform="translate(2,-6) scale(1,1)"><path fill="none" stroke="#000000" d="M 608 483 L 786.43798828125 483" stroke-miterlimit="10"/></g><g transform="translate(2,-6) scale(1,1)"><g><path fill="none" stroke="none"/><text fill="#000000" stroke="none" font-family="Arial" font-size="13px" font-style="normal" font-weight="bold" text-decoration="none" x="662.544921875" y="467.5">MainActivity</text></g></g><g transform="translate(2,-6) scale(1,1)"><g><path fill="none" stroke="none"/><text fill="#000000" stroke="none" font-family="Arial" font-size="13px" font-style="normal" font-weight="normal" text-decoration="none" x="613" y="500.5">+tagDiscovered(Intent intent)</text></g></g><g transform="translate(2,-6) scale(1,1)"><g><path fill="none" stroke="none"/><text fill="#000000" stroke="none" font-family="Arial" font-size="13px" font-style="normal" font-weight="normal" text-decoration="none" x="613" y="515.5">+onNewIntent(Intent intent)</text></g></g><g transform="translate(2,-6) scale(1,1)"><rect fill="#C0C0C0" stroke="none" x="15" y="463" width="227.5625" height="57" opacity="0.2"/></g><g transform="translate(2,-6) scale(1,1)"><rect fill="#ffffff" stroke="none" x="8" y="456" width="227.5625" height="57"/></g><g transform="translate(2,-6) scale(1,1)"><path fill="none" stroke="#000000" d="M 8 456 L 235.5625 456 L 235.5625 513 L 8 513 L 8 456 Z Z" stroke-miterlimit="10"/></g><g transform="translate(2,-6) scale(1,1)"><path fill="none" stroke="#000000" d="M 8 481 L 235.5625 481" stroke-miterlimit="10"/></g><g transform="translate(2,-6) scale(1,1)"><path fill="none" stroke="#000000" d="M 8 491 L 235.5625 491" stroke-miterlimit="10"/></g><g transform="translate(2,-6) scale(1,1)"><g><path fill="none" stroke="none"/><text fill="#000000" stroke="none" font-family="Arial" font-size="13px" font-style="normal" font-weight="bold" text-decoration="none" x="35.081787109375" y="475.5">NotifyPresenceRetrofitService</text></g></g><g transform="translate(2,-6) scale(1,1)"><g><path fill="none" stroke="none"/><text fill="#000000" stroke="none" font-family="Arial" font-size="13px" font-style="normal" font-weight="normal" text-decoration="none" x="13" y="508.5">+clockin(ClockinObject obj)</text></g></g><g transform="translate(2,-6) scale(1,1)"><rect fill="#C0C0C0" stroke="none" x="39" y="23" width="184.51904296875" height="44" opacity="0.2"/></g><g transform="translate(2,-6) scale(1,1)"><rect fill="#ffffff" stroke="none" x="32" y="16" width="184.51904296875" height="44"/></g><g transform="translate(2,-6) scale(1,1)"><path fill="none" stroke="#000000" d="M 32 16 L 216.51904296875 16 L 216.51904296875 60 L 32 60 L 32 16 Z Z" stroke-miterlimit="10"/></g><g transform="translate(2,-6) scale(1,1)"><path fill="none" stroke="#000000" d="M 32 41 L 216.51904296875 41" stroke-miterlimit="10"/></g><g transform="translate(2,-6) scale(1,1)"><path fill="none" stroke="#000000" d="M 32 51 L 216.51904296875 51" stroke-miterlimit="10"/></g><g transform="translate(2,-6) scale(1,1)"><g><path fill="none" stroke="none"/><text fill="#000000" stroke="none" font-family="Arial" font-size="13px" font-style="normal" font-weight="bold" text-decoration="none" x="43.69189453125" y="35.5">com.raizlabs.android.dbflow</text></g></g><g transform="translate(2,-6) scale(1,1)"><path fill="none" stroke="#000000" d="M 327 132 L 174 61" stroke-miterlimit="10" stroke-dasharray="3"/></g><g transform="translate(2,-6) scale(1,1)"><path fill="none" stroke="#000000" d="M 184.9904011909803 61.45943624290936 L 174 61 L 181.4465167272188 69.09625769298697" stroke-miterlimit="10"/></g><g transform="translate(2,-6) scale(1,1)"><rect fill="#C0C0C0" stroke="none" x="55" y="119" width="122.42626953125" height="44" opacity="0.2"/></g><g transform="translate(2,-6) scale(1,1)"><rect fill="#ffffff" stroke="none" x="48" y="112" width="122.42626953125" height="44"/></g><g transform="translate(2,-6) scale(1,1)"><path fill="none" stroke="#000000" d="M 48 112 L 170.42626953125 112 L 170.42626953125 156 L 48 156 L 48 112 Z Z" stroke-miterlimit="10"/></g><g transform="translate(2,-6) scale(1,1)"><path fill="none" stroke="#000000" d="M 48 137 L 170.42626953125 137" stroke-miterlimit="10"/></g><g transform="translate(2,-6) scale(1,1)"><path fill="none" stroke="#000000" d="M 48 147 L 170.42626953125 147" stroke-miterlimit="10"/></g><g transform="translate(2,-6) scale(1,1)"><g><path fill="none" stroke="none"/><text fill="#000000" stroke="none" font-family="Arial" font-size="13px" font-style="normal" font-weight="bold" text-decoration="none" x="56.832275390625" y="131.5">OrmTabDataBase</text></g></g><g transform="translate(2,-6) scale(1,1)"><path fill="none" stroke="#000000" d="M 327 151 L 171 139" stroke-miterlimit="10" stroke-dasharray="3"/></g><g transform="translate(2,-6) scale(1,1)"><path fill="none" stroke="#000000" d="M 181.45559582536788 135.58232302044942 L 171 139 L 180.80988527760874 143.976560141318" stroke-miterlimit="10"/></g><g transform="translate(2,-6) scale(1,1)"><rect fill="#C0C0C0" stroke="none" x="519" y="31" width="66.79541015625" height="44" opacity="0.2"/></g><g transform="translate(2,-6) scale(1,1)"><rect fill="#ffffff" stroke="none" x="512" y="24" width="66.79541015625" height="44"/></g><g transform="translate(2,-6) scale(1,1)"><path fill="none" stroke="#000000" d="M 512 24 L 578.79541015625 24 L 578.79541015625 68 L 512 68 L 512 24 Z Z" stroke-miterlimit="10"/></g><g transform="translate(2,-6) scale(1,1)"><path fill="none" stroke="#000000" d="M 512 49 L 578.79541015625 49" stroke-miterlimit="10"/></g><g transform="translate(2,-6) scale(1,1)"><path fill="none" stroke="#000000" d="M 512 59 L 578.79541015625 59" stroke-miterlimit="10"/></g><g transform="translate(2,-6) scale(1,1)"><g><path fill="none" stroke="none"/><text fill="#000000" stroke="none" font-family="Arial" font-size="13px" font-style="normal" font-weight="bold" text-decoration="none" x="517.588623046875" y="43.5">UserDAO</text></g></g><g transform="translate(2,-6) scale(1,1)"><path fill="none" stroke="#000000" d="M 511 45 L 218 40" stroke-miterlimit="10" stroke-dasharray="3"/></g><g transform="translate(2,-6) scale(1,1)"><path fill="none" stroke="#000000" d="M 228.23301976643455 35.964494274597044 L 218 40 L 228.0893711328114 44.38230420491227" stroke-miterlimit="10"/></g><g transform="translate(2,-6) scale(1,1)"><path fill="none" stroke="#000000" d="M 511 68 L 427 123" stroke-miterlimit="10" stroke-dasharray="3"/></g><g transform="translate(2,-6) scale(1,1)"><path fill="none" stroke="#000000" d="M 433.19636743964674 113.91126903506952 L 427 123 L 437.8081967329802 120.95479013761522" stroke-miterlimit="10"/></g><g transform="translate(2,-6) scale(1,1)"><rect fill="#C0C0C0" stroke="none" x="119" y="575" width="50.919921875" height="44" opacity="0.2"/></g><g transform="translate(2,-6) scale(1,1)"><rect fill="#ffffff" stroke="none" x="112" y="568" width="50.919921875" height="44"/></g><g transform="translate(2,-6) scale(1,1)"><path fill="none" stroke="#000000" d="M 112 568 L 162.919921875 568 L 162.919921875 612 L 112 612 L 112 568 Z Z" stroke-miterlimit="10"/></g><g transform="translate(2,-6) scale(1,1)"><path fill="none" stroke="#000000" d="M 112 593 L 162.919921875 593" stroke-miterlimit="10"/></g><g transform="translate(2,-6) scale(1,1)"><path fill="none" stroke="#000000" d="M 112 603 L 162.919921875 603" stroke-miterlimit="10"/></g><g transform="translate(2,-6) scale(1,1)"><g><path fill="none" stroke="none"/><text fill="#000000" stroke="none" font-family="Arial" font-size="13px" font-style="normal" font-weight="bold" text-decoration="none" x="126.259521484375" y="587.5">Tag</text></g></g><g transform="translate(2,-6) scale(1,1)"><path fill="none" stroke="#000000" d="M 125 455 L 134 380" stroke-miterlimit="10" stroke-dasharray="3"/></g><g transform="translate(2,-6) scale(1,1)"><path fill="none" stroke="#000000" d="M 136.9686985431627 390.5918284049461 L 134 380 L 128.6096331808673 389.5887405614707" stroke-miterlimit="10"/></g><g transform="translate(2,-6) scale(1,1)"><path fill="none" stroke="#000000" d="M 126 514 L 134 567" stroke-miterlimit="10" stroke-dasharray="3"/></g><g transform="translate(2,-6) scale(1,1)"><path fill="none" stroke="#000000" d="M 128.32082610368508 557.579438240985 L 134 567 L 136.64556072876425 556.3228745239919" stroke-miterlimit="10"/></g><g transform="translate(2,-6) scale(1,1)"><rect fill="#C0C0C0" stroke="none" x="359" y="487" width="50.919921875" height="44" opacity="0.2"/></g><g transform="translate(2,-6) scale(1,1)"><rect fill="#ffffff" stroke="none" x="352" y="480" width="50.919921875" height="44"/></g><g transform="translate(2,-6) scale(1,1)"><path fill="none" stroke="#000000" d="M 352 480 L 402.919921875 480 L 402.919921875 524 L 352 524 L 352 480 Z Z" stroke-miterlimit="10"/></g><g transform="translate(2,-6) scale(1,1)"><path fill="none" stroke="#000000" d="M 352 505 L 402.919921875 505" stroke-miterlimit="10"/></g><g transform="translate(2,-6) scale(1,1)"><path fill="none" stroke="#000000" d="M 352 515 L 402.919921875 515" stroke-miterlimit="10"/></g><g transform="translate(2,-6) scale(1,1)"><g><path fill="none" stroke="none"/><text fill="#000000" stroke="none" font-family="Arial" font-size="13px" font-style="normal" font-weight="bold" text-decoration="none" x="359.0390625" y="499.5">retrofit</text></g></g><g transform="translate(2,-6) scale(1,1)"><path fill="none" stroke="#000000" d="M 237 492 L 351 500" stroke-miterlimit="10" stroke-dasharray="3"/></g><g transform="translate(2,-6) scale(1,1)"><path fill="none" stroke="#000000" d="M 340.56757655528787 503.48777021465304 L 351 500 L 341.1569366680329 495.08938860803613" stroke-miterlimit="10"/></g><g transform="translate(2,-6) scale(1,1)"><path fill="none" stroke="#000000" d="M 431 362 L 386 479" stroke-miterlimit="10" stroke-dasharray="3"/></g><g transform="translate(2,-6) scale(1,1)"><path fill="none" stroke="#000000" d="M 385.71925276189404 468.0035832659772 L 386 479 L 393.5771225655166 471.0258408827551" stroke-miterlimit="10"/></g><g transform="translate(2,-6) scale(1,1)"><path fill="none" stroke="#000000" d="M 452 303 L 537 69" stroke-miterlimit="10" stroke-dasharray="3"/></g><g transform="translate(2,-6) scale(1,1)"><path fill="none" stroke="#000000" d="M 537.4868246778253 79.98922207133245 L 537 69 L 529.5736835843352 77.1147904775433" stroke-miterlimit="10"/></g><g transform="translate(2,-6) scale(1,1)"><rect fill="#C0C0C0" stroke="none" x="495" y="487" width="65.3291015625" height="44" opacity="0.2"/></g><g transform="translate(2,-6) scale(1,1)"><rect fill="#ffffff" stroke="none" x="488" y="480" width="65.3291015625" height="44"/></g><g transform="translate(2,-6) scale(1,1)"><path fill="none" stroke="#000000" d="M 488 480 L 553.3291015625 480 L 553.3291015625 524 L 488 524 L 488 480 Z Z" stroke-miterlimit="10"/></g><g transform="translate(2,-6) scale(1,1)"><path fill="none" stroke="#000000" d="M 488 505 L 553.3291015625 505" stroke-miterlimit="10"/></g><g transform="translate(2,-6) scale(1,1)"><path fill="none" stroke="#000000" d="M 488 515 L 553.3291015625 515" stroke-miterlimit="10"/></g><g transform="translate(2,-6) scale(1,1)"><g><path fill="none" stroke="none"/><text fill="#000000" stroke="none" font-family="Arial" font-size="13px" font-style="normal" font-weight="bold" text-decoration="none" x="494.648681640625" y="499.5">Constant</text></g></g><g transform="translate(2,-6) scale(1,1)"><rect fill="#C0C0C0" stroke="none" x="567" y="87" width="65.34814453125" height="44" opacity="0.2"/></g><g transform="translate(2,-6) scale(1,1)"><rect fill="#ffffff" stroke="none" x="560" y="80" width="65.34814453125" height="44"/></g><g transform="translate(2,-6) scale(1,1)"><path fill="none" stroke="#000000" d="M 560 80 L 625.34814453125 80 L 625.34814453125 124 L 560 124 L 560 80 Z Z" stroke-miterlimit="10"/></g><g transform="translate(2,-6) scale(1,1)"><path fill="none" stroke="#000000" d="M 560 105 L 625.34814453125 105" stroke-miterlimit="10"/></g><g transform="translate(2,-6) scale(1,1)"><path fill="none" stroke="#000000" d="M 560 115 L 625.34814453125 115" stroke-miterlimit="10"/></g><g transform="translate(2,-6) scale(1,1)"><g><path fill="none" stroke="none"/><text fill="#000000" stroke="none" font-family="Arial" font-size="13px" font-style="normal" font-weight="bold" text-decoration="none" x="566.30908203125" y="99.5">crmtab.R</text></g></g><g transform="translate(2,-6) scale(1,1)"><path fill="none" stroke="#000000" d="M 456 362 L 509 479" stroke-miterlimit="10" stroke-dasharray="3"/></g><g transform="translate(2,-6) scale(1,1)"><path fill="none" stroke="#000000" d="M 500.97213567503906 471.4798009082193 L 509 479 L 508.6410264710456 468.0058589237035" stroke-miterlimit="10"/></g><g transform="translate(2,-6) scale(1,1)"><path fill="none" stroke="#000000" d="M 461 303 L 577 125" stroke-miterlimit="10" stroke-dasharray="3"/></g><g transform="translate(2,-6) scale(1,1)"><path fill="none" stroke="#000000" d="M 574.978101469389 135.81258185318904 L 577 125 L 567.9246518876092 131.21595178865843" stroke-miterlimit="10"/></g><g transform="translate(2,-6) scale(1,1)"><path fill="none" stroke="#000000" d="M 379 362 L 182 455" stroke-miterlimit="10" stroke-dasharray="3"/></g><g transform="translate(2,-6) scale(1,1)"><path fill="none" stroke="#000000" d="M 189.3930335476962 446.85487538691774 L 182 455 L 192.98713700263554 454.4681913075957" stroke-miterlimit="10"/></g><g transform="translate(2,-6) scale(1,1)"><path fill="none" stroke="#000000" d="M 311 327 L 260 325" stroke-miterlimit="10" stroke-dasharray="3"/></g><g transform="translate(2,-6) scale(1,1)"><path fill="none" stroke="#000000" d="M 270.3198217614178 321.19194553445374 L 260 325 L 269.9899170838505 329.60451481241955" stroke-miterlimit="10"/></g><g transform="translate(2,-6) scale(1,1)"><path fill="none" stroke="#000000" d="M 635 447 L 492 362" stroke-miterlimit="10" stroke-dasharray="3"/></g><g transform="translate(2,-6) scale(1,1)"><path fill="none" stroke="#000000" d="M 502.88678462696106 363.57414119003494 L 492 362 L 498.58503332502283 370.8112051450604" stroke-miterlimit="10"/></g><g transform="translate(2,-6) scale(1,1)"><rect fill="#C0C0C0" stroke="none" x="759" y="215" width="116.64990234375" height="44" opacity="0.2"/></g><g transform="translate(2,-6) scale(1,1)"><rect fill="#ffffff" stroke="none" x="752" y="208" width="116.64990234375" height="44"/></g><g transform="translate(2,-6) scale(1,1)"><path fill="none" stroke="#000000" d="M 752 208 L 868.64990234375 208 L 868.64990234375 252 L 752 252 L 752 208 Z Z" stroke-miterlimit="10"/></g><g transform="translate(2,-6) scale(1,1)"><path fill="none" stroke="#000000" d="M 752 233 L 868.64990234375 233" stroke-miterlimit="10"/></g><g transform="translate(2,-6) scale(1,1)"><path fill="none" stroke="#000000" d="M 752 243 L 868.64990234375 243" stroke-miterlimit="10"/></g><g transform="translate(2,-6) scale(1,1)"><g><path fill="none" stroke="none"/><text fill="#000000" stroke="none" font-family="Arial" font-size="13px" font-style="normal" font-weight="bold" text-decoration="none" x="760.102294921875" y="227.5">java.util.Calendar</text></g></g><g transform="translate(2,-6) scale(1,1)"><rect fill="#C0C0C0" stroke="none" x="719" y="151" width="179.50439453125" height="44" opacity="0.2"/></g><g transform="translate(2,-6) scale(1,1)"><rect fill="#ffffff" stroke="none" x="712" y="144" width="179.50439453125" height="44"/></g><g transform="translate(2,-6) scale(1,1)"><path fill="none" stroke="#000000" d="M 712 144 L 891.50439453125 144 L 891.50439453125 188 L 712 188 L 712 144 Z Z" stroke-miterlimit="10"/></g><g transform="translate(2,-6) scale(1,1)"><path fill="none" stroke="#000000" d="M 712 169 L 891.50439453125 169" stroke-miterlimit="10"/></g><g transform="translate(2,-6) scale(1,1)"><path fill="none" stroke="#000000" d="M 712 179 L 891.50439453125 179" stroke-miterlimit="10"/></g><g transform="translate(2,-6) scale(1,1)"><g><path fill="none" stroke="none"/><text fill="#000000" stroke="none" font-family="Arial" font-size="13px" font-style="normal" font-weight="bold" text-decoration="none" x="721.555908203125" y="163.5">java.text.SimpleDateFormat</text></g></g><g transform="translate(2,-6) scale(1,1)"><rect fill="#C0C0C0" stroke="none" x="719" y="311" width="83.38818359375" height="44" opacity="0.2"/></g><g transform="translate(2,-6) scale(1,1)"><rect fill="#ffffff" stroke="none" x="712" y="304" width="83.38818359375" height="44"/></g><g transform="translate(2,-6) scale(1,1)"><path fill="none" stroke="#000000" d="M 712 304 L 795.38818359375 304 L 795.38818359375 348 L 712 348 L 712 304 Z Z" stroke-miterlimit="10"/></g><g transform="translate(2,-6) scale(1,1)"><path fill="none" stroke="#000000" d="M 712 329 L 795.38818359375 329" stroke-miterlimit="10"/></g><g transform="translate(2,-6) scale(1,1)"><path fill="none" stroke="#000000" d="M 712 339 L 795.38818359375 339" stroke-miterlimit="10"/></g><g transform="translate(2,-6) scale(1,1)"><g><path fill="none" stroke="none"/><text fill="#000000" stroke="none" font-family="Arial" font-size="13px" font-style="normal" font-weight="bold" text-decoration="none" x="719.359619140625" y="323.5">android.app</text></g></g><g transform="translate(2,-6) scale(1,1)"><rect fill="#C0C0C0" stroke="none" x="727" y="383" width="102.91357421875" height="44" opacity="0.2"/></g><g transform="translate(2,-6) scale(1,1)"><rect fill="#ffffff" stroke="none" x="720" y="376" width="102.91357421875" height="44"/></g><g transform="translate(2,-6) scale(1,1)"><path fill="none" stroke="#000000" d="M 720 376 L 822.91357421875 376 L 822.91357421875 420 L 720 420 L 720 376 Z Z" stroke-miterlimit="10"/></g><g transform="translate(2,-6) scale(1,1)"><path fill="none" stroke="#000000" d="M 720 401 L 822.91357421875 401" stroke-miterlimit="10"/></g><g transform="translate(2,-6) scale(1,1)"><path fill="none" stroke="#000000" d="M 720 411 L 822.91357421875 411" stroke-miterlimit="10"/></g><g transform="translate(2,-6) scale(1,1)"><g><path fill="none" stroke="none"/><text fill="#000000" stroke="none" font-family="Arial" font-size="13px" font-style="normal" font-weight="bold" text-decoration="none" x="727.7373046875" y="395.5">DialogInterface</text></g></g><g transform="translate(2,-6) scale(1,1)"><rect fill="#C0C0C0" stroke="none" x="679" y="95" width="139.7236328125" height="44" opacity="0.2"/></g><g transform="translate(2,-6) scale(1,1)"><rect fill="#ffffff" stroke="none" x="672" y="88" width="139.7236328125" height="44"/></g><g transform="translate(2,-6) scale(1,1)"><path fill="none" stroke="#000000" d="M 672 88 L 811.7236328125 88 L 811.7236328125 132 L 672 132 L 672 88 Z Z" stroke-miterlimit="10"/></g><g transform="translate(2,-6) scale(1,1)"><path fill="none" stroke="#000000" d="M 672 113 L 811.7236328125 113" stroke-miterlimit="10"/></g><g transform="translate(2,-6) scale(1,1)"><path fill="none" stroke="#000000" d="M 672 123 L 811.7236328125 123" stroke-miterlimit="10"/></g><g transform="translate(2,-6) scale(1,1)"><g><path fill="none" stroke="none"/><text fill="#000000" stroke="none" font-family="Arial" font-size="13px" font-style="normal" font-weight="bold" text-decoration="none" x="681.52099609375" y="107.5">android.widget.Toast</text></g></g><g transform="translate(2,-6) scale(1,1)"><rect fill="#C0C0C0" stroke="none" x="647" y="23" width="141.17724609375" height="44" opacity="0.2"/></g><g transform="translate(2,-6) scale(1,1)"><rect fill="#ffffff" stroke="none" x="640" y="16" width="141.17724609375" height="44"/></g><g transform="translate(2,-6) scale(1,1)"><path fill="none" stroke="#000000" d="M 640 16 L 781.17724609375 16 L 781.17724609375 60 L 640 60 L 640 16 Z Z" stroke-miterlimit="10"/></g><g transform="translate(2,-6) scale(1,1)"><path fill="none" stroke="#000000" d="M 640 41 L 781.17724609375 41" stroke-miterlimit="10"/></g><g transform="translate(2,-6) scale(1,1)"><path fill="none" stroke="#000000" d="M 640 51 L 781.17724609375 51" stroke-miterlimit="10"/></g><g transform="translate(2,-6) scale(1,1)"><g><path fill="none" stroke="none"/><text fill="#000000" stroke="none" font-family="Arial" font-size="13px" font-style="normal" font-weight="bold" text-decoration="none" x="649.885986328125" y="35.5">com.squareup.okhttp</text></g></g><g transform="translate(2,-6) scale(1,1)"><rect fill="#C0C0C0" stroke="none" x="831" y="263" width="116.61181640625" height="44" opacity="0.2"/></g><g transform="translate(2,-6) scale(1,1)"><rect fill="#ffffff" stroke="none" x="824" y="256" width="116.61181640625" height="44"/></g><g transform="translate(2,-6) scale(1,1)"><path fill="none" stroke="#000000" d="M 824 256 L 940.61181640625 256 L 940.61181640625 300 L 824 300 L 824 256 Z Z" stroke-miterlimit="10"/></g><g transform="translate(2,-6) scale(1,1)"><path fill="none" stroke="#000000" d="M 824 281 L 940.61181640625 281" stroke-miterlimit="10"/></g><g transform="translate(2,-6) scale(1,1)"><path fill="none" stroke="#000000" d="M 824 291 L 940.61181640625 291" stroke-miterlimit="10"/></g><g transform="translate(2,-6) scale(1,1)"><g><path fill="none" stroke="none"/><text fill="#000000" stroke="none" font-family="Arial" font-size="13px" font-style="normal" font-weight="bold" text-decoration="none" x="832.800537109375" y="275.5">com.google.gson</text></g></g><g transform="translate(2,-6) scale(1,1)"><path fill="none" stroke="#000000" d="M 468 303 L 689 61" stroke-miterlimit="10" stroke-dasharray="3"/></g><g transform="translate(2,-6) scale(1,1)"><path fill="none" stroke="#000000" d="M 685.2552741470283 71.34296999348281 L 689 61 L 679.0384947356785 65.66566317567984" stroke-miterlimit="10"/></g><g transform="translate(2,-6) scale(1,1)"><path fill="none" stroke="#000000" d="M 481 303 L 710 133" stroke-miterlimit="10" stroke-dasharray="3"/></g><g transform="translate(2,-6) scale(1,1)"><path fill="none" stroke="#000000" d="M 704.3491756426664 142.43759418933476 L 710 133 L 699.33087692827 135.67765062700067" stroke-miterlimit="10"/></g><g transform="translate(2,-6) scale(1,1)"><path fill="none" stroke="#000000" d="M 505 303 L 751 189" stroke-miterlimit="10" stroke-dasharray="3"/></g><g transform="translate(2,-6) scale(1,1)"><path fill="none" stroke="#000000" d="M 743.5492354099499 197.0923486716562 L 751 189 L 740.0093592118969 189.453668454805" stroke-miterlimit="10"/></g><g transform="translate(2,-6) scale(1,1)"><path fill="none" stroke="#000000" d="M 547 303 L 751 246" stroke-miterlimit="10" stroke-dasharray="3"/></g><g transform="translate(2,-6) scale(1,1)"><path fill="none" stroke="#000000" d="M 742.3450166455095 252.789054656835 L 751 246 L 740.079415993289 244.6805891646772" stroke-miterlimit="10"/></g><g transform="translate(2,-6) scale(1,1)"><path fill="none" stroke="#000000" d="M 574 316 L 823 285" stroke-miterlimit="10" stroke-dasharray="3"/></g><g transform="translate(2,-6) scale(1,1)"><path fill="none" stroke="#000000" d="M 813.4352422990776 290.4328086771619 L 823 285 L 812.3951191127612 282.07827082578183" stroke-miterlimit="10"/></g><g transform="translate(2,-6) scale(1,1)"><path fill="none" stroke="#000000" d="M 574 329 L 711 327" stroke-miterlimit="10" stroke-dasharray="3"/></g><g transform="translate(2,-6) scale(1,1)"><path fill="none" stroke="#000000" d="M 700.8998541572776 331.35741367737063 L 711 327 L 700.7769616239341 322.9392751433416" stroke-miterlimit="10"/></g><g transform="translate(2,-6) scale(1,1)"><path fill="none" stroke="#000000" d="M 574 358 L 719 388" stroke-miterlimit="10" stroke-dasharray="3"/></g><g transform="translate(2,-6) scale(1,1)"><path fill="none" stroke="#000000" d="M 708.195222867951 390.0631992455289 L 719 388 L 709.9009666432663 381.81877099817126" stroke-miterlimit="10"/></g><g transform="translate(2,-6) scale(1,1)"><path fill="none" stroke="#000000" d="M 223 263 L 327 190" stroke-miterlimit="10" stroke-dasharray="3"/></g><g transform="translate(2,-6) scale(1,1)"><path fill="none" stroke="#000000" d="M 321.1003791223558 199.2840978829429 L 327 190 L 316.2634895007595 192.39318664121663" stroke-miterlimit="10"/></g></g></svg>