<svg version="1.1" xmlns="http://www.w3.org/2000/svg" xmlns:xlink="http://www.w3.org/1999/xlink" width="768.44091796875" height="760"><defs/><g><g transform="translate(-22,-38) scale(1,1)"><rect fill="#C0C0C0" stroke="none" x="313" y="55" width="201.7490234375" height="44" opacity="0.2"/></g><g transform="translate(-22,-38) scale(1,1)"><rect fill="#ffffff" stroke="none" x="306" y="48" width="201.7490234375" height="44"/></g><g transform="translate(-22,-38) scale(1,1)"><path fill="none" stroke="#000000" d="M 306 48 L 507.7490234375 48 L 507.7490234375 92 L 306 92 L 306 48 Z Z" stroke-miterlimit="10"/></g><g transform="translate(-22,-38) scale(1,1)"><rect fill="#ffffff" stroke="none" x="296" y="55" width="20" height="10"/></g><g transform="translate(-22,-38) scale(1,1)"><path fill="none" stroke="#000000" d="M 296 55 L 316 55 L 316 65 L 296 65 L 296 55 Z Z" stroke-miterlimit="10"/></g><g transform="translate(-22,-38) scale(1,1)"><rect fill="#ffffff" stroke="none" x="296" y="75" width="20" height="10"/></g><g transform="translate(-22,-38) scale(1,1)"><path fill="none" stroke="#000000" d="M 296 75 L 316 75 L 316 85 L 296 85 L 296 75 Z Z" stroke-miterlimit="10"/></g><g transform="translate(-22,-38) scale(1,1)"><g><path fill="none" stroke="none"/><text fill="#000000" stroke="none" font-family="Arial" font-size="13px" font-style="normal" font-weight="normal" text-decoration="none" x="393.799560546875" y="65.5">«bdd»</text></g></g><g transform="translate(-22,-38) scale(1,1)"><g><path fill="none" stroke="none"/><text fill="#000000" stroke="none" font-family="Arial" font-size="13px" font-style="normal" font-weight="bold" text-decoration="none" x="325.146484375" y="80.5">Base de données MongoDB 3</text></g></g><g transform="translate(-22,-38) scale(1,1)"><rect fill="#C0C0C0" stroke="none" x="49" y="663" width="250.8544921875" height="44" opacity="0.2"/></g><g transform="translate(-22,-38) scale(1,1)"><rect fill="#ffffff" stroke="none" x="42" y="656" width="250.8544921875" height="44"/></g><g transform="translate(-22,-38) scale(1,1)"><path fill="none" stroke="#000000" d="M 42 656 L 292.8544921875 656 L 292.8544921875 700 L 42 700 L 42 656 Z Z" stroke-miterlimit="10"/></g><g transform="translate(-22,-38) scale(1,1)"><rect fill="#ffffff" stroke="none" x="32" y="663" width="20" height="10"/></g><g transform="translate(-22,-38) scale(1,1)"><path fill="none" stroke="#000000" d="M 32 663 L 52 663 L 52 673 L 32 673 L 32 663 Z Z" stroke-miterlimit="10"/></g><g transform="translate(-22,-38) scale(1,1)"><rect fill="#ffffff" stroke="none" x="32" y="683" width="20" height="10"/></g><g transform="translate(-22,-38) scale(1,1)"><path fill="none" stroke="#000000" d="M 32 683 L 52 683 L 52 693 L 32 693 L 32 683 Z Z" stroke-miterlimit="10"/></g><g transform="translate(-22,-38) scale(1,1)"><g><path fill="none" stroke="none"/><text fill="#000000" stroke="none" font-family="Arial" font-size="13px" font-style="normal" font-weight="normal" text-decoration="none" x="154.71728515625" y="673.5">«apk»</text></g></g><g transform="translate(-22,-38) scale(1,1)"><g><path fill="none" stroke="none"/><text fill="#000000" stroke="none" font-family="Arial" font-size="13px" font-style="normal" font-weight="bold" text-decoration="none" x="65.821533203125" y="688.5">Application de contrôle de téléphonie</text></g></g><g transform="translate(-22,-38) scale(1,1)"><rect fill="#C0C0C0" stroke="none" x="433" y="655" width="206.0654296875" height="44" opacity="0.2"/></g><g transform="translate(-22,-38) scale(1,1)"><rect fill="#ffffff" stroke="none" x="426" y="648" width="206.0654296875" height="44"/></g><g transform="translate(-22,-38) scale(1,1)"><path fill="none" stroke="#000000" d="M 426 648 L 632.0654296875 648 L 632.0654296875 692 L 426 692 L 426 648 Z Z" stroke-miterlimit="10"/></g><g transform="translate(-22,-38) scale(1,1)"><rect fill="#ffffff" stroke="none" x="416" y="655" width="20" height="10"/></g><g transform="translate(-22,-38) scale(1,1)"><path fill="none" stroke="#000000" d="M 416 655 L 436 655 L 436 665 L 416 665 L 416 655 Z Z" stroke-miterlimit="10"/></g><g transform="translate(-22,-38) scale(1,1)"><rect fill="#ffffff" stroke="none" x="416" y="675" width="20" height="10"/></g><g transform="translate(-22,-38) scale(1,1)"><path fill="none" stroke="#000000" d="M 416 675 L 436 675 L 436 685 L 416 685 L 416 675 Z Z" stroke-miterlimit="10"/></g><g transform="translate(-22,-38) scale(1,1)"><g><path fill="none" stroke="none"/><text fill="#000000" stroke="none" font-family="Arial" font-size="13px" font-style="normal" font-weight="normal" text-decoration="none" x="516.32275390625" y="665.5">«apk»</text></g></g><g transform="translate(-22,-38) scale(1,1)"><g><path fill="none" stroke="none"/><text fill="#000000" stroke="none" font-family="Arial" font-size="13px" font-style="normal" font-weight="bold" text-decoration="none" x="447.69189453125" y="680.5">Application client mobile CRM</text></g></g><g transform="translate(-22,-38) scale(1,1)"><rect fill="#C0C0C0" stroke="none" x="561" y="359" width="98.447265625" height="44" opacity="0.2"/></g><g transform="translate(-22,-38) scale(1,1)"><rect fill="#ffffff" stroke="none" x="554" y="352" width="98.447265625" height="44"/></g><g transform="translate(-22,-38) scale(1,1)"><path fill="none" stroke="#000000" d="M 554 352 L 652.447265625 352 L 652.447265625 396 L 554 396 L 554 352 Z Z" stroke-miterlimit="10"/></g><g transform="translate(-22,-38) scale(1,1)"><rect fill="#ffffff" stroke="none" x="544" y="359" width="20" height="10"/></g><g transform="translate(-22,-38) scale(1,1)"><path fill="none" stroke="#000000" d="M 544 359 L 564 359 L 564 369 L 544 369 L 544 359 Z Z" stroke-miterlimit="10"/></g><g transform="translate(-22,-38) scale(1,1)"><rect fill="#ffffff" stroke="none" x="544" y="379" width="20" height="10"/></g><g transform="translate(-22,-38) scale(1,1)"><path fill="none" stroke="#000000" d="M 544 379 L 564 379 L 564 389 L 544 389 L 544 379 Z Z" stroke-miterlimit="10"/></g><g transform="translate(-22,-38) scale(1,1)"><g><path fill="none" stroke="none"/><text fill="#000000" stroke="none" font-family="Arial" font-size="13px" font-style="normal" font-weight="normal" text-decoration="none" x="593.77001953125" y="369.5">«jar»</text></g></g><g transform="translate(-22,-38) scale(1,1)"><g><path fill="none" stroke="none"/><text fill="#000000" stroke="none" font-family="Arial" font-size="13px" font-style="normal" font-weight="bold" text-decoration="none" x="570.293212890625" y="384.5">Spring REST</text></g></g><g transform="translate(-22,-38) scale(1,1)"><rect fill="#C0C0C0" stroke="none" x="337" y="359" width="151.97705078125" height="44" opacity="0.2"/></g><g transform="translate(-22,-38) scale(1,1)"><rect fill="#ffffff" stroke="none" x="330" y="352" width="151.97705078125" height="44"/></g><g transform="translate(-22,-38) scale(1,1)"><path fill="none" stroke="#000000" d="M 330 352 L 481.97705078125 352 L 481.97705078125 396 L 330 396 L 330 352 Z Z" stroke-miterlimit="10"/></g><g transform="translate(-22,-38) scale(1,1)"><rect fill="#ffffff" stroke="none" x="320" y="359" width="20" height="10"/></g><g transform="translate(-22,-38) scale(1,1)"><path fill="none" stroke="#000000" d="M 320 359 L 340 359 L 340 369 L 320 369 L 320 359 Z Z" stroke-miterlimit="10"/></g><g transform="translate(-22,-38) scale(1,1)"><rect fill="#ffffff" stroke="none" x="320" y="379" width="20" height="10"/></g><g transform="translate(-22,-38) scale(1,1)"><path fill="none" stroke="#000000" d="M 320 379 L 340 379 L 340 389 L 320 389 L 320 379 Z Z" stroke-miterlimit="10"/></g><g transform="translate(-22,-38) scale(1,1)"><g><path fill="none" stroke="none"/><text fill="#000000" stroke="none" font-family="Arial" font-size="13px" font-style="normal" font-weight="normal" text-decoration="none" x="393.284912109375" y="369.5">«war»</text></g></g><g transform="translate(-22,-38) scale(1,1)"><g><path fill="none" stroke="none"/><text fill="#000000" stroke="none" font-family="Arial" font-size="13px" font-style="normal" font-weight="bold" text-decoration="none" x="348.8544921875" y="384.5">Serveur web services</text></g></g><g transform="translate(-22,-38) scale(1,1)"><rect fill="#C0C0C0" stroke="none" x="57" y="391" width="206.82080078125" height="44" opacity="0.2"/></g><g transform="translate(-22,-38) scale(1,1)"><rect fill="#ffffff" stroke="none" x="50" y="384" width="206.82080078125" height="44"/></g><g transform="translate(-22,-38) scale(1,1)"><path fill="none" stroke="#000000" d="M 50 384 L 256.82080078125 384 L 256.82080078125 428 L 50 428 L 50 384 Z Z" stroke-miterlimit="10"/></g><g transform="translate(-22,-38) scale(1,1)"><rect fill="#ffffff" stroke="none" x="40" y="391" width="20" height="10"/></g><g transform="translate(-22,-38) scale(1,1)"><path fill="none" stroke="#000000" d="M 40 391 L 60 391 L 60 401 L 40 401 L 40 391 Z Z" stroke-miterlimit="10"/></g><g transform="translate(-22,-38) scale(1,1)"><rect fill="#ffffff" stroke="none" x="40" y="411" width="20" height="10"/></g><g transform="translate(-22,-38) scale(1,1)"><path fill="none" stroke="#000000" d="M 40 411 L 60 411 L 60 421 L 40 421 L 40 411 Z Z" stroke-miterlimit="10"/></g><g transform="translate(-22,-38) scale(1,1)"><g><path fill="none" stroke="none"/><text fill="#000000" stroke="none" font-family="Arial" font-size="13px" font-style="normal" font-weight="normal" text-decoration="none" x="140.706787109375" y="401.5">«war»</text></g></g><g transform="translate(-22,-38) scale(1,1)"><g><path fill="none" stroke="none"/><text fill="#000000" stroke="none" font-family="Arial" font-size="13px" font-style="normal" font-weight="bold" text-decoration="none" x="70.619140625" y="416.5">Serveur de notifications PUSH</text></g></g><g transform="translate(-22,-38) scale(1,1)"><rect fill="#C0C0C0" stroke="none" x="361" y="175" width="98.44091796875" height="44" opacity="0.2"/></g><g transform="translate(-22,-38) scale(1,1)"><rect fill="#ffffff" stroke="none" x="354" y="168" width="98.44091796875" height="44"/></g><g transform="translate(-22,-38) scale(1,1)"><path fill="none" stroke="#000000" d="M 354 168 L 452.44091796875 168 L 452.44091796875 212 L 354 212 L 354 168 Z Z" stroke-miterlimit="10"/></g><g transform="translate(-22,-38) scale(1,1)"><rect fill="#ffffff" stroke="none" x="344" y="175" width="20" height="10"/></g><g transform="translate(-22,-38) scale(1,1)"><path fill="none" stroke="#000000" d="M 344 175 L 364 175 L 364 185 L 344 185 L 344 175 Z Z" stroke-miterlimit="10"/></g><g transform="translate(-22,-38) scale(1,1)"><rect fill="#ffffff" stroke="none" x="344" y="195" width="20" height="10"/></g><g transform="translate(-22,-38) scale(1,1)"><path fill="none" stroke="#000000" d="M 344 195 L 364 195 L 364 205 L 344 205 L 344 195 Z Z" stroke-miterlimit="10"/></g><g transform="translate(-22,-38) scale(1,1)"><g><path fill="none" stroke="none"/><text fill="#000000" stroke="none" font-family="Arial" font-size="13px" font-style="normal" font-weight="normal" text-decoration="none" x="393.766845703125" y="185.5">«jar»</text></g></g><g transform="translate(-22,-38) scale(1,1)"><g><path fill="none" stroke="none"/><text fill="#000000" stroke="none" font-family="Arial" font-size="13px" font-style="normal" font-weight="bold" text-decoration="none" x="393.055908203125" y="200.5">ORM</text></g></g><g transform="translate(-22,-38) scale(1,1)"><rect fill="#C0C0C0" stroke="none" x="65" y="311" width="196.7216796875" height="44" opacity="0.2"/></g><g transform="translate(-22,-38) scale(1,1)"><rect fill="#ffffff" stroke="none" x="58" y="304" width="196.7216796875" height="44"/></g><g transform="translate(-22,-38) scale(1,1)"><path fill="none" stroke="#000000" d="M 58 304 L 254.7216796875 304 L 254.7216796875 348 L 58 348 L 58 304 Z Z" stroke-miterlimit="10"/></g><g transform="translate(-22,-38) scale(1,1)"><rect fill="#ffffff" stroke="none" x="48" y="311" width="20" height="10"/></g><g transform="translate(-22,-38) scale(1,1)"><path fill="none" stroke="#000000" d="M 48 311 L 68 311 L 68 321 L 48 321 L 48 311 Z Z" stroke-miterlimit="10"/></g><g transform="translate(-22,-38) scale(1,1)"><rect fill="#ffffff" stroke="none" x="48" y="331" width="20" height="10"/></g><g transform="translate(-22,-38) scale(1,1)"><path fill="none" stroke="#000000" d="M 48 331 L 68 331 L 68 341 L 48 341 L 48 331 Z Z" stroke-miterlimit="10"/></g><g transform="translate(-22,-38) scale(1,1)"><g><path fill="none" stroke="none"/><text fill="#000000" stroke="none" font-family="Arial" font-size="13px" font-style="normal" font-weight="bold" text-decoration="none" x="78.263671875" y="323.5">Serveur applicaton Tomcat 8</text></g></g><g transform="translate(-22,-38) scale(1,1)"><rect fill="#C0C0C0" stroke="none" x="265" y="487" width="98.44091796875" height="44" opacity="0.2"/></g><g transform="translate(-22,-38) scale(1,1)"><rect fill="#ffffff" stroke="none" x="258" y="480" width="98.44091796875" height="44"/></g><g transform="translate(-22,-38) scale(1,1)"><path fill="none" stroke="#000000" d="M 258 480 L 356.44091796875 480 L 356.44091796875 524 L 258 524 L 258 480 Z Z" stroke-miterlimit="10"/></g><g transform="translate(-22,-38) scale(1,1)"><rect fill="#ffffff" stroke="none" x="248" y="487" width="20" height="10"/></g><g transform="translate(-22,-38) scale(1,1)"><path fill="none" stroke="#000000" d="M 248 487 L 268 487 L 268 497 L 248 497 L 248 487 Z Z" stroke-miterlimit="10"/></g><g transform="translate(-22,-38) scale(1,1)"><rect fill="#ffffff" stroke="none" x="248" y="507" width="20" height="10"/></g><g transform="translate(-22,-38) scale(1,1)"><path fill="none" stroke="#000000" d="M 248 507 L 268 507 L 268 517 L 248 517 L 248 507 Z Z" stroke-miterlimit="10"/></g><g transform="translate(-22,-38) scale(1,1)"><g><path fill="none" stroke="none"/><text fill="#000000" stroke="none" font-family="Arial" font-size="13px" font-style="normal" font-weight="bold" text-decoration="none" x="294.52001953125" y="499.5">JRE 8</text></g></g><g transform="translate(-22,-38) scale(1,1)"><rect fill="#C0C0C0" stroke="none" x="561" y="279" width="113.61181640625" height="44" opacity="0.2"/></g><g transform="translate(-22,-38) scale(1,1)"><rect fill="#ffffff" stroke="none" x="554" y="272" width="113.61181640625" height="44"/></g><g transform="translate(-22,-38) scale(1,1)"><path fill="none" stroke="#000000" d="M 554 272 L 667.61181640625 272 L 667.61181640625 316 L 554 316 L 554 272 Z Z" stroke-miterlimit="10"/></g><g transform="translate(-22,-38) scale(1,1)"><rect fill="#ffffff" stroke="none" x="544" y="279" width="20" height="10"/></g><g transform="translate(-22,-38) scale(1,1)"><path fill="none" stroke="#000000" d="M 544 279 L 564 279 L 564 289 L 544 289 L 544 279 Z Z" stroke-miterlimit="10"/></g><g transform="translate(-22,-38) scale(1,1)"><rect fill="#ffffff" stroke="none" x="544" y="299" width="20" height="10"/></g><g transform="translate(-22,-38) scale(1,1)"><path fill="none" stroke="#000000" d="M 544 299 L 564 299 L 564 309 L 544 309 L 544 299 Z Z" stroke-miterlimit="10"/></g><g transform="translate(-22,-38) scale(1,1)"><g><path fill="none" stroke="none"/><text fill="#000000" stroke="none" font-family="Arial" font-size="13px" font-style="normal" font-weight="normal" text-decoration="none" x="601.352294921875" y="289.5">«jar»</text></g></g><g transform="translate(-22,-38) scale(1,1)"><g><path fill="none" stroke="none"/><text fill="#000000" stroke="none" font-family="Arial" font-size="13px" font-style="normal" font-weight="bold" text-decoration="none" x="571.71826171875" y="304.5">Spring boot 1.2</text></g></g><g transform="translate(-22,-38) scale(1,1)"><rect fill="#C0C0C0" stroke="none" x="689" y="655" width="98.44091796875" height="44" opacity="0.2"/></g><g transform="translate(-22,-38) scale(1,1)"><rect fill="#ffffff" stroke="none" x="682" y="648" width="98.44091796875" height="44"/></g><g transform="translate(-22,-38) scale(1,1)"><path fill="none" stroke="#000000" d="M 682 648 L 780.44091796875 648 L 780.44091796875 692 L 682 692 L 682 648 Z Z" stroke-miterlimit="10"/></g><g transform="translate(-22,-38) scale(1,1)"><rect fill="#ffffff" stroke="none" x="672" y="655" width="20" height="10"/></g><g transform="translate(-22,-38) scale(1,1)"><path fill="none" stroke="#000000" d="M 672 655 L 692 655 L 692 665 L 672 665 L 672 655 Z Z" stroke-miterlimit="10"/></g><g transform="translate(-22,-38) scale(1,1)"><rect fill="#ffffff" stroke="none" x="672" y="675" width="20" height="10"/></g><g transform="translate(-22,-38) scale(1,1)"><path fill="none" stroke="#000000" d="M 672 675 L 692 675 L 692 685 L 672 685 L 672 675 Z Z" stroke-miterlimit="10"/></g><g transform="translate(-22,-38) scale(1,1)"><g><path fill="none" stroke="none"/><text fill="#000000" stroke="none" font-family="Arial" font-size="13px" font-style="normal" font-weight="bold" text-decoration="none" x="709.84912109375" y="667.5">Retrofit 2</text></g></g><g transform="translate(-22,-38) scale(1,1)"><path fill="#C0C0C0" stroke="none" d="M 398.7099609375 266.5 C 398.7099609375 260.1487248 403.8586857375 255 410.2099609375 255 C 416.5612361375 255 421.7099609375 260.1487248 421.7099609375 266.5 C 421.7099609375 272.8512752 416.5612361375 278 410.2099609375 278 C 403.8586857375 278 398.7099609375 272.8512752 398.7099609375 266.5 Z" opacity="0.2"/></g><g transform="translate(-22,-38) scale(1,1)"><path fill="none" stroke="#000000" d="M 414.4960200725577 259.30252684401466 A 11.5 11.5 0 0 1 391.5039799274423 258.69747315598534" stroke-miterlimit="10"/></g><g transform="translate(-22,-38) scale(1,1)"><path fill="#ffffff" stroke="none" d="M 394.7099609375 259.5 C 394.7099609375 254.8055792 398.5155401375 251 403.2099609375 251 C 407.9043817375 251 411.7099609375 254.8055792 411.7099609375 259.5 C 411.7099609375 264.1944208 407.9043817375 268 403.2099609375 268 C 398.5155401375 268 394.7099609375 264.1944208 394.7099609375 259.5 Z"/></g><g transform="translate(-22,-38) scale(1,1)"><path fill="none" stroke="#000000" d="M 394.7099609375 259.5 C 394.7099609375 254.8055792 398.5155401375 251 403.2099609375 251 C 407.9043817375 251 411.7099609375 254.8055792 411.7099609375 259.5 C 411.7099609375 264.1944208 407.9043817375 268 403.2099609375 268 C 398.5155401375 268 394.7099609375 264.1944208 394.7099609375 259.5 Z" stroke-miterlimit="10"/></g><g transform="translate(-22,-38) scale(1,1)"><g><path fill="none" stroke="none"/><text fill="#000000" stroke="none" font-family="Arial" font-size="13px" font-style="normal" font-weight="bold" text-decoration="none" x="386.239501953125" y="290.5">IORM</text></g></g><g transform="translate(-22,-38) scale(1,1)"><path fill="#C0C0C0" stroke="none" d="M 474.272216796875 498.5 C 474.272216796875 492.1487248 479.420941596875 487 485.772216796875 487 C 492.123491996875 487 497.272216796875 492.1487248 497.272216796875 498.5 C 497.272216796875 504.8512752 492.123491996875 510 485.772216796875 510 C 479.420941596875 510 474.272216796875 504.8512752 474.272216796875 498.5 Z" opacity="0.2"/></g><g transform="translate(-22,-38) scale(1,1)"><path fill="none" stroke="#000000" d="M 489.30971166877436 488.91663206101526 A 11.5 11.5 0 0 1 466.69028833122564 493.08336793898474" stroke-miterlimit="10"/></g><g transform="translate(-22,-38) scale(1,1)"><path fill="#ffffff" stroke="none" d="M 470.272216796875 491.5 C 470.272216796875 486.8055792 474.077795996875 483 478.772216796875 483 C 483.466637596875 483 487.272216796875 486.8055792 487.272216796875 491.5 C 487.272216796875 496.1944208 483.466637596875 500 478.772216796875 500 C 474.077795996875 500 470.272216796875 496.1944208 470.272216796875 491.5 Z"/></g><g transform="translate(-22,-38) scale(1,1)"><path fill="none" stroke="#000000" d="M 470.272216796875 491.5 C 470.272216796875 486.8055792 474.077795996875 483 478.772216796875 483 C 483.466637596875 483 487.272216796875 486.8055792 487.272216796875 491.5 C 487.272216796875 496.1944208 483.466637596875 500 478.772216796875 500 C 474.077795996875 500 470.272216796875 496.1944208 470.272216796875 491.5 Z" stroke-miterlimit="10"/></g><g transform="translate(-22,-38) scale(1,1)"><g><path fill="none" stroke="none"/><text fill="#000000" stroke="none" font-family="Arial" font-size="13px" font-style="normal" font-weight="bold" text-decoration="none" x="438.67724609375" y="522.5">IWebServices</text></g></g><g transform="translate(-22,-38) scale(1,1)"><path fill="none" stroke="#000000" d="M 382 397 L 320 479" stroke-miterlimit="10" stroke-dasharray="3"/></g><g transform="translate(-22,-38) scale(1,1)"><path fill="none" stroke="#000000" d="M 322.7714321831808 468.35485257715845 L 320 479 L 329.4869544197475 473.43244256090406" stroke-miterlimit="10"/></g><g transform="translate(-22,-38) scale(1,1)"><path fill="none" stroke="#000000" d="M 185 429 L 265 479" stroke-miterlimit="10" stroke-dasharray="3"/></g><g transform="translate(-22,-38) scale(1,1)"><path fill="none" stroke="#000000" d="M 254.15102900796654 477.1834570156431 L 265 479 L 258.61310890519263 470.04412918008137" stroke-miterlimit="10"/></g><g transform="translate(-22,-38) scale(1,1)"><path fill="none" stroke="#000000" d="M 319 358 L 256 346" stroke-miterlimit="10" stroke-dasharray="3"/></g><g transform="translate(-22,-38) scale(1,1)"><path fill="none" stroke="#000000" d="M 266.77083919118473 343.76638787663603 L 256 346 L 265.19553571012773 352.03673115218544" stroke-miterlimit="10"/></g><g transform="translate(-22,-38) scale(1,1)"><path fill="none" stroke="#000000" d="M 149 383 L 150 349" stroke-miterlimit="10" stroke-dasharray="3"/></g><g transform="translate(-22,-38) scale(1,1)"><path fill="none" stroke="#000000" d="M 153.90892520820617 359.2820379165149 L 150 349 L 145.49352878668873 359.03452625705853" stroke-miterlimit="10"/></g><g transform="translate(-22,-38) scale(1,1)"><path fill="none" stroke="#000000" d="M 483 374 L 543 374" stroke-miterlimit="10" stroke-dasharray="3"/></g><g transform="translate(-22,-38) scale(1,1)"><path fill="none" stroke="#000000" d="M 532.8373251423759 378.209517756016 L 543 374 L 532.8373251423758 369.790482243984" stroke-miterlimit="10"/></g><g transform="translate(-22,-38) scale(1,1)"><path fill="#C0C0C0" stroke="none" d="M 134.7099609375 522.5 C 134.7099609375 516.1487248 139.8586857375 511 146.2099609375 511 C 152.5612361375 511 157.7099609375 516.1487248 157.7099609375 522.5 C 157.7099609375 528.8512752 152.5612361375 534 146.2099609375 534 C 139.8586857375 534 134.7099609375 528.8512752 134.7099609375 522.5 Z" opacity="0.2"/></g><g transform="translate(-22,-38) scale(1,1)"><path fill="none" stroke="#000000" d="M 150.43681270859616 513.7961249780425 A 11.5 11.5 0 0 1 127.56318729140384 516.2038750219575" stroke-miterlimit="10"/></g><g transform="translate(-22,-38) scale(1,1)"><path fill="none" stroke="#000000" d="M 145.7331413692101 505.67718887340135 A 11.5 11.5 0 0 1 132.2668586307899 524.3228111265986" stroke-miterlimit="10"/></g><g transform="translate(-22,-38) scale(1,1)"><path fill="#ffffff" stroke="none" d="M 130.7099609375 515.5 C 130.7099609375 510.8055792 134.5155401375 507 139.2099609375 507 C 143.9043817375 507 147.7099609375 510.8055792 147.7099609375 515.5 C 147.7099609375 520.1944208 143.9043817375 524 139.2099609375 524 C 134.5155401375 524 130.7099609375 520.1944208 130.7099609375 515.5 Z"/></g><g transform="translate(-22,-38) scale(1,1)"><path fill="none" stroke="#000000" d="M 130.7099609375 515.5 C 130.7099609375 510.8055792 134.5155401375 507 139.2099609375 507 C 143.9043817375 507 147.7099609375 510.8055792 147.7099609375 515.5 C 147.7099609375 520.1944208 143.9043817375 524 139.2099609375 524 C 134.5155401375 524 130.7099609375 520.1944208 130.7099609375 515.5 Z" stroke-miterlimit="10"/></g><g transform="translate(-22,-38) scale(1,1)"><g><path fill="none" stroke="none"/><text fill="#000000" stroke="none" font-family="Arial" font-size="13px" font-style="normal" font-weight="bold" text-decoration="none" x="122.588623046875" y="546.5">IPush</text></g></g><g transform="translate(-22,-38) scale(1,1)"><path fill="none" stroke="#000000" d="M 158 655 L 140.26315789473685 527" stroke-miterlimit="10"/></g><g transform="translate(-22,-38) scale(1,1)"><g><path fill="none" stroke="none"/><text fill="#000000" stroke="none" font-family="Arial" font-size="13px" font-style="normal" font-weight="normal" text-decoration="none" x="56" y="602">«websocket»</text></g></g><g transform="translate(-22,-38) scale(1,1)"><path fill="none" stroke="#000000" d="M 459 351 L 546 317" stroke-miterlimit="10" stroke-dasharray="3"/></g><g transform="translate(-22,-38) scale(1,1)"><path fill="none" stroke="#000000" d="M 538.0667242445477 324.6199170460021 L 546 317 L 535.0022319009898 316.77842193160393" stroke-miterlimit="10"/></g><g transform="translate(-22,-38) scale(1,1)"><path fill="none" stroke="#000000" d="M 633 670 L 671 670" stroke-miterlimit="10" stroke-dasharray="3"/></g><g transform="translate(-22,-38) scale(1,1)"><path fill="none" stroke="#000000" d="M 660.8373251423759 674.209517756016 L 671 670 L 660.8373251423758 665.790482243984" stroke-miterlimit="10"/></g><g transform="translate(-22,-38) scale(1,1)"><rect fill="#C0C0C0" stroke="none" x="449" y="751" width="173.57177734375" height="44" opacity="0.2"/></g><g transform="translate(-22,-38) scale(1,1)"><rect fill="#ffffff" stroke="none" x="442" y="744" width="173.57177734375" height="44"/></g><g transform="translate(-22,-38) scale(1,1)"><path fill="none" stroke="#000000" d="M 442 744 L 615.57177734375 744 L 615.57177734375 788 L 442 788 L 442 744 Z Z" stroke-miterlimit="10"/></g><g transform="translate(-22,-38) scale(1,1)"><rect fill="#ffffff" stroke="none" x="432" y="751" width="20" height="10"/></g><g transform="translate(-22,-38) scale(1,1)"><path fill="none" stroke="#000000" d="M 432 751 L 452 751 L 452 761 L 432 761 L 432 751 Z Z" stroke-miterlimit="10"/></g><g transform="translate(-22,-38) scale(1,1)"><rect fill="#ffffff" stroke="none" x="432" y="771" width="20" height="10"/></g><g transform="translate(-22,-38) scale(1,1)"><path fill="none" stroke="#000000" d="M 432 771 L 452 771 L 452 781 L 432 781 L 432 771 Z Z" stroke-miterlimit="10"/></g><g transform="translate(-22,-38) scale(1,1)"><g><path fill="none" stroke="none"/><text fill="#000000" stroke="none" font-family="Arial" font-size="13px" font-style="normal" font-weight="bold" text-decoration="none" x="461.8955078125" y="763.5">Android API 19 minimum</text></g></g><g transform="translate(-22,-38) scale(1,1)"><path fill="none" stroke="#000000" d="M 524 693 L 523 743" stroke-miterlimit="10" stroke-dasharray="3"/></g><g transform="translate(-22,-38) scale(1,1)"><path fill="none" stroke="#000000" d="M 518.9945367536925 732.755183545691 L 523 743 L 527.4118889635959 732.9235305898891" stroke-miterlimit="10"/></g><g transform="translate(-22,-38) scale(1,1)"><path fill="none" stroke="#000000" d="M 462 647 L 150.7099609375 523.4571940104166" stroke-miterlimit="10"/></g><g transform="translate(-22,-38) scale(1,1)"><g><path fill="none" stroke="none"/><text fill="#000000" stroke="none" font-family="Arial" font-size="13px" font-style="normal" font-weight="normal" text-decoration="none" x="312" y="586">«websocket»</text></g></g><g transform="translate(-22,-38) scale(1,1)"><path fill="none" stroke="#000000" d="M 518 647 L 480.2105263157895 503" stroke-miterlimit="10"/></g><g transform="translate(-22,-38) scale(1,1)"><g><path fill="none" stroke="none"/><text fill="#000000" stroke="none" font-family="Arial" font-size="13px" font-style="normal" font-weight="normal" text-decoration="none" x="451" y="589">«http»</text></g></g><g transform="translate(-22,-38) scale(1,1)"><path fill="none" stroke="#000000" d="M 414 397 L 467.272216796875 482.4177734375" stroke-miterlimit="10"/></g><g transform="translate(-22,-38) scale(1,1)"><path fill="none" stroke="#000000" d="M 146 429 L 140.83333333333334 504" stroke-miterlimit="10"/></g><g transform="translate(-22,-38) scale(1,1)"><path fill="none" stroke="#000000" d="M 399 213 L 401.1666666666667 248" stroke-miterlimit="10"/></g><g transform="translate(-22,-38) scale(1,1)"><path fill="none" stroke="#000000" d="M 401 351 L 402.6842105263158 271" stroke-miterlimit="10"/></g><g transform="translate(-22,-38) scale(1,1)"><path fill="none" stroke="#000000" d="M 399 167 L 400 93" stroke-miterlimit="10" stroke-dasharray="3"/></g><g transform="translate(-22,-38) scale(1,1)"><path fill="none" stroke="#000000" d="M 404.07181254184565 103.21862723774913 L 400 93 L 395.6535456458295 103.10486687428946" stroke-miterlimit="10"/></g><g transform="translate(-22,-38) scale(1,1)"><rect fill="#C0C0C0" stroke="none" x="697" y="591" width="90.44091796875" height="44" opacity="0.2"/></g><g transform="translate(-22,-38) scale(1,1)"><rect fill="#ffffff" stroke="none" x="690" y="584" width="90.44091796875" height="44"/></g><g transform="translate(-22,-38) scale(1,1)"><path fill="none" stroke="#000000" d="M 690 584 L 780.44091796875 584 L 780.44091796875 628 L 690 628 L 690 584 Z Z" stroke-miterlimit="10"/></g><g transform="translate(-22,-38) scale(1,1)"><rect fill="#ffffff" stroke="none" x="680" y="591" width="20" height="10"/></g><g transform="translate(-22,-38) scale(1,1)"><path fill="none" stroke="#000000" d="M 680 591 L 700 591 L 700 601 L 680 601 L 680 591 Z Z" stroke-miterlimit="10"/></g><g transform="translate(-22,-38) scale(1,1)"><rect fill="#ffffff" stroke="none" x="680" y="611" width="20" height="10"/></g><g transform="translate(-22,-38) scale(1,1)"><path fill="none" stroke="#000000" d="M 680 611 L 700 611 L 700 621 L 680 621 L 680 611 Z Z" stroke-miterlimit="10"/></g><g transform="translate(-22,-38) scale(1,1)"><g><path fill="none" stroke="none"/><text fill="#000000" stroke="none" font-family="Arial" font-size="13px" font-style="normal" font-weight="bold" text-decoration="none" x="717.46728515625" y="603.5">DBFlow</text></g></g><g transform="translate(-22,-38) scale(1,1)"><path fill="none" stroke="#000000" d="M 598 647 L 679 622" stroke-miterlimit="10" stroke-dasharray="3"/></g><g transform="translate(-22,-38) scale(1,1)"><path fill="none" stroke="#000000" d="M 670.5307730714823 629.0194155905793 L 679 622 L 668.0478758433721 620.9748285715026" stroke-miterlimit="10"/></g></g></svg>