<svg version="1.1" xmlns="http://www.w3.org/2000/svg" xmlns:xlink="http://www.w3.org/1999/xlink" width="996" height="772"><defs/><g><g transform="translate(2,-14) scale(1,1)"><path fill="#C0C0C0" stroke="none" d="M 95 129 L 201 129 L 201 165 L 95 165" opacity="0.2"/></g><g transform="translate(2,-14) scale(1,1)"><path fill="#C0C0C0" stroke="none" d="M 95 129 L 105 119 L 211 119 L 201 129" opacity="0.2"/></g><g transform="translate(2,-14) scale(1,1)"><path fill="#C0C0C0" stroke="none" d="M 211 119 L 201 129 L 201 165 L 211 155" opacity="0.2"/></g><g transform="translate(2,-14) scale(1,1)"><path fill="#ffffff" stroke="none" d="M 88 122 L 194 122 L 194 158 L 88 158"/></g><g transform="translate(2,-14) scale(1,1)"><path fill="#ffffff" stroke="none" d="M 88 122 L 98 112 L 204 112 L 194 122"/></g><g transform="translate(2,-14) scale(1,1)"><path fill="#ffffff" stroke="none" d="M 204 112 L 194 122 L 194 158 L 204 148"/></g><g transform="translate(2,-14) scale(1,1)"><path fill="none" stroke="#000000" d="M 88 122 L 194 122 L 194 158 L 88 158 L 88 122" stroke-miterlimit="10"/></g><g transform="translate(2,-14) scale(1,1)"><path fill="none" stroke="#000000" d="M 88 122 L 98 112 L 204 112 L 194 122 L 88 122" stroke-miterlimit="10"/></g><g transform="translate(2,-14) scale(1,1)"><path fill="none" stroke="#000000" d="M 204 112 L 194 122 L 194 158 L 204 148 L 204 112" stroke-miterlimit="10"/></g><g transform="translate(2,-14) scale(1,1)"><g><path fill="none" stroke="none"/><text fill="#000000" stroke="none" font-family="Arial" font-size="13px" font-style="normal" font-weight="normal" text-decoration="none" x="96.3173828125" y="139.5">«192.168.20.3»</text></g></g><g transform="translate(2,-14) scale(1,1)"><g><path fill="none" stroke="none"/><text fill="#000000" stroke="none" font-family="Arial" font-size="13px" font-style="normal" font-weight="bold" text-decoration="none" x="119.108642578125" y="154.5">Firewall</text></g></g><g transform="translate(2,-14) scale(1,1)"><path fill="#C0C0C0" stroke="none" d="M 119 217 L 168.89453125 217 L 168.89453125 250 L 119 250" opacity="0.2"/></g><g transform="translate(2,-14) scale(1,1)"><path fill="#C0C0C0" stroke="none" d="M 119 217 L 129 207 L 178.89453125 207 L 168.89453125 217" opacity="0.2"/></g><g transform="translate(2,-14) scale(1,1)"><path fill="#C0C0C0" stroke="none" d="M 178.89453125 207 L 168.89453125 217 L 168.89453125 250 L 178.89453125 240" opacity="0.2"/></g><g transform="translate(2,-14) scale(1,1)"><path fill="#ffffff" stroke="none" d="M 112 210 L 161.89453125 210 L 161.89453125 243 L 112 243"/></g><g transform="translate(2,-14) scale(1,1)"><path fill="#ffffff" stroke="none" d="M 112 210 L 122 200 L 171.89453125 200 L 161.89453125 210"/></g><g transform="translate(2,-14) scale(1,1)"><path fill="#ffffff" stroke="none" d="M 171.89453125 200 L 161.89453125 210 L 161.89453125 243 L 171.89453125 233"/></g><g transform="translate(2,-14) scale(1,1)"><path fill="none" stroke="#000000" d="M 112 210 L 161.89453125 210 L 161.89453125 243 L 112 243 L 112 210" stroke-miterlimit="10"/></g><g transform="translate(2,-14) scale(1,1)"><path fill="none" stroke="#000000" d="M 112 210 L 122 200 L 171.89453125 200 L 161.89453125 210 L 112 210" stroke-miterlimit="10"/></g><g transform="translate(2,-14) scale(1,1)"><path fill="none" stroke="#000000" d="M 171.89453125 200 L 161.89453125 210 L 161.89453125 243 L 171.89453125 233 L 171.89453125 200" stroke-miterlimit="10"/></g><g transform="translate(2,-14) scale(1,1)"><g><path fill="none" stroke="none"/><text fill="#000000" stroke="none" font-family="Arial" font-size="13px" font-style="normal" font-weight="bold" text-decoration="none" x="118.302734375" y="229.5">Switch</text></g></g><g transform="translate(2,-14) scale(1,1)"><path fill="#C0C0C0" stroke="none" d="M 639 393 L 749 393 L 749 429 L 639 429" opacity="0.2"/></g><g transform="translate(2,-14) scale(1,1)"><path fill="#C0C0C0" stroke="none" d="M 639 393 L 649 383 L 759 383 L 749 393" opacity="0.2"/></g><g transform="translate(2,-14) scale(1,1)"><path fill="#C0C0C0" stroke="none" d="M 759 383 L 749 393 L 749 429 L 759 419" opacity="0.2"/></g><g transform="translate(2,-14) scale(1,1)"><path fill="#ffffff" stroke="none" d="M 632 386 L 742 386 L 742 422 L 632 422"/></g><g transform="translate(2,-14) scale(1,1)"><path fill="#ffffff" stroke="none" d="M 632 386 L 642 376 L 752 376 L 742 386"/></g><g transform="translate(2,-14) scale(1,1)"><path fill="#ffffff" stroke="none" d="M 752 376 L 742 386 L 742 422 L 752 412"/></g><g transform="translate(2,-14) scale(1,1)"><path fill="none" stroke="#000000" d="M 632 386 L 742 386 L 742 422 L 632 422 L 632 386" stroke-miterlimit="10"/></g><g transform="translate(2,-14) scale(1,1)"><path fill="none" stroke="#000000" d="M 632 386 L 642 376 L 752 376 L 742 386 L 632 386" stroke-miterlimit="10"/></g><g transform="translate(2,-14) scale(1,1)"><path fill="none" stroke="#000000" d="M 752 376 L 742 386 L 742 422 L 752 412 L 752 376" stroke-miterlimit="10"/></g><g transform="translate(2,-14) scale(1,1)"><g><path fill="none" stroke="none"/><text fill="#000000" stroke="none" font-family="Arial" font-size="13px" font-style="normal" font-weight="normal" text-decoration="none" x="640.511474609375" y="403.5">«10.0.0.2:8081»</text></g></g><g transform="translate(2,-14) scale(1,1)"><g><path fill="none" stroke="none"/><text fill="#000000" stroke="none" font-family="Arial" font-size="13px" font-style="normal" font-weight="bold" text-decoration="none" x="640.8955078125" y="418.5">Serveur Jenkins</text></g></g><g transform="translate(2,-14) scale(1,1)"><path fill="#C0C0C0" stroke="none" d="M 223 201 L 319.8671875 201 L 319.8671875 237 L 223 237" opacity="0.2"/></g><g transform="translate(2,-14) scale(1,1)"><path fill="#C0C0C0" stroke="none" d="M 223 201 L 233 191 L 329.8671875 191 L 319.8671875 201" opacity="0.2"/></g><g transform="translate(2,-14) scale(1,1)"><path fill="#C0C0C0" stroke="none" d="M 329.8671875 191 L 319.8671875 201 L 319.8671875 237 L 329.8671875 227" opacity="0.2"/></g><g transform="translate(2,-14) scale(1,1)"><path fill="#ffffff" stroke="none" d="M 216 194 L 312.8671875 194 L 312.8671875 230 L 216 230"/></g><g transform="translate(2,-14) scale(1,1)"><path fill="#ffffff" stroke="none" d="M 216 194 L 226 184 L 322.8671875 184 L 312.8671875 194"/></g><g transform="translate(2,-14) scale(1,1)"><path fill="#ffffff" stroke="none" d="M 322.8671875 184 L 312.8671875 194 L 312.8671875 230 L 322.8671875 220"/></g><g transform="translate(2,-14) scale(1,1)"><path fill="none" stroke="#000000" d="M 216 194 L 312.8671875 194 L 312.8671875 230 L 216 230 L 216 194" stroke-miterlimit="10"/></g><g transform="translate(2,-14) scale(1,1)"><path fill="none" stroke="#000000" d="M 216 194 L 226 184 L 322.8671875 184 L 312.8671875 194 L 216 194" stroke-miterlimit="10"/></g><g transform="translate(2,-14) scale(1,1)"><path fill="none" stroke="#000000" d="M 322.8671875 184 L 312.8671875 194 L 312.8671875 230 L 322.8671875 220 L 322.8671875 184" stroke-miterlimit="10"/></g><g transform="translate(2,-14) scale(1,1)"><g><path fill="none" stroke="none"/><text fill="#000000" stroke="none" font-family="Arial" font-size="13px" font-style="normal" font-weight="normal" text-decoration="none" x="225.175048828125" y="211.5">«10.0.0.2:80»</text></g></g><g transform="translate(2,-14) scale(1,1)"><g><path fill="none" stroke="none"/><text fill="#000000" stroke="none" font-family="Arial" font-size="13px" font-style="normal" font-weight="bold" text-decoration="none" x="223.38818359375" y="226.5">Serveur Gitlab</text></g></g><g transform="translate(2,-14) scale(1,1)"><path fill="#C0C0C0" stroke="none" d="M 103 41 L 185.40087890625 41 L 185.40087890625 74 L 103 74" opacity="0.2"/></g><g transform="translate(2,-14) scale(1,1)"><path fill="#C0C0C0" stroke="none" d="M 103 41 L 113 31 L 195.40087890625 31 L 185.40087890625 41" opacity="0.2"/></g><g transform="translate(2,-14) scale(1,1)"><path fill="#C0C0C0" stroke="none" d="M 195.40087890625 31 L 185.40087890625 41 L 185.40087890625 74 L 195.40087890625 64" opacity="0.2"/></g><g transform="translate(2,-14) scale(1,1)"><path fill="#ffffff" stroke="none" d="M 96 34 L 178.40087890625 34 L 178.40087890625 67 L 96 67"/></g><g transform="translate(2,-14) scale(1,1)"><path fill="#ffffff" stroke="none" d="M 96 34 L 106 24 L 188.40087890625 24 L 178.40087890625 34"/></g><g transform="translate(2,-14) scale(1,1)"><path fill="#ffffff" stroke="none" d="M 188.40087890625 24 L 178.40087890625 34 L 178.40087890625 67 L 188.40087890625 57"/></g><g transform="translate(2,-14) scale(1,1)"><path fill="none" stroke="#000000" d="M 96 34 L 178.40087890625 34 L 178.40087890625 67 L 96 67 L 96 34" stroke-miterlimit="10"/></g><g transform="translate(2,-14) scale(1,1)"><path fill="none" stroke="#000000" d="M 96 34 L 106 24 L 188.40087890625 24 L 178.40087890625 34 L 96 34" stroke-miterlimit="10"/></g><g transform="translate(2,-14) scale(1,1)"><path fill="none" stroke="#000000" d="M 188.40087890625 24 L 178.40087890625 34 L 178.40087890625 67 L 188.40087890625 57 L 188.40087890625 24" stroke-miterlimit="10"/></g><g transform="translate(2,-14) scale(1,1)"><g><path fill="none" stroke="none"/><text fill="#000000" stroke="none" font-family="Arial" font-size="13px" font-style="normal" font-weight="bold" text-decoration="none" x="102.305908203125" y="53.5">VM Network</text></g></g><g transform="translate(2,-14) scale(1,1)"><path fill="#C0C0C0" stroke="none" d="M 535 529 L 940 529 L 940 782 L 535 782" opacity="0.2"/></g><g transform="translate(2,-14) scale(1,1)"><path fill="#C0C0C0" stroke="none" d="M 535 529 L 545 519 L 950 519 L 940 529" opacity="0.2"/></g><g transform="translate(2,-14) scale(1,1)"><path fill="#C0C0C0" stroke="none" d="M 950 519 L 940 529 L 940 782 L 950 772" opacity="0.2"/></g><g transform="translate(2,-14) scale(1,1)"><path fill="#ffffff" stroke="none" d="M 528 522 L 933 522 L 933 775 L 528 775"/></g><g transform="translate(2,-14) scale(1,1)"><path fill="#ffffff" stroke="none" d="M 528 522 L 538 512 L 943 512 L 933 522"/></g><g transform="translate(2,-14) scale(1,1)"><path fill="#ffffff" stroke="none" d="M 943 512 L 933 522 L 933 775 L 943 765"/></g><g transform="translate(2,-14) scale(1,1)"><path fill="none" stroke="#000000" d="M 528 522 L 933 522 L 933 775 L 528 775 L 528 522" stroke-miterlimit="10"/></g><g transform="translate(2,-14) scale(1,1)"><path fill="none" stroke="#000000" d="M 528 522 L 538 512 L 943 512 L 933 522 L 528 522" stroke-miterlimit="10"/></g><g transform="translate(2,-14) scale(1,1)"><path fill="none" stroke="#000000" d="M 943 512 L 933 522 L 933 775 L 943 765 L 943 512" stroke-miterlimit="10"/></g><g transform="translate(2,-14) scale(1,1)"><g><path fill="none" stroke="none"/><text fill="#000000" stroke="none" font-family="Arial" font-size="13px" font-style="normal" font-weight="normal" text-decoration="none" x="684.011474609375" y="539.5">«10.0.0.5:8082»</text></g></g><g transform="translate(2,-14) scale(1,1)"><g><path fill="none" stroke="none"/><text fill="#000000" stroke="none" font-family="Arial" font-size="13px" font-style="normal" font-weight="bold" text-decoration="none" x="689.09912109375" y="554.5">Serveur REST</text></g></g><g transform="translate(2,-14) scale(1,1)"><rect fill="#C0C0C0" stroke="none" x="569" y="591" width="209.72802734375" height="52" opacity="0.2"/></g><g transform="translate(2,-14) scale(1,1)"><rect fill="#ffffff" stroke="none" x="562" y="584" width="209.72802734375" height="52"/></g><g transform="translate(2,-14) scale(1,1)"><path fill="none" stroke="#000000" d="M 562 584 L 771.72802734375 584 L 771.72802734375 636 L 562 636 L 562 584 Z Z" stroke-miterlimit="10"/></g><g transform="translate(2,-14) scale(1,1)"><rect fill="#ffffff" stroke="none" x="552" y="591" width="20" height="10"/></g><g transform="translate(2,-14) scale(1,1)"><path fill="none" stroke="#000000" d="M 552 591 L 572 591 L 572 601 L 552 601 L 552 591 Z Z" stroke-miterlimit="10"/></g><g transform="translate(2,-14) scale(1,1)"><rect fill="#ffffff" stroke="none" x="552" y="611" width="20" height="10"/></g><g transform="translate(2,-14) scale(1,1)"><path fill="none" stroke="#000000" d="M 552 611 L 572 611 L 572 621 L 552 621 L 552 611 Z Z" stroke-miterlimit="10"/></g><g transform="translate(2,-14) scale(1,1)"><g><path fill="none" stroke="none"/><text fill="#000000" stroke="none" font-family="Arial" font-size="13px" font-style="normal" font-weight="normal" text-decoration="none" x="654.160400390625" y="601.5">«war»</text></g></g><g transform="translate(2,-14) scale(1,1)"><g><path fill="none" stroke="none"/><text fill="#000000" stroke="none" font-family="Arial" font-size="13px" font-style="normal" font-weight="bold" text-decoration="none" x="609.72998046875" y="616.5">Serveur web services</text></g></g><g transform="translate(2,-14) scale(1,1)"><g><path fill="none" stroke="none"/><text fill="#000000" stroke="none" font-family="Arial" font-size="13px" font-style="normal" font-weight="normal" text-decoration="none" x="576.5" y="631.5">(from Diagramme de composant)</text></g></g><g transform="translate(2,-14) scale(1,1)"><rect fill="#C0C0C0" stroke="none" x="697" y="703" width="209.72802734375" height="44" opacity="0.2"/></g><g transform="translate(2,-14) scale(1,1)"><rect fill="#ffffff" stroke="none" x="690" y="696" width="209.72802734375" height="44"/></g><g transform="translate(2,-14) scale(1,1)"><path fill="none" stroke="#000000" d="M 690 696 L 899.72802734375 696 L 899.72802734375 740 L 690 740 L 690 696 Z Z" stroke-miterlimit="10"/></g><g transform="translate(2,-14) scale(1,1)"><rect fill="#ffffff" stroke="none" x="680" y="703" width="20" height="10"/></g><g transform="translate(2,-14) scale(1,1)"><path fill="none" stroke="#000000" d="M 680 703 L 700 703 L 700 713 L 680 713 L 680 703 Z Z" stroke-miterlimit="10"/></g><g transform="translate(2,-14) scale(1,1)"><rect fill="#ffffff" stroke="none" x="680" y="723" width="20" height="10"/></g><g transform="translate(2,-14) scale(1,1)"><path fill="none" stroke="#000000" d="M 680 723 L 700 723 L 700 733 L 680 733 L 680 723 Z Z" stroke-miterlimit="10"/></g><g transform="translate(2,-14) scale(1,1)"><g><path fill="none" stroke="none"/><text fill="#000000" stroke="none" font-family="Arial" font-size="13px" font-style="normal" font-weight="bold" text-decoration="none" x="716.766845703125" y="715.5">Serveur applicaton Tomcat 8</text></g></g><g transform="translate(2,-14) scale(1,1)"><g><path fill="none" stroke="none"/><text fill="#000000" stroke="none" font-family="Arial" font-size="13px" font-style="normal" font-weight="normal" text-decoration="none" x="704.5" y="730.5">(from Diagramme de composant)</text></g></g><g transform="translate(2,-14) scale(1,1)"><path fill="none" stroke="#000000" d="M 693 637 L 762 695" stroke-miterlimit="10" stroke-dasharray="3"/></g><g transform="translate(2,-14) scale(1,1)"><path fill="none" stroke="#000000" d="M 751.511988344658 691.6831322731515 L 762 695 L 756.9292354992974 685.2384761753907" stroke-miterlimit="10"/></g><g transform="translate(2,-14) scale(1,1)"><path fill="#C0C0C0" stroke="none" d="M 383 73 L 980 73 L 980 246 L 383 246" opacity="0.2"/></g><g transform="translate(2,-14) scale(1,1)"><path fill="#C0C0C0" stroke="none" d="M 383 73 L 393 63 L 990 63 L 980 73" opacity="0.2"/></g><g transform="translate(2,-14) scale(1,1)"><path fill="#C0C0C0" stroke="none" d="M 990 63 L 980 73 L 980 246 L 990 236" opacity="0.2"/></g><g transform="translate(2,-14) scale(1,1)"><path fill="#ffffff" stroke="none" d="M 376 66 L 973 66 L 973 239 L 376 239"/></g><g transform="translate(2,-14) scale(1,1)"><path fill="#ffffff" stroke="none" d="M 376 66 L 386 56 L 983 56 L 973 66"/></g><g transform="translate(2,-14) scale(1,1)"><path fill="#ffffff" stroke="none" d="M 983 56 L 973 66 L 973 239 L 983 229"/></g><g transform="translate(2,-14) scale(1,1)"><path fill="none" stroke="#000000" d="M 376 66 L 973 66 L 973 239 L 376 239 L 376 66" stroke-miterlimit="10"/></g><g transform="translate(2,-14) scale(1,1)"><path fill="none" stroke="#000000" d="M 376 66 L 386 56 L 983 56 L 973 66 L 376 66" stroke-miterlimit="10"/></g><g transform="translate(2,-14) scale(1,1)"><path fill="none" stroke="#000000" d="M 983 56 L 973 66 L 973 239 L 983 229 L 983 56" stroke-miterlimit="10"/></g><g transform="translate(2,-14) scale(1,1)"><g><path fill="none" stroke="none"/><text fill="#000000" stroke="none" font-family="Arial" font-size="13px" font-style="normal" font-weight="bold" text-decoration="none" x="634.17822265625" y="85.5">Device mobile</text></g></g><g transform="translate(2,-14) scale(1,1)"><path fill="none" stroke="#000000" d="M 375 141 L 206 136" stroke-miterlimit="10"/></g><g transform="translate(2,-14) scale(1,1)"><g><path fill="none" stroke="none"/><text fill="#000000" stroke="none" font-family="Arial" font-size="13px" font-style="normal" font-weight="normal" text-decoration="none" x="269" y="159">+HTTP</text></g></g><g transform="translate(2,-14) scale(1,1)"><path fill="none" stroke="#000000" d="M 145 111 L 143 69" stroke-miterlimit="10"/></g><g transform="translate(2,-14) scale(1,1)"><path fill="none" stroke="#000000" d="M 145 160 L 143 199" stroke-miterlimit="10"/></g><g transform="translate(2,-14) scale(1,1)"><path fill="none" stroke="#000000" d="M 174 232 L 631 379" stroke-miterlimit="10"/></g><g transform="translate(2,-14) scale(1,1)"><path fill="none" stroke="#000000" d="M 215 213 L 174 218" stroke-miterlimit="10"/></g><g transform="translate(2,-14) scale(1,1)"><path fill="none" stroke="#000000" d="M 174 245 L 549 511" stroke-miterlimit="10"/></g><g transform="translate(2,-14) scale(1,1)"><path fill="#C0C0C0" stroke="none" d="M 31 529 L 372 529 L 372 630 L 31 630" opacity="0.2"/></g><g transform="translate(2,-14) scale(1,1)"><path fill="#C0C0C0" stroke="none" d="M 31 529 L 41 519 L 382 519 L 372 529" opacity="0.2"/></g><g transform="translate(2,-14) scale(1,1)"><path fill="#C0C0C0" stroke="none" d="M 382 519 L 372 529 L 372 630 L 382 620" opacity="0.2"/></g><g transform="translate(2,-14) scale(1,1)"><path fill="#ffffff" stroke="none" d="M 24 522 L 365 522 L 365 623 L 24 623"/></g><g transform="translate(2,-14) scale(1,1)"><path fill="#ffffff" stroke="none" d="M 24 522 L 34 512 L 375 512 L 365 522"/></g><g transform="translate(2,-14) scale(1,1)"><path fill="#ffffff" stroke="none" d="M 375 512 L 365 522 L 365 623 L 375 613"/></g><g transform="translate(2,-14) scale(1,1)"><path fill="none" stroke="#000000" d="M 24 522 L 365 522 L 365 623 L 24 623 L 24 522" stroke-miterlimit="10"/></g><g transform="translate(2,-14) scale(1,1)"><path fill="none" stroke="#000000" d="M 24 522 L 34 512 L 375 512 L 365 522 L 24 522" stroke-miterlimit="10"/></g><g transform="translate(2,-14) scale(1,1)"><path fill="none" stroke="#000000" d="M 375 512 L 365 522 L 365 623 L 375 613 L 375 512" stroke-miterlimit="10"/></g><g transform="translate(2,-14) scale(1,1)"><g><path fill="none" stroke="none"/><text fill="#000000" stroke="none" font-family="Arial" font-size="13px" font-style="normal" font-weight="bold" text-decoration="none" x="111.52197265625" y="541.5">Serveur de base de données</text></g></g><g transform="translate(2,-14) scale(1,1)"><rect fill="#C0C0C0" stroke="none" x="697" y="167" width="209.72802734375" height="52" opacity="0.2"/></g><g transform="translate(2,-14) scale(1,1)"><rect fill="#ffffff" stroke="none" x="690" y="160" width="209.72802734375" height="52"/></g><g transform="translate(2,-14) scale(1,1)"><path fill="none" stroke="#000000" d="M 690 160 L 899.72802734375 160 L 899.72802734375 212 L 690 212 L 690 160 Z Z" stroke-miterlimit="10"/></g><g transform="translate(2,-14) scale(1,1)"><rect fill="#ffffff" stroke="none" x="680" y="167" width="20" height="10"/></g><g transform="translate(2,-14) scale(1,1)"><path fill="none" stroke="#000000" d="M 680 167 L 700 167 L 700 177 L 680 177 L 680 167 Z Z" stroke-miterlimit="10"/></g><g transform="translate(2,-14) scale(1,1)"><rect fill="#ffffff" stroke="none" x="680" y="187" width="20" height="10"/></g><g transform="translate(2,-14) scale(1,1)"><path fill="none" stroke="#000000" d="M 680 187 L 700 187 L 700 197 L 680 197 L 680 187 Z Z" stroke-miterlimit="10"/></g><g transform="translate(2,-14) scale(1,1)"><g><path fill="none" stroke="none"/><text fill="#000000" stroke="none" font-family="Arial" font-size="13px" font-style="normal" font-weight="normal" text-decoration="none" x="782.154052734375" y="177.5">«apk»</text></g></g><g transform="translate(2,-14) scale(1,1)"><g><path fill="none" stroke="none"/><text fill="#000000" stroke="none" font-family="Arial" font-size="13px" font-style="normal" font-weight="bold" text-decoration="none" x="713.523193359375" y="192.5">Application client mobile CRM</text></g></g><g transform="translate(2,-14) scale(1,1)"><g><path fill="none" stroke="none"/><text fill="#000000" stroke="none" font-family="Arial" font-size="13px" font-style="normal" font-weight="normal" text-decoration="none" x="704.5" y="207.5">(from Diagramme de composant)</text></g></g><g transform="translate(2,-14) scale(1,1)"><rect fill="#C0C0C0" stroke="none" x="457" y="103" width="250.8544921875" height="52" opacity="0.2"/></g><g transform="translate(2,-14) scale(1,1)"><rect fill="#ffffff" stroke="none" x="450" y="96" width="250.8544921875" height="52"/></g><g transform="translate(2,-14) scale(1,1)"><path fill="none" stroke="#000000" d="M 450 96 L 700.8544921875 96 L 700.8544921875 148 L 450 148 L 450 96 Z Z" stroke-miterlimit="10"/></g><g transform="translate(2,-14) scale(1,1)"><rect fill="#ffffff" stroke="none" x="440" y="103" width="20" height="10"/></g><g transform="translate(2,-14) scale(1,1)"><path fill="none" stroke="#000000" d="M 440 103 L 460 103 L 460 113 L 440 113 L 440 103 Z Z" stroke-miterlimit="10"/></g><g transform="translate(2,-14) scale(1,1)"><rect fill="#ffffff" stroke="none" x="440" y="123" width="20" height="10"/></g><g transform="translate(2,-14) scale(1,1)"><path fill="none" stroke="#000000" d="M 440 123 L 460 123 L 460 133 L 440 133 L 440 123 Z Z" stroke-miterlimit="10"/></g><g transform="translate(2,-14) scale(1,1)"><g><path fill="none" stroke="none"/><text fill="#000000" stroke="none" font-family="Arial" font-size="13px" font-style="normal" font-weight="normal" text-decoration="none" x="562.71728515625" y="113.5">«apk»</text></g></g><g transform="translate(2,-14) scale(1,1)"><g><path fill="none" stroke="none"/><text fill="#000000" stroke="none" font-family="Arial" font-size="13px" font-style="normal" font-weight="bold" text-decoration="none" x="473.821533203125" y="128.5">Application de contrôle de téléphonie</text></g></g><g transform="translate(2,-14) scale(1,1)"><g><path fill="none" stroke="none"/><text fill="#000000" stroke="none" font-family="Arial" font-size="13px" font-style="normal" font-weight="normal" text-decoration="none" x="485.063232421875" y="143.5">(from Diagramme de composant)</text></g></g><g transform="translate(2,-14) scale(1,1)"><rect fill="#C0C0C0" stroke="none" x="113" y="559" width="209.72802734375" height="52" opacity="0.2"/></g><g transform="translate(2,-14) scale(1,1)"><rect fill="#ffffff" stroke="none" x="106" y="552" width="209.72802734375" height="52"/></g><g transform="translate(2,-14) scale(1,1)"><path fill="none" stroke="#000000" d="M 106 552 L 315.72802734375 552 L 315.72802734375 604 L 106 604 L 106 552 Z Z" stroke-miterlimit="10"/></g><g transform="translate(2,-14) scale(1,1)"><rect fill="#ffffff" stroke="none" x="96" y="559" width="20" height="10"/></g><g transform="translate(2,-14) scale(1,1)"><path fill="none" stroke="#000000" d="M 96 559 L 116 559 L 116 569 L 96 569 L 96 559 Z Z" stroke-miterlimit="10"/></g><g transform="translate(2,-14) scale(1,1)"><rect fill="#ffffff" stroke="none" x="96" y="579" width="20" height="10"/></g><g transform="translate(2,-14) scale(1,1)"><path fill="none" stroke="#000000" d="M 96 579 L 116 579 L 116 589 L 96 589 L 96 579 Z Z" stroke-miterlimit="10"/></g><g transform="translate(2,-14) scale(1,1)"><g><path fill="none" stroke="none"/><text fill="#000000" stroke="none" font-family="Arial" font-size="13px" font-style="normal" font-weight="normal" text-decoration="none" x="197.7890625" y="569.5">«bdd»</text></g></g><g transform="translate(2,-14) scale(1,1)"><g><path fill="none" stroke="none"/><text fill="#000000" stroke="none" font-family="Arial" font-size="13px" font-style="normal" font-weight="bold" text-decoration="none" x="129.135986328125" y="584.5">Base de données MongoDB 3</text></g></g><g transform="translate(2,-14) scale(1,1)"><g><path fill="none" stroke="none"/><text fill="#000000" stroke="none" font-family="Arial" font-size="13px" font-style="normal" font-weight="normal" text-decoration="none" x="120.5" y="599.5">(from Diagramme de composant)</text></g></g><g transform="translate(2,-14) scale(1,1)"><path fill="none" stroke="#000000" d="M 527 614 L 377 593" stroke-miterlimit="10"/></g><g transform="translate(2,-14) scale(1,1)"><path fill="none" stroke="#000000" d="M 190 511 L 146 245" stroke-miterlimit="10"/></g><g transform="translate(2,-14) scale(1,1)"><path fill="#C0C0C0" stroke="none" d="M 15 353 L 184.09716796875 353 L 184.09716796875 386 L 15 386" opacity="0.2"/></g><g transform="translate(2,-14) scale(1,1)"><path fill="#C0C0C0" stroke="none" d="M 15 353 L 25 343 L 194.09716796875 343 L 184.09716796875 353" opacity="0.2"/></g><g transform="translate(2,-14) scale(1,1)"><path fill="#C0C0C0" stroke="none" d="M 194.09716796875 343 L 184.09716796875 353 L 184.09716796875 386 L 194.09716796875 376" opacity="0.2"/></g><g transform="translate(2,-14) scale(1,1)"><path fill="#ffffff" stroke="none" d="M 8 346 L 177.09716796875 346 L 177.09716796875 379 L 8 379"/></g><g transform="translate(2,-14) scale(1,1)"><path fill="#ffffff" stroke="none" d="M 8 346 L 18 336 L 187.09716796875 336 L 177.09716796875 346"/></g><g transform="translate(2,-14) scale(1,1)"><path fill="#ffffff" stroke="none" d="M 187.09716796875 336 L 177.09716796875 346 L 177.09716796875 379 L 187.09716796875 369"/></g><g transform="translate(2,-14) scale(1,1)"><path fill="none" stroke="#000000" d="M 8 346 L 177.09716796875 346 L 177.09716796875 379 L 8 379 L 8 346" stroke-miterlimit="10"/></g><g transform="translate(2,-14) scale(1,1)"><path fill="none" stroke="#000000" d="M 8 346 L 18 336 L 187.09716796875 336 L 177.09716796875 346 L 8 346" stroke-miterlimit="10"/></g><g transform="translate(2,-14) scale(1,1)"><path fill="none" stroke="#000000" d="M 187.09716796875 336 L 177.09716796875 346 L 177.09716796875 379 L 187.09716796875 369 L 187.09716796875 336" stroke-miterlimit="10"/></g><g transform="translate(2,-14) scale(1,1)"><g><path fill="none" stroke="none"/><text fill="#000000" stroke="none" font-family="Arial" font-size="13px" font-style="normal" font-weight="bold" text-decoration="none" x="18.25732421875" y="365.5">Serveur de démonstration</text></g></g><g transform="translate(2,-14) scale(1,1)"><path fill="#C0C0C0" stroke="none" d="M 23 297 L 169.68994140625 297 L 169.68994140625 330 L 23 330" opacity="0.2"/></g><g transform="translate(2,-14) scale(1,1)"><path fill="#C0C0C0" stroke="none" d="M 23 297 L 33 287 L 179.68994140625 287 L 169.68994140625 297" opacity="0.2"/></g><g transform="translate(2,-14) scale(1,1)"><path fill="#C0C0C0" stroke="none" d="M 179.68994140625 287 L 169.68994140625 297 L 169.68994140625 330 L 179.68994140625 320" opacity="0.2"/></g><g transform="translate(2,-14) scale(1,1)"><path fill="#ffffff" stroke="none" d="M 16 290 L 162.68994140625 290 L 162.68994140625 323 L 16 323"/></g><g transform="translate(2,-14) scale(1,1)"><path fill="#ffffff" stroke="none" d="M 16 290 L 26 280 L 172.68994140625 280 L 162.68994140625 290"/></g><g transform="translate(2,-14) scale(1,1)"><path fill="#ffffff" stroke="none" d="M 172.68994140625 280 L 162.68994140625 290 L 162.68994140625 323 L 172.68994140625 313"/></g><g transform="translate(2,-14) scale(1,1)"><path fill="none" stroke="#000000" d="M 16 290 L 162.68994140625 290 L 162.68994140625 323 L 16 323 L 16 290" stroke-miterlimit="10"/></g><g transform="translate(2,-14) scale(1,1)"><path fill="none" stroke="#000000" d="M 16 290 L 26 280 L 172.68994140625 280 L 162.68994140625 290 L 16 290" stroke-miterlimit="10"/></g><g transform="translate(2,-14) scale(1,1)"><path fill="none" stroke="#000000" d="M 172.68994140625 280 L 162.68994140625 290 L 162.68994140625 323 L 172.68994140625 313 L 172.68994140625 280" stroke-miterlimit="10"/></g><g transform="translate(2,-14) scale(1,1)"><g><path fill="none" stroke="none"/><text fill="#000000" stroke="none" font-family="Arial" font-size="13px" font-style="normal" font-weight="bold" text-decoration="none" x="25.88916015625" y="309.5">Serveur de production</text></g></g><g transform="translate(2,-14) scale(1,1)"><path fill="none" stroke="#000000" d="M 128 245 L 108 279" stroke-miterlimit="10"/></g><g transform="translate(2,-14) scale(1,1)"><path fill="none" stroke="#000000" d="M 135 245 L 105 335" stroke-miterlimit="10"/></g><g transform="translate(2,-14) scale(1,1)"><path fill="none" stroke="#000000" d="M 175 315 L 631 389" stroke-miterlimit="10"/></g><g transform="translate(2,-14) scale(1,1)"><g><path fill="none" stroke="none"/><text fill="#000000" stroke="none" font-family="Arial" font-size="13px" font-style="normal" font-weight="normal" text-decoration="none" x="389" y="344">+FTP</text></g></g><g transform="translate(2,-14) scale(1,1)"><path fill="none" stroke="#000000" d="M 189 364 L 631 395" stroke-miterlimit="10"/></g><g transform="translate(2,-14) scale(1,1)"><g><path fill="none" stroke="none"/><text fill="#000000" stroke="none" font-family="Arial" font-size="13px" font-style="normal" font-weight="normal" text-decoration="none" x="395" y="371">+FTP</text></g></g><g transform="translate(2,-14) scale(1,1)"><path fill="none" stroke="#000000" d="M 777 213 L 703 375" stroke-miterlimit="10" stroke-dasharray="3"/></g><g transform="translate(2,-14) scale(1,1)"><path fill="none" stroke="#000000" d="M 703.393574576473 364.0070432070005 L 703 375 L 711.0514935455474 367.50510495830605" stroke-miterlimit="10"/></g><g transform="translate(2,-14) scale(1,1)"><g><path fill="none" stroke="none"/><text fill="#000000" stroke="none" font-family="Arial" font-size="13px" font-style="normal" font-weight="normal" text-decoration="none" x="741" y="313">«deploy»</text></g></g><g transform="translate(2,-14) scale(1,1)"><path fill="none" stroke="#000000" d="M 582 149 L 681 375" stroke-miterlimit="10" stroke-dasharray="3"/></g><g transform="translate(2,-14) scale(1,1)"><path fill="none" stroke="#000000" d="M 673.0664904582949 367.3803263618661 L 681 375 L 680.778084504405 364.00223870449923" stroke-miterlimit="10"/></g><g transform="translate(2,-14) scale(1,1)"><g><path fill="none" stroke="none"/><text fill="#000000" stroke="none" font-family="Arial" font-size="13px" font-style="normal" font-weight="normal" text-decoration="none" x="588" y="315">«deploy»</text></g></g><g transform="translate(2,-14) scale(1,1)"><path fill="none" stroke="#000000" d="M 665 583 L 688 424" stroke-miterlimit="10" stroke-dasharray="3"/></g><g transform="translate(2,-14) scale(1,1)"><path fill="none" stroke="#000000" d="M 690.7112262076831 434.6606403396218 L 688 424 L 682.3789153608459 433.45533751272086" stroke-miterlimit="10"/></g><g transform="translate(2,-14) scale(1,1)"><g><path fill="none" stroke="none"/><text fill="#000000" stroke="none" font-family="Arial" font-size="13px" font-style="normal" font-weight="normal" text-decoration="none" x="615" y="476">«deploy»</text></g></g><g transform="translate(2,-14) scale(1,1)"><path fill="none" stroke="#000000" d="M 324 232 L 639 375" stroke-miterlimit="10"/></g><g transform="translate(2,-14) scale(1,1)"><g><path fill="none" stroke="none"/><text fill="#000000" stroke="none" font-family="Arial" font-size="13px" font-style="normal" font-weight="normal" text-decoration="none" x="470" y="296">+SSH</text></g></g></g></svg>