<svg version="1.1" xmlns="http://www.w3.org/2000/svg" xmlns:xlink="http://www.w3.org/1999/xlink" width="1203.7470703125" height="837"><defs/><g><g transform="translate(2,-38) scale(1,1)"><path fill="#C0C0C0" stroke="none" d="M 527 64.5 C 527 59.2532944 531.2532944 55 536.5 55 C 541.7467056 55 546 59.2532944 546 64.5 C 546 69.7467056 541.7467056 74 536.5 74 C 531.2532944 74 527 69.7467056 527 64.5 Z" opacity="0.2"/></g><g transform="translate(2,-38) scale(1,1)"><path fill="#000000" stroke="none" d="M 520 57.5 C 520 52.2532944 524.2532944 48 529.5 48 C 534.7467056 48 539 52.2532944 539 57.5 C 539 62.7467056 534.7467056 67 529.5 67 C 524.2532944 67 520 62.7467056 520 57.5 Z"/></g><g transform="translate(2,-38) scale(1,1)"><path fill="#C0C0C0" stroke="none" d="M 497 159 L 576.32080078125 159 Q 586.32080078125 159 586.32080078125 169 L 586.32080078125 189 Q 586.32080078125 199 576.32080078125 199 L 497 199 Q 487 199 487 189 L 487 169 Q 487 159 497 159 Z" opacity="0.2"/></g><g transform="translate(2,-38) scale(1,1)"><path fill="#ffffff" stroke="none" d="M 490 152 L 569.32080078125 152 Q 579.32080078125 152 579.32080078125 162 L 579.32080078125 182 Q 579.32080078125 192 569.32080078125 192 L 490 192 Q 480 192 480 182 L 480 162 Q 480 152 490 152 Z"/></g><g transform="translate(2,-38) scale(1,1)"><path fill="none" stroke="#000000" d="M 490 152 L 569.32080078125 152 Q 579.32080078125 152 579.32080078125 162 L 579.32080078125 182 Q 579.32080078125 192 569.32080078125 192 L 490 192 Q 480 192 480 182 L 480 162 Q 480 152 490 152 Z" stroke-miterlimit="10"/></g><g transform="translate(2,-38) scale(1,1)"><g><path fill="none" stroke="none"/><text fill="#000000" stroke="none" font-family="Arial" font-size="13px" font-style="normal" font-weight="bold" text-decoration="none" x="487.02001953125" y="171.5">Page d acceuil</text></g></g><g transform="translate(2,-38) scale(1,1)"><path fill="#C0C0C0" stroke="none" d="M 505 295 L 569.13720703125 295 Q 579.13720703125 295 579.13720703125 305 L 579.13720703125 325 Q 579.13720703125 335 569.13720703125 335 L 505 335 Q 495 335 495 325 L 495 305 Q 495 295 505 295 Z" opacity="0.2"/></g><g transform="translate(2,-38) scale(1,1)"><path fill="#ffffff" stroke="none" d="M 498 288 L 562.13720703125 288 Q 572.13720703125 288 572.13720703125 298 L 572.13720703125 318 Q 572.13720703125 328 562.13720703125 328 L 498 328 Q 488 328 488 318 L 488 298 Q 488 288 498 288 Z"/></g><g transform="translate(2,-38) scale(1,1)"><path fill="none" stroke="#000000" d="M 498 288 L 562.13720703125 288 Q 572.13720703125 288 572.13720703125 298 L 572.13720703125 318 Q 572.13720703125 328 562.13720703125 328 L 498 328 Q 488 328 488 318 L 488 298 Q 488 288 498 288 Z" stroke-miterlimit="10"/></g><g transform="translate(2,-38) scale(1,1)"><g><path fill="none" stroke="none"/><text fill="#000000" stroke="none" font-family="Arial" font-size="13px" font-style="normal" font-weight="bold" text-decoration="none" x="496.108642578125" y="307.5">Liste clients</text></g></g><g transform="translate(2,-38) scale(1,1)"><path fill="none" stroke="#000000" d="M 529 68 L 529 151" stroke-miterlimit="10"/></g><g transform="translate(2,-38) scale(1,1)"><path fill="none" stroke="#000000" d="M 524.790482243984 140.83732514237585 L 529 151 L 533.209517756016 140.83732514237585" stroke-miterlimit="10"/></g><g transform="translate(2,-38) scale(1,1)"><path fill="none" stroke="#000000" d="M 529 193 L 530 287" stroke-miterlimit="10"/></g><g transform="translate(2,-38) scale(1,1)"><path fill="none" stroke="#000000" d="M 525.6826129814013 276.8826797356397 L 530 287 L 534.1011721285073 276.7931205957769" stroke-miterlimit="10"/></g><g transform="translate(2,-38) scale(1,1)"><path fill="#C0C0C0" stroke="none" d="M 721 343 L 812.55908203125 343 Q 822.55908203125 343 822.55908203125 353 L 822.55908203125 373 Q 822.55908203125 383 812.55908203125 383 L 721 383 Q 711 383 711 373 L 711 353 Q 711 343 721 343 Z" opacity="0.2"/></g><g transform="translate(2,-38) scale(1,1)"><path fill="#ffffff" stroke="none" d="M 714 336 L 805.55908203125 336 Q 815.55908203125 336 815.55908203125 346 L 815.55908203125 366 Q 815.55908203125 376 805.55908203125 376 L 714 376 Q 704 376 704 366 L 704 346 Q 704 336 714 336 Z"/></g><g transform="translate(2,-38) scale(1,1)"><path fill="none" stroke="#000000" d="M 714 336 L 805.55908203125 336 Q 815.55908203125 336 815.55908203125 346 L 815.55908203125 366 Q 815.55908203125 376 805.55908203125 376 L 714 376 Q 704 376 704 366 L 704 346 Q 704 336 714 336 Z" stroke-miterlimit="10"/></g><g transform="translate(2,-38) scale(1,1)"><g><path fill="none" stroke="none"/><text fill="#000000" stroke="none" font-family="Arial" font-size="13px" font-style="normal" font-weight="bold" text-decoration="none" x="713.168701171875" y="355.5">Ajouter un client</text></g></g><g transform="translate(2,-38) scale(1,1)"><path fill="none" stroke="#000000" d="M 573 317 L 703 344" stroke-miterlimit="10"/></g><g transform="translate(2,-38) scale(1,1)"><path fill="none" stroke="#000000" d="M 692.193651853111 346.05495492121537 L 703 344 L 693.905685385648 337.8118305052961" stroke-miterlimit="10"/></g><g transform="translate(2,-38) scale(1,1)"><path fill="none" stroke="#000000" d="M 496 329 L 431 370" stroke-miterlimit="10"/></g><g transform="translate(2,-38) scale(1,1)"><path fill="none" stroke="#000000" d="M 437.34977795728196 361.0177775638088 L 431 370 L 441.84136144737965 368.13858065786616" stroke-miterlimit="10"/></g><g transform="translate(2,-38) scale(1,1)"><path fill="#C0C0C0" stroke="none" d="M 703 448.5 L 714.5 439 L 725 448.5 L 714.5 457 L 703 448.5" opacity="0.2"/></g><g transform="translate(2,-38) scale(1,1)"><path fill="#ffffff" stroke="none" d="M 696 441 L 707 432 L 718 441 L 707 450 L 696 441"/></g><g transform="translate(2,-38) scale(1,1)"><path fill="none" stroke="#000000" d="M 696 441 L 707 432 L 718 441 L 707 450 L 696 441 L 696 441" stroke-miterlimit="10"/></g><g transform="translate(2,-38) scale(1,1)"><path fill="#C0C0C0" stroke="none" d="M 497 543 L 824.84423828125 543 Q 834.84423828125 543 834.84423828125 553 L 834.84423828125 573 Q 834.84423828125 583 824.84423828125 583 L 497 583 Q 487 583 487 573 L 487 553 Q 487 543 497 543 Z" opacity="0.2"/></g><g transform="translate(2,-38) scale(1,1)"><path fill="#ffffff" stroke="none" d="M 490 536 L 817.84423828125 536 Q 827.84423828125 536 827.84423828125 546 L 827.84423828125 566 Q 827.84423828125 576 817.84423828125 576 L 490 576 Q 480 576 480 566 L 480 546 Q 480 536 490 536 Z"/></g><g transform="translate(2,-38) scale(1,1)"><path fill="none" stroke="#000000" d="M 490 536 L 817.84423828125 536 Q 827.84423828125 536 827.84423828125 546 L 827.84423828125 566 Q 827.84423828125 576 817.84423828125 576 L 490 576 Q 480 576 480 566 L 480 546 Q 480 536 490 536 Z" stroke-miterlimit="10"/></g><g transform="translate(2,-38) scale(1,1)"><g><path fill="none" stroke="none"/><text fill="#000000" stroke="none" font-family="Arial" font-size="13px" font-style="normal" font-weight="bold" text-decoration="none" x="495.66552734375" y="555.5">Remplir données relatives a un établissement de santé</text></g></g><g transform="translate(2,-38) scale(1,1)"><path fill="none" stroke="#000000" d="M 746 377 L 713 431" stroke-miterlimit="10"/></g><g transform="translate(2,-38) scale(1,1)"><path fill="none" stroke="#000000" d="M 714.707421870942 420.1333210890066 L 713 431 L 721.8912319302295 424.523427236349" stroke-miterlimit="10"/></g><g transform="translate(2,-38) scale(1,1)"><path fill="none" stroke="#000000" d="M 702 451 L 663 535" stroke-miterlimit="10"/></g><g transform="translate(2,-38) scale(1,1)"><path fill="none" stroke="#000000" d="M 663.4615469317649 524.0096872460435 L 663 535 L 671.0976876409704 527.5550382896032" stroke-miterlimit="10"/></g><g transform="translate(2,-38) scale(1,1)"><g><path fill="none" stroke="none"/><text fill="#000000" stroke="none" font-family="Arial" font-size="13px" font-style="normal" font-weight="normal" text-decoration="none" x="536" y="487">[Etablissement de santé]</text></g></g><g transform="translate(2,-38) scale(1,1)"><path fill="#C0C0C0" stroke="none" d="M 905 535 L 1188.7470703125 535 Q 1198.7470703125 535 1198.7470703125 545 L 1198.7470703125 565 Q 1198.7470703125 575 1188.7470703125 575 L 905 575 Q 895 575 895 565 L 895 545 Q 895 535 905 535 Z" opacity="0.2"/></g><g transform="translate(2,-38) scale(1,1)"><path fill="#ffffff" stroke="none" d="M 898 528 L 1181.7470703125 528 Q 1191.7470703125 528 1191.7470703125 538 L 1191.7470703125 558 Q 1191.7470703125 568 1181.7470703125 568 L 898 568 Q 888 568 888 558 L 888 538 Q 888 528 898 528 Z"/></g><g transform="translate(2,-38) scale(1,1)"><path fill="none" stroke="#000000" d="M 898 528 L 1181.7470703125 528 Q 1191.7470703125 528 1191.7470703125 538 L 1191.7470703125 558 Q 1191.7470703125 568 1181.7470703125 568 L 898 568 Q 888 568 888 558 L 888 538 Q 888 528 898 528 Z" stroke-miterlimit="10"/></g><g transform="translate(2,-38) scale(1,1)"><g><path fill="none" stroke="none"/><text fill="#000000" stroke="none" font-family="Arial" font-size="13px" font-style="normal" font-weight="bold" text-decoration="none" x="902.564208984375" y="547.5">Remplir les données relatives à un indépendant</text></g></g><g transform="translate(2,-38) scale(1,1)"><path fill="none" stroke="#000000" d="M 719 445 L 974 527" stroke-miterlimit="10"/></g><g transform="translate(2,-38) scale(1,1)"><path fill="none" stroke="#000000" d="M 963.036578334933 527.896317685834 L 974 527 L 965.613897881873 519.8814825093742" stroke-miterlimit="10"/></g><g transform="translate(2,-38) scale(1,1)"><g><path fill="none" stroke="none"/><text fill="#000000" stroke="none" font-family="Arial" font-size="13px" font-style="normal" font-weight="normal" text-decoration="none" x="856" y="477">[Indépendant]</text></g></g><g transform="translate(2,-38) scale(1,1)"><path fill="#C0C0C0" stroke="none" d="M 415 384.5 L 426.5 375 L 437 384.5 L 426.5 393 L 415 384.5" opacity="0.2"/></g><g transform="translate(2,-38) scale(1,1)"><path fill="#ffffff" stroke="none" d="M 408 377 L 419 368 L 430 377 L 419 386 L 408 377"/></g><g transform="translate(2,-38) scale(1,1)"><path fill="none" stroke="#000000" d="M 408 377 L 419 368 L 430 377 L 419 386 L 408 377 L 408 377" stroke-miterlimit="10"/></g><g transform="translate(2,-38) scale(1,1)"><path fill="none" stroke="#000000" d="M 407 386 L 255 496" stroke-miterlimit="10"/></g><g transform="translate(2,-38) scale(1,1)"><path fill="none" stroke="#000000" d="M 260.7650442239565 486.63174161885865 L 255 496 L 265.7008608938128 493.45214283538724" stroke-miterlimit="10"/></g><g transform="translate(2,-38) scale(1,1)"><g><path fill="none" stroke="none"/><text fill="#000000" stroke="none" font-family="Arial" font-size="13px" font-style="normal" font-weight="normal" text-decoration="none" x="315" y="473">[Client enregistré en base]</text></g></g><g transform="translate(2,-38) scale(1,1)"><path fill="#C0C0C0" stroke="none" d="M 231 392.5 L 242.5 383 L 253 392.5 L 242.5 401 L 231 392.5" opacity="0.2"/></g><g transform="translate(2,-38) scale(1,1)"><path fill="#ffffff" stroke="none" d="M 224 385 L 235 376 L 246 385 L 235 394 L 224 385"/></g><g transform="translate(2,-38) scale(1,1)"><path fill="none" stroke="#000000" d="M 224 385 L 235 376 L 246 385 L 235 394 L 224 385 L 224 385" stroke-miterlimit="10"/></g><g transform="translate(2,-38) scale(1,1)"><path fill="#C0C0C0" stroke="none" d="M 15 403.5 C 15 396.59644 20.59644 391 27.5 391 C 34.40356 391 40 396.59644 40 403.5 C 40 410.40356 34.40356 416 27.5 416 C 20.59644 416 15 410.40356 15 403.5 Z" opacity="0.2"/></g><g transform="translate(2,-38) scale(1,1)"><path fill="none" stroke="#000000" d="M 8 396.5 C 8 389.59644 13.59644 384 20.5 384 C 27.40356 384 33 389.59644 33 396.5 C 33 403.40356 27.40356 409 20.5 409 C 13.59644 409 8 403.40356 8 396.5 Z" stroke-miterlimit="10"/></g><g transform="translate(2,-38) scale(1,1)"><path fill="#000000" stroke="none" d="M 13 396.5 C 13 392.357864 16.357864 389 20.5 389 C 24.642136 389 28 392.357864 28 396.5 C 28 400.642136 24.642136 404 20.5 404 C 16.357864 404 13 400.642136 13 396.5 Z"/></g><g transform="translate(2,-38) scale(1,1)"><path fill="none" stroke="#000000" d="M 407 378 L 247 384" stroke-miterlimit="10"/></g><g transform="translate(2,-38) scale(1,1)"><path fill="none" stroke="#000000" d="M 256.99779071481873 379.41260631483584 L 247 384 L 257.31328279408416 387.8257284285803" stroke-miterlimit="10"/></g><g transform="translate(2,-38) scale(1,1)"><g><path fill="none" stroke="none"/><text fill="#000000" stroke="none" font-family="Arial" font-size="13px" font-style="normal" font-weight="normal" text-decoration="none" x="232" y="356">[Client non enregistré en base]</text></g></g><g transform="translate(2,-38) scale(1,1)"><path fill="none" stroke="#000000" d="M 236 395 L 242 495" stroke-miterlimit="10"/></g><g transform="translate(2,-38) scale(1,1)"><path fill="none" stroke="#000000" d="M 237.1893731017242 485.1076863754941 L 242 495 L 245.59329514398297 484.6034510529586" stroke-miterlimit="10"/></g><g transform="translate(2,-38) scale(1,1)"><g><path fill="none" stroke="none"/><text fill="#000000" stroke="none" font-family="Arial" font-size="13px" font-style="normal" font-weight="normal" text-decoration="none" x="146" y="410">[Accès internet]</text></g></g><g transform="translate(2,-38) scale(1,1)"><path fill="none" stroke="#000000" d="M 223 386 L 34 395" stroke-miterlimit="10"/></g><g transform="translate(2,-38) scale(1,1)"><path fill="none" stroke="#000000" d="M 43.95094576830212 390.31185769026683 L 34 395 L 44.35139845036589 398.7213640136061" stroke-miterlimit="10"/></g><g transform="translate(2,-38) scale(1,1)"><g><path fill="none" stroke="none"/><text fill="#000000" stroke="none" font-family="Arial" font-size="13px" font-style="normal" font-weight="normal" text-decoration="none" x="56" y="375">[Pas d accès à internet]</text></g></g><g transform="translate(2,-38) scale(1,1)"><path fill="#C0C0C0" stroke="none" d="M 826 671 L 908 671 Q 911 671 911 674 L 911 673 Q 911 676 908 676 L 826 676 Q 823 676 823 673 L 823 674 Q 823 671 826 671 Z" opacity="0.2"/></g><g transform="translate(2,-38) scale(1,1)"><path fill="#000000" stroke="none" d="M 819 664 L 901 664 Q 904 664 904 667 L 904 667 Q 904 670 901 670 L 819 670 Q 816 670 816 667 L 816 667 Q 816 664 819 664 Z"/></g><g transform="translate(2,-38) scale(1,1)"><path fill="none" stroke="#000000" d="M 693 577 L 854 663" stroke-miterlimit="10"/></g><g transform="translate(2,-38) scale(1,1)"><path fill="none" stroke="#000000" d="M 843.052675156735 661.9247889620957 L 854 663 L 847.019361383584 654.4987833513666" stroke-miterlimit="10"/></g><g transform="translate(2,-38) scale(1,1)"><path fill="none" stroke="#000000" d="M 1007 569 L 865 663" stroke-miterlimit="10"/></g><g transform="translate(2,-38) scale(1,1)"><path fill="none" stroke="#000000" d="M 871.1505748839714 653.8802177330454 L 865 663 L 875.7977730925603 660.9004533247435" stroke-miterlimit="10"/></g><g transform="translate(2,-38) scale(1,1)"><path fill="#C0C0C0" stroke="none" d="M 785 743 L 900.419921875 743 Q 910.419921875 743 910.419921875 753 L 910.419921875 773 Q 910.419921875 783 900.419921875 783 L 785 783 Q 775 783 775 773 L 775 753 Q 775 743 785 743 Z" opacity="0.2"/></g><g transform="translate(2,-38) scale(1,1)"><path fill="#ffffff" stroke="none" d="M 778 736 L 893.419921875 736 Q 903.419921875 736 903.419921875 746 L 903.419921875 766 Q 903.419921875 776 893.419921875 776 L 778 776 Q 768 776 768 766 L 768 746 Q 768 736 778 736 Z"/></g><g transform="translate(2,-38) scale(1,1)"><path fill="none" stroke="#000000" d="M 778 736 L 893.419921875 736 Q 903.419921875 736 903.419921875 746 L 903.419921875 766 Q 903.419921875 776 893.419921875 776 L 778 776 Q 768 776 768 766 L 768 746 Q 768 736 778 736 Z" stroke-miterlimit="10"/></g><g transform="translate(2,-38) scale(1,1)"><g><path fill="none" stroke="none"/><text fill="#000000" stroke="none" font-family="Arial" font-size="13px" font-style="normal" font-weight="bold" text-decoration="none" x="777.905029296875" y="755.5">Enregistrer un client</text></g></g><g transform="translate(2,-38) scale(1,1)"><path fill="none" stroke="#000000" d="M 859 670 L 841 735" stroke-miterlimit="10"/></g><g transform="translate(2,-38) scale(1,1)"><path fill="none" stroke="#000000" d="M 839.6553667075432 724.0824928986139 L 841 735 L 847.769043985737 726.3293573756522" stroke-miterlimit="10"/></g><g transform="translate(2,-38) scale(1,1)"><path fill="#C0C0C0" stroke="none" d="M 455 859.5 C 455 852.59644 460.59644 847 467.5 847 C 474.40356 847 480 852.59644 480 859.5 C 480 866.40356 474.40356 872 467.5 872 C 460.59644 872 455 866.40356 455 859.5 Z" opacity="0.2"/></g><g transform="translate(2,-38) scale(1,1)"><path fill="none" stroke="#000000" d="M 448 852.5 C 448 845.59644 453.59644 840 460.5 840 C 467.40356 840 473 845.59644 473 852.5 C 473 859.40356 467.40356 865 460.5 865 C 453.59644 865 448 859.40356 448 852.5 Z" stroke-miterlimit="10"/></g><g transform="translate(2,-38) scale(1,1)"><path fill="#000000" stroke="none" d="M 453 852.5 C 453 848.357864 456.357864 845 460.5 845 C 464.642136 845 468 848.357864 468 852.5 C 468 856.642136 464.642136 860 460.5 860 C 456.357864 860 453 856.642136 453 852.5 Z"/></g><g transform="translate(2,-38) scale(1,1)"><path fill="none" stroke="#000000" d="M 767 773 L 474 848" stroke-miterlimit="10"/></g><g transform="translate(2,-38) scale(1,1)"><path fill="none" stroke="#000000" d="M 482.80138547996916 841.4018477106854 L 474 848 L 484.88911758379896 849.5579211296471" stroke-miterlimit="10"/></g><g transform="translate(2,-38) scale(1,1)"><path fill="none" stroke="#000000" d="M 255 512 L 524 671" stroke-miterlimit="10"/></g><g transform="translate(2,-38) scale(1,1)"><path fill="none" stroke="#000000" d="M 513.1093722391064 669.4526710195784 L 524 671 L 517.3932900736762 662.205036444111" stroke-miterlimit="10"/></g><g transform="translate(2,-38) scale(1,1)"><g><path fill="none" stroke="none"/><text fill="#000000" stroke="none" font-family="Arial" font-size="13px" font-style="normal" font-weight="normal" text-decoration="none" x="399" y="597">[Client est un établissement de santé]</text></g></g><g transform="translate(2,-38) scale(1,1)"><path fill="#C0C0C0" stroke="none" d="M 161 679 L 363.07177734375 679 Q 373.07177734375 679 373.07177734375 689 L 373.07177734375 709 Q 373.07177734375 719 363.07177734375 719 L 161 719 Q 151 719 151 709 L 151 689 Q 151 679 161 679 Z" opacity="0.2"/></g><g transform="translate(2,-38) scale(1,1)"><path fill="#ffffff" stroke="none" d="M 154 672 L 356.07177734375 672 Q 366.07177734375 672 366.07177734375 682 L 366.07177734375 702 Q 366.07177734375 712 356.07177734375 712 L 154 712 Q 144 712 144 702 L 144 682 Q 144 672 154 672 Z"/></g><g transform="translate(2,-38) scale(1,1)"><path fill="none" stroke="#000000" d="M 154 672 L 356.07177734375 672 Q 366.07177734375 672 366.07177734375 682 L 366.07177734375 702 Q 366.07177734375 712 356.07177734375 712 L 154 712 Q 144 712 144 702 L 144 682 Q 144 672 154 672 Z" stroke-miterlimit="10"/></g><g transform="translate(2,-38) scale(1,1)"><g><path fill="none" stroke="none"/><text fill="#000000" stroke="none" font-family="Arial" font-size="13px" font-style="normal" font-weight="bold" text-decoration="none" x="156.742431640625" y="691.5">Afficher le détail d un indépendant</text></g></g><g transform="translate(2,-38) scale(1,1)"><path fill="#C0C0C0" stroke="none" d="M 433 679 L 700.8525390625 679 Q 710.8525390625 679 710.8525390625 689 L 710.8525390625 709 Q 710.8525390625 719 700.8525390625 719 L 433 719 Q 423 719 423 709 L 423 689 Q 423 679 433 679 Z" opacity="0.2"/></g><g transform="translate(2,-38) scale(1,1)"><path fill="#ffffff" stroke="none" d="M 426 672 L 693.8525390625 672 Q 703.8525390625 672 703.8525390625 682 L 703.8525390625 702 Q 703.8525390625 712 693.8525390625 712 L 426 712 Q 416 712 416 702 L 416 682 Q 416 672 426 672 Z"/></g><g transform="translate(2,-38) scale(1,1)"><path fill="none" stroke="#000000" d="M 426 672 L 693.8525390625 672 Q 703.8525390625 672 703.8525390625 682 L 703.8525390625 702 Q 703.8525390625 712 693.8525390625 712 L 426 712 Q 416 712 416 702 L 416 682 Q 416 672 426 672 Z" stroke-miterlimit="10"/></g><g transform="translate(2,-38) scale(1,1)"><g><path fill="none" stroke="none"/><text fill="#000000" stroke="none" font-family="Arial" font-size="13px" font-style="normal" font-weight="bold" text-decoration="none" x="430.570556640625" y="691.5">Afficher le détail d un établissement de santé</text></g></g><g transform="translate(2,-38) scale(1,1)"><path fill="none" stroke="#000000" d="M 244 515 L 254 671" stroke-miterlimit="10"/></g><g transform="translate(2,-38) scale(1,1)"><path fill="none" stroke="#000000" d="M 249.14898525603493 661.1274291112277 L 254 671 L 257.55077640210214 660.5888527557106" stroke-miterlimit="10"/></g><g transform="translate(2,-38) scale(1,1)"><g><path fill="none" stroke="none"/><text fill="#000000" stroke="none" font-family="Arial" font-size="13px" font-style="normal" font-weight="normal" text-decoration="none" x="79" y="598">[Client est un indépendant]</text></g></g><g transform="translate(2,-38) scale(1,1)"><path fill="none" stroke="#000000" d="M 282 713 L 447 842" stroke-miterlimit="10"/></g><g transform="translate(2,-38) scale(1,1)"><path fill="none" stroke="#000000" d="M 436.4010374642881 839.0568735727842 L 447 842 L 441.5865063720296 832.4242970628824" stroke-miterlimit="10"/></g><g transform="translate(2,-38) scale(1,1)"><path fill="none" stroke="#000000" d="M 546 713 L 468 839" stroke-miterlimit="10"/></g><g transform="translate(2,-38) scale(1,1)"><path fill="none" stroke="#000000" d="M 469.76996457585136 828.1433326752529 L 468 839 L 476.92837704045957 832.5747308676295" stroke-miterlimit="10"/></g><g transform="translate(2,-38) scale(1,1)"><path fill="#C0C0C0" stroke="none" d="M 239 512.5 L 250.5 503 L 261 512.5 L 250.5 521 L 239 512.5" opacity="0.2"/></g><g transform="translate(2,-38) scale(1,1)"><path fill="#ffffff" stroke="none" d="M 232 505 L 243 496 L 254 505 L 243 514 L 232 505"/></g><g transform="translate(2,-38) scale(1,1)"><path fill="none" stroke="#000000" d="M 232 505 L 243 496 L 254 505 L 243 514 L 232 505 L 232 505" stroke-miterlimit="10"/></g></g></svg>