<svg version="1.1" xmlns="http://www.w3.org/2000/svg" xmlns:xlink="http://www.w3.org/1999/xlink" width="590.66259765625" height="518"><defs/><g><g transform="translate(-38,-102) scale(1,1)"><rect fill="#C0C0C0" stroke="none" x="231" y="335" width="216" height="282" opacity="0.2"/></g><g transform="translate(-38,-102) scale(1,1)"><rect fill="#ffffff" stroke="none" x="224" y="328" width="216" height="282"/></g><g transform="translate(-38,-102) scale(1,1)"><path fill="none" stroke="#000000" d="M 224 328 L 440 328 L 440 610 L 224 610 L 224 328 Z Z" stroke-miterlimit="10"/></g><g transform="translate(-38,-102) scale(1,1)"><path fill="none" stroke="#000000" d="M 224 353 L 440 353" stroke-miterlimit="10"/></g><g transform="translate(-38,-102) scale(1,1)"><path fill="none" stroke="#000000" d="M 224 601 L 440 601" stroke-miterlimit="10"/></g><g transform="translate(-38,-102) scale(1,1)"><g><path fill="none" stroke="none"/><text fill="#000000" stroke="none" font-family="Arial" font-size="13px" font-style="normal" font-weight="bold" text-decoration="none" x="293.701416015625" y="347.5">HealthCenter</text></g></g><g transform="translate(-38,-102) scale(1,1)"><g><path fill="none" stroke="none"/><text fill="#000000" stroke="none" font-family="Arial" font-size="13px" font-style="normal" font-weight="normal" text-decoration="none" x="229" y="370.5">-id: int</text></g></g><g transform="translate(-38,-102) scale(1,1)"><g><path fill="none" stroke="none"/><text fill="#000000" stroke="none" font-family="Arial" font-size="13px" font-style="normal" font-weight="normal" text-decoration="none" x="229" y="385.5">-name: String</text></g></g><g transform="translate(-38,-102) scale(1,1)"><g><path fill="none" stroke="none"/><text fill="#000000" stroke="none" font-family="Arial" font-size="13px" font-style="normal" font-weight="normal" text-decoration="none" x="229" y="400.5">-finessNumber: int</text></g></g><g transform="translate(-38,-102) scale(1,1)"><g><path fill="none" stroke="none"/><text fill="#000000" stroke="none" font-family="Arial" font-size="13px" font-style="normal" font-weight="normal" text-decoration="none" x="229" y="415.5">-siretNumber: int</text></g></g><g transform="translate(-38,-102) scale(1,1)"><g><path fill="none" stroke="none"/><text fill="#000000" stroke="none" font-family="Arial" font-size="13px" font-style="normal" font-weight="normal" text-decoration="none" x="229" y="430.5">-streetNumber: String</text></g></g><g transform="translate(-38,-102) scale(1,1)"><g><path fill="none" stroke="none"/><text fill="#000000" stroke="none" font-family="Arial" font-size="13px" font-style="normal" font-weight="normal" text-decoration="none" x="229" y="445.5">-streetName: String</text></g></g><g transform="translate(-38,-102) scale(1,1)"><g><path fill="none" stroke="none"/><text fill="#000000" stroke="none" font-family="Arial" font-size="13px" font-style="normal" font-weight="normal" text-decoration="none" x="229" y="460.5">-city: String</text></g></g><g transform="translate(-38,-102) scale(1,1)"><g><path fill="none" stroke="none"/><text fill="#000000" stroke="none" font-family="Arial" font-size="13px" font-style="normal" font-weight="normal" text-decoration="none" x="229" y="475.5">-zipCode: int</text></g></g><g transform="translate(-38,-102) scale(1,1)"><g><path fill="none" stroke="none"/><text fill="#000000" stroke="none" font-family="Arial" font-size="13px" font-style="normal" font-weight="normal" text-decoration="none" x="229" y="490.5">-longitude: double</text></g></g><g transform="translate(-38,-102) scale(1,1)"><g><path fill="none" stroke="none"/><text fill="#000000" stroke="none" font-family="Arial" font-size="13px" font-style="normal" font-weight="normal" text-decoration="none" x="229" y="505.5">-latitude: double</text></g></g><g transform="translate(-38,-102) scale(1,1)"><g><path fill="none" stroke="none"/><text fill="#000000" stroke="none" font-family="Arial" font-size="13px" font-style="normal" font-weight="normal" text-decoration="none" x="229" y="520.5">-webSite: String</text></g></g><g transform="translate(-38,-102) scale(1,1)"><g><path fill="none" stroke="none"/><text fill="#000000" stroke="none" font-family="Arial" font-size="13px" font-style="normal" font-weight="normal" text-decoration="none" x="229" y="535.5">-serviceBuildingImage: int</text></g></g><g transform="translate(-38,-102) scale(1,1)"><g><path fill="none" stroke="none"/><text fill="#000000" stroke="none" font-family="Arial" font-size="13px" font-style="normal" font-weight="normal" text-decoration="none" x="229" y="550.5">-origin: String</text></g></g><g transform="translate(-38,-102) scale(1,1)"><g><path fill="none" stroke="none"/><text fill="#000000" stroke="none" font-family="Arial" font-size="13px" font-style="normal" font-weight="normal" text-decoration="none" x="229" y="565.5">-isPublic: boolean</text></g></g><g transform="translate(-38,-102) scale(1,1)"><g><path fill="none" stroke="none"/><text fill="#000000" stroke="none" font-family="Arial" font-size="13px" font-style="normal" font-weight="normal" text-decoration="none" x="229" y="580.5">-difficultyHaveContact: int</text></g></g><g transform="translate(-38,-102) scale(1,1)"><g><path fill="none" stroke="none"/><text fill="#000000" stroke="none" font-family="Arial" font-size="13px" font-style="normal" font-weight="normal" text-decoration="none" x="229" y="595.5">-bedNumber: int</text></g></g><g transform="translate(-38,-102) scale(1,1)"><rect fill="#C0C0C0" stroke="none" x="431" y="175" width="194.66259765625" height="80" opacity="0.2"/></g><g transform="translate(-38,-102) scale(1,1)"><rect fill="#ffffff" stroke="none" x="424" y="168" width="194.66259765625" height="80"/></g><g transform="translate(-38,-102) scale(1,1)"><path fill="none" stroke="#000000" d="M 424 168 L 618.66259765625 168 L 618.66259765625 248 L 424 248 L 424 168 Z Z" stroke-miterlimit="10"/></g><g transform="translate(-38,-102) scale(1,1)"><path fill="none" stroke="#000000" d="M 424 193 L 618.66259765625 193" stroke-miterlimit="10"/></g><g transform="translate(-38,-102) scale(1,1)"><path fill="none" stroke="#000000" d="M 424 203 L 618.66259765625 203" stroke-miterlimit="10"/></g><g transform="translate(-38,-102) scale(1,1)"><g><path fill="none" stroke="none"/><text fill="#000000" stroke="none" font-family="Arial" font-size="13px" font-style="italic" font-weight="bold" text-decoration="none" x="493.331298828125" y="187.5">Customer</text></g></g><g transform="translate(-38,-102) scale(1,1)"><g><path fill="none" stroke="none"/><text fill="#000000" stroke="none" font-family="Arial" font-size="13px" font-style="normal" font-weight="normal" text-decoration="none" x="429" y="220.5">+getAdress()</text></g></g><g transform="translate(-38,-102) scale(1,1)"><path fill="none" stroke="#000000" d="M 435 327 L 491 249" stroke-miterlimit="10"/></g><g transform="translate(-38,-102) scale(1,1)"><path fill="#FFFFFF" stroke="none" d="M 485.98510053773634 270.4208025849497 L 491 249 L 472.30713581698836 260.6007253495409"/></g><g transform="translate(-38,-102) scale(1,1)"><path fill="none" stroke="#000000" d="M 485.98510053773634 270.4208025849497 L 491 249 L 472.30713581698836 260.6007253495409 L 485.98510053773634 270.4208025849497" stroke-miterlimit="10"/></g><g transform="translate(-38,-102) scale(1,1)"><rect fill="#C0C0C0" stroke="none" x="207" y="119" width="120.96630859375" height="72" opacity="0.2"/></g><g transform="translate(-38,-102) scale(1,1)"><rect fill="#ffffff" stroke="none" x="200" y="112" width="120.96630859375" height="72"/></g><g transform="translate(-38,-102) scale(1,1)"><path fill="none" stroke="#000000" d="M 200 112 L 320.96630859375 112 L 320.96630859375 184 L 200 184 L 200 112 Z Z" stroke-miterlimit="10"/></g><g transform="translate(-38,-102) scale(1,1)"><path fill="none" stroke="#000000" d="M 200 137 L 320.96630859375 137" stroke-miterlimit="10"/></g><g transform="translate(-38,-102) scale(1,1)"><path fill="none" stroke="#000000" d="M 200 175 L 320.96630859375 175" stroke-miterlimit="10"/></g><g transform="translate(-38,-102) scale(1,1)"><g><path fill="none" stroke="none"/><text fill="#000000" stroke="none" font-family="Arial" font-size="13px" font-style="normal" font-weight="bold" text-decoration="none" x="208.457763671875" y="131.5">EtablishmentType</text></g></g><g transform="translate(-38,-102) scale(1,1)"><g><path fill="none" stroke="none"/><text fill="#000000" stroke="none" font-family="Arial" font-size="13px" font-style="normal" font-weight="normal" text-decoration="none" x="205" y="154.5">-id: int</text></g></g><g transform="translate(-38,-102) scale(1,1)"><g><path fill="none" stroke="none"/><text fill="#000000" stroke="none" font-family="Arial" font-size="13px" font-style="normal" font-weight="normal" text-decoration="none" x="205" y="169.5">-name: String</text></g></g><g transform="translate(-38,-102) scale(1,1)"><rect fill="#C0C0C0" stroke="none" x="55" y="431" width="91.01806640625" height="88" opacity="0.2"/></g><g transform="translate(-38,-102) scale(1,1)"><rect fill="#ffffff" stroke="none" x="48" y="424" width="91.01806640625" height="88"/></g><g transform="translate(-38,-102) scale(1,1)"><path fill="none" stroke="#000000" d="M 48 424 L 139.01806640625 424 L 139.01806640625 512 L 48 512 L 48 424 Z Z" stroke-miterlimit="10"/></g><g transform="translate(-38,-102) scale(1,1)"><path fill="none" stroke="#000000" d="M 48 449 L 139.01806640625 449" stroke-miterlimit="10"/></g><g transform="translate(-38,-102) scale(1,1)"><path fill="none" stroke="#000000" d="M 48 487 L 139.01806640625 487" stroke-miterlimit="10"/></g><g transform="translate(-38,-102) scale(1,1)"><path fill="none" stroke="#000000" d="M 48 497 L 139.01806640625 497" stroke-miterlimit="10"/></g><g transform="translate(-38,-102) scale(1,1)"><g><path fill="none" stroke="none"/><text fill="#000000" stroke="none" font-family="Arial" font-size="13px" font-style="normal" font-weight="bold" text-decoration="none" x="71.466796875" y="443.5">Holding</text></g></g><g transform="translate(-38,-102) scale(1,1)"><g><path fill="none" stroke="none"/><text fill="#000000" stroke="none" font-family="Arial" font-size="13px" font-style="normal" font-weight="normal" text-decoration="none" x="53" y="466.5">-id</text></g></g><g transform="translate(-38,-102) scale(1,1)"><g><path fill="none" stroke="none"/><text fill="#000000" stroke="none" font-family="Arial" font-size="13px" font-style="normal" font-weight="normal" text-decoration="none" x="53" y="481.5">-name</text></g></g><g transform="translate(-38,-102) scale(1,1)"><rect fill="#C0C0C0" stroke="none" x="55" y="215" width="127.46630859375" height="87" opacity="0.2"/></g><g transform="translate(-38,-102) scale(1,1)"><rect fill="#ffffff" stroke="none" x="48" y="208" width="127.46630859375" height="87"/></g><g transform="translate(-38,-102) scale(1,1)"><path fill="none" stroke="#000000" d="M 48 208 L 175.46630859375 208 L 175.46630859375 295 L 48 295 L 48 208 Z Z" stroke-miterlimit="10"/></g><g transform="translate(-38,-102) scale(1,1)"><path fill="none" stroke="#000000" d="M 48 233 L 175.46630859375 233" stroke-miterlimit="10"/></g><g transform="translate(-38,-102) scale(1,1)"><path fill="none" stroke="#000000" d="M 48 286 L 175.46630859375 286" stroke-miterlimit="10"/></g><g transform="translate(-38,-102) scale(1,1)"><g><path fill="none" stroke="none"/><text fill="#000000" stroke="none" font-family="Arial" font-size="13px" font-style="normal" font-weight="bold" text-decoration="none" x="58.260498046875" y="227.5">PurchasingCentral</text></g></g><g transform="translate(-38,-102) scale(1,1)"><g><path fill="none" stroke="none"/><text fill="#000000" stroke="none" font-family="Arial" font-size="13px" font-style="normal" font-weight="normal" text-decoration="none" x="53" y="250.5">-id: int</text></g></g><g transform="translate(-38,-102) scale(1,1)"><g><path fill="none" stroke="none"/><text fill="#000000" stroke="none" font-family="Arial" font-size="13px" font-style="normal" font-weight="normal" text-decoration="none" x="53" y="265.5">-name: String</text></g></g><g transform="translate(-38,-102) scale(1,1)"><g><path fill="none" stroke="none"/><text fill="#000000" stroke="none" font-family="Arial" font-size="13px" font-style="normal" font-weight="normal" text-decoration="none" x="53" y="280.5">+type: String</text></g></g><g transform="translate(-38,-102) scale(1,1)"><path fill="none" stroke="#000000" d="M 223 469 L 140 468" stroke-miterlimit="10"/></g><g transform="translate(-38,-102) scale(1,1)"><path fill="none" stroke="#000000" d="M 150.21265073709498 463.91322071526815 L 140 468 L 150.11122393553626 472.3316452446431" stroke-miterlimit="10"/></g><g transform="translate(-38,-102) scale(1,1)"><path fill="none" stroke="#000000" d="M 300 327 L 268 185" stroke-miterlimit="10"/></g><g transform="translate(-38,-102) scale(1,1)"><path fill="none" stroke="#000000" d="M 274.340690292197 193.98863986476476 L 268 185 L 266.12761690099734 195.8394733050351" stroke-miterlimit="10"/></g><g transform="translate(-38,-102) scale(1,1)"><path fill="none" stroke="#000000" d="M 223 361 L 157 296" stroke-miterlimit="10"/></g><g transform="translate(-38,-102) scale(1,1)"><path fill="none" stroke="#000000" d="M 167.194511559711 300.1318197030992 L 157 296 L 161.28697052405468 306.1302459854579" stroke-miterlimit="10"/></g></g></svg>