<svg version="1.1" xmlns="http://www.w3.org/2000/svg" xmlns:xlink="http://www.w3.org/1999/xlink" width="1828" height="1116"><defs/><g><g transform="translate(-6,-102) scale(1,1)"><rect fill="#C0C0C0" stroke="none" x="135" y="119" width="352" height="15" opacity="0.2"/></g><g transform="translate(-6,-102) scale(1,1)"><rect fill="#C0C0C0" stroke="none" x="135" y="133" width="880" height="1082" opacity="0.2"/></g><g transform="translate(-6,-102) scale(1,1)"><rect fill="#ffffff" stroke="none" x="128" y="127" width="880" height="1081"/></g><g transform="translate(-6,-102) scale(1,1)"><path fill="none" stroke="#000000" d="M 128 127 L 1008 127 L 1008 1208 L 128 1208 L 128 127 Z Z" stroke-miterlimit="10"/></g><g transform="translate(-6,-102) scale(1,1)"><rect fill="#ffffff" stroke="none" x="128" y="112" width="352" height="15"/></g><g transform="translate(-6,-102) scale(1,1)"><path fill="none" stroke="#000000" d="M 128 112 L 480 112 L 480 127 L 128 127 L 128 112 Z Z" stroke-miterlimit="10"/></g><g transform="translate(-6,-102) scale(1,1)"><rect fill="#ffffff" stroke="none" x="128" y="126" width="880" height="1082"/></g><g transform="translate(-6,-102) scale(1,1)"><path fill="none" stroke="#000000" d="M 128 126 L 1008 126 L 1008 1208 L 128 1208 L 128 126 Z Z" stroke-miterlimit="10"/></g><g transform="translate(-6,-102) scale(1,1)"><g><path fill="none" stroke="none"/><text fill="#000000" stroke="none" font-family="Arial" font-size="13px" font-style="normal" font-weight="bold" text-decoration="none" x="498.63916015625" y="146.5">Application CRM Mobile</text></g></g><g transform="translate(-6,-102) scale(1,1)"><path fill="#ffffff" stroke="none" d="M 49.03068821022727 185.68 C 49.03068821022727 180.886167936 52.916530535172726 177 57.7099609375 177 C 62.503391339827274 177 66.38923366477273 180.886167936 66.38923366477273 185.68 C 66.38923366477273 190.47383206400002 62.503391339827274 194.36 57.7099609375 194.36 C 52.916530535172726 194.36 49.03068821022727 190.47383206400002 49.03068821022727 185.68 Z"/></g><g transform="translate(-6,-102) scale(1,1)"><path fill="none" stroke="#000000" d="M 49.03068821022727 185.68 C 49.03068821022727 180.886167936 52.916530535172726 177 57.7099609375 177 C 62.503391339827274 177 66.38923366477273 180.886167936 66.38923366477273 185.68 C 66.38923366477273 190.47383206400002 62.503391339827274 194.36 57.7099609375 194.36 C 52.916530535172726 194.36 49.03068821022727 190.47383206400002 49.03068821022727 185.68 Z" stroke-miterlimit="10"/></g><g transform="translate(-6,-102) scale(1,1)"><path fill="none" stroke="#000000" d="M 57.7099609375 194.36 L 57.7099609375 211.64" stroke-miterlimit="10"/></g><g transform="translate(-6,-102) scale(1,1)"><path fill="none" stroke="#000000" d="M 48.52014275568182 200.84 L 66.89977911931818 200.84" stroke-miterlimit="10"/></g><g transform="translate(-6,-102) scale(1,1)"><path fill="none" stroke="#000000" d="M 57.7099609375 211.64 L 44.946324573863635 229" stroke-miterlimit="10"/></g><g transform="translate(-6,-102) scale(1,1)"><path fill="none" stroke="#000000" d="M 57.7099609375 211.64 L 70.47359730113637 229" stroke-miterlimit="10"/></g><g transform="translate(-6,-102) scale(1,1)"><g><path fill="none" stroke="none"/><text fill="#000000" stroke="none" font-family="Arial" font-size="13px" font-style="normal" font-weight="bold" text-decoration="none" x="23.0390625" y="249.5">Commercial</text></g></g><g transform="translate(-6,-102) scale(1,1)"><rect fill="#C0C0C0" stroke="none" x="215" y="199" width="101.828125" height="70" opacity="0.2"/></g><g transform="translate(-6,-102) scale(1,1)"><rect fill="#ff5656" stroke="none" x="208" y="192" width="101.828125" height="70"/></g><g transform="translate(-6,-102) scale(1,1)"><path fill="none" stroke="#700000" d="M 208 192 L 309.828125 192 L 309.828125 262 L 208 262 L 208 192 Z Z" stroke-miterlimit="10"/></g><g transform="translate(-6,-102) scale(1,1)"><path fill="none" stroke="#700000" d="M 208 230 L 309.828125 230" stroke-miterlimit="10"/></g><g transform="translate(-6,-102) scale(1,1)"><path fill="none" stroke="#700000" d="M 208 240 L 309.828125 240" stroke-miterlimit="10"/></g><g transform="translate(-6,-102) scale(1,1)"><g><path fill="none" stroke="none"/><text fill="#000000" stroke="none" font-family="Arial" font-size="13px" font-style="normal" font-weight="normal" text-decoration="none" x="227.10595703125" y="209.5">«dialogue»</text></g></g><g transform="translate(-6,-102) scale(1,1)"><g><path fill="none" stroke="none"/><text fill="#000000" stroke="none" font-family="Arial" font-size="13px" font-style="normal" font-weight="bold" text-decoration="none" x="237.96044921875" y="224.5">Acceuil</text></g></g><g transform="translate(-6,-102) scale(1,1)"><g><path fill="none" stroke="none"/><text fill="#000000" stroke="none" font-family="Arial" font-size="13px" font-style="normal" font-weight="normal" text-decoration="none" x="213" y="257.5">+CustomerList()</text></g></g><g transform="translate(-6,-102) scale(1,1)"><path fill="none" stroke="#000000" d="M 100 218 L 207 224" stroke-miterlimit="10"/></g><g transform="translate(-6,-102) scale(1,1)"><path fill="none" stroke="#000000" d="M 196.61758772809955 227.63393937983162 L 207 224 L 197.088942699565 219.22810905536454" stroke-miterlimit="10"/></g><g transform="translate(-6,-102) scale(1,1)"><rect fill="#C0C0C0" stroke="none" x="167" y="327" width="205.8662109375" height="70" opacity="0.2"/></g><g transform="translate(-6,-102) scale(1,1)"><rect fill="#ff5656" stroke="none" x="160" y="320" width="205.8662109375" height="70"/></g><g transform="translate(-6,-102) scale(1,1)"><path fill="none" stroke="#700000" d="M 160 320 L 365.8662109375 320 L 365.8662109375 390 L 160 390 L 160 320 Z Z" stroke-miterlimit="10"/></g><g transform="translate(-6,-102) scale(1,1)"><path fill="none" stroke="#700000" d="M 160 358 L 365.8662109375 358" stroke-miterlimit="10"/></g><g transform="translate(-6,-102) scale(1,1)"><path fill="none" stroke="#700000" d="M 160 368 L 365.8662109375 368" stroke-miterlimit="10"/></g><g transform="translate(-6,-102) scale(1,1)"><g><path fill="none" stroke="none"/><text fill="#000000" stroke="none" font-family="Arial" font-size="13px" font-style="normal" font-weight="normal" text-decoration="none" x="231.125" y="337.5">«dialogue»</text></g></g><g transform="translate(-6,-102) scale(1,1)"><g><path fill="none" stroke="none"/><text fill="#000000" stroke="none" font-family="Arial" font-size="13px" font-style="normal" font-weight="bold" text-decoration="none" x="224.64404296875" y="352.5">CustomerList</text></g></g><g transform="translate(-6,-102) scale(1,1)"><g><path fill="none" stroke="none"/><text fill="#000000" stroke="none" font-family="Arial" font-size="13px" font-style="normal" font-weight="normal" text-decoration="none" x="165" y="385.5">+CreateCustomer(CustomerType)</text></g></g><g transform="translate(-6,-102) scale(1,1)"><rect fill="#C0C0C0" stroke="none" x="175" y="447" width="188.5498046875" height="85" opacity="0.2"/></g><g transform="translate(-6,-102) scale(1,1)"><rect fill="#d600d6" stroke="none" x="168" y="440" width="188.5498046875" height="85"/></g><g transform="translate(-6,-102) scale(1,1)"><path fill="none" stroke="#000000" d="M 168 440 L 356.5498046875 440 L 356.5498046875 525 L 168 525 L 168 440 Z Z" stroke-miterlimit="10"/></g><g transform="translate(-6,-102) scale(1,1)"><path fill="none" stroke="#000000" d="M 168 478 L 356.5498046875 478" stroke-miterlimit="10"/></g><g transform="translate(-6,-102) scale(1,1)"><path fill="none" stroke="#000000" d="M 168 488 L 356.5498046875 488" stroke-miterlimit="10"/></g><g transform="translate(-6,-102) scale(1,1)"><g><path fill="none" stroke="none"/><text fill="#000000" stroke="none" font-family="Arial" font-size="13px" font-style="normal" font-weight="normal" text-decoration="none" x="237.699951171875" y="457.5">«contol»</text></g></g><g transform="translate(-6,-102) scale(1,1)"><g><path fill="none" stroke="none"/><text fill="#000000" stroke="none" font-family="Arial" font-size="13px" font-style="normal" font-weight="bold" text-decoration="none" x="196.17041015625" y="472.5">CustomerListFragment</text></g></g><g transform="translate(-6,-102) scale(1,1)"><g><path fill="none" stroke="none"/><text fill="#000000" stroke="none" font-family="Arial" font-size="13px" font-style="normal" font-weight="normal" text-decoration="none" x="173" y="505.5">+CreateHC()</text></g></g><g transform="translate(-6,-102) scale(1,1)"><rect fill="#C0C0C0" stroke="none" x="143" y="575" width="243.4951171875" height="280" opacity="0.2"/></g><g transform="translate(-6,-102) scale(1,1)"><rect fill="#ff5656" stroke="none" x="136" y="568" width="243.4951171875" height="280"/></g><g transform="translate(-6,-102) scale(1,1)"><path fill="none" stroke="#700000" d="M 136 568 L 379.4951171875 568 L 379.4951171875 848 L 136 848 L 136 568 Z Z" stroke-miterlimit="10"/></g><g transform="translate(-6,-102) scale(1,1)"><path fill="none" stroke="#700000" d="M 136 606 L 379.4951171875 606" stroke-miterlimit="10"/></g><g transform="translate(-6,-102) scale(1,1)"><path fill="none" stroke="#700000" d="M 136 824 L 379.4951171875 824" stroke-miterlimit="10"/></g><g transform="translate(-6,-102) scale(1,1)"><g><path fill="none" stroke="none"/><text fill="#000000" stroke="none" font-family="Arial" font-size="13px" font-style="normal" font-weight="normal" text-decoration="none" x="225.939453125" y="585.5">«dialogue»</text></g></g><g transform="translate(-6,-102) scale(1,1)"><g><path fill="none" stroke="none"/><text fill="#000000" stroke="none" font-family="Arial" font-size="13px" font-style="normal" font-weight="bold" text-decoration="none" x="228.849853515625" y="600.5">CreateHC</text></g></g><g transform="translate(-6,-102) scale(1,1)"><g><path fill="none" stroke="none"/><text fill="#000000" stroke="none" font-family="Arial" font-size="13px" font-style="normal" font-weight="normal" text-decoration="none" x="141" y="623.5">+name: String</text></g></g><g transform="translate(-6,-102) scale(1,1)"><g><path fill="none" stroke="none"/><text fill="#000000" stroke="none" font-family="Arial" font-size="13px" font-style="normal" font-weight="normal" text-decoration="none" x="141" y="638.5">+isPublic: boolean</text></g></g><g transform="translate(-6,-102) scale(1,1)"><g><path fill="none" stroke="none"/><text fill="#000000" stroke="none" font-family="Arial" font-size="13px" font-style="normal" font-weight="normal" text-decoration="none" x="141" y="653.5">+finessNumber: int</text></g></g><g transform="translate(-6,-102) scale(1,1)"><g><path fill="none" stroke="none"/><text fill="#000000" stroke="none" font-family="Arial" font-size="13px" font-style="normal" font-weight="normal" text-decoration="none" x="141" y="668.5">+siretNumber: int</text></g></g><g transform="translate(-6,-102) scale(1,1)"><g><path fill="none" stroke="none"/><text fill="#000000" stroke="none" font-family="Arial" font-size="13px" font-style="normal" font-weight="normal" text-decoration="none" x="141" y="683.5">+streetNumber: int</text></g></g><g transform="translate(-6,-102) scale(1,1)"><g><path fill="none" stroke="none"/><text fill="#000000" stroke="none" font-family="Arial" font-size="13px" font-style="normal" font-weight="normal" text-decoration="none" x="141" y="698.5">+streetName: String</text></g></g><g transform="translate(-6,-102) scale(1,1)"><g><path fill="none" stroke="none"/><text fill="#000000" stroke="none" font-family="Arial" font-size="13px" font-style="normal" font-weight="normal" text-decoration="none" x="141" y="713.5">+city: String</text></g></g><g transform="translate(-6,-102) scale(1,1)"><g><path fill="none" stroke="none"/><text fill="#000000" stroke="none" font-family="Arial" font-size="13px" font-style="normal" font-weight="normal" text-decoration="none" x="141" y="728.5">+zipCode: int</text></g></g><g transform="translate(-6,-102) scale(1,1)"><g><path fill="none" stroke="none"/><text fill="#000000" stroke="none" font-family="Arial" font-size="13px" font-style="normal" font-weight="normal" text-decoration="none" x="141" y="743.5">+etablishmentType: EtablishmentType</text></g></g><g transform="translate(-6,-102) scale(1,1)"><g><path fill="none" stroke="none"/><text fill="#000000" stroke="none" font-family="Arial" font-size="13px" font-style="normal" font-weight="normal" text-decoration="none" x="141" y="758.5">+difficultyHaveContact: int</text></g></g><g transform="translate(-6,-102) scale(1,1)"><g><path fill="none" stroke="none"/><text fill="#000000" stroke="none" font-family="Arial" font-size="13px" font-style="normal" font-weight="normal" text-decoration="none" x="141" y="773.5">+serviceBuildingImage: int</text></g></g><g transform="translate(-6,-102) scale(1,1)"><g><path fill="none" stroke="none"/><text fill="#000000" stroke="none" font-family="Arial" font-size="13px" font-style="normal" font-weight="normal" text-decoration="none" x="141" y="788.5">+webSite: String</text></g></g><g transform="translate(-6,-102) scale(1,1)"><g><path fill="none" stroke="none"/><text fill="#000000" stroke="none" font-family="Arial" font-size="13px" font-style="normal" font-weight="normal" text-decoration="none" x="141" y="803.5">+bedNumber: int</text></g></g><g transform="translate(-6,-102) scale(1,1)"><g><path fill="none" stroke="none"/><text fill="#000000" stroke="none" font-family="Arial" font-size="13px" font-style="normal" font-weight="normal" text-decoration="none" x="141" y="818.5">+purchasingCentrale: PurchasingCentral</text></g></g><g transform="translate(-6,-102) scale(1,1)"><path fill="none" stroke="#000000" d="M 644 735 L 492 863" stroke-miterlimit="10"/></g><g transform="translate(-6,-102) scale(1,1)"><path fill="none" stroke="#000000" d="M 497.0620429422621 853.2339505811872 L 492 863 L 502.48504466057653 859.6737651216855" stroke-miterlimit="10"/></g><g transform="translate(-6,-102) scale(1,1)"><path fill="none" stroke="#000000" d="M 665 735 L 517 983" stroke-miterlimit="10"/></g><g transform="translate(-6,-102) scale(1,1)"><path fill="none" stroke="#000000" d="M 518.5931731798311 972.1159842328731 L 517 983 L 525.8227049145398 976.4303822035864" stroke-miterlimit="10"/></g><g transform="translate(-6,-102) scale(1,1)"><path fill="none" stroke="#000000" d="M 690 735 L 699 855" stroke-miterlimit="10"/></g><g transform="translate(-6,-102) scale(1,1)"><path fill="none" stroke="#000000" d="M 694.0422058721394 845.1806172604511 L 699 855 L 702.437662274664 844.5509580302618" stroke-miterlimit="10"/></g><g transform="translate(-6,-102) scale(1,1)"><path fill="none" stroke="#000000" d="M 807 1017 L 732 1103" stroke-miterlimit="10"/></g><g transform="translate(-6,-102) scale(1,1)"><path fill="#FFFFFF" stroke="none" d="M 739.0139953130101 1082.148048778374 L 732 1103 L 751.704199758823 1093.2150875392572"/></g><g transform="translate(-6,-102) scale(1,1)"><path fill="none" stroke="#000000" d="M 739.0139953130101 1082.148048778374 L 732 1103 L 751.704199758823 1093.2150875392572 L 739.0139953130101 1082.148048778374" stroke-miterlimit="10"/></g><g transform="translate(-6,-102) scale(1,1)"><rect fill="#C0C0C0" stroke="none" x="455" y="447" width="227.60693359375" height="100" opacity="0.2"/></g><g transform="translate(-6,-102) scale(1,1)"><rect fill="#ff5656" stroke="none" x="448" y="440" width="227.60693359375" height="100"/></g><g transform="translate(-6,-102) scale(1,1)"><path fill="none" stroke="#700000" d="M 448 440 L 675.60693359375 440 L 675.60693359375 540 L 448 540 L 448 440 Z Z" stroke-miterlimit="10"/></g><g transform="translate(-6,-102) scale(1,1)"><path fill="none" stroke="#700000" d="M 448 478 L 675.60693359375 478" stroke-miterlimit="10"/></g><g transform="translate(-6,-102) scale(1,1)"><path fill="none" stroke="#700000" d="M 448 531 L 675.60693359375 531" stroke-miterlimit="10"/></g><g transform="translate(-6,-102) scale(1,1)"><g><path fill="none" stroke="none"/><text fill="#000000" stroke="none" font-family="Arial" font-size="13px" font-style="normal" font-weight="normal" text-decoration="none" x="529.995361328125" y="457.5">«dialogue»</text></g></g><g transform="translate(-6,-102) scale(1,1)"><g><path fill="none" stroke="none"/><text fill="#000000" stroke="none" font-family="Arial" font-size="13px" font-style="normal" font-weight="bold" text-decoration="none" x="519.178955078125" y="472.5">CustomerType</text></g></g><g transform="translate(-6,-102) scale(1,1)"><g><path fill="none" stroke="none"/><text fill="#000000" stroke="none" font-family="Arial" font-size="13px" font-style="normal" font-weight="normal" text-decoration="none" x="453" y="495.5">+healthCenter: RadioButton</text></g></g><g transform="translate(-6,-102) scale(1,1)"><g><path fill="none" stroke="none"/><text fill="#000000" stroke="none" font-family="Arial" font-size="13px" font-style="normal" font-weight="normal" text-decoration="none" x="453" y="510.5">+indepentant: RadioButton</text></g></g><g transform="translate(-6,-102) scale(1,1)"><g><path fill="none" stroke="none"/><text fill="#000000" stroke="none" font-family="Arial" font-size="13px" font-style="normal" font-weight="normal" text-decoration="none" x="453" y="525.5">+customerType: RadioGroupe</text></g></g><g transform="translate(-6,-102) scale(1,1)"><path fill="none" stroke="#000000" d="M 724 735 L 807 816" stroke-miterlimit="10"/></g><g transform="translate(-6,-102) scale(1,1)"><path fill="none" stroke="#000000" d="M 796.7867489941989 811.9147210753117 L 807 816 L 802.6668693865233 805.8894125251521" stroke-miterlimit="10"/></g><g transform="translate(-6,-102) scale(1,1)"><path fill="none" stroke="#000000" d="M 262 391 L 262 439" stroke-miterlimit="10"/></g><g transform="translate(-6,-102) scale(1,1)"><path fill="none" stroke="#000000" d="M 257.790482243984 428.83732514237585 L 262 439 L 266.209517756016 428.83732514237585" stroke-miterlimit="10"/></g><g transform="translate(-6,-102) scale(1,1)"><path fill="none" stroke="#000000" d="M 259 263 L 261 319" stroke-miterlimit="10"/></g><g transform="translate(-6,-102) scale(1,1)"><path fill="none" stroke="#000000" d="M 256.43044290015257 308.99404437791003 L 261 319 L 264.8441142603102 308.6935561150473" stroke-miterlimit="10"/></g><g transform="translate(-6,-102) scale(1,1)"><path fill="none" stroke="#000000" d="M 358 485 L 447 487" stroke-miterlimit="10"/></g><g transform="translate(-6,-102) scale(1,1)"><path fill="none" stroke="#000000" d="M 436.74531815014547 490.9801382084375 L 447 487 L 436.9344622078114 482.5632276423031" stroke-miterlimit="10"/></g><g transform="translate(-6,-102) scale(1,1)"><path fill="none" stroke="#000000" d="M 261 526 L 260 567" stroke-miterlimit="10"/></g><g transform="translate(-6,-102) scale(1,1)"><path fill="none" stroke="#000000" d="M 256.03953019737423 556.7377059610197 L 260 567 L 264.456062651372 556.9429872403856" stroke-miterlimit="10"/></g><g transform="translate(-6,-102) scale(1,1)"><path fill="none" stroke="#000000" d="M 380 705 L 583 701" stroke-miterlimit="10"/></g><g transform="translate(-6,-102) scale(1,1)"><path fill="none" stroke="#000000" d="M 572.9222275368388 705.4089116775855 L 583 701 L 572.7563674071704 696.9915100969168" stroke-miterlimit="10"/></g><g transform="translate(-6,-102) scale(1,1)"><rect fill="#C0C0C0" stroke="none" x="1231" y="151" width="600" height="1048" opacity="0.2"/></g><g transform="translate(-6,-102) scale(1,1)"><rect fill="#ffffff" stroke="none" x="1224" y="144" width="600" height="1048"/></g><g transform="translate(-6,-102) scale(1,1)"><path fill="none" stroke="#000000" d="M 1224 144 L 1824 144 L 1824 1192 L 1224 1192 L 1224 144 Z Z" stroke-miterlimit="10"/></g><g transform="translate(-6,-102) scale(1,1)"><path fill="none" stroke="#000000" d="M 1224 169 L 1824 169" stroke-miterlimit="10"/></g><g transform="translate(-6,-102) scale(1,1)"><path fill="none" stroke="#000000" d="M 1224 179 L 1824 179" stroke-miterlimit="10"/></g><g transform="translate(-6,-102) scale(1,1)"><g><path fill="none" stroke="none"/><text fill="#000000" stroke="none" font-family="Arial" font-size="13px" font-style="normal" font-weight="bold" text-decoration="none" x="1455.727783203125" y="163.5">Application CRM server</text></g></g><g transform="translate(-6,-102) scale(1,1)"><rect fill="#C0C0C0" stroke="none" x="1239" y="639" width="174.10888671875" height="57" opacity="0.2"/></g><g transform="translate(-6,-102) scale(1,1)"><rect fill="#d600d6" stroke="none" x="1232" y="632" width="174.10888671875" height="57"/></g><g transform="translate(-6,-102) scale(1,1)"><path fill="none" stroke="#000000" d="M 1232 632 L 1406.10888671875 632 L 1406.10888671875 689 L 1232 689 L 1232 632 Z Z" stroke-miterlimit="10"/></g><g transform="translate(-6,-102) scale(1,1)"><path fill="none" stroke="#000000" d="M 1232 657 L 1406.10888671875 657" stroke-miterlimit="10"/></g><g transform="translate(-6,-102) scale(1,1)"><path fill="none" stroke="#000000" d="M 1232 667 L 1406.10888671875 667" stroke-miterlimit="10"/></g><g transform="translate(-6,-102) scale(1,1)"><g><path fill="none" stroke="none"/><text fill="#000000" stroke="none" font-family="Arial" font-size="13px" font-style="normal" font-weight="bold" text-decoration="none" x="1267.397216796875" y="651.5">RestServiceClient</text></g></g><g transform="translate(-6,-102) scale(1,1)"><g><path fill="none" stroke="none"/><text fill="#000000" stroke="none" font-family="Arial" font-size="13px" font-style="normal" font-weight="normal" text-decoration="none" x="1237" y="684.5">+createHealthEtablishment()</text></g></g><g transform="translate(-6,-102) scale(1,1)"><rect fill="#C0C0C0" stroke="none" x="1263" y="863" width="194.66259765625" height="80" opacity="0.2"/></g><g transform="translate(-6,-102) scale(1,1)"><rect fill="#ffffff" stroke="none" x="1256" y="856" width="194.66259765625" height="80"/></g><g transform="translate(-6,-102) scale(1,1)"><path fill="none" stroke="#000000" d="M 1256 856 L 1450.66259765625 856 L 1450.66259765625 936 L 1256 936 L 1256 856 Z Z" stroke-miterlimit="10"/></g><g transform="translate(-6,-102) scale(1,1)"><path fill="none" stroke="#000000" d="M 1256 896 L 1450.66259765625 896" stroke-miterlimit="10"/></g><g transform="translate(-6,-102) scale(1,1)"><path fill="none" stroke="#000000" d="M 1256 906 L 1450.66259765625 906" stroke-miterlimit="10"/></g><g transform="translate(-6,-102) scale(1,1)"><g><path fill="none" stroke="none"/><text fill="#000000" stroke="none" font-family="Arial" font-size="13px" font-style="italic" font-weight="bold" text-decoration="none" x="1325.1572265625" y="875.5">Customer</text></g></g><g transform="translate(-6,-102) scale(1,1)"><g><path fill="none" stroke="none"/><text fill="#000000" stroke="none" font-family="Arial" font-size="13px" font-style="normal" font-weight="normal" text-decoration="none" x="1264.83544921875" y="890.5">(from Application CRM Mobile)</text></g></g><g transform="translate(-6,-102) scale(1,1)"><g><path fill="none" stroke="none"/><text fill="#000000" stroke="none" font-family="Arial" font-size="13px" font-style="normal" font-weight="normal" text-decoration="none" x="1261" y="923.5">+getAdress()</text></g></g><g transform="translate(-6,-102) scale(1,1)"><rect fill="#C0C0C0" stroke="none" x="1431" y="535" width="189" height="297" opacity="0.2"/></g><g transform="translate(-6,-102) scale(1,1)"><rect fill="#ffffff" stroke="none" x="1424" y="528" width="189" height="297"/></g><g transform="translate(-6,-102) scale(1,1)"><path fill="none" stroke="#000000" d="M 1424 528 L 1613 528 L 1613 825 L 1424 825 L 1424 528 Z Z" stroke-miterlimit="10"/></g><g transform="translate(-6,-102) scale(1,1)"><path fill="none" stroke="#000000" d="M 1424 568 L 1613 568" stroke-miterlimit="10"/></g><g transform="translate(-6,-102) scale(1,1)"><path fill="none" stroke="#000000" d="M 1424 816 L 1613 816" stroke-miterlimit="10"/></g><g transform="translate(-6,-102) scale(1,1)"><g><path fill="none" stroke="none"/><text fill="#000000" stroke="none" font-family="Arial" font-size="13px" font-style="normal" font-weight="bold" text-decoration="none" x="1480.201416015625" y="547.5">HealthCenter</text></g></g><g transform="translate(-6,-102) scale(1,1)"><g><path fill="none" stroke="none"/><text fill="#000000" stroke="none" font-family="Arial" font-size="13px" font-style="normal" font-weight="normal" text-decoration="none" x="1460.352294921875" y="562.5">(from CRM Android)</text></g></g><g transform="translate(-6,-102) scale(1,1)"><g><path fill="none" stroke="none"/><text fill="#000000" stroke="none" font-family="Arial" font-size="13px" font-style="normal" font-weight="normal" text-decoration="none" x="1429" y="585.5">-id: int</text></g></g><g transform="translate(-6,-102) scale(1,1)"><g><path fill="none" stroke="none"/><text fill="#000000" stroke="none" font-family="Arial" font-size="13px" font-style="normal" font-weight="normal" text-decoration="none" x="1429" y="600.5">-name: String</text></g></g><g transform="translate(-6,-102) scale(1,1)"><g><path fill="none" stroke="none"/><text fill="#000000" stroke="none" font-family="Arial" font-size="13px" font-style="normal" font-weight="normal" text-decoration="none" x="1429" y="615.5">-finessNumber: int</text></g></g><g transform="translate(-6,-102) scale(1,1)"><g><path fill="none" stroke="none"/><text fill="#000000" stroke="none" font-family="Arial" font-size="13px" font-style="normal" font-weight="normal" text-decoration="none" x="1429" y="630.5">-siretNumber: int</text></g></g><g transform="translate(-6,-102) scale(1,1)"><g><path fill="none" stroke="none"/><text fill="#000000" stroke="none" font-family="Arial" font-size="13px" font-style="normal" font-weight="normal" text-decoration="none" x="1429" y="645.5">-streetNumber: String</text></g></g><g transform="translate(-6,-102) scale(1,1)"><g><path fill="none" stroke="none"/><text fill="#000000" stroke="none" font-family="Arial" font-size="13px" font-style="normal" font-weight="normal" text-decoration="none" x="1429" y="660.5">-streetName: String</text></g></g><g transform="translate(-6,-102) scale(1,1)"><g><path fill="none" stroke="none"/><text fill="#000000" stroke="none" font-family="Arial" font-size="13px" font-style="normal" font-weight="normal" text-decoration="none" x="1429" y="675.5">-city: String</text></g></g><g transform="translate(-6,-102) scale(1,1)"><g><path fill="none" stroke="none"/><text fill="#000000" stroke="none" font-family="Arial" font-size="13px" font-style="normal" font-weight="normal" text-decoration="none" x="1429" y="690.5">-zipCode: int</text></g></g><g transform="translate(-6,-102) scale(1,1)"><g><path fill="none" stroke="none"/><text fill="#000000" stroke="none" font-family="Arial" font-size="13px" font-style="normal" font-weight="normal" text-decoration="none" x="1429" y="705.5">-longitude: double</text></g></g><g transform="translate(-6,-102) scale(1,1)"><g><path fill="none" stroke="none"/><text fill="#000000" stroke="none" font-family="Arial" font-size="13px" font-style="normal" font-weight="normal" text-decoration="none" x="1429" y="720.5">-latitude: double</text></g></g><g transform="translate(-6,-102) scale(1,1)"><g><path fill="none" stroke="none"/><text fill="#000000" stroke="none" font-family="Arial" font-size="13px" font-style="normal" font-weight="normal" text-decoration="none" x="1429" y="735.5">-webSite: String</text></g></g><g transform="translate(-6,-102) scale(1,1)"><g><path fill="none" stroke="none"/><text fill="#000000" stroke="none" font-family="Arial" font-size="13px" font-style="normal" font-weight="normal" text-decoration="none" x="1429" y="750.5">-serviceBuildingImage: int</text></g></g><g transform="translate(-6,-102) scale(1,1)"><g><path fill="none" stroke="none"/><text fill="#000000" stroke="none" font-family="Arial" font-size="13px" font-style="normal" font-weight="normal" text-decoration="none" x="1429" y="765.5">-origin: String</text></g></g><g transform="translate(-6,-102) scale(1,1)"><g><path fill="none" stroke="none"/><text fill="#000000" stroke="none" font-family="Arial" font-size="13px" font-style="normal" font-weight="normal" text-decoration="none" x="1429" y="780.5">-isPublic: boolean</text></g></g><g transform="translate(-6,-102) scale(1,1)"><g><path fill="none" stroke="none"/><text fill="#000000" stroke="none" font-family="Arial" font-size="13px" font-style="normal" font-weight="normal" text-decoration="none" x="1429" y="795.5">-difficultyHaveContact: int</text></g></g><g transform="translate(-6,-102) scale(1,1)"><g><path fill="none" stroke="none"/><text fill="#000000" stroke="none" font-family="Arial" font-size="13px" font-style="normal" font-weight="normal" text-decoration="none" x="1429" y="810.5">-bedNumber: int</text></g></g><g transform="translate(-6,-102) scale(1,1)"><path fill="none" stroke="#000000" d="M 1423 803 L 1384 855" stroke-miterlimit="10"/></g><g transform="translate(-6,-102) scale(1,1)"><path fill="#FFFFFF" stroke="none" d="M 1389.4599814195235 833.6882989205822 L 1384 855 L 1402.9304382387745 843.7911415350205"/></g><g transform="translate(-6,-102) scale(1,1)"><path fill="none" stroke="#000000" d="M 1389.4599814195235 833.6882989205822 L 1384 855 L 1402.9304382387745 843.7911415350205 L 1389.4599814195235 833.6882989205822" stroke-miterlimit="10"/></g><g transform="translate(-6,-102) scale(1,1)"><path fill="none" stroke="#000000" d="M 1407 667 L 1423 668" stroke-miterlimit="10"/></g><g transform="translate(-6,-102) scale(1,1)"><path fill="none" stroke="#000000" d="M 1412.5945336509049 671.5673898101903 L 1423 668 L 1413.1196986572252 663.1647497090678" stroke-miterlimit="10"/></g><g transform="translate(-6,-102) scale(1,1)"><path fill="#C0C0C0" stroke="none" d="M 1092.5 666.5 C 1092.5 660.1487248 1097.6487248 655 1104 655 C 1110.3512752 655 1115.5 660.1487248 1115.5 666.5 C 1115.5 672.8512752 1110.3512752 678 1104 678 C 1097.6487248 678 1092.5 672.8512752 1092.5 666.5 Z" opacity="0.2"/></g><g transform="translate(-6,-102) scale(1,1)"><path fill="none" stroke="#000000" d="M 1101.093946267308 669.7466089516831 A 11.5 11.5 0 0 1 1092.906053732692 648.2533910483169" stroke-miterlimit="10"/></g><g transform="translate(-6,-102) scale(1,1)"><path fill="#ffffff" stroke="none" d="M 1088.5 659.5 C 1088.5 654.8055792 1092.3055792 651 1097 651 C 1101.6944208 651 1105.5 654.8055792 1105.5 659.5 C 1105.5 664.1944208 1101.6944208 668 1097 668 C 1092.3055792 668 1088.5 664.1944208 1088.5 659.5 Z"/></g><g transform="translate(-6,-102) scale(1,1)"><path fill="none" stroke="#000000" d="M 1088.5 659.5 C 1088.5 654.8055792 1092.3055792 651 1097 651 C 1101.6944208 651 1105.5 654.8055792 1105.5 659.5 C 1105.5 664.1944208 1101.6944208 668 1097 668 C 1092.3055792 668 1088.5 664.1944208 1088.5 659.5 Z" stroke-miterlimit="10"/></g><g transform="translate(-6,-102) scale(1,1)"><g><path fill="none" stroke="none"/><text fill="#000000" stroke="none" font-family="Arial" font-size="13px" font-style="normal" font-weight="bold" text-decoration="none" x="1060.88818359375" y="690.5">HTTP/REST</text></g></g><g transform="translate(-6,-102) scale(1,1)"><path fill="none" stroke="#000000" d="M 1231 665 L 1108.5 662.0119047619048" stroke-miterlimit="10"/></g><g transform="translate(-6,-102) scale(1,1)"><rect fill="#C0C0C0" stroke="none" x="591" y="671" width="206.62158203125" height="70" opacity="0.2"/></g><g transform="translate(-6,-102) scale(1,1)"><rect fill="#d600d6" stroke="none" x="584" y="664" width="206.62158203125" height="70"/></g><g transform="translate(-6,-102) scale(1,1)"><path fill="none" stroke="#000000" d="M 584 664 L 790.62158203125 664 L 790.62158203125 734 L 584 734 L 584 664 Z Z" stroke-miterlimit="10"/></g><g transform="translate(-6,-102) scale(1,1)"><path fill="none" stroke="#000000" d="M 584 702 L 790.62158203125 702" stroke-miterlimit="10"/></g><g transform="translate(-6,-102) scale(1,1)"><path fill="none" stroke="#000000" d="M 584 712 L 790.62158203125 712" stroke-miterlimit="10"/></g><g transform="translate(-6,-102) scale(1,1)"><g><path fill="none" stroke="none"/><text fill="#000000" stroke="none" font-family="Arial" font-size="13px" font-style="normal" font-weight="normal" text-decoration="none" x="660.5712890625" y="681.5">«control»</text></g></g><g transform="translate(-6,-102) scale(1,1)"><g><path fill="none" stroke="none"/><text fill="#000000" stroke="none" font-family="Arial" font-size="13px" font-style="normal" font-weight="bold" text-decoration="none" x="630.59765625" y="696.5">CreateHCFragment</text></g></g><g transform="translate(-6,-102) scale(1,1)"><g><path fill="none" stroke="none"/><text fill="#000000" stroke="none" font-family="Arial" font-size="13px" font-style="normal" font-weight="normal" text-decoration="none" x="589" y="729.5">+InsertHE(HealthEtablishment he)</text></g></g><g transform="translate(-6,-102) scale(1,1)"><path fill="none" stroke="#000000" d="M 792 692 L 1085.5 663.3809523809524" stroke-miterlimit="10"/></g><g transform="translate(-6,-102) scale(1,1)"><rect fill="#C0C0C0" stroke="none" x="815" y="767" width="189" height="297" opacity="0.2"/></g><g transform="translate(-6,-102) scale(1,1)"><rect fill="#ffffff" stroke="none" x="808" y="760" width="189" height="297"/></g><g transform="translate(-6,-102) scale(1,1)"><path fill="none" stroke="#000000" d="M 808 760 L 997 760 L 997 1057 L 808 1057 L 808 760 Z Z" stroke-miterlimit="10"/></g><g transform="translate(-6,-102) scale(1,1)"><path fill="none" stroke="#000000" d="M 808 800 L 997 800" stroke-miterlimit="10"/></g><g transform="translate(-6,-102) scale(1,1)"><path fill="none" stroke="#000000" d="M 808 1048 L 997 1048" stroke-miterlimit="10"/></g><g transform="translate(-6,-102) scale(1,1)"><g><path fill="none" stroke="none"/><text fill="#000000" stroke="none" font-family="Arial" font-size="13px" font-style="normal" font-weight="bold" text-decoration="none" x="864.201416015625" y="779.5">HealthCenter</text></g></g><g transform="translate(-6,-102) scale(1,1)"><g><path fill="none" stroke="none"/><text fill="#000000" stroke="none" font-family="Arial" font-size="13px" font-style="normal" font-weight="normal" text-decoration="none" x="844.352294921875" y="794.5">(from CRM Android)</text></g></g><g transform="translate(-6,-102) scale(1,1)"><g><path fill="none" stroke="none"/><text fill="#000000" stroke="none" font-family="Arial" font-size="13px" font-style="normal" font-weight="normal" text-decoration="none" x="813" y="817.5">-id: int</text></g></g><g transform="translate(-6,-102) scale(1,1)"><g><path fill="none" stroke="none"/><text fill="#000000" stroke="none" font-family="Arial" font-size="13px" font-style="normal" font-weight="normal" text-decoration="none" x="813" y="832.5">-name: String</text></g></g><g transform="translate(-6,-102) scale(1,1)"><g><path fill="none" stroke="none"/><text fill="#000000" stroke="none" font-family="Arial" font-size="13px" font-style="normal" font-weight="normal" text-decoration="none" x="813" y="847.5">-finessNumber: int</text></g></g><g transform="translate(-6,-102) scale(1,1)"><g><path fill="none" stroke="none"/><text fill="#000000" stroke="none" font-family="Arial" font-size="13px" font-style="normal" font-weight="normal" text-decoration="none" x="813" y="862.5">-siretNumber: int</text></g></g><g transform="translate(-6,-102) scale(1,1)"><g><path fill="none" stroke="none"/><text fill="#000000" stroke="none" font-family="Arial" font-size="13px" font-style="normal" font-weight="normal" text-decoration="none" x="813" y="877.5">-streetNumber: String</text></g></g><g transform="translate(-6,-102) scale(1,1)"><g><path fill="none" stroke="none"/><text fill="#000000" stroke="none" font-family="Arial" font-size="13px" font-style="normal" font-weight="normal" text-decoration="none" x="813" y="892.5">-streetName: String</text></g></g><g transform="translate(-6,-102) scale(1,1)"><g><path fill="none" stroke="none"/><text fill="#000000" stroke="none" font-family="Arial" font-size="13px" font-style="normal" font-weight="normal" text-decoration="none" x="813" y="907.5">-city: String</text></g></g><g transform="translate(-6,-102) scale(1,1)"><g><path fill="none" stroke="none"/><text fill="#000000" stroke="none" font-family="Arial" font-size="13px" font-style="normal" font-weight="normal" text-decoration="none" x="813" y="922.5">-zipCode: int</text></g></g><g transform="translate(-6,-102) scale(1,1)"><g><path fill="none" stroke="none"/><text fill="#000000" stroke="none" font-family="Arial" font-size="13px" font-style="normal" font-weight="normal" text-decoration="none" x="813" y="937.5">-longitude: double</text></g></g><g transform="translate(-6,-102) scale(1,1)"><g><path fill="none" stroke="none"/><text fill="#000000" stroke="none" font-family="Arial" font-size="13px" font-style="normal" font-weight="normal" text-decoration="none" x="813" y="952.5">-latitude: double</text></g></g><g transform="translate(-6,-102) scale(1,1)"><g><path fill="none" stroke="none"/><text fill="#000000" stroke="none" font-family="Arial" font-size="13px" font-style="normal" font-weight="normal" text-decoration="none" x="813" y="967.5">-webSite: String</text></g></g><g transform="translate(-6,-102) scale(1,1)"><g><path fill="none" stroke="none"/><text fill="#000000" stroke="none" font-family="Arial" font-size="13px" font-style="normal" font-weight="normal" text-decoration="none" x="813" y="982.5">-serviceBuildingImage: int</text></g></g><g transform="translate(-6,-102) scale(1,1)"><g><path fill="none" stroke="none"/><text fill="#000000" stroke="none" font-family="Arial" font-size="13px" font-style="normal" font-weight="normal" text-decoration="none" x="813" y="997.5">-origin: String</text></g></g><g transform="translate(-6,-102) scale(1,1)"><g><path fill="none" stroke="none"/><text fill="#000000" stroke="none" font-family="Arial" font-size="13px" font-style="normal" font-weight="normal" text-decoration="none" x="813" y="1012.5">-isPublic: boolean</text></g></g><g transform="translate(-6,-102) scale(1,1)"><g><path fill="none" stroke="none"/><text fill="#000000" stroke="none" font-family="Arial" font-size="13px" font-style="normal" font-weight="normal" text-decoration="none" x="813" y="1027.5">-difficultyHaveContact: int</text></g></g><g transform="translate(-6,-102) scale(1,1)"><g><path fill="none" stroke="none"/><text fill="#000000" stroke="none" font-family="Arial" font-size="13px" font-style="normal" font-weight="normal" text-decoration="none" x="813" y="1042.5">-bedNumber: int</text></g></g><g transform="translate(-6,-102) scale(1,1)"><rect fill="#C0C0C0" stroke="none" x="615" y="863" width="189" height="87" opacity="0.2"/></g><g transform="translate(-6,-102) scale(1,1)"><rect fill="#ffffff" stroke="none" x="608" y="856" width="189" height="87"/></g><g transform="translate(-6,-102) scale(1,1)"><path fill="none" stroke="#000000" d="M 608 856 L 797 856 L 797 943 L 608 943 L 608 856 Z Z" stroke-miterlimit="10"/></g><g transform="translate(-6,-102) scale(1,1)"><path fill="none" stroke="#000000" d="M 608 896 L 797 896" stroke-miterlimit="10"/></g><g transform="translate(-6,-102) scale(1,1)"><path fill="none" stroke="#000000" d="M 608 934 L 797 934" stroke-miterlimit="10"/></g><g transform="translate(-6,-102) scale(1,1)"><g><path fill="none" stroke="none"/><text fill="#000000" stroke="none" font-family="Arial" font-size="13px" font-style="normal" font-weight="bold" text-decoration="none" x="680.457763671875" y="875.5">Holding</text></g></g><g transform="translate(-6,-102) scale(1,1)"><g><path fill="none" stroke="none"/><text fill="#000000" stroke="none" font-family="Arial" font-size="13px" font-style="normal" font-weight="normal" text-decoration="none" x="614.004150390625" y="890.5">(from Application CRM Mobile)</text></g></g><g transform="translate(-6,-102) scale(1,1)"><g><path fill="none" stroke="none"/><text fill="#000000" stroke="none" font-family="Arial" font-size="13px" font-style="normal" font-weight="normal" text-decoration="none" x="613" y="913.5">-id</text></g></g><g transform="translate(-6,-102) scale(1,1)"><g><path fill="none" stroke="none"/><text fill="#000000" stroke="none" font-family="Arial" font-size="13px" font-style="normal" font-weight="normal" text-decoration="none" x="613" y="928.5">-name</text></g></g><g transform="translate(-6,-102) scale(1,1)"><rect fill="#C0C0C0" stroke="none" x="399" y="991" width="189" height="100" opacity="0.2"/></g><g transform="translate(-6,-102) scale(1,1)"><rect fill="#ffffff" stroke="none" x="392" y="984" width="189" height="100"/></g><g transform="translate(-6,-102) scale(1,1)"><path fill="none" stroke="#000000" d="M 392 984 L 581 984 L 581 1084 L 392 1084 L 392 984 Z Z" stroke-miterlimit="10"/></g><g transform="translate(-6,-102) scale(1,1)"><path fill="none" stroke="#000000" d="M 392 1024 L 581 1024" stroke-miterlimit="10"/></g><g transform="translate(-6,-102) scale(1,1)"><path fill="none" stroke="#000000" d="M 392 1062 L 581 1062" stroke-miterlimit="10"/></g><g transform="translate(-6,-102) scale(1,1)"><g><path fill="none" stroke="none"/><text fill="#000000" stroke="none" font-family="Arial" font-size="13px" font-style="normal" font-weight="bold" text-decoration="none" x="434.474609375" y="1003.5">EtablishmentType</text></g></g><g transform="translate(-6,-102) scale(1,1)"><g><path fill="none" stroke="none"/><text fill="#000000" stroke="none" font-family="Arial" font-size="13px" font-style="normal" font-weight="normal" text-decoration="none" x="398.004150390625" y="1018.5">(from Application CRM Mobile)</text></g></g><g transform="translate(-6,-102) scale(1,1)"><g><path fill="none" stroke="none"/><text fill="#000000" stroke="none" font-family="Arial" font-size="13px" font-style="normal" font-weight="normal" text-decoration="none" x="397" y="1041.5">-id: int</text></g></g><g transform="translate(-6,-102) scale(1,1)"><g><path fill="none" stroke="none"/><text fill="#000000" stroke="none" font-family="Arial" font-size="13px" font-style="normal" font-weight="normal" text-decoration="none" x="397" y="1056.5">-name: String</text></g></g><g transform="translate(-6,-102) scale(1,1)"><rect fill="#C0C0C0" stroke="none" x="599" y="1111" width="194.66259765625" height="96" opacity="0.2"/></g><g transform="translate(-6,-102) scale(1,1)"><rect fill="#ffffff" stroke="none" x="592" y="1104" width="194.66259765625" height="96"/></g><g transform="translate(-6,-102) scale(1,1)"><path fill="none" stroke="#000000" d="M 592 1104 L 786.66259765625 1104 L 786.66259765625 1200 L 592 1200 L 592 1104 Z Z" stroke-miterlimit="10"/></g><g transform="translate(-6,-102) scale(1,1)"><path fill="none" stroke="#000000" d="M 592 1144 L 786.66259765625 1144" stroke-miterlimit="10"/></g><g transform="translate(-6,-102) scale(1,1)"><path fill="none" stroke="#000000" d="M 592 1154 L 786.66259765625 1154" stroke-miterlimit="10"/></g><g transform="translate(-6,-102) scale(1,1)"><g><path fill="none" stroke="none"/><text fill="#000000" stroke="none" font-family="Arial" font-size="13px" font-style="italic" font-weight="bold" text-decoration="none" x="661.1572265625" y="1123.5">Customer</text></g></g><g transform="translate(-6,-102) scale(1,1)"><g><path fill="none" stroke="none"/><text fill="#000000" stroke="none" font-family="Arial" font-size="13px" font-style="normal" font-weight="normal" text-decoration="none" x="600.83544921875" y="1138.5">(from Application CRM Mobile)</text></g></g><g transform="translate(-6,-102) scale(1,1)"><g><path fill="none" stroke="none"/><text fill="#000000" stroke="none" font-family="Arial" font-size="13px" font-style="normal" font-weight="normal" text-decoration="none" x="597" y="1171.5">+getAdress()</text></g></g><g transform="translate(-6,-102) scale(1,1)"><rect fill="#C0C0C0" stroke="none" x="343" y="871" width="189" height="102" opacity="0.2"/></g><g transform="translate(-6,-102) scale(1,1)"><rect fill="#ffffff" stroke="none" x="336" y="864" width="189" height="102"/></g><g transform="translate(-6,-102) scale(1,1)"><path fill="none" stroke="#000000" d="M 336 864 L 525 864 L 525 966 L 336 966 L 336 864 Z Z" stroke-miterlimit="10"/></g><g transform="translate(-6,-102) scale(1,1)"><path fill="none" stroke="#000000" d="M 336 904 L 525 904" stroke-miterlimit="10"/></g><g transform="translate(-6,-102) scale(1,1)"><path fill="none" stroke="#000000" d="M 336 957 L 525 957" stroke-miterlimit="10"/></g><g transform="translate(-6,-102) scale(1,1)"><g><path fill="none" stroke="none"/><text fill="#000000" stroke="none" font-family="Arial" font-size="13px" font-style="normal" font-weight="bold" text-decoration="none" x="377.02734375" y="883.5">PurchasingCentral</text></g></g><g transform="translate(-6,-102) scale(1,1)"><g><path fill="none" stroke="none"/><text fill="#000000" stroke="none" font-family="Arial" font-size="13px" font-style="normal" font-weight="normal" text-decoration="none" x="342.004150390625" y="898.5">(from Application CRM Mobile)</text></g></g><g transform="translate(-6,-102) scale(1,1)"><g><path fill="none" stroke="none"/><text fill="#000000" stroke="none" font-family="Arial" font-size="13px" font-style="normal" font-weight="normal" text-decoration="none" x="341" y="921.5">-id: int</text></g></g><g transform="translate(-6,-102) scale(1,1)"><g><path fill="none" stroke="none"/><text fill="#000000" stroke="none" font-family="Arial" font-size="13px" font-style="normal" font-weight="normal" text-decoration="none" x="341" y="936.5">-name: String</text></g></g><g transform="translate(-6,-102) scale(1,1)"><g><path fill="none" stroke="none"/><text fill="#000000" stroke="none" font-family="Arial" font-size="13px" font-style="normal" font-weight="normal" text-decoration="none" x="341" y="951.5">+type: String</text></g></g></g></svg>