<svg version="1.1" xmlns="http://www.w3.org/2000/svg" xmlns:xlink="http://www.w3.org/1999/xlink" width="788" height="436"><defs/><g><g transform="translate(-62,-78) scale(1,1)"><rect fill="#C0C0C0" stroke="none" x="391" y="279" width="129.30712890625" height="72" opacity="0.2"/></g><g transform="translate(-62,-78) scale(1,1)"><rect fill="#ffffff" stroke="none" x="384" y="272" width="129.30712890625" height="72"/></g><g transform="translate(-62,-78) scale(1,1)"><path fill="none" stroke="#000000" d="M 384 272 L 513.30712890625 272 L 513.30712890625 344 L 384 344 L 384 272 Z Z" stroke-miterlimit="10"/></g><g transform="translate(-62,-78) scale(1,1)"><path fill="none" stroke="#000000" d="M 384 297 L 513.30712890625 297" stroke-miterlimit="10"/></g><g transform="translate(-62,-78) scale(1,1)"><path fill="none" stroke="#000000" d="M 384 335 L 513.30712890625 335" stroke-miterlimit="10"/></g><g transform="translate(-62,-78) scale(1,1)"><g><path fill="none" stroke="none"/><text fill="#000000" stroke="none" font-family="Arial" font-size="13px" font-style="normal" font-weight="bold" text-decoration="none" x="416.864501953125" y="291.5">VisitReport</text></g></g><g transform="translate(-62,-78) scale(1,1)"><g><path fill="none" stroke="none"/><text fill="#000000" stroke="none" font-family="Arial" font-size="13px" font-style="normal" font-weight="normal" text-decoration="none" x="389" y="314.5">+int: idReport</text></g></g><g transform="translate(-62,-78) scale(1,1)"><g><path fill="none" stroke="none"/><text fill="#000000" stroke="none" font-family="Arial" font-size="13px" font-style="normal" font-weight="normal" text-decoration="none" x="389" y="329.5">+Product: listProduct</text></g></g><g transform="translate(-62,-78) scale(1,1)"><rect fill="#C0C0C0" stroke="none" x="79" y="95" width="96" height="57" opacity="0.2"/></g><g transform="translate(-62,-78) scale(1,1)"><rect fill="#ffffff" stroke="none" x="72" y="88" width="96" height="57"/></g><g transform="translate(-62,-78) scale(1,1)"><path fill="none" stroke="#000000" d="M 72 88 L 168 88 L 168 145 L 72 145 L 72 88 Z Z" stroke-miterlimit="10"/></g><g transform="translate(-62,-78) scale(1,1)"><path fill="none" stroke="#000000" d="M 72 113 L 168 113" stroke-miterlimit="10"/></g><g transform="translate(-62,-78) scale(1,1)"><path fill="none" stroke="#000000" d="M 72 136 L 168 136" stroke-miterlimit="10"/></g><g transform="translate(-62,-78) scale(1,1)"><g><path fill="none" stroke="none"/><text fill="#000000" stroke="none" font-family="Arial" font-size="13px" font-style="normal" font-weight="bold" text-decoration="none" x="97.59912109375" y="107.5">Contact</text></g></g><g transform="translate(-62,-78) scale(1,1)"><g><path fill="none" stroke="none"/><text fill="#000000" stroke="none" font-family="Arial" font-size="13px" font-style="normal" font-weight="normal" text-decoration="none" x="77" y="130.5">+int: idContact</text></g></g><g transform="translate(-62,-78) scale(1,1)"><rect fill="#C0C0C0" stroke="none" x="79" y="311" width="87" height="57" opacity="0.2"/></g><g transform="translate(-62,-78) scale(1,1)"><rect fill="#ffffff" stroke="none" x="72" y="304" width="87" height="57"/></g><g transform="translate(-62,-78) scale(1,1)"><path fill="none" stroke="#000000" d="M 72 304 L 159 304 L 159 361 L 72 361 L 72 304 Z Z" stroke-miterlimit="10"/></g><g transform="translate(-62,-78) scale(1,1)"><path fill="none" stroke="#000000" d="M 72 329 L 159 329" stroke-miterlimit="10"/></g><g transform="translate(-62,-78) scale(1,1)"><path fill="none" stroke="#000000" d="M 72 352 L 159 352" stroke-miterlimit="10"/></g><g transform="translate(-62,-78) scale(1,1)"><g><path fill="none" stroke="none"/><text fill="#000000" stroke="none" font-family="Arial" font-size="13px" font-style="normal" font-weight="bold" text-decoration="none" x="98.8818359375" y="323.5">Client</text></g></g><g transform="translate(-62,-78) scale(1,1)"><g><path fill="none" stroke="none"/><text fill="#000000" stroke="none" font-family="Arial" font-size="13px" font-style="normal" font-weight="normal" text-decoration="none" x="77" y="346.5">+int: idClient</text></g></g><g transform="translate(-62,-78) scale(1,1)"><rect fill="#C0C0C0" stroke="none" x="703" y="279" width="144" height="72" opacity="0.2"/></g><g transform="translate(-62,-78) scale(1,1)"><rect fill="#ffffff" stroke="none" x="696" y="272" width="144" height="72"/></g><g transform="translate(-62,-78) scale(1,1)"><path fill="none" stroke="#000000" d="M 696 272 L 840 272 L 840 344 L 696 344 L 696 272 Z Z" stroke-miterlimit="10"/></g><g transform="translate(-62,-78) scale(1,1)"><path fill="none" stroke="#000000" d="M 696 297 L 840 297" stroke-miterlimit="10"/></g><g transform="translate(-62,-78) scale(1,1)"><path fill="none" stroke="#000000" d="M 696 335 L 840 335" stroke-miterlimit="10"/></g><g transform="translate(-62,-78) scale(1,1)"><g><path fill="none" stroke="none"/><text fill="#000000" stroke="none" font-family="Arial" font-size="13px" font-style="normal" font-weight="bold" text-decoration="none" x="745.59912109375" y="291.5">Product</text></g></g><g transform="translate(-62,-78) scale(1,1)"><g><path fill="none" stroke="none"/><text fill="#000000" stroke="none" font-family="Arial" font-size="13px" font-style="normal" font-weight="normal" text-decoration="none" x="701" y="314.5">+int: idProduct</text></g></g><g transform="translate(-62,-78) scale(1,1)"><g><path fill="none" stroke="none"/><text fill="#000000" stroke="none" font-family="Arial" font-size="13px" font-style="normal" font-weight="normal" text-decoration="none" x="701" y="329.5">+VisitReport: listReport</text></g></g><g transform="translate(-62,-78) scale(1,1)"><path fill="none" stroke="#000000" d="M 514 308 L 695 308" stroke-miterlimit="10"/></g><g transform="translate(-62,-78) scale(1,1)"><g><path fill="none" stroke="none"/><text fill="#000000" stroke="none" font-family="Arial" font-size="13px" font-style="normal" font-weight="normal" text-decoration="none" x="514" y="300">+listReport</text></g></g><g transform="translate(-62,-78) scale(1,1)"><g><path fill="none" stroke="none"/><text fill="#000000" stroke="none" font-family="Arial" font-size="13px" font-style="normal" font-weight="normal" text-decoration="none" x="526" y="327">0..*</text></g></g><g transform="translate(-62,-78) scale(1,1)"><g><path fill="none" stroke="none"/><text fill="#000000" stroke="none" font-family="Arial" font-size="13px" font-style="normal" font-weight="normal" text-decoration="none" x="615" y="299">+listProduct</text></g></g><g transform="translate(-62,-78) scale(1,1)"><g><path fill="none" stroke="none"/><text fill="#000000" stroke="none" font-family="Arial" font-size="13px" font-style="normal" font-weight="normal" text-decoration="none" x="664" y="327">0..*</text></g></g><g transform="translate(-62,-78) scale(1,1)"><rect fill="#C0C0C0" stroke="none" x="207" y="439" width="104" height="72" opacity="0.2"/></g><g transform="translate(-62,-78) scale(1,1)"><rect fill="#ffffff" stroke="none" x="200" y="432" width="104" height="72"/></g><g transform="translate(-62,-78) scale(1,1)"><path fill="none" stroke="#000000" d="M 200 432 L 304 432 L 304 504 L 200 504 L 200 432 Z Z" stroke-miterlimit="10"/></g><g transform="translate(-62,-78) scale(1,1)"><path fill="none" stroke="#000000" d="M 200 457 L 304 457" stroke-miterlimit="10"/></g><g transform="translate(-62,-78) scale(1,1)"><path fill="none" stroke="#000000" d="M 200 495 L 304 495" stroke-miterlimit="10"/></g><g transform="translate(-62,-78) scale(1,1)"><g><path fill="none" stroke="none"/><text fill="#000000" stroke="none" font-family="Arial" font-size="13px" font-style="normal" font-weight="bold" text-decoration="none" x="217.3291015625" y="451.5">Commercial</text></g></g><g transform="translate(-62,-78) scale(1,1)"><g><path fill="none" stroke="none"/><text fill="#000000" stroke="none" font-family="Arial" font-size="13px" font-style="normal" font-weight="normal" text-decoration="none" x="205" y="474.5">+int: idVisit</text></g></g><g transform="translate(-62,-78) scale(1,1)"><g><path fill="none" stroke="none"/><text fill="#000000" stroke="none" font-family="Arial" font-size="13px" font-style="normal" font-weight="normal" text-decoration="none" x="205" y="489.5">+Visit: listVisit</text></g></g><g transform="translate(-62,-78) scale(1,1)"><path fill="none" stroke="#000000" d="M 116 303 L 119 146" stroke-miterlimit="10"/></g><g transform="translate(-62,-78) scale(1,1)"><path fill="#000000" stroke="none" d="M 123.01459366657308 156.24124199949944 L 119 146 L 114.59709473972386 156.0803980709609 L 118.5796945596927 167.99598470941567"/></g><g transform="translate(-62,-78) scale(1,1)"><path fill="none" stroke="#000000" d="M 123.01459366657308 156.24124199949944 L 119 146 L 114.59709473972386 156.0803980709609 L 118.5796945596927 167.99598470941567 L 123.01459366657308 156.24124199949944" stroke-miterlimit="10"/></g><g transform="translate(-62,-78) scale(1,1)"><path fill="none" stroke="#000000" d="M 215 431 L 145 362" stroke-miterlimit="10"/></g><g transform="translate(-62,-78) scale(1,1)"><rect fill="#C0C0C0" stroke="none" x="183" y="183" width="159.61083984375" height="102" opacity="0.2"/></g><g transform="translate(-62,-78) scale(1,1)"><rect fill="#ffffff" stroke="none" x="176" y="176" width="159.61083984375" height="102"/></g><g transform="translate(-62,-78) scale(1,1)"><path fill="none" stroke="#000000" d="M 176 176 L 335.61083984375 176 L 335.61083984375 278 L 176 278 L 176 176 Z Z" stroke-miterlimit="10"/></g><g transform="translate(-62,-78) scale(1,1)"><path fill="none" stroke="#000000" d="M 176 201 L 335.61083984375 201" stroke-miterlimit="10"/></g><g transform="translate(-62,-78) scale(1,1)"><path fill="none" stroke="#000000" d="M 176 254 L 335.61083984375 254" stroke-miterlimit="10"/></g><g transform="translate(-62,-78) scale(1,1)"><g><path fill="none" stroke="none"/><text fill="#000000" stroke="none" font-family="Arial" font-size="13px" font-style="normal" font-weight="bold" text-decoration="none" x="243.52587890625" y="195.5">Visit</text></g></g><g transform="translate(-62,-78) scale(1,1)"><g><path fill="none" stroke="none"/><text fill="#000000" stroke="none" font-family="Arial" font-size="13px" font-style="normal" font-weight="normal" text-decoration="none" x="181" y="218.5">+int: idVisit</text></g></g><g transform="translate(-62,-78) scale(1,1)"><g><path fill="none" stroke="none"/><text fill="#000000" stroke="none" font-family="Arial" font-size="13px" font-style="normal" font-weight="normal" text-decoration="none" x="181" y="233.5">+Commercial: commercial</text></g></g><g transform="translate(-62,-78) scale(1,1)"><g><path fill="none" stroke="none"/><text fill="#000000" stroke="none" font-family="Arial" font-size="13px" font-style="normal" font-weight="normal" text-decoration="none" x="181" y="248.5">+Enum: subject</text></g></g><g transform="translate(-62,-78) scale(1,1)"><path fill="none" stroke="#000000" d="M 252 431 L 254 279" stroke-miterlimit="10"/></g><g transform="translate(-62,-78) scale(1,1)"><g><path fill="none" stroke="none"/><text fill="#000000" stroke="none" font-family="Arial" font-size="13px" font-style="normal" font-weight="normal" text-decoration="none" x="258" y="397">+commercial</text></g></g><g transform="translate(-62,-78) scale(1,1)"><g><path fill="none" stroke="none"/><text fill="#000000" stroke="none" font-family="Arial" font-size="13px" font-style="normal" font-weight="normal" text-decoration="none" x="261" y="416">1</text></g></g><g transform="translate(-62,-78) scale(1,1)"><g><path fill="none" stroke="none"/><text fill="#000000" stroke="none" font-family="Arial" font-size="13px" font-style="normal" font-weight="normal" text-decoration="none" x="259" y="327">+visitList</text></g></g><g transform="translate(-62,-78) scale(1,1)"><g><path fill="none" stroke="none"/><text fill="#000000" stroke="none" font-family="Arial" font-size="13px" font-style="normal" font-weight="normal" text-decoration="none" x="257" y="307">0..*</text></g></g><g transform="translate(-62,-78) scale(1,1)"><path fill="none" stroke="#000000" d="M 337 261 L 383 281" stroke-miterlimit="10"/></g><g transform="translate(-62,-78) scale(1,1)"><path fill="#000000" stroke="none" d="M 372.0016705508489 280.8082988577587 L 383 281 L 375.35855984242164 273.08745348714154 L 362.82445876242883 272.2280255488821"/></g><g transform="translate(-62,-78) scale(1,1)"><path fill="none" stroke="#000000" d="M 372.0016705508489 280.8082988577587 L 383 281 L 375.35855984242164 273.08745348714154 L 362.82445876242883 272.2280255488821 L 372.0016705508489 280.8082988577587" stroke-miterlimit="10"/></g></g></svg>