<svg version="1.1" xmlns="http://www.w3.org/2000/svg" xmlns:xlink="http://www.w3.org/1999/xlink" width="454.11181640625" height="384"><defs/><g><g transform="translate(-142,-54) scale(1,1)"><rect fill="#C0C0C0" stroke="none" x="159" y="279" width="99.2890625" height="44" opacity="0.2"/></g><g transform="translate(-142,-54) scale(1,1)"><rect fill="#ffffff" stroke="none" x="152" y="272" width="99.2890625" height="44"/></g><g transform="translate(-142,-54) scale(1,1)"><path fill="none" stroke="#000000" d="M 152 272 L 251.2890625 272 L 251.2890625 316 L 152 316 L 152 272 Z Z" stroke-miterlimit="10"/></g><g transform="translate(-142,-54) scale(1,1)"><path fill="none" stroke="#000000" d="M 152 297 L 251.2890625 297" stroke-miterlimit="10"/></g><g transform="translate(-142,-54) scale(1,1)"><path fill="none" stroke="#000000" d="M 152 307 L 251.2890625 307" stroke-miterlimit="10"/></g><g transform="translate(-142,-54) scale(1,1)"><g><path fill="none" stroke="none"/><text fill="#000000" stroke="none" font-family="Arial" font-size="13px" font-style="normal" font-weight="bold" text-decoration="none" x="160.102294921875" y="291.5">RestController</text></g></g><g transform="translate(-142,-54) scale(1,1)"><rect fill="#C0C0C0" stroke="none" x="471" y="279" width="50.919921875" height="44" opacity="0.2"/></g><g transform="translate(-142,-54) scale(1,1)"><rect fill="#ffffff" stroke="none" x="464" y="272" width="50.919921875" height="44"/></g><g transform="translate(-142,-54) scale(1,1)"><path fill="none" stroke="#000000" d="M 464 272 L 514.919921875 272 L 514.919921875 316 L 464 316 L 464 272 Z Z" stroke-miterlimit="10"/></g><g transform="translate(-142,-54) scale(1,1)"><path fill="none" stroke="#000000" d="M 464 297 L 514.919921875 297" stroke-miterlimit="10"/></g><g transform="translate(-142,-54) scale(1,1)"><path fill="none" stroke="#000000" d="M 464 307 L 514.919921875 307" stroke-miterlimit="10"/></g><g transform="translate(-142,-54) scale(1,1)"><g><path fill="none" stroke="none"/><text fill="#000000" stroke="none" font-family="Arial" font-size="13px" font-style="normal" font-weight="bold" text-decoration="none" x="475.37451171875" y="291.5">DAO</text></g></g><g transform="translate(-142,-54) scale(1,1)"><path fill="#C0C0C0" stroke="none" d="M 398.7099609375 186.5 C 398.7099609375 180.1487248 403.8586857375 175 410.2099609375 175 C 416.5612361375 175 421.7099609375 180.1487248 421.7099609375 186.5 C 421.7099609375 192.8512752 416.5612361375 198 410.2099609375 198 C 403.8586857375 198 398.7099609375 192.8512752 398.7099609375 186.5 Z" opacity="0.2"/></g><g transform="translate(-142,-54) scale(1,1)"><path fill="#ffffff" stroke="none" d="M 391.7099609375 179.5 C 391.7099609375 173.1487248 396.8586857375 168 403.2099609375 168 C 409.5612361375 168 414.7099609375 173.1487248 414.7099609375 179.5 C 414.7099609375 185.8512752 409.5612361375 191 403.2099609375 191 C 396.8586857375 191 391.7099609375 185.8512752 391.7099609375 179.5 Z"/></g><g transform="translate(-142,-54) scale(1,1)"><path fill="none" stroke="#000000" d="M 391.7099609375 179.5 C 391.7099609375 173.1487248 396.8586857375 168 403.2099609375 168 C 409.5612361375 168 414.7099609375 173.1487248 414.7099609375 179.5 C 414.7099609375 185.8512752 409.5612361375 191 403.2099609375 191 C 396.8586857375 191 391.7099609375 185.8512752 391.7099609375 179.5 Z" stroke-miterlimit="10"/></g><g transform="translate(-142,-54) scale(1,1)"><g><path fill="none" stroke="none"/><text fill="#000000" stroke="none" font-family="Arial" font-size="13px" font-style="normal" font-weight="bold" text-decoration="none" x="384.4208984375" y="210.5">Config</text></g></g><g transform="translate(-142,-54) scale(1,1)"><path fill="none" stroke="#000000" d="M 463 294 L 252 294" stroke-miterlimit="10"/></g><g transform="translate(-142,-54) scale(1,1)"><path fill="none" stroke="#000000" d="M 262.16267485762415 289.790482243984 L 252 294 L 262.16267485762415 298.209517756016" stroke-miterlimit="10"/></g><g transform="translate(-142,-54) scale(1,1)"><path fill="none" stroke="#000000" d="M 424 217 L 470 271" stroke-miterlimit="10"/></g><g transform="translate(-142,-54) scale(1,1)"><path fill="none" stroke="#000000" d="M 460.20537936028256 265.99346362002416 L 470 271 L 466.61431315104414 260.534001501968" stroke-miterlimit="10"/></g><g transform="translate(-142,-54) scale(1,1)"><rect fill="#C0C0C0" stroke="none" x="455" y="391" width="87.70458984375" height="44" opacity="0.2"/></g><g transform="translate(-142,-54) scale(1,1)"><rect fill="#a00000" stroke="none" x="448" y="384" width="87.70458984375" height="44"/></g><g transform="translate(-142,-54) scale(1,1)"><path fill="none" stroke="#000000" d="M 448 384 L 535.70458984375 384 L 535.70458984375 428 L 448 428 L 448 384 Z Z" stroke-miterlimit="10"/></g><g transform="translate(-142,-54) scale(1,1)"><path fill="none" stroke="#000000" d="M 448 409 L 535.70458984375 409" stroke-miterlimit="10"/></g><g transform="translate(-142,-54) scale(1,1)"><path fill="none" stroke="#000000" d="M 448 419 L 535.70458984375 419" stroke-miterlimit="10"/></g><g transform="translate(-142,-54) scale(1,1)"><g><path fill="none" stroke="none"/><text fill="#000000" stroke="none" font-family="Arial" font-size="13px" font-style="normal" font-weight="bold" text-decoration="none" x="455.359619140625" y="403.5">MongoClient</text></g></g><g transform="translate(-142,-54) scale(1,1)"><path fill="none" stroke="#000000" d="M 491 383 L 489 317" stroke-miterlimit="10"/></g><g transform="translate(-142,-54) scale(1,1)"><path fill="none" stroke="#000000" d="M 493.51540488725317 327.0305093940522 L 489 317 L 485.1002322042899 327.2855146268693" stroke-miterlimit="10"/></g><g transform="translate(-142,-54) scale(1,1)"><rect fill="#C0C0C0" stroke="none" x="535" y="71" width="58.11181640625" height="44" opacity="0.2"/></g><g transform="translate(-142,-54) scale(1,1)"><rect fill="#ffffff" stroke="none" x="528" y="64" width="58.11181640625" height="44"/></g><g transform="translate(-142,-54) scale(1,1)"><path fill="none" stroke="#000000" d="M 528 64 L 586.11181640625 64 L 586.11181640625 108 L 528 108 L 528 64 Z Z" stroke-miterlimit="10"/></g><g transform="translate(-142,-54) scale(1,1)"><path fill="none" stroke="#000000" d="M 528 89 L 586.11181640625 89" stroke-miterlimit="10"/></g><g transform="translate(-142,-54) scale(1,1)"><path fill="none" stroke="#000000" d="M 528 99 L 586.11181640625 99" stroke-miterlimit="10"/></g><g transform="translate(-142,-54) scale(1,1)"><g><path fill="none" stroke="none"/><text fill="#000000" stroke="none" font-family="Arial" font-size="13px" font-style="normal" font-weight="bold" text-decoration="none" x="534.655029296875" y="83.5">Product</text></g></g><g transform="translate(-142,-54) scale(1,1)"><rect fill="#C0C0C0" stroke="none" x="391" y="71" width="50.919921875" height="44" opacity="0.2"/></g><g transform="translate(-142,-54) scale(1,1)"><rect fill="#ffffff" stroke="none" x="384" y="64" width="50.919921875" height="44"/></g><g transform="translate(-142,-54) scale(1,1)"><path fill="none" stroke="#000000" d="M 384 64 L 434.919921875 64 L 434.919921875 108 L 384 108 L 384 64 Z Z" stroke-miterlimit="10"/></g><g transform="translate(-142,-54) scale(1,1)"><path fill="none" stroke="#000000" d="M 384 89 L 434.919921875 89" stroke-miterlimit="10"/></g><g transform="translate(-142,-54) scale(1,1)"><path fill="none" stroke="#000000" d="M 384 99 L 434.919921875 99" stroke-miterlimit="10"/></g><g transform="translate(-142,-54) scale(1,1)"><g><path fill="none" stroke="none"/><text fill="#000000" stroke="none" font-family="Arial" font-size="13px" font-style="normal" font-weight="bold" text-decoration="none" x="389.950439453125" y="83.5">Report</text></g></g><g transform="translate(-142,-54) scale(1,1)"><rect fill="#C0C0C0" stroke="none" x="223" y="71" width="70.3818359375" height="44" opacity="0.2"/></g><g transform="translate(-142,-54) scale(1,1)"><rect fill="#ffffff" stroke="none" x="216" y="64" width="70.3818359375" height="44"/></g><g transform="translate(-142,-54) scale(1,1)"><path fill="none" stroke="#000000" d="M 216 64 L 286.3818359375 64 L 286.3818359375 108 L 216 108 L 216 64 Z Z" stroke-miterlimit="10"/></g><g transform="translate(-142,-54) scale(1,1)"><path fill="none" stroke="#000000" d="M 216 89 L 286.3818359375 89" stroke-miterlimit="10"/></g><g transform="translate(-142,-54) scale(1,1)"><path fill="none" stroke="#000000" d="M 216 99 L 286.3818359375 99" stroke-miterlimit="10"/></g><g transform="translate(-142,-54) scale(1,1)"><g><path fill="none" stroke="none"/><text fill="#000000" stroke="none" font-family="Arial" font-size="13px" font-style="normal" font-weight="bold" text-decoration="none" x="223.00732421875" y="83.5">Reporting</text></g></g><g transform="translate(-142,-54) scale(1,1)"><path fill="none" stroke="#000000" d="M 383 86 L 287 86" stroke-miterlimit="10"/></g><g transform="translate(-142,-54) scale(1,1)"><path fill="none" stroke="#000000" d="M 297.16267485762415 81.79048224398402 L 287 86 L 297.16267485762415 90.20951775601598" stroke-miterlimit="10"/></g><g transform="translate(-142,-54) scale(1,1)"><path fill="none" stroke="#000000" d="M 245 109 L 207 271" stroke-miterlimit="10"/></g><g transform="translate(-142,-54) scale(1,1)"><path fill="none" stroke="#000000" d="M 205.2225639474237 260.1445533910851 L 207 271 L 213.4191228240701 262.0672030041256" stroke-miterlimit="10"/></g></g></svg>