<svg version="1.1" xmlns="http://www.w3.org/2000/svg" xmlns:xlink="http://www.w3.org/1999/xlink" width="1524" height="1324"><defs/><g><g transform="translate(-22,-150) scale(1,1)"><rect fill="#C0C0C0" stroke="none" x="39" y="167" width="601.6" height="15" opacity="0.2"/></g><g transform="translate(-22,-150) scale(1,1)"><rect fill="#C0C0C0" stroke="none" x="39" y="181" width="1504" height="1290" opacity="0.2"/></g><g transform="translate(-22,-150) scale(1,1)"><rect fill="#ffffff" stroke="none" x="32" y="175" width="1504" height="1289"/></g><g transform="translate(-22,-150) scale(1,1)"><path fill="none" stroke="#000000" d="M 32 175 L 1536 175 L 1536 1464 L 32 1464 L 32 175 Z Z" stroke-miterlimit="10"/></g><g transform="translate(-22,-150) scale(1,1)"><rect fill="#ffffff" stroke="none" x="32" y="160" width="601.6" height="15"/></g><g transform="translate(-22,-150) scale(1,1)"><path fill="none" stroke="#000000" d="M 32 160 L 633.6 160 L 633.6 175 L 32 175 L 32 160 Z Z" stroke-miterlimit="10"/></g><g transform="translate(-22,-150) scale(1,1)"><rect fill="#ffffff" stroke="none" x="32" y="174" width="1504" height="1290"/></g><g transform="translate(-22,-150) scale(1,1)"><path fill="none" stroke="#000000" d="M 32 174 L 1536 174 L 1536 1464 L 32 1464 L 32 174 Z Z" stroke-miterlimit="10"/></g><g transform="translate(-22,-150) scale(1,1)"><g><path fill="none" stroke="none"/><text fill="#000000" stroke="none" font-family="Arial" font-size="13px" font-style="normal" font-weight="bold" text-decoration="none" x="740.286865234375" y="194.5">android-crmtab</text></g></g><g transform="translate(-22,-150) scale(1,1)"><rect fill="#C0C0C0" stroke="none" x="503" y="207" width="510.76318359375" height="173" opacity="0.2"/></g><g transform="translate(-22,-150) scale(1,1)"><rect fill="#ffffff" stroke="none" x="496" y="200" width="510.76318359375" height="173"/></g><g transform="translate(-22,-150) scale(1,1)"><path fill="none" stroke="#000000" d="M 496 200 L 1006.76318359375 200 L 1006.76318359375 373 L 496 373 L 496 200 Z Z" stroke-miterlimit="10"/></g><g transform="translate(-22,-150) scale(1,1)"><path fill="none" stroke="#000000" d="M 496 238 L 1006.76318359375 238" stroke-miterlimit="10"/></g><g transform="translate(-22,-150) scale(1,1)"><path fill="none" stroke="#000000" d="M 496 306 L 1006.76318359375 306" stroke-miterlimit="10"/></g><g transform="translate(-22,-150) scale(1,1)"><g><path fill="none" stroke="none"/><text fill="#000000" stroke="none" font-family="Arial" font-size="13px" font-style="normal" font-weight="normal" text-decoration="none" x="710.915283203125" y="217.5">«ViewHolder»</text></g></g><g transform="translate(-22,-150) scale(1,1)"><g><path fill="none" stroke="none"/><text fill="#000000" stroke="none" font-family="Arial" font-size="13px" font-style="normal" font-weight="bold" text-decoration="none" x="679.856201171875" y="232.5">CustomerListViewHolder</text></g></g><g transform="translate(-22,-150) scale(1,1)"><g><path fill="none" stroke="none"/><text fill="#000000" stroke="none" font-family="Arial" font-size="13px" font-style="normal" font-weight="normal" text-decoration="none" x="501" y="255.5">-name: TextView</text></g></g><g transform="translate(-22,-150) scale(1,1)"><g><path fill="none" stroke="none"/><text fill="#000000" stroke="none" font-family="Arial" font-size="13px" font-style="normal" font-weight="normal" text-decoration="none" x="501" y="270.5">-image: ImageView</text></g></g><g transform="translate(-22,-150) scale(1,1)"><g><path fill="none" stroke="none"/><text fill="#000000" stroke="none" font-family="Arial" font-size="13px" font-style="normal" font-weight="normal" text-decoration="none" x="501" y="285.5">-listCustomerAdapter: ListCustomerAdapter</text></g></g><g transform="translate(-22,-150) scale(1,1)"><g><path fill="none" stroke="none"/><text fill="#000000" stroke="none" font-family="Arial" font-size="13px" font-style="normal" font-weight="normal" text-decoration="none" x="501" y="300.5">-customers: List&lt;Customer&gt;</text></g></g><g transform="translate(-22,-150) scale(1,1)"><g><path fill="none" stroke="none"/><text fill="#000000" stroke="none" font-family="Arial" font-size="13px" font-style="normal" font-weight="normal" text-decoration="none" x="501" y="323.5">+CustomerListViewHolder(itemView: View, listCustomerAdapter: ListCustomerAdapter)</text></g></g><g transform="translate(-22,-150) scale(1,1)"><g><path fill="none" stroke="none"/><text fill="#000000" stroke="none" font-family="Arial" font-size="13px" font-style="normal" font-weight="normal" text-decoration="none" x="501" y="338.5">+onClick(v: View)</text></g></g><g transform="translate(-22,-150) scale(1,1)"><g><path fill="none" stroke="none"/><text fill="#000000" stroke="none" font-family="Arial" font-size="13px" font-style="normal" font-weight="normal" text-decoration="none" x="501" y="353.5">+startDetailHCFragment(healthCenter: HealthCenter)</text></g></g><g transform="translate(-22,-150) scale(1,1)"><g><path fill="none" stroke="none"/><text fill="#000000" stroke="none" font-family="Arial" font-size="13px" font-style="normal" font-weight="normal" text-decoration="none" x="501" y="368.5">+startDetailIndepFragment(independant: Independant)</text></g></g><g transform="translate(-22,-150) scale(1,1)"><rect fill="#C0C0C0" stroke="none" x="439" y="1015" width="216" height="312" opacity="0.2"/></g><g transform="translate(-22,-150) scale(1,1)"><rect fill="#ffffff" stroke="none" x="432" y="1008" width="216" height="312"/></g><g transform="translate(-22,-150) scale(1,1)"><path fill="none" stroke="#000000" d="M 432 1008 L 648 1008 L 648 1320 L 432 1320 L 432 1008 Z Z" stroke-miterlimit="10"/></g><g transform="translate(-22,-150) scale(1,1)"><path fill="none" stroke="#000000" d="M 432 1033 L 648 1033" stroke-miterlimit="10"/></g><g transform="translate(-22,-150) scale(1,1)"><path fill="none" stroke="#000000" d="M 432 1296 L 648 1296" stroke-miterlimit="10"/></g><g transform="translate(-22,-150) scale(1,1)"><g><path fill="none" stroke="none"/><text fill="#000000" stroke="none" font-family="Arial" font-size="13px" font-style="normal" font-weight="bold" text-decoration="none" x="501.701416015625" y="1027.5">HealthCenter</text></g></g><g transform="translate(-22,-150) scale(1,1)"><g><path fill="none" stroke="none"/><text fill="#000000" stroke="none" font-family="Arial" font-size="13px" font-style="normal" font-weight="normal" text-decoration="none" x="437" y="1050.5">-siretNumber: int</text></g></g><g transform="translate(-22,-150) scale(1,1)"><g><path fill="none" stroke="none"/><text fill="#000000" stroke="none" font-family="Arial" font-size="13px" font-style="normal" font-weight="normal" text-decoration="none" x="437" y="1065.5">-name: String</text></g></g><g transform="translate(-22,-150) scale(1,1)"><g><path fill="none" stroke="none"/><text fill="#000000" stroke="none" font-family="Arial" font-size="13px" font-style="normal" font-weight="normal" text-decoration="none" x="437" y="1080.5">-finessNumber: int</text></g></g><g transform="translate(-22,-150) scale(1,1)"><g><path fill="none" stroke="none"/><text fill="#000000" stroke="none" font-family="Arial" font-size="13px" font-style="normal" font-weight="normal" text-decoration="none" x="437" y="1095.5">-streetNumber: String</text></g></g><g transform="translate(-22,-150) scale(1,1)"><g><path fill="none" stroke="none"/><text fill="#000000" stroke="none" font-family="Arial" font-size="13px" font-style="normal" font-weight="normal" text-decoration="none" x="437" y="1110.5">-streetName: String</text></g></g><g transform="translate(-22,-150) scale(1,1)"><g><path fill="none" stroke="none"/><text fill="#000000" stroke="none" font-family="Arial" font-size="13px" font-style="normal" font-weight="normal" text-decoration="none" x="437" y="1125.5">-city: String</text></g></g><g transform="translate(-22,-150) scale(1,1)"><g><path fill="none" stroke="none"/><text fill="#000000" stroke="none" font-family="Arial" font-size="13px" font-style="normal" font-weight="normal" text-decoration="none" x="437" y="1140.5">-zipCode: int</text></g></g><g transform="translate(-22,-150) scale(1,1)"><g><path fill="none" stroke="none"/><text fill="#000000" stroke="none" font-family="Arial" font-size="13px" font-style="normal" font-weight="normal" text-decoration="none" x="437" y="1155.5">-longitude: double</text></g></g><g transform="translate(-22,-150) scale(1,1)"><g><path fill="none" stroke="none"/><text fill="#000000" stroke="none" font-family="Arial" font-size="13px" font-style="normal" font-weight="normal" text-decoration="none" x="437" y="1170.5">-latitude: double</text></g></g><g transform="translate(-22,-150) scale(1,1)"><g><path fill="none" stroke="none"/><text fill="#000000" stroke="none" font-family="Arial" font-size="13px" font-style="normal" font-weight="normal" text-decoration="none" x="437" y="1185.5">-webSite: String</text></g></g><g transform="translate(-22,-150) scale(1,1)"><g><path fill="none" stroke="none"/><text fill="#000000" stroke="none" font-family="Arial" font-size="13px" font-style="normal" font-weight="normal" text-decoration="none" x="437" y="1200.5">-serviceBuildingImage: int</text></g></g><g transform="translate(-22,-150) scale(1,1)"><g><path fill="none" stroke="none"/><text fill="#000000" stroke="none" font-family="Arial" font-size="13px" font-style="normal" font-weight="normal" text-decoration="none" x="437" y="1215.5">-origin: String</text></g></g><g transform="translate(-22,-150) scale(1,1)"><g><path fill="none" stroke="none"/><text fill="#000000" stroke="none" font-family="Arial" font-size="13px" font-style="normal" font-weight="normal" text-decoration="none" x="437" y="1230.5">-isPublic: boolean</text></g></g><g transform="translate(-22,-150) scale(1,1)"><g><path fill="none" stroke="none"/><text fill="#000000" stroke="none" font-family="Arial" font-size="13px" font-style="normal" font-weight="normal" text-decoration="none" x="437" y="1245.5">-difficultyHaveContact: int</text></g></g><g transform="translate(-22,-150) scale(1,1)"><g><path fill="none" stroke="none"/><text fill="#000000" stroke="none" font-family="Arial" font-size="13px" font-style="normal" font-weight="normal" text-decoration="none" x="437" y="1260.5">-bedNumber: int</text></g></g><g transform="translate(-22,-150) scale(1,1)"><g><path fill="none" stroke="none"/><text fill="#000000" stroke="none" font-family="Arial" font-size="13px" font-style="normal" font-weight="normal" text-decoration="none" x="437" y="1275.5">+holdingId: long</text></g></g><g transform="translate(-22,-150) scale(1,1)"><g><path fill="none" stroke="none"/><text fill="#000000" stroke="none" font-family="Arial" font-size="13px" font-style="normal" font-weight="normal" text-decoration="none" x="437" y="1290.5">+purchasingCentralId: long</text></g></g><g transform="translate(-22,-150) scale(1,1)"><path fill="none" stroke="#000000" d="M 404 798 L 481 1007" stroke-miterlimit="10"/></g><g transform="translate(-22,-150) scale(1,1)"><path fill="none" stroke="#000000" d="M 473.53673683022225 998.9191768452317 L 481 1007 L 481.4366808531763 996.0086711525645" stroke-miterlimit="10"/></g><g transform="translate(-22,-150) scale(1,1)"><path fill="none" stroke="#000000" d="M 1207 760 L 1191 871" stroke-miterlimit="10"/></g><g transform="translate(-22,-150) scale(1,1)"><path fill="none" stroke="#000000" d="M 1188.2834488405167 860.3407153242861 L 1191 871 L 1196.6163607304843 861.541855776894" stroke-miterlimit="10"/></g><g transform="translate(-22,-150) scale(1,1)"><rect fill="#C0C0C0" stroke="none" x="687" y="671" width="194.66259765625" height="80" opacity="0.2"/></g><g transform="translate(-22,-150) scale(1,1)"><rect fill="#ffffff" stroke="none" x="680" y="664" width="194.66259765625" height="80"/></g><g transform="translate(-22,-150) scale(1,1)"><path fill="none" stroke="#000000" d="M 680 664 L 874.66259765625 664 L 874.66259765625 744 L 680 744 L 680 664 Z Z" stroke-miterlimit="10"/></g><g transform="translate(-22,-150) scale(1,1)"><path fill="none" stroke="#000000" d="M 680 689 L 874.66259765625 689" stroke-miterlimit="10"/></g><g transform="translate(-22,-150) scale(1,1)"><path fill="none" stroke="#000000" d="M 680 699 L 874.66259765625 699" stroke-miterlimit="10"/></g><g transform="translate(-22,-150) scale(1,1)"><g><path fill="none" stroke="none"/><text fill="#000000" stroke="none" font-family="Arial" font-size="13px" font-style="italic" font-weight="bold" text-decoration="none" x="749.1572265625" y="683.5">Customer</text></g></g><g transform="translate(-22,-150) scale(1,1)"><g><path fill="none" stroke="none"/><text fill="#000000" stroke="none" font-family="Arial" font-size="13px" font-style="normal" font-weight="normal" text-decoration="none" x="685" y="716.5">+getName(): String</text></g></g><g transform="translate(-22,-150) scale(1,1)"><g><path fill="none" stroke="none"/><text fill="#000000" stroke="none" font-family="Arial" font-size="13px" font-style="normal" font-weight="normal" text-decoration="none" x="685" y="731.5">+getAdress(): String</text></g></g><g transform="translate(-22,-150) scale(1,1)"><rect fill="#C0C0C0" stroke="none" x="1039" y="879" width="280" height="252" opacity="0.2"/></g><g transform="translate(-22,-150) scale(1,1)"><rect fill="#ffffff" stroke="none" x="1032" y="872" width="280" height="252"/></g><g transform="translate(-22,-150) scale(1,1)"><path fill="none" stroke="#000000" d="M 1032 872 L 1312 872 L 1312 1124 L 1032 1124 L 1032 872 Z Z" stroke-miterlimit="10"/></g><g transform="translate(-22,-150) scale(1,1)"><path fill="none" stroke="#000000" d="M 1032 897 L 1312 897" stroke-miterlimit="10"/></g><g transform="translate(-22,-150) scale(1,1)"><path fill="none" stroke="#000000" d="M 1032 1085 L 1312 1085" stroke-miterlimit="10"/></g><g transform="translate(-22,-150) scale(1,1)"><g><path fill="none" stroke="none"/><text fill="#000000" stroke="none" font-family="Arial" font-size="13px" font-style="normal" font-weight="bold" text-decoration="none" x="1135.853271484375" y="891.5">Independent</text></g></g><g transform="translate(-22,-150) scale(1,1)"><g><path fill="none" stroke="none"/><text fill="#000000" stroke="none" font-family="Arial" font-size="13px" font-style="normal" font-weight="normal" text-decoration="none" x="1037" y="914.5">-siretNumber: long</text></g></g><g transform="translate(-22,-150) scale(1,1)"><g><path fill="none" stroke="none"/><text fill="#000000" stroke="none" font-family="Arial" font-size="13px" font-style="normal" font-weight="normal" text-decoration="none" x="1037" y="929.5">-name: String</text></g></g><g transform="translate(-22,-150) scale(1,1)"><g><path fill="none" stroke="none"/><text fill="#000000" stroke="none" font-family="Arial" font-size="13px" font-style="normal" font-weight="normal" text-decoration="none" x="1037" y="944.5">-streetName: String</text></g></g><g transform="translate(-22,-150) scale(1,1)"><g><path fill="none" stroke="none"/><text fill="#000000" stroke="none" font-family="Arial" font-size="13px" font-style="normal" font-weight="normal" text-decoration="none" x="1037" y="959.5">-city: String</text></g></g><g transform="translate(-22,-150) scale(1,1)"><g><path fill="none" stroke="none"/><text fill="#000000" stroke="none" font-family="Arial" font-size="13px" font-style="normal" font-weight="normal" text-decoration="none" x="1037" y="974.5">-zipCode: int</text></g></g><g transform="translate(-22,-150) scale(1,1)"><g><path fill="none" stroke="none"/><text fill="#000000" stroke="none" font-family="Arial" font-size="13px" font-style="normal" font-weight="normal" text-decoration="none" x="1037" y="989.5">-longitude: double</text></g></g><g transform="translate(-22,-150) scale(1,1)"><g><path fill="none" stroke="none"/><text fill="#000000" stroke="none" font-family="Arial" font-size="13px" font-style="normal" font-weight="normal" text-decoration="none" x="1037" y="1004.5">-latitude: double</text></g></g><g transform="translate(-22,-150) scale(1,1)"><g><path fill="none" stroke="none"/><text fill="#000000" stroke="none" font-family="Arial" font-size="13px" font-style="normal" font-weight="normal" text-decoration="none" x="1037" y="1019.5">-webSite: String</text></g></g><g transform="translate(-22,-150) scale(1,1)"><g><path fill="none" stroke="none"/><text fill="#000000" stroke="none" font-family="Arial" font-size="13px" font-style="normal" font-weight="normal" text-decoration="none" x="1037" y="1034.5">-origin: String</text></g></g><g transform="translate(-22,-150) scale(1,1)"><g><path fill="none" stroke="none"/><text fill="#000000" stroke="none" font-family="Arial" font-size="13px" font-style="normal" font-weight="normal" text-decoration="none" x="1037" y="1049.5">-longTermFidelity: int</text></g></g><g transform="translate(-22,-150) scale(1,1)"><g><path fill="none" stroke="none"/><text fill="#000000" stroke="none" font-family="Arial" font-size="13px" font-style="normal" font-weight="normal" text-decoration="none" x="1037" y="1064.5">-companyId: int</text></g></g><g transform="translate(-22,-150) scale(1,1)"><g><path fill="none" stroke="none"/><text fill="#000000" stroke="none" font-family="Arial" font-size="13px" font-style="normal" font-weight="normal" text-decoration="none" x="1037" y="1079.5">-specialtyId: int</text></g></g><g transform="translate(-22,-150) scale(1,1)"><rect fill="#C0C0C0" stroke="none" x="959" y="383" width="568.6728515625" height="383" opacity="0.2"/></g><g transform="translate(-22,-150) scale(1,1)"><rect fill="#ffffff" stroke="none" x="952" y="376" width="568.6728515625" height="383"/></g><g transform="translate(-22,-150) scale(1,1)"><path fill="none" stroke="#000000" d="M 952 376 L 1520.6728515625 376 L 1520.6728515625 759 L 952 759 L 952 376 Z Z" stroke-miterlimit="10"/></g><g transform="translate(-22,-150) scale(1,1)"><path fill="none" stroke="#000000" d="M 952 414 L 1520.6728515625 414" stroke-miterlimit="10"/></g><g transform="translate(-22,-150) scale(1,1)"><path fill="none" stroke="#000000" d="M 952 617 L 1520.6728515625 617" stroke-miterlimit="10"/></g><g transform="translate(-22,-150) scale(1,1)"><g><path fill="none" stroke="none"/><text fill="#000000" stroke="none" font-family="Arial" font-size="13px" font-style="normal" font-weight="normal" text-decoration="none" x="1201.291015625" y="393.5">«Fragment»</text></g></g><g transform="translate(-22,-150) scale(1,1)"><g><path fill="none" stroke="none"/><text fill="#000000" stroke="none" font-family="Arial" font-size="13px" font-style="normal" font-weight="bold" text-decoration="none" x="1175.636962890625" y="408.5">DetailIndepFragment</text></g></g><g transform="translate(-22,-150) scale(1,1)"><g><path fill="none" stroke="none"/><text fill="#000000" stroke="none" font-family="Arial" font-size="13px" font-style="normal" font-weight="normal" text-decoration="none" x="957" y="431.5">+independant: Independant</text></g></g><g transform="translate(-22,-150) scale(1,1)"><g><path fill="none" stroke="none"/><text fill="#000000" stroke="none" font-family="Arial" font-size="13px" font-style="normal" font-weight="normal" text-decoration="none" x="957" y="446.5">+KEY_INDEP_ARGS: String = "INDEP"</text><path fill="none" stroke="#000000" d="M 957 446.5 L 1186.5947265625 446.5" stroke-miterlimit="10"/></g></g><g transform="translate(-22,-150) scale(1,1)"><g><path fill="none" stroke="none"/><text fill="#000000" stroke="none" font-family="Arial" font-size="13px" font-style="normal" font-weight="normal" text-decoration="none" x="957" y="461.5">-name: TextView</text></g></g><g transform="translate(-22,-150) scale(1,1)"><g><path fill="none" stroke="none"/><text fill="#000000" stroke="none" font-family="Arial" font-size="13px" font-style="normal" font-weight="normal" text-decoration="none" x="957" y="476.5">-siretNumber: TextView</text></g></g><g transform="translate(-22,-150) scale(1,1)"><g><path fill="none" stroke="none"/><text fill="#000000" stroke="none" font-family="Arial" font-size="13px" font-style="normal" font-weight="normal" text-decoration="none" x="957" y="491.5">-finessNumber: TextView</text></g></g><g transform="translate(-22,-150) scale(1,1)"><g><path fill="none" stroke="none"/><text fill="#000000" stroke="none" font-family="Arial" font-size="13px" font-style="normal" font-weight="normal" text-decoration="none" x="957" y="506.5">+adress: TextView</text></g></g><g transform="translate(-22,-150) scale(1,1)"><g><path fill="none" stroke="none"/><text fill="#000000" stroke="none" font-family="Arial" font-size="13px" font-style="normal" font-weight="normal" text-decoration="none" x="957" y="521.5">+zipCode: TextView</text></g></g><g transform="translate(-22,-150) scale(1,1)"><g><path fill="none" stroke="none"/><text fill="#000000" stroke="none" font-family="Arial" font-size="13px" font-style="normal" font-weight="normal" text-decoration="none" x="957" y="536.5">+webSite: TextView</text></g></g><g transform="translate(-22,-150) scale(1,1)"><g><path fill="none" stroke="none"/><text fill="#000000" stroke="none" font-family="Arial" font-size="13px" font-style="normal" font-weight="normal" text-decoration="none" x="957" y="551.5">+independantType: TextView</text></g></g><g transform="translate(-22,-150) scale(1,1)"><g><path fill="none" stroke="none"/><text fill="#000000" stroke="none" font-family="Arial" font-size="13px" font-style="normal" font-weight="normal" text-decoration="none" x="957" y="566.5">+company: TextView</text></g></g><g transform="translate(-22,-150) scale(1,1)"><g><path fill="none" stroke="none"/><text fill="#000000" stroke="none" font-family="Arial" font-size="13px" font-style="normal" font-weight="normal" text-decoration="none" x="957" y="581.5">+specialty: TextView</text></g></g><g transform="translate(-22,-150) scale(1,1)"><g><path fill="none" stroke="none"/><text fill="#000000" stroke="none" font-family="Arial" font-size="13px" font-style="normal" font-weight="normal" text-decoration="none" x="957" y="596.5">+longTermFidelity: TextView</text></g></g><g transform="translate(-22,-150) scale(1,1)"><g><path fill="none" stroke="none"/><text fill="#000000" stroke="none" font-family="Arial" font-size="13px" font-style="normal" font-weight="normal" text-decoration="none" x="957" y="611.5">+map: MapView</text></g></g><g transform="translate(-22,-150) scale(1,1)"><g><path fill="none" stroke="none"/><text fill="#000000" stroke="none" font-family="Arial" font-size="13px" font-style="normal" font-weight="normal" text-decoration="none" x="957" y="634.5">+newInstance(): DetailIndepFragment</text></g></g><g transform="translate(-22,-150) scale(1,1)"><g><path fill="none" stroke="none"/><text fill="#000000" stroke="none" font-family="Arial" font-size="13px" font-style="normal" font-weight="normal" text-decoration="none" x="957" y="649.5">+onCreate(savedInstanceState: Bundle)</text></g></g><g transform="translate(-22,-150) scale(1,1)"><g><path fill="none" stroke="none"/><text fill="#000000" stroke="none" font-family="Arial" font-size="13px" font-style="normal" font-weight="normal" text-decoration="none" x="957" y="664.5">+onCreateView(inflater: LayoutInflater, container: ViewGroup, savedInstanceState: Bundle): View</text></g></g><g transform="translate(-22,-150) scale(1,1)"><g><path fill="none" stroke="none"/><text fill="#000000" stroke="none" font-family="Arial" font-size="13px" font-style="normal" font-weight="normal" text-decoration="none" x="957" y="679.5">+onAttach(context: Context)</text></g></g><g transform="translate(-22,-150) scale(1,1)"><g><path fill="none" stroke="none"/><text fill="#000000" stroke="none" font-family="Arial" font-size="13px" font-style="normal" font-weight="normal" text-decoration="none" x="957" y="694.5">+onDetach()</text></g></g><g transform="translate(-22,-150) scale(1,1)"><g><path fill="none" stroke="none"/><text fill="#000000" stroke="none" font-family="Arial" font-size="13px" font-style="normal" font-weight="normal" text-decoration="none" x="957" y="709.5">-initView()</text></g></g><g transform="translate(-22,-150) scale(1,1)"><g><path fill="none" stroke="none"/><text fill="#000000" stroke="none" font-family="Arial" font-size="13px" font-style="normal" font-weight="normal" text-decoration="none" x="957" y="724.5">-initMap()</text></g></g><g transform="translate(-22,-150) scale(1,1)"><g><path fill="none" stroke="none"/><text fill="#000000" stroke="none" font-family="Arial" font-size="13px" font-style="normal" font-weight="normal" text-decoration="none" x="957" y="739.5">-openWebSite()</text></g></g><g transform="translate(-22,-150) scale(1,1)"><path fill="none" stroke="#000000" d="M 756 374 L 774 663" stroke-miterlimit="10"/></g><g transform="translate(-22,-150) scale(1,1)"><path fill="none" stroke="#000000" d="M 769.1668782790654 653.1186572556849 L 774 663 L 777.5696313185609 652.5953023950934" stroke-miterlimit="10"/></g><g transform="translate(-22,-150) scale(1,1)"><g><path fill="none" stroke="none"/><text fill="#000000" stroke="none" font-family="Arial" font-size="13px" font-style="normal" font-weight="normal" text-decoration="none" x="751" y="649">1..*</text></g></g><g transform="translate(-22,-150) scale(1,1)"><path fill="none" stroke="#000000" d="M 1031 893 L 832 745" stroke-miterlimit="10"/></g><g transform="translate(-22,-150) scale(1,1)"><path fill="#FFFFFF" stroke="none" d="M 853.3335437020692 750.3740034529114 L 832 745 L 843.2850991347991 763.8850877021463"/></g><g transform="translate(-22,-150) scale(1,1)"><path fill="none" stroke="#000000" d="M 853.3335437020692 750.3740034529114 L 832 745 L 843.2850991347991 763.8850877021463 L 853.3335437020692 750.3740034529114" stroke-miterlimit="10"/></g><g transform="translate(-22,-150) scale(1,1)"><path fill="none" stroke="#000000" d="M 621 1007 L 756 745" stroke-miterlimit="10"/></g><g transform="translate(-22,-150) scale(1,1)"><path fill="#FFFFFF" stroke="none" d="M 754.1741766643519 766.9241047513234 L 756 745 L 739.2062647970096 759.2116310792196"/></g><g transform="translate(-22,-150) scale(1,1)"><path fill="none" stroke="#000000" d="M 754.1741766643519 766.9241047513234 L 756 745 L 739.2062647970096 759.2116310792196 L 754.1741766643519 766.9241047513234" stroke-miterlimit="10"/></g><g transform="translate(-22,-150) scale(1,1)"><rect fill="#C0C0C0" stroke="none" x="55" y="391" width="557.83740234375" height="413" opacity="0.2"/></g><g transform="translate(-22,-150) scale(1,1)"><rect fill="#ffffff" stroke="none" x="48" y="384" width="557.83740234375" height="413"/></g><g transform="translate(-22,-150) scale(1,1)"><path fill="none" stroke="#000000" d="M 48 384 L 605.83740234375 384 L 605.83740234375 797 L 48 797 L 48 384 Z Z" stroke-miterlimit="10"/></g><g transform="translate(-22,-150) scale(1,1)"><path fill="none" stroke="#000000" d="M 48 422 L 605.83740234375 422" stroke-miterlimit="10"/></g><g transform="translate(-22,-150) scale(1,1)"><path fill="none" stroke="#000000" d="M 48 670 L 605.83740234375 670" stroke-miterlimit="10"/></g><g transform="translate(-22,-150) scale(1,1)"><g><path fill="none" stroke="none"/><text fill="#000000" stroke="none" font-family="Arial" font-size="13px" font-style="normal" font-weight="normal" text-decoration="none" x="291.873291015625" y="401.5">«Fragment»</text></g></g><g transform="translate(-22,-150) scale(1,1)"><g><path fill="none" stroke="none"/><text fill="#000000" stroke="none" font-family="Arial" font-size="13px" font-style="normal" font-weight="bold" text-decoration="none" x="273.096923828125" y="416.5">DetailHCFragment</text></g></g><g transform="translate(-22,-150) scale(1,1)"><g><path fill="none" stroke="none"/><text fill="#000000" stroke="none" font-family="Arial" font-size="13px" font-style="normal" font-weight="normal" text-decoration="none" x="53" y="439.5">-healthCenter: HealthCenter</text></g></g><g transform="translate(-22,-150) scale(1,1)"><g><path fill="none" stroke="none"/><text fill="#000000" stroke="none" font-family="Arial" font-size="13px" font-style="normal" font-weight="normal" text-decoration="none" x="53" y="454.5">+KEY_HC_ARGS: String = "HC"</text><path fill="none" stroke="#000000" d="M 53 454.5 L 240.6875 454.5" stroke-miterlimit="10"/></g></g><g transform="translate(-22,-150) scale(1,1)"><g><path fill="none" stroke="none"/><text fill="#000000" stroke="none" font-family="Arial" font-size="13px" font-style="normal" font-weight="normal" text-decoration="none" x="53" y="469.5">-name: TextView</text></g></g><g transform="translate(-22,-150) scale(1,1)"><g><path fill="none" stroke="none"/><text fill="#000000" stroke="none" font-family="Arial" font-size="13px" font-style="normal" font-weight="normal" text-decoration="none" x="53" y="484.5">-isPublic: TextView</text></g></g><g transform="translate(-22,-150) scale(1,1)"><g><path fill="none" stroke="none"/><text fill="#000000" stroke="none" font-family="Arial" font-size="13px" font-style="normal" font-weight="normal" text-decoration="none" x="53" y="499.5">-siretNumber: TextView</text></g></g><g transform="translate(-22,-150) scale(1,1)"><g><path fill="none" stroke="none"/><text fill="#000000" stroke="none" font-family="Arial" font-size="13px" font-style="normal" font-weight="normal" text-decoration="none" x="53" y="514.5">-finessNumber: TextView</text></g></g><g transform="translate(-22,-150) scale(1,1)"><g><path fill="none" stroke="none"/><text fill="#000000" stroke="none" font-family="Arial" font-size="13px" font-style="normal" font-weight="normal" text-decoration="none" x="53" y="529.5">-adress: TextView</text></g></g><g transform="translate(-22,-150) scale(1,1)"><g><path fill="none" stroke="none"/><text fill="#000000" stroke="none" font-family="Arial" font-size="13px" font-style="normal" font-weight="normal" text-decoration="none" x="53" y="544.5">-zipCode: TextView</text></g></g><g transform="translate(-22,-150) scale(1,1)"><g><path fill="none" stroke="none"/><text fill="#000000" stroke="none" font-family="Arial" font-size="13px" font-style="normal" font-weight="normal" text-decoration="none" x="53" y="559.5">-bedNumber: TextView</text></g></g><g transform="translate(-22,-150) scale(1,1)"><g><path fill="none" stroke="none"/><text fill="#000000" stroke="none" font-family="Arial" font-size="13px" font-style="normal" font-weight="normal" text-decoration="none" x="53" y="574.5">-webSite: TextView</text></g></g><g transform="translate(-22,-150) scale(1,1)"><g><path fill="none" stroke="none"/><text fill="#000000" stroke="none" font-family="Arial" font-size="13px" font-style="normal" font-weight="normal" text-decoration="none" x="53" y="589.5">-etablishmentType: TextView</text></g></g><g transform="translate(-22,-150) scale(1,1)"><g><path fill="none" stroke="none"/><text fill="#000000" stroke="none" font-family="Arial" font-size="13px" font-style="normal" font-weight="normal" text-decoration="none" x="53" y="604.5">-purshasingCentral: TextView</text></g></g><g transform="translate(-22,-150) scale(1,1)"><g><path fill="none" stroke="none"/><text fill="#000000" stroke="none" font-family="Arial" font-size="13px" font-style="normal" font-weight="normal" text-decoration="none" x="53" y="619.5">-holding: TextView</text></g></g><g transform="translate(-22,-150) scale(1,1)"><g><path fill="none" stroke="none"/><text fill="#000000" stroke="none" font-family="Arial" font-size="13px" font-style="normal" font-weight="normal" text-decoration="none" x="53" y="634.5">-difficultyHavingContact: TextView</text></g></g><g transform="translate(-22,-150) scale(1,1)"><g><path fill="none" stroke="none"/><text fill="#000000" stroke="none" font-family="Arial" font-size="13px" font-style="normal" font-weight="normal" text-decoration="none" x="53" y="649.5">-serviceBuilding: TextView</text></g></g><g transform="translate(-22,-150) scale(1,1)"><g><path fill="none" stroke="none"/><text fill="#000000" stroke="none" font-family="Arial" font-size="13px" font-style="normal" font-weight="normal" text-decoration="none" x="53" y="664.5">-map: MapView</text></g></g><g transform="translate(-22,-150) scale(1,1)"><g><path fill="none" stroke="none"/><text fill="#000000" stroke="none" font-family="Arial" font-size="13px" font-style="normal" font-weight="normal" text-decoration="none" x="53" y="687.5">+newInstance(): DetailHCFragment</text></g></g><g transform="translate(-22,-150) scale(1,1)"><g><path fill="none" stroke="none"/><text fill="#000000" stroke="none" font-family="Arial" font-size="13px" font-style="normal" font-weight="normal" text-decoration="none" x="53" y="702.5">-initView()</text></g></g><g transform="translate(-22,-150) scale(1,1)"><g><path fill="none" stroke="none"/><text fill="#000000" stroke="none" font-family="Arial" font-size="13px" font-style="normal" font-weight="normal" text-decoration="none" x="53" y="717.5">+onCreateView(LayoutInflater inflater, ViewGroup container, Bundle savedInstanceState): View</text></g></g><g transform="translate(-22,-150) scale(1,1)"><g><path fill="none" stroke="none"/><text fill="#000000" stroke="none" font-family="Arial" font-size="13px" font-style="normal" font-weight="normal" text-decoration="none" x="53" y="732.5">+onAttach(Context context)</text></g></g><g transform="translate(-22,-150) scale(1,1)"><g><path fill="none" stroke="none"/><text fill="#000000" stroke="none" font-family="Arial" font-size="13px" font-style="normal" font-weight="normal" text-decoration="none" x="53" y="747.5">+onDetach()</text></g></g><g transform="translate(-22,-150) scale(1,1)"><g><path fill="none" stroke="none"/><text fill="#000000" stroke="none" font-family="Arial" font-size="13px" font-style="normal" font-weight="normal" text-decoration="none" x="53" y="762.5">+initView()</text></g></g><g transform="translate(-22,-150) scale(1,1)"><g><path fill="none" stroke="none"/><text fill="#000000" stroke="none" font-family="Arial" font-size="13px" font-style="normal" font-weight="normal" text-decoration="none" x="53" y="777.5">+initMap()</text></g></g><g transform="translate(-22,-150) scale(1,1)"><g><path fill="none" stroke="none"/><text fill="#000000" stroke="none" font-family="Arial" font-size="13px" font-style="normal" font-weight="normal" text-decoration="none" x="53" y="792.5">+openWebSite()</text></g></g><g transform="translate(-22,-150) scale(1,1)"><rect fill="#C0C0C0" stroke="none" x="79" y="1031" width="302.75048828125" height="72" opacity="0.2"/></g><g transform="translate(-22,-150) scale(1,1)"><rect fill="#ffffff" stroke="none" x="72" y="1024" width="302.75048828125" height="72"/></g><g transform="translate(-22,-150) scale(1,1)"><path fill="none" stroke="#000000" d="M 72 1024 L 374.75048828125 1024 L 374.75048828125 1096 L 72 1096 L 72 1024 Z Z" stroke-miterlimit="10"/></g><g transform="translate(-22,-150) scale(1,1)"><path fill="none" stroke="#000000" d="M 72 1049 L 374.75048828125 1049" stroke-miterlimit="10"/></g><g transform="translate(-22,-150) scale(1,1)"><path fill="none" stroke="#000000" d="M 72 1059 L 374.75048828125 1059" stroke-miterlimit="10"/></g><g transform="translate(-22,-150) scale(1,1)"><g><path fill="none" stroke="none"/><text fill="#000000" stroke="none" font-family="Arial" font-size="13px" font-style="normal" font-weight="bold" text-decoration="none" x="177.1357421875" y="1043.5">FormatValidator</text></g></g><g transform="translate(-22,-150) scale(1,1)"><g><path fill="none" stroke="none"/><text fill="#000000" stroke="none" font-family="Arial" font-size="13px" font-style="normal" font-weight="normal" text-decoration="none" x="77" y="1076.5">+isSiretSyntaxValide(String siret): boolean</text><path fill="none" stroke="#000000" d="M 77 1076.5 L 320.87060546875 1076.5" stroke-miterlimit="10"/></g></g><g transform="translate(-22,-150) scale(1,1)"><g><path fill="none" stroke="none"/><text fill="#000000" stroke="none" font-family="Arial" font-size="13px" font-style="normal" font-weight="normal" text-decoration="none" x="77" y="1091.5">+formatUrl(String url): String</text><path fill="none" stroke="#000000" d="M 77 1091.5 L 239.89990234375 1091.5" stroke-miterlimit="10"/></g></g></g></svg>