<svg version="1.1" xmlns="http://www.w3.org/2000/svg" xmlns:xlink="http://www.w3.org/1999/xlink" width="433.2744140625" height="332"><defs/><g><g transform="translate(-254,-222) scale(1,1)"><rect fill="#C0C0C0" stroke="none" x="271" y="319" width="121.70263671875" height="207" opacity="0.2"/></g><g transform="translate(-254,-222) scale(1,1)"><rect fill="#ffffff" stroke="none" x="264" y="312" width="121.70263671875" height="207"/></g><g transform="translate(-254,-222) scale(1,1)"><path fill="none" stroke="#000000" d="M 264 312 L 385.70263671875 312 L 385.70263671875 519 L 264 519 L 264 312 Z Z" stroke-miterlimit="10"/></g><g transform="translate(-254,-222) scale(1,1)"><path fill="none" stroke="#000000" d="M 264 337 L 385.70263671875 337" stroke-miterlimit="10"/></g><g transform="translate(-254,-222) scale(1,1)"><path fill="none" stroke="#000000" d="M 264 495 L 385.70263671875 495" stroke-miterlimit="10"/></g><g transform="translate(-254,-222) scale(1,1)"><g><path fill="none" stroke="none"/><text fill="#000000" stroke="none" font-family="Arial" font-size="13px" font-style="normal" font-weight="bold" text-decoration="none" x="299.200439453125" y="331.5">Prospect</text></g></g><g transform="translate(-254,-222) scale(1,1)"><g><path fill="none" stroke="none"/><text fill="#000000" stroke="none" font-family="Arial" font-size="13px" font-style="normal" font-weight="normal" text-decoration="none" x="269" y="354.5">-id: int</text></g></g><g transform="translate(-254,-222) scale(1,1)"><g><path fill="none" stroke="none"/><text fill="#000000" stroke="none" font-family="Arial" font-size="13px" font-style="normal" font-weight="normal" text-decoration="none" x="269" y="369.5">-name: String</text></g></g><g transform="translate(-254,-222) scale(1,1)"><g><path fill="none" stroke="none"/><text fill="#000000" stroke="none" font-family="Arial" font-size="13px" font-style="normal" font-weight="normal" text-decoration="none" x="269" y="384.5">-finessNumber: int</text></g></g><g transform="translate(-254,-222) scale(1,1)"><g><path fill="none" stroke="none"/><text fill="#000000" stroke="none" font-family="Arial" font-size="13px" font-style="normal" font-weight="normal" text-decoration="none" x="269" y="399.5">-siretNumber: int</text></g></g><g transform="translate(-254,-222) scale(1,1)"><g><path fill="none" stroke="none"/><text fill="#000000" stroke="none" font-family="Arial" font-size="13px" font-style="normal" font-weight="normal" text-decoration="none" x="269" y="414.5">-streetNumber: int</text></g></g><g transform="translate(-254,-222) scale(1,1)"><g><path fill="none" stroke="none"/><text fill="#000000" stroke="none" font-family="Arial" font-size="13px" font-style="normal" font-weight="normal" text-decoration="none" x="269" y="429.5">-zipCode: int</text></g></g><g transform="translate(-254,-222) scale(1,1)"><g><path fill="none" stroke="none"/><text fill="#000000" stroke="none" font-family="Arial" font-size="13px" font-style="normal" font-weight="normal" text-decoration="none" x="269" y="444.5">-streetName: String</text></g></g><g transform="translate(-254,-222) scale(1,1)"><g><path fill="none" stroke="none"/><text fill="#000000" stroke="none" font-family="Arial" font-size="13px" font-style="normal" font-weight="normal" text-decoration="none" x="269" y="459.5">-city: String</text></g></g><g transform="translate(-254,-222) scale(1,1)"><g><path fill="none" stroke="none"/><text fill="#000000" stroke="none" font-family="Arial" font-size="13px" font-style="normal" font-weight="normal" text-decoration="none" x="269" y="474.5">-place: int</text></g></g><g transform="translate(-254,-222) scale(1,1)"><g><path fill="none" stroke="none"/><text fill="#000000" stroke="none" font-family="Arial" font-size="13px" font-style="normal" font-weight="normal" text-decoration="none" x="269" y="489.5">-website: String</text></g></g><g transform="translate(-254,-222) scale(1,1)"><rect fill="#C0C0C0" stroke="none" x="551" y="239" width="133.2744140625" height="87" opacity="0.2"/></g><g transform="translate(-254,-222) scale(1,1)"><rect fill="#ffffff" stroke="none" x="544" y="232" width="133.2744140625" height="87"/></g><g transform="translate(-254,-222) scale(1,1)"><path fill="none" stroke="#000000" d="M 544 232 L 677.2744140625 232 L 677.2744140625 319 L 544 319 L 544 232 Z Z" stroke-miterlimit="10"/></g><g transform="translate(-254,-222) scale(1,1)"><path fill="none" stroke="#000000" d="M 544 257 L 677.2744140625 257" stroke-miterlimit="10"/></g><g transform="translate(-254,-222) scale(1,1)"><path fill="none" stroke="#000000" d="M 544 310 L 677.2744140625 310" stroke-miterlimit="10"/></g><g transform="translate(-254,-222) scale(1,1)"><g><path fill="none" stroke="none"/><text fill="#000000" stroke="none" font-family="Arial" font-size="13px" font-style="normal" font-weight="bold" text-decoration="none" x="594.377685546875" y="251.5">Sales</text></g></g><g transform="translate(-254,-222) scale(1,1)"><g><path fill="none" stroke="none"/><text fill="#000000" stroke="none" font-family="Arial" font-size="13px" font-style="normal" font-weight="normal" text-decoration="none" x="549" y="274.5">-id: int</text></g></g><g transform="translate(-254,-222) scale(1,1)"><g><path fill="none" stroke="none"/><text fill="#000000" stroke="none" font-family="Arial" font-size="13px" font-style="normal" font-weight="normal" text-decoration="none" x="549" y="289.5">-idProspect: Prospect</text></g></g><g transform="translate(-254,-222) scale(1,1)"><g><path fill="none" stroke="none"/><text fill="#000000" stroke="none" font-family="Arial" font-size="13px" font-style="normal" font-weight="normal" text-decoration="none" x="549" y="304.5">-salesValue: double</text></g></g><g transform="translate(-254,-222) scale(1,1)"><rect fill="#C0C0C0" stroke="none" x="551" y="479" width="86.28271484375" height="72" opacity="0.2"/></g><g transform="translate(-254,-222) scale(1,1)"><rect fill="#ffffff" stroke="none" x="544" y="472" width="86.28271484375" height="72"/></g><g transform="translate(-254,-222) scale(1,1)"><path fill="none" stroke="#000000" d="M 544 472 L 630.28271484375 472 L 630.28271484375 544 L 544 544 L 544 472 Z Z" stroke-miterlimit="10"/></g><g transform="translate(-254,-222) scale(1,1)"><path fill="none" stroke="#000000" d="M 544 497 L 630.28271484375 497" stroke-miterlimit="10"/></g><g transform="translate(-254,-222) scale(1,1)"><path fill="none" stroke="#000000" d="M 544 535 L 630.28271484375 535" stroke-miterlimit="10"/></g><g transform="translate(-254,-222) scale(1,1)"><g><path fill="none" stroke="none"/><text fill="#000000" stroke="none" font-family="Arial" font-size="13px" font-style="normal" font-weight="bold" text-decoration="none" x="551.734130859375" y="491.5">Collaborator</text></g></g><g transform="translate(-254,-222) scale(1,1)"><g><path fill="none" stroke="none"/><text fill="#000000" stroke="none" font-family="Arial" font-size="13px" font-style="normal" font-weight="normal" text-decoration="none" x="549" y="514.5">-id: int</text></g></g><g transform="translate(-254,-222) scale(1,1)"><g><path fill="none" stroke="none"/><text fill="#000000" stroke="none" font-family="Arial" font-size="13px" font-style="normal" font-weight="normal" text-decoration="none" x="549" y="529.5">-login: String</text></g></g><g transform="translate(-254,-222) scale(1,1)"><path fill="none" stroke="#000000" d="M 544 496 L 386 496" stroke-miterlimit="10"/></g><g transform="translate(-254,-222) scale(1,1)"><path fill="none" stroke="#000000" d="M 386 384 L 610 384 L 610 319" stroke-miterlimit="10"/></g><g transform="translate(-254,-222) scale(1,1)"><path fill="#000000" stroke="none" d="M 614.209517756016 329.16267485762415 L 610 319 L 605.790482243984 329.16267485762415 L 610 341"/></g><g transform="translate(-254,-222) scale(1,1)"><path fill="none" stroke="#000000" d="M 614.209517756016 329.16267485762415 L 610 319 L 605.790482243984 329.16267485762415 L 610 341 L 614.209517756016 329.16267485762415" stroke-miterlimit="10"/></g></g></svg>