<svg version="1.1" xmlns="http://www.w3.org/2000/svg" xmlns:xlink="http://www.w3.org/1999/xlink" width="748" height="668"><defs/><g><g transform="translate(-297,-153) scale(1,1)"><rect fill="#C0C0C0" stroke="none" x="314" y="170" width="291.20000000000005" height="15" opacity="0.2"/></g><g transform="translate(-297,-153) scale(1,1)"><rect fill="#C0C0C0" stroke="none" x="314" y="184" width="728" height="634" opacity="0.2"/></g><g transform="translate(-297,-153) scale(1,1)"><rect fill="#ffffff" stroke="none" x="307" y="178" width="728" height="633"/></g><g transform="translate(-297,-153) scale(1,1)"><path fill="none" stroke="#000000" d="M 307 178 L 1035 178 L 1035 811 L 307 811 L 307 178 Z Z" stroke-miterlimit="10"/></g><g transform="translate(-297,-153) scale(1,1)"><rect fill="#ffffff" stroke="none" x="307" y="163" width="291.20000000000005" height="15"/></g><g transform="translate(-297,-153) scale(1,1)"><path fill="none" stroke="#000000" d="M 307 163 L 598.2 163 L 598.2 178 L 307 178 L 307 163 Z Z" stroke-miterlimit="10"/></g><g transform="translate(-297,-153) scale(1,1)"><rect fill="#ffffff" stroke="none" x="307" y="177" width="728" height="634"/></g><g transform="translate(-297,-153) scale(1,1)"><path fill="none" stroke="#000000" d="M 307 177 L 1035 177 L 1035 811 L 307 811 L 307 177 Z Z" stroke-miterlimit="10"/></g><g transform="translate(-297,-153) scale(1,1)"><g><path fill="none" stroke="none"/><text fill="#000000" stroke="none" font-family="Arial" font-size="13px" font-style="normal" font-weight="bold" text-decoration="none" x="614.274169921875" y="197.5">miage.pds.prospect</text></g></g><g transform="translate(-297,-153) scale(1,1)"><rect fill="#C0C0C0" stroke="none" x="362" y="258" width="89.60000000000002" height="15" opacity="0.2"/></g><g transform="translate(-297,-153) scale(1,1)"><rect fill="#C0C0C0" stroke="none" x="362" y="272" width="224" height="218" opacity="0.2"/></g><g transform="translate(-297,-153) scale(1,1)"><rect fill="#ffffff" stroke="none" x="355" y="266" width="224" height="217"/></g><g transform="translate(-297,-153) scale(1,1)"><path fill="none" stroke="#000000" d="M 355 266 L 579 266 L 579 483 L 355 483 L 355 266 Z Z" stroke-miterlimit="10"/></g><g transform="translate(-297,-153) scale(1,1)"><rect fill="#ffffff" stroke="none" x="355" y="251" width="89.60000000000002" height="15"/></g><g transform="translate(-297,-153) scale(1,1)"><path fill="none" stroke="#000000" d="M 355 251 L 444.6 251 L 444.6 266 L 355 266 L 355 251 Z Z" stroke-miterlimit="10"/></g><g transform="translate(-297,-153) scale(1,1)"><rect fill="#ffffff" stroke="none" x="355" y="265" width="224" height="218"/></g><g transform="translate(-297,-153) scale(1,1)"><path fill="none" stroke="#000000" d="M 355 265 L 579 265 L 579 483 L 355 483 L 355 265 Z Z" stroke-miterlimit="10"/></g><g transform="translate(-297,-153) scale(1,1)"><g><path fill="none" stroke="none"/><text fill="#000000" stroke="none" font-family="Arial" font-size="13px" font-style="normal" font-weight="bold" text-decoration="none" x="440.266845703125" y="285.5">controller</text></g></g><g transform="translate(-297,-153) scale(1,1)"><rect fill="#C0C0C0" stroke="none" x="618" y="258" width="156.79999999999995" height="15" opacity="0.2"/></g><g transform="translate(-297,-153) scale(1,1)"><rect fill="#C0C0C0" stroke="none" x="618" y="272" width="392" height="351" opacity="0.2"/></g><g transform="translate(-297,-153) scale(1,1)"><rect fill="#ffffff" stroke="none" x="611" y="266" width="392" height="350"/></g><g transform="translate(-297,-153) scale(1,1)"><path fill="none" stroke="#000000" d="M 611 266 L 1003 266 L 1003 616 L 611 616 L 611 266 Z Z" stroke-miterlimit="10"/></g><g transform="translate(-297,-153) scale(1,1)"><rect fill="#ffffff" stroke="none" x="611" y="251" width="156.79999999999995" height="15"/></g><g transform="translate(-297,-153) scale(1,1)"><path fill="none" stroke="#000000" d="M 611 251 L 767.8 251 L 767.8 266 L 611 266 L 611 251 Z Z" stroke-miterlimit="10"/></g><g transform="translate(-297,-153) scale(1,1)"><rect fill="#ffffff" stroke="none" x="611" y="265" width="392" height="351"/></g><g transform="translate(-297,-153) scale(1,1)"><path fill="none" stroke="#000000" d="M 611 265 L 1003 265 L 1003 616 L 611 616 L 611 265 Z Z" stroke-miterlimit="10"/></g><g transform="translate(-297,-153) scale(1,1)"><g><path fill="none" stroke="none"/><text fill="#000000" stroke="none" font-family="Arial" font-size="13px" font-style="normal" font-weight="bold" text-decoration="none" x="789.29638671875" y="285.5">model</text></g></g><g transform="translate(-297,-153) scale(1,1)"><rect fill="#C0C0C0" stroke="none" x="642" y="306" width="121.70263671875" height="235" opacity="0.2"/></g><g transform="translate(-297,-153) scale(1,1)"><rect fill="#ffffff" stroke="none" x="635" y="299" width="121.70263671875" height="235"/></g><g transform="translate(-297,-153) scale(1,1)"><path fill="none" stroke="#000000" d="M 635 299 L 756.70263671875 299 L 756.70263671875 534 L 635 534 L 635 299 Z Z" stroke-miterlimit="10"/></g><g transform="translate(-297,-153) scale(1,1)"><path fill="none" stroke="#000000" d="M 635 324 L 756.70263671875 324" stroke-miterlimit="10"/></g><g transform="translate(-297,-153) scale(1,1)"><path fill="none" stroke="#000000" d="M 635 482 L 756.70263671875 482" stroke-miterlimit="10"/></g><g transform="translate(-297,-153) scale(1,1)"><g><path fill="none" stroke="none"/><text fill="#000000" stroke="none" font-family="Arial" font-size="13px" font-style="normal" font-weight="bold" text-decoration="none" x="670.200439453125" y="318.5">Prospect</text></g></g><g transform="translate(-297,-153) scale(1,1)"><g><path fill="none" stroke="none"/><text fill="#000000" stroke="none" font-family="Arial" font-size="13px" font-style="normal" font-weight="normal" text-decoration="none" x="640" y="341.5">-id: int</text></g></g><g transform="translate(-297,-153) scale(1,1)"><g><path fill="none" stroke="none"/><text fill="#000000" stroke="none" font-family="Arial" font-size="13px" font-style="normal" font-weight="normal" text-decoration="none" x="640" y="356.5">-name: String</text></g></g><g transform="translate(-297,-153) scale(1,1)"><g><path fill="none" stroke="none"/><text fill="#000000" stroke="none" font-family="Arial" font-size="13px" font-style="normal" font-weight="normal" text-decoration="none" x="640" y="371.5">-finessNumber: int</text></g></g><g transform="translate(-297,-153) scale(1,1)"><g><path fill="none" stroke="none"/><text fill="#000000" stroke="none" font-family="Arial" font-size="13px" font-style="normal" font-weight="normal" text-decoration="none" x="640" y="386.5">-siretNumber: int</text></g></g><g transform="translate(-297,-153) scale(1,1)"><g><path fill="none" stroke="none"/><text fill="#000000" stroke="none" font-family="Arial" font-size="13px" font-style="normal" font-weight="normal" text-decoration="none" x="640" y="401.5">-streetNumber: int</text></g></g><g transform="translate(-297,-153) scale(1,1)"><g><path fill="none" stroke="none"/><text fill="#000000" stroke="none" font-family="Arial" font-size="13px" font-style="normal" font-weight="normal" text-decoration="none" x="640" y="416.5">-zipCode: int</text></g></g><g transform="translate(-297,-153) scale(1,1)"><g><path fill="none" stroke="none"/><text fill="#000000" stroke="none" font-family="Arial" font-size="13px" font-style="normal" font-weight="normal" text-decoration="none" x="640" y="431.5">-streetName: String</text></g></g><g transform="translate(-297,-153) scale(1,1)"><g><path fill="none" stroke="none"/><text fill="#000000" stroke="none" font-family="Arial" font-size="13px" font-style="normal" font-weight="normal" text-decoration="none" x="640" y="446.5">-city: String</text></g></g><g transform="translate(-297,-153) scale(1,1)"><g><path fill="none" stroke="none"/><text fill="#000000" stroke="none" font-family="Arial" font-size="13px" font-style="normal" font-weight="normal" text-decoration="none" x="640" y="461.5">-place: int</text></g></g><g transform="translate(-297,-153) scale(1,1)"><g><path fill="none" stroke="none"/><text fill="#000000" stroke="none" font-family="Arial" font-size="13px" font-style="normal" font-weight="normal" text-decoration="none" x="640" y="476.5">-website: String</text></g></g><g transform="translate(-297,-153) scale(1,1)"><g><path fill="none" stroke="none"/><text fill="#000000" stroke="none" font-family="Arial" font-size="13px" font-style="normal" font-weight="normal" text-decoration="none" x="640" y="499.5">+getter()</text></g></g><g transform="translate(-297,-153) scale(1,1)"><g><path fill="none" stroke="none"/><text fill="#000000" stroke="none" font-family="Arial" font-size="13px" font-style="normal" font-weight="normal" text-decoration="none" x="640" y="514.5">+setter()</text></g></g><g transform="translate(-297,-153) scale(1,1)"><g><path fill="none" stroke="none"/><text fill="#000000" stroke="none" font-family="Arial" font-size="13px" font-style="normal" font-weight="normal" text-decoration="none" x="640" y="529.5">+toString()</text></g></g><g transform="translate(-297,-153) scale(1,1)"><rect fill="#C0C0C0" stroke="none" x="842" y="314" width="133.2744140625" height="130" opacity="0.2"/></g><g transform="translate(-297,-153) scale(1,1)"><rect fill="#ffffff" stroke="none" x="835" y="307" width="133.2744140625" height="130"/></g><g transform="translate(-297,-153) scale(1,1)"><path fill="none" stroke="#000000" d="M 835 307 L 968.2744140625 307 L 968.2744140625 437 L 835 437 L 835 307 Z Z" stroke-miterlimit="10"/></g><g transform="translate(-297,-153) scale(1,1)"><path fill="none" stroke="#000000" d="M 835 332 L 968.2744140625 332" stroke-miterlimit="10"/></g><g transform="translate(-297,-153) scale(1,1)"><path fill="none" stroke="#000000" d="M 835 385 L 968.2744140625 385" stroke-miterlimit="10"/></g><g transform="translate(-297,-153) scale(1,1)"><g><path fill="none" stroke="none"/><text fill="#000000" stroke="none" font-family="Arial" font-size="13px" font-style="normal" font-weight="bold" text-decoration="none" x="885.377685546875" y="326.5">Sales</text></g></g><g transform="translate(-297,-153) scale(1,1)"><g><path fill="none" stroke="none"/><text fill="#000000" stroke="none" font-family="Arial" font-size="13px" font-style="normal" font-weight="normal" text-decoration="none" x="840" y="349.5">-id: int</text></g></g><g transform="translate(-297,-153) scale(1,1)"><g><path fill="none" stroke="none"/><text fill="#000000" stroke="none" font-family="Arial" font-size="13px" font-style="normal" font-weight="normal" text-decoration="none" x="840" y="364.5">-idProspect: int</text></g></g><g transform="translate(-297,-153) scale(1,1)"><g><path fill="none" stroke="none"/><text fill="#000000" stroke="none" font-family="Arial" font-size="13px" font-style="normal" font-weight="normal" text-decoration="none" x="840" y="379.5">-salesValue: double</text></g></g><g transform="translate(-297,-153) scale(1,1)"><g><path fill="none" stroke="none"/><text fill="#000000" stroke="none" font-family="Arial" font-size="13px" font-style="normal" font-weight="normal" text-decoration="none" x="840" y="402.5">+getter()</text></g></g><g transform="translate(-297,-153) scale(1,1)"><g><path fill="none" stroke="none"/><text fill="#000000" stroke="none" font-family="Arial" font-size="13px" font-style="normal" font-weight="normal" text-decoration="none" x="840" y="417.5">+setter()</text></g></g><g transform="translate(-297,-153) scale(1,1)"><g><path fill="none" stroke="none"/><text fill="#000000" stroke="none" font-family="Arial" font-size="13px" font-style="normal" font-weight="normal" text-decoration="none" x="840" y="432.5">+toString()</text></g></g><g transform="translate(-297,-153) scale(1,1)"><rect fill="#C0C0C0" stroke="none" x="834" y="490" width="89.57080078125" height="115" opacity="0.2"/></g><g transform="translate(-297,-153) scale(1,1)"><rect fill="#ffffff" stroke="none" x="827" y="483" width="89.57080078125" height="115"/></g><g transform="translate(-297,-153) scale(1,1)"><path fill="none" stroke="#000000" d="M 827 483 L 916.57080078125 483 L 916.57080078125 598 L 827 598 L 827 483 Z Z" stroke-miterlimit="10"/></g><g transform="translate(-297,-153) scale(1,1)"><path fill="none" stroke="#000000" d="M 827 508 L 916.57080078125 508" stroke-miterlimit="10"/></g><g transform="translate(-297,-153) scale(1,1)"><path fill="none" stroke="#000000" d="M 827 546 L 916.57080078125 546" stroke-miterlimit="10"/></g><g transform="translate(-297,-153) scale(1,1)"><g><path fill="none" stroke="none"/><text fill="#000000" stroke="none" font-family="Arial" font-size="13px" font-style="normal" font-weight="bold" text-decoration="none" x="836.378173828125" y="502.5">Collaborator</text></g></g><g transform="translate(-297,-153) scale(1,1)"><g><path fill="none" stroke="none"/><text fill="#000000" stroke="none" font-family="Arial" font-size="13px" font-style="normal" font-weight="normal" text-decoration="none" x="832" y="525.5">-id: int</text></g></g><g transform="translate(-297,-153) scale(1,1)"><g><path fill="none" stroke="none"/><text fill="#000000" stroke="none" font-family="Arial" font-size="13px" font-style="normal" font-weight="normal" text-decoration="none" x="832" y="540.5">-login: String</text></g></g><g transform="translate(-297,-153) scale(1,1)"><g><path fill="none" stroke="none"/><text fill="#000000" stroke="none" font-family="Arial" font-size="13px" font-style="normal" font-weight="normal" text-decoration="none" x="832" y="563.5">+getter()</text></g></g><g transform="translate(-297,-153) scale(1,1)"><g><path fill="none" stroke="none"/><text fill="#000000" stroke="none" font-family="Arial" font-size="13px" font-style="normal" font-weight="normal" text-decoration="none" x="832" y="578.5">+setter()</text></g></g><g transform="translate(-297,-153) scale(1,1)"><g><path fill="none" stroke="none"/><text fill="#000000" stroke="none" font-family="Arial" font-size="13px" font-style="normal" font-weight="normal" text-decoration="none" x="832" y="593.5">+toString()</text></g></g><g transform="translate(-297,-153) scale(1,1)"><path fill="none" stroke="#000000" d="M 757 347 L 835 347" stroke-miterlimit="10"/></g><g transform="translate(-297,-153) scale(1,1)"><path fill="#000000" stroke="none" d="M 824.8373251423759 351.209517756016 L 835 347 L 824.8373251423758 342.790482243984 L 813 347"/></g><g transform="translate(-297,-153) scale(1,1)"><path fill="none" stroke="#000000" d="M 824.8373251423759 351.209517756016 L 835 347 L 824.8373251423758 342.790482243984 L 813 347 L 824.8373251423759 351.209517756016" stroke-miterlimit="10"/></g><g transform="translate(-297,-153) scale(1,1)"><rect fill="#C0C0C0" stroke="none" x="410" y="346" width="126.74267578125" height="57" opacity="0.2"/></g><g transform="translate(-297,-153) scale(1,1)"><rect fill="#ffffff" stroke="none" x="403" y="339" width="126.74267578125" height="57"/></g><g transform="translate(-297,-153) scale(1,1)"><path fill="none" stroke="#000000" d="M 403 339 L 529.74267578125 339 L 529.74267578125 396 L 403 396 L 403 339 Z Z" stroke-miterlimit="10"/></g><g transform="translate(-297,-153) scale(1,1)"><path fill="none" stroke="#000000" d="M 403 364 L 529.74267578125 364" stroke-miterlimit="10"/></g><g transform="translate(-297,-153) scale(1,1)"><path fill="none" stroke="#000000" d="M 403 374 L 529.74267578125 374" stroke-miterlimit="10"/></g><g transform="translate(-297,-153) scale(1,1)"><g><path fill="none" stroke="none"/><text fill="#000000" stroke="none" font-family="Arial" font-size="13px" font-style="normal" font-weight="bold" text-decoration="none" x="412.543212890625" y="358.5">ProspectController</text></g></g><g transform="translate(-297,-153) scale(1,1)"><g><path fill="none" stroke="none"/><text fill="#000000" stroke="none" font-family="Arial" font-size="13px" font-style="normal" font-weight="normal" text-decoration="none" x="408" y="391.5">+analyseProspect()</text></g></g><g transform="translate(-297,-153) scale(1,1)"><rect fill="#C0C0C0" stroke="none" x="346" y="634" width="254.79999999999995" height="15" opacity="0.2"/></g><g transform="translate(-297,-153) scale(1,1)"><rect fill="#C0C0C0" stroke="none" x="346" y="648" width="637" height="146" opacity="0.2"/></g><g transform="translate(-297,-153) scale(1,1)"><rect fill="#ffffff" stroke="none" x="339" y="642" width="637" height="145"/></g><g transform="translate(-297,-153) scale(1,1)"><path fill="none" stroke="#000000" d="M 339 642 L 976 642 L 976 787 L 339 787 L 339 642 Z Z" stroke-miterlimit="10"/></g><g transform="translate(-297,-153) scale(1,1)"><rect fill="#ffffff" stroke="none" x="339" y="627" width="254.79999999999995" height="15"/></g><g transform="translate(-297,-153) scale(1,1)"><path fill="none" stroke="#000000" d="M 339 627 L 593.8 627 L 593.8 642 L 339 642 L 339 627 Z Z" stroke-miterlimit="10"/></g><g transform="translate(-297,-153) scale(1,1)"><rect fill="#ffffff" stroke="none" x="339" y="641" width="637" height="146"/></g><g transform="translate(-297,-153) scale(1,1)"><path fill="none" stroke="#000000" d="M 339 641 L 976 641 L 976 787 L 339 787 L 339 641 Z Z" stroke-miterlimit="10"/></g><g transform="translate(-297,-153) scale(1,1)"><g><path fill="none" stroke="none"/><text fill="#000000" stroke="none" font-family="Arial" font-size="13px" font-style="normal" font-weight="bold" text-decoration="none" x="646.655029296875" y="661.5">dao</text></g></g><g transform="translate(-297,-153) scale(1,1)"><rect fill="#C0C0C0" stroke="none" x="375" y="698" width="111.958984375" height="57" opacity="0.2"/></g><g transform="translate(-297,-153) scale(1,1)"><rect fill="#ffffff" stroke="none" x="368" y="691" width="111.958984375" height="57"/></g><g transform="translate(-297,-153) scale(1,1)"><path fill="none" stroke="#000000" d="M 368 691 L 479.958984375 691 L 479.958984375 748 L 368 748 L 368 691 Z Z" stroke-miterlimit="10"/></g><g transform="translate(-297,-153) scale(1,1)"><path fill="none" stroke="#000000" d="M 368 716 L 479.958984375 716" stroke-miterlimit="10"/></g><g transform="translate(-297,-153) scale(1,1)"><path fill="none" stroke="#000000" d="M 368 726 L 479.958984375 726" stroke-miterlimit="10"/></g><g transform="translate(-297,-153) scale(1,1)"><g><path fill="none" stroke="none"/><text fill="#000000" stroke="none" font-family="Arial" font-size="13px" font-style="normal" font-weight="bold" text-decoration="none" x="386.404541015625" y="710.5">ProspectDao</text></g></g><g transform="translate(-297,-153) scale(1,1)"><g><path fill="none" stroke="none"/><text fill="#000000" stroke="none" font-family="Arial" font-size="13px" font-style="normal" font-weight="normal" text-decoration="none" x="373" y="743.5">+findAllProspect()</text></g></g><g transform="translate(-297,-153) scale(1,1)"><rect fill="#C0C0C0" stroke="none" x="503" y="698" width="236.9697265625" height="87" opacity="0.2"/></g><g transform="translate(-297,-153) scale(1,1)"><rect fill="#ffffff" stroke="none" x="496" y="691" width="236.9697265625" height="87"/></g><g transform="translate(-297,-153) scale(1,1)"><path fill="none" stroke="#000000" d="M 496 691 L 732.9697265625 691 L 732.9697265625 778 L 496 778 L 496 691 Z Z" stroke-miterlimit="10"/></g><g transform="translate(-297,-153) scale(1,1)"><path fill="none" stroke="#000000" d="M 496 716 L 732.9697265625 716" stroke-miterlimit="10"/></g><g transform="translate(-297,-153) scale(1,1)"><path fill="none" stroke="#000000" d="M 496 726 L 732.9697265625 726" stroke-miterlimit="10"/></g><g transform="translate(-297,-153) scale(1,1)"><g><path fill="none" stroke="none"/><text fill="#000000" stroke="none" font-family="Arial" font-size="13px" font-style="normal" font-weight="bold" text-decoration="none" x="586.30126953125" y="710.5">SalesDao</text></g></g><g transform="translate(-297,-153) scale(1,1)"><g><path fill="none" stroke="none"/><text fill="#000000" stroke="none" font-family="Arial" font-size="13px" font-style="normal" font-weight="normal" text-decoration="none" x="501" y="743.5">+findAllSales()</text></g></g><g transform="translate(-297,-153) scale(1,1)"><g><path fill="none" stroke="none"/><text fill="#000000" stroke="none" font-family="Arial" font-size="13px" font-style="normal" font-weight="normal" text-decoration="none" x="501" y="758.5">+findSalesByProspect(idProspect)</text></g></g><g transform="translate(-297,-153) scale(1,1)"><g><path fill="none" stroke="none"/><text fill="#000000" stroke="none" font-family="Arial" font-size="13px" font-style="normal" font-weight="normal" text-decoration="none" x="501" y="773.5">+calculateSalesByProspect(idProspect)</text></g></g><g transform="translate(-297,-153) scale(1,1)"><rect fill="#C0C0C0" stroke="none" x="767" y="695" width="138.70166015625" height="57" opacity="0.2"/></g><g transform="translate(-297,-153) scale(1,1)"><rect fill="#ffffff" stroke="none" x="760" y="688" width="138.70166015625" height="57"/></g><g transform="translate(-297,-153) scale(1,1)"><path fill="none" stroke="#000000" d="M 760 688 L 898.70166015625 688 L 898.70166015625 745 L 760 745 L 760 688 Z Z" stroke-miterlimit="10"/></g><g transform="translate(-297,-153) scale(1,1)"><path fill="none" stroke="#000000" d="M 760 713 L 898.70166015625 713" stroke-miterlimit="10"/></g><g transform="translate(-297,-153) scale(1,1)"><path fill="none" stroke="#000000" d="M 760 723 L 898.70166015625 723" stroke-miterlimit="10"/></g><g transform="translate(-297,-153) scale(1,1)"><g><path fill="none" stroke="none"/><text fill="#000000" stroke="none" font-family="Arial" font-size="13px" font-style="normal" font-weight="bold" text-decoration="none" x="782.01953125" y="707.5">CollaboratorDao</text></g></g><g transform="translate(-297,-153) scale(1,1)"><g><path fill="none" stroke="none"/><text fill="#000000" stroke="none" font-family="Arial" font-size="13px" font-style="normal" font-weight="normal" text-decoration="none" x="765" y="740.5">+findAllCollaborateur()</text></g></g><g transform="translate(-297,-153) scale(1,1)"><path fill="none" stroke="#000000" d="M 530 379 L 635 379" stroke-miterlimit="10"/></g><g transform="translate(-297,-153) scale(1,1)"><path fill="none" stroke="#000000" d="M 624.8373251423759 383.209517756016 L 635 379 L 624.8373251423758 374.790482243984" stroke-miterlimit="10"/></g><g transform="translate(-297,-153) scale(1,1)"><path fill="none" stroke="#000000" d="M 530 379 L 587 379 L 587 536 L 827 536" stroke-miterlimit="10"/></g><g transform="translate(-297,-153) scale(1,1)"><path fill="none" stroke="#000000" d="M 816.8373251423759 540.209517756016 L 827 536 L 816.8373251423758 531.790482243984" stroke-miterlimit="10"/></g><g transform="translate(-297,-153) scale(1,1)"><path fill="none" stroke="#000000" d="M 530 379 L 587 379 L 587 235 L 915 235 L 915 307" stroke-miterlimit="10"/></g><g transform="translate(-297,-153) scale(1,1)"><path fill="none" stroke="#000000" d="M 910.790482243984 296.83732514237585 L 915 307 L 919.209517756016 296.83732514237585" stroke-miterlimit="10"/></g><g transform="translate(-297,-153) scale(1,1)"><path fill="none" stroke="#000000" d="M 467 396 L 467 595 L 427 595 L 427 691" stroke-miterlimit="10"/></g><g transform="translate(-297,-153) scale(1,1)"><path fill="none" stroke="#000000" d="M 422.790482243984 680.8373251423759 L 427 691 L 431.209517756016 680.8373251423759" stroke-miterlimit="10"/></g><g transform="translate(-297,-153) scale(1,1)"><path fill="none" stroke="#000000" d="M 467 396 L 467 595 L 579 595 L 579 691" stroke-miterlimit="10"/></g><g transform="translate(-297,-153) scale(1,1)"><path fill="none" stroke="#000000" d="M 574.790482243984 680.8373251423759 L 579 691 L 583.209517756016 680.8373251423759" stroke-miterlimit="10"/></g><g transform="translate(-297,-153) scale(1,1)"><path fill="none" stroke="#000000" d="M 467 396 L 467 595 L 784 595 L 784 688" stroke-miterlimit="10"/></g><g transform="translate(-297,-153) scale(1,1)"><path fill="none" stroke="#000000" d="M 779.790482243984 677.8373251423759 L 784 688 L 788.209517756016 677.8373251423759" stroke-miterlimit="10"/></g></g></svg>