<svg version="1.1" xmlns="http://www.w3.org/2000/svg" xmlns:xlink="http://www.w3.org/1999/xlink" width="460.2744140625" height="444"><defs/><g><g transform="translate(-462,-190) scale(1,1)"><rect fill="#C0C0C0" stroke="none" x="479" y="399" width="140.87255859375" height="72" opacity="0.2"/></g><g transform="translate(-462,-190) scale(1,1)"><rect fill="#ffffff" stroke="none" x="472" y="392" width="140.87255859375" height="72"/></g><g transform="translate(-462,-190) scale(1,1)"><path fill="none" stroke="#000000" d="M 472 392 L 612.87255859375 392 L 612.87255859375 464 L 472 464 L 472 392 Z Z" stroke-miterlimit="10"/></g><g transform="translate(-462,-190) scale(1,1)"><path fill="none" stroke="#000000" d="M 472 417 L 612.87255859375 417" stroke-miterlimit="10"/></g><g transform="translate(-462,-190) scale(1,1)"><path fill="none" stroke="#000000" d="M 472 427 L 612.87255859375 427" stroke-miterlimit="10"/></g><g transform="translate(-462,-190) scale(1,1)"><g><path fill="none" stroke="none"/><text fill="#000000" stroke="none" font-family="Arial" font-size="13px" font-style="normal" font-weight="bold" text-decoration="none" x="488.608154296875" y="411.5">ProspectController</text></g></g><g transform="translate(-462,-190) scale(1,1)"><g><path fill="none" stroke="none"/><text fill="#000000" stroke="none" font-family="Arial" font-size="13px" font-style="normal" font-weight="normal" text-decoration="none" x="477" y="444.5">+analyseProspect()</text></g></g><g transform="translate(-462,-190) scale(1,1)"><g><path fill="none" stroke="none"/><text fill="#000000" stroke="none" font-family="Arial" font-size="13px" font-style="normal" font-weight="normal" text-decoration="none" x="477" y="459.5">+analyseCollaborator()</text></g></g><g transform="translate(-462,-190) scale(1,1)"><rect fill="#C0C0C0" stroke="none" x="751" y="207" width="121.70263671875" height="192" opacity="0.2"/></g><g transform="translate(-462,-190) scale(1,1)"><rect fill="#ffffff" stroke="none" x="744" y="200" width="121.70263671875" height="192"/></g><g transform="translate(-462,-190) scale(1,1)"><path fill="none" stroke="#000000" d="M 744 200 L 865.70263671875 200 L 865.70263671875 392 L 744 392 L 744 200 Z Z" stroke-miterlimit="10"/></g><g transform="translate(-462,-190) scale(1,1)"><path fill="none" stroke="#000000" d="M 744 225 L 865.70263671875 225" stroke-miterlimit="10"/></g><g transform="translate(-462,-190) scale(1,1)"><path fill="none" stroke="#000000" d="M 744 383 L 865.70263671875 383" stroke-miterlimit="10"/></g><g transform="translate(-462,-190) scale(1,1)"><g><path fill="none" stroke="none"/><text fill="#000000" stroke="none" font-family="Arial" font-size="13px" font-style="normal" font-weight="bold" text-decoration="none" x="779.200439453125" y="219.5">Prospect</text></g></g><g transform="translate(-462,-190) scale(1,1)"><g><path fill="none" stroke="none"/><text fill="#000000" stroke="none" font-family="Arial" font-size="13px" font-style="normal" font-weight="normal" text-decoration="none" x="749" y="242.5">-id: int</text></g></g><g transform="translate(-462,-190) scale(1,1)"><g><path fill="none" stroke="none"/><text fill="#000000" stroke="none" font-family="Arial" font-size="13px" font-style="normal" font-weight="normal" text-decoration="none" x="749" y="257.5">-name: String</text></g></g><g transform="translate(-462,-190) scale(1,1)"><g><path fill="none" stroke="none"/><text fill="#000000" stroke="none" font-family="Arial" font-size="13px" font-style="normal" font-weight="normal" text-decoration="none" x="749" y="272.5">-finessNumber: int</text></g></g><g transform="translate(-462,-190) scale(1,1)"><g><path fill="none" stroke="none"/><text fill="#000000" stroke="none" font-family="Arial" font-size="13px" font-style="normal" font-weight="normal" text-decoration="none" x="749" y="287.5">-siretNumber: int</text></g></g><g transform="translate(-462,-190) scale(1,1)"><g><path fill="none" stroke="none"/><text fill="#000000" stroke="none" font-family="Arial" font-size="13px" font-style="normal" font-weight="normal" text-decoration="none" x="749" y="302.5">-streetNumber: int</text></g></g><g transform="translate(-462,-190) scale(1,1)"><g><path fill="none" stroke="none"/><text fill="#000000" stroke="none" font-family="Arial" font-size="13px" font-style="normal" font-weight="normal" text-decoration="none" x="749" y="317.5">-zipCode: int</text></g></g><g transform="translate(-462,-190) scale(1,1)"><g><path fill="none" stroke="none"/><text fill="#000000" stroke="none" font-family="Arial" font-size="13px" font-style="normal" font-weight="normal" text-decoration="none" x="749" y="332.5">-streetName: String</text></g></g><g transform="translate(-462,-190) scale(1,1)"><g><path fill="none" stroke="none"/><text fill="#000000" stroke="none" font-family="Arial" font-size="13px" font-style="normal" font-weight="normal" text-decoration="none" x="749" y="347.5">-city: String</text></g></g><g transform="translate(-462,-190) scale(1,1)"><g><path fill="none" stroke="none"/><text fill="#000000" stroke="none" font-family="Arial" font-size="13px" font-style="normal" font-weight="normal" text-decoration="none" x="749" y="362.5">-place: int</text></g></g><g transform="translate(-462,-190) scale(1,1)"><g><path fill="none" stroke="none"/><text fill="#000000" stroke="none" font-family="Arial" font-size="13px" font-style="normal" font-weight="normal" text-decoration="none" x="749" y="377.5">-website: String</text></g></g><g transform="translate(-462,-190) scale(1,1)"><rect fill="#C0C0C0" stroke="none" x="767" y="559" width="86.28271484375" height="72" opacity="0.2"/></g><g transform="translate(-462,-190) scale(1,1)"><rect fill="#ffffff" stroke="none" x="760" y="552" width="86.28271484375" height="72"/></g><g transform="translate(-462,-190) scale(1,1)"><path fill="none" stroke="#000000" d="M 760 552 L 846.28271484375 552 L 846.28271484375 624 L 760 624 L 760 552 Z Z" stroke-miterlimit="10"/></g><g transform="translate(-462,-190) scale(1,1)"><path fill="none" stroke="#000000" d="M 760 577 L 846.28271484375 577" stroke-miterlimit="10"/></g><g transform="translate(-462,-190) scale(1,1)"><path fill="none" stroke="#000000" d="M 760 615 L 846.28271484375 615" stroke-miterlimit="10"/></g><g transform="translate(-462,-190) scale(1,1)"><g><path fill="none" stroke="none"/><text fill="#000000" stroke="none" font-family="Arial" font-size="13px" font-style="normal" font-weight="bold" text-decoration="none" x="767.734130859375" y="571.5">Collaborator</text></g></g><g transform="translate(-462,-190) scale(1,1)"><g><path fill="none" stroke="none"/><text fill="#000000" stroke="none" font-family="Arial" font-size="13px" font-style="normal" font-weight="normal" text-decoration="none" x="765" y="594.5">-id: int</text></g></g><g transform="translate(-462,-190) scale(1,1)"><g><path fill="none" stroke="none"/><text fill="#000000" stroke="none" font-family="Arial" font-size="13px" font-style="normal" font-weight="normal" text-decoration="none" x="765" y="609.5">-login: String</text></g></g><g transform="translate(-462,-190) scale(1,1)"><path fill="none" stroke="#000000" d="M 613 432 L 672 432 L 672 304 L 744 304" stroke-miterlimit="10"/></g><g transform="translate(-462,-190) scale(1,1)"><path fill="none" stroke="#000000" d="M 613 432 L 672 432 L 672 588 L 760 588" stroke-miterlimit="10"/></g><g transform="translate(-462,-190) scale(1,1)"><rect fill="#C0C0C0" stroke="none" x="786" y="407" width="133.2744140625" height="87" opacity="0.2"/></g><g transform="translate(-462,-190) scale(1,1)"><rect fill="#ffffff" stroke="none" x="779" y="400" width="133.2744140625" height="87"/></g><g transform="translate(-462,-190) scale(1,1)"><path fill="none" stroke="#000000" d="M 779 400 L 912.2744140625 400 L 912.2744140625 487 L 779 487 L 779 400 Z Z" stroke-miterlimit="10"/></g><g transform="translate(-462,-190) scale(1,1)"><path fill="none" stroke="#000000" d="M 779 425 L 912.2744140625 425" stroke-miterlimit="10"/></g><g transform="translate(-462,-190) scale(1,1)"><path fill="none" stroke="#000000" d="M 779 478 L 912.2744140625 478" stroke-miterlimit="10"/></g><g transform="translate(-462,-190) scale(1,1)"><g><path fill="none" stroke="none"/><text fill="#000000" stroke="none" font-family="Arial" font-size="13px" font-style="normal" font-weight="bold" text-decoration="none" x="829.377685546875" y="419.5">Sales</text></g></g><g transform="translate(-462,-190) scale(1,1)"><g><path fill="none" stroke="none"/><text fill="#000000" stroke="none" font-family="Arial" font-size="13px" font-style="normal" font-weight="normal" text-decoration="none" x="784" y="442.5">-id: int</text></g></g><g transform="translate(-462,-190) scale(1,1)"><g><path fill="none" stroke="none"/><text fill="#000000" stroke="none" font-family="Arial" font-size="13px" font-style="normal" font-weight="normal" text-decoration="none" x="784" y="457.5">-idProspect: Prospect</text></g></g><g transform="translate(-462,-190) scale(1,1)"><g><path fill="none" stroke="none"/><text fill="#000000" stroke="none" font-family="Arial" font-size="13px" font-style="normal" font-weight="normal" text-decoration="none" x="784" y="472.5">-salesValue: double</text></g></g><g transform="translate(-462,-190) scale(1,1)"><path fill="none" stroke="#000000" d="M 613 432 L 779 432" stroke-miterlimit="10"/></g></g></svg>