<svg version="1.1" xmlns="http://www.w3.org/2000/svg" xmlns:xlink="http://www.w3.org/1999/xlink" width="748" height="668"><defs/><g><g transform="translate(-86,-110) scale(1,1)"><rect fill="#C0C0C0" stroke="none" x="103" y="127" width="291.2" height="15" opacity="0.2"/></g><g transform="translate(-86,-110) scale(1,1)"><rect fill="#C0C0C0" stroke="none" x="103" y="141" width="728" height="634" opacity="0.2"/></g><g transform="translate(-86,-110) scale(1,1)"><rect fill="#ffffff" stroke="none" x="96" y="135" width="728" height="633"/></g><g transform="translate(-86,-110) scale(1,1)"><path fill="none" stroke="#000000" d="M 96 135 L 824 135 L 824 768 L 96 768 L 96 135 Z Z" stroke-miterlimit="10"/></g><g transform="translate(-86,-110) scale(1,1)"><rect fill="#ffffff" stroke="none" x="96" y="120" width="291.2" height="15"/></g><g transform="translate(-86,-110) scale(1,1)"><path fill="none" stroke="#000000" d="M 96 120 L 387.2 120 L 387.2 135 L 96 135 L 96 120 Z Z" stroke-miterlimit="10"/></g><g transform="translate(-86,-110) scale(1,1)"><rect fill="#ffffff" stroke="none" x="96" y="134" width="728" height="634"/></g><g transform="translate(-86,-110) scale(1,1)"><path fill="none" stroke="#000000" d="M 96 134 L 824 134 L 824 768 L 96 768 L 96 134 Z Z" stroke-miterlimit="10"/></g><g transform="translate(-86,-110) scale(1,1)"><g><path fill="none" stroke="none"/><text fill="#000000" stroke="none" font-family="Arial" font-size="13px" font-style="normal" font-weight="bold" text-decoration="none" x="403.274169921875" y="154.5">miage.pds.prospect</text></g></g><g transform="translate(-86,-110) scale(1,1)"><rect fill="#C0C0C0" stroke="none" x="151" y="215" width="89.6" height="15" opacity="0.2"/></g><g transform="translate(-86,-110) scale(1,1)"><rect fill="#C0C0C0" stroke="none" x="151" y="229" width="224" height="218" opacity="0.2"/></g><g transform="translate(-86,-110) scale(1,1)"><rect fill="#ffffff" stroke="none" x="144" y="223" width="224" height="217"/></g><g transform="translate(-86,-110) scale(1,1)"><path fill="none" stroke="#000000" d="M 144 223 L 368 223 L 368 440 L 144 440 L 144 223 Z Z" stroke-miterlimit="10"/></g><g transform="translate(-86,-110) scale(1,1)"><rect fill="#ffffff" stroke="none" x="144" y="208" width="89.6" height="15"/></g><g transform="translate(-86,-110) scale(1,1)"><path fill="none" stroke="#000000" d="M 144 208 L 233.6 208 L 233.6 223 L 144 223 L 144 208 Z Z" stroke-miterlimit="10"/></g><g transform="translate(-86,-110) scale(1,1)"><rect fill="#ffffff" stroke="none" x="144" y="222" width="224" height="218"/></g><g transform="translate(-86,-110) scale(1,1)"><path fill="none" stroke="#000000" d="M 144 222 L 368 222 L 368 440 L 144 440 L 144 222 Z Z" stroke-miterlimit="10"/></g><g transform="translate(-86,-110) scale(1,1)"><g><path fill="none" stroke="none"/><text fill="#000000" stroke="none" font-family="Arial" font-size="13px" font-style="normal" font-weight="bold" text-decoration="none" x="229.266845703125" y="242.5">controller</text></g></g><g transform="translate(-86,-110) scale(1,1)"><rect fill="#C0C0C0" stroke="none" x="407" y="215" width="156.79999999999995" height="15" opacity="0.2"/></g><g transform="translate(-86,-110) scale(1,1)"><rect fill="#C0C0C0" stroke="none" x="407" y="229" width="392" height="306" opacity="0.2"/></g><g transform="translate(-86,-110) scale(1,1)"><rect fill="#ffffff" stroke="none" x="400" y="223" width="392" height="305"/></g><g transform="translate(-86,-110) scale(1,1)"><path fill="none" stroke="#000000" d="M 400 223 L 792 223 L 792 528 L 400 528 L 400 223 Z Z" stroke-miterlimit="10"/></g><g transform="translate(-86,-110) scale(1,1)"><rect fill="#ffffff" stroke="none" x="400" y="208" width="156.79999999999995" height="15"/></g><g transform="translate(-86,-110) scale(1,1)"><path fill="none" stroke="#000000" d="M 400 208 L 556.8 208 L 556.8 223 L 400 223 L 400 208 Z Z" stroke-miterlimit="10"/></g><g transform="translate(-86,-110) scale(1,1)"><rect fill="#ffffff" stroke="none" x="400" y="222" width="392" height="306"/></g><g transform="translate(-86,-110) scale(1,1)"><path fill="none" stroke="#000000" d="M 400 222 L 792 222 L 792 528 L 400 528 L 400 222 Z Z" stroke-miterlimit="10"/></g><g transform="translate(-86,-110) scale(1,1)"><g><path fill="none" stroke="none"/><text fill="#000000" stroke="none" font-family="Arial" font-size="13px" font-style="normal" font-weight="bold" text-decoration="none" x="578.29638671875" y="242.5">model</text></g></g><g transform="translate(-86,-110) scale(1,1)"><rect fill="#C0C0C0" stroke="none" x="431" y="263" width="121.70263671875" height="192" opacity="0.2"/></g><g transform="translate(-86,-110) scale(1,1)"><rect fill="#ffffff" stroke="none" x="424" y="256" width="121.70263671875" height="192"/></g><g transform="translate(-86,-110) scale(1,1)"><path fill="none" stroke="#000000" d="M 424 256 L 545.70263671875 256 L 545.70263671875 448 L 424 448 L 424 256 Z Z" stroke-miterlimit="10"/></g><g transform="translate(-86,-110) scale(1,1)"><path fill="none" stroke="#000000" d="M 424 281 L 545.70263671875 281" stroke-miterlimit="10"/></g><g transform="translate(-86,-110) scale(1,1)"><path fill="none" stroke="#000000" d="M 424 439 L 545.70263671875 439" stroke-miterlimit="10"/></g><g transform="translate(-86,-110) scale(1,1)"><g><path fill="none" stroke="none"/><text fill="#000000" stroke="none" font-family="Arial" font-size="13px" font-style="normal" font-weight="bold" text-decoration="none" x="459.200439453125" y="275.5">Prospect</text></g></g><g transform="translate(-86,-110) scale(1,1)"><g><path fill="none" stroke="none"/><text fill="#000000" stroke="none" font-family="Arial" font-size="13px" font-style="normal" font-weight="normal" text-decoration="none" x="429" y="298.5">-id: int</text></g></g><g transform="translate(-86,-110) scale(1,1)"><g><path fill="none" stroke="none"/><text fill="#000000" stroke="none" font-family="Arial" font-size="13px" font-style="normal" font-weight="normal" text-decoration="none" x="429" y="313.5">-name: String</text></g></g><g transform="translate(-86,-110) scale(1,1)"><g><path fill="none" stroke="none"/><text fill="#000000" stroke="none" font-family="Arial" font-size="13px" font-style="normal" font-weight="normal" text-decoration="none" x="429" y="328.5">-finessNumber: int</text></g></g><g transform="translate(-86,-110) scale(1,1)"><g><path fill="none" stroke="none"/><text fill="#000000" stroke="none" font-family="Arial" font-size="13px" font-style="normal" font-weight="normal" text-decoration="none" x="429" y="343.5">-siretNumber: int</text></g></g><g transform="translate(-86,-110) scale(1,1)"><g><path fill="none" stroke="none"/><text fill="#000000" stroke="none" font-family="Arial" font-size="13px" font-style="normal" font-weight="normal" text-decoration="none" x="429" y="358.5">-streetNumber: int</text></g></g><g transform="translate(-86,-110) scale(1,1)"><g><path fill="none" stroke="none"/><text fill="#000000" stroke="none" font-family="Arial" font-size="13px" font-style="normal" font-weight="normal" text-decoration="none" x="429" y="373.5">-zipCode: int</text></g></g><g transform="translate(-86,-110) scale(1,1)"><g><path fill="none" stroke="none"/><text fill="#000000" stroke="none" font-family="Arial" font-size="13px" font-style="normal" font-weight="normal" text-decoration="none" x="429" y="388.5">-streetName: String</text></g></g><g transform="translate(-86,-110) scale(1,1)"><g><path fill="none" stroke="none"/><text fill="#000000" stroke="none" font-family="Arial" font-size="13px" font-style="normal" font-weight="normal" text-decoration="none" x="429" y="403.5">-city: String</text></g></g><g transform="translate(-86,-110) scale(1,1)"><g><path fill="none" stroke="none"/><text fill="#000000" stroke="none" font-family="Arial" font-size="13px" font-style="normal" font-weight="normal" text-decoration="none" x="429" y="418.5">-place: int</text></g></g><g transform="translate(-86,-110) scale(1,1)"><g><path fill="none" stroke="none"/><text fill="#000000" stroke="none" font-family="Arial" font-size="13px" font-style="normal" font-weight="normal" text-decoration="none" x="429" y="433.5">-website: String</text></g></g><g transform="translate(-86,-110) scale(1,1)"><rect fill="#C0C0C0" stroke="none" x="631" y="271" width="133.2744140625" height="87" opacity="0.2"/></g><g transform="translate(-86,-110) scale(1,1)"><rect fill="#ffffff" stroke="none" x="624" y="264" width="133.2744140625" height="87"/></g><g transform="translate(-86,-110) scale(1,1)"><path fill="none" stroke="#000000" d="M 624 264 L 757.2744140625 264 L 757.2744140625 351 L 624 351 L 624 264 Z Z" stroke-miterlimit="10"/></g><g transform="translate(-86,-110) scale(1,1)"><path fill="none" stroke="#000000" d="M 624 289 L 757.2744140625 289" stroke-miterlimit="10"/></g><g transform="translate(-86,-110) scale(1,1)"><path fill="none" stroke="#000000" d="M 624 342 L 757.2744140625 342" stroke-miterlimit="10"/></g><g transform="translate(-86,-110) scale(1,1)"><g><path fill="none" stroke="none"/><text fill="#000000" stroke="none" font-family="Arial" font-size="13px" font-style="normal" font-weight="bold" text-decoration="none" x="674.377685546875" y="283.5">Sales</text></g></g><g transform="translate(-86,-110) scale(1,1)"><g><path fill="none" stroke="none"/><text fill="#000000" stroke="none" font-family="Arial" font-size="13px" font-style="normal" font-weight="normal" text-decoration="none" x="629" y="306.5">-id: int</text></g></g><g transform="translate(-86,-110) scale(1,1)"><g><path fill="none" stroke="none"/><text fill="#000000" stroke="none" font-family="Arial" font-size="13px" font-style="normal" font-weight="normal" text-decoration="none" x="629" y="321.5">-idProspect: Prospect</text></g></g><g transform="translate(-86,-110) scale(1,1)"><g><path fill="none" stroke="none"/><text fill="#000000" stroke="none" font-family="Arial" font-size="13px" font-style="normal" font-weight="normal" text-decoration="none" x="629" y="336.5">-salesValue: double</text></g></g><g transform="translate(-86,-110) scale(1,1)"><rect fill="#C0C0C0" stroke="none" x="623" y="447" width="86.28271484375" height="72" opacity="0.2"/></g><g transform="translate(-86,-110) scale(1,1)"><rect fill="#ffffff" stroke="none" x="616" y="440" width="86.28271484375" height="72"/></g><g transform="translate(-86,-110) scale(1,1)"><path fill="none" stroke="#000000" d="M 616 440 L 702.28271484375 440 L 702.28271484375 512 L 616 512 L 616 440 Z Z" stroke-miterlimit="10"/></g><g transform="translate(-86,-110) scale(1,1)"><path fill="none" stroke="#000000" d="M 616 465 L 702.28271484375 465" stroke-miterlimit="10"/></g><g transform="translate(-86,-110) scale(1,1)"><path fill="none" stroke="#000000" d="M 616 503 L 702.28271484375 503" stroke-miterlimit="10"/></g><g transform="translate(-86,-110) scale(1,1)"><g><path fill="none" stroke="none"/><text fill="#000000" stroke="none" font-family="Arial" font-size="13px" font-style="normal" font-weight="bold" text-decoration="none" x="623.734130859375" y="459.5">Collaborator</text></g></g><g transform="translate(-86,-110) scale(1,1)"><g><path fill="none" stroke="none"/><text fill="#000000" stroke="none" font-family="Arial" font-size="13px" font-style="normal" font-weight="normal" text-decoration="none" x="621" y="482.5">-id: int</text></g></g><g transform="translate(-86,-110) scale(1,1)"><g><path fill="none" stroke="none"/><text fill="#000000" stroke="none" font-family="Arial" font-size="13px" font-style="normal" font-weight="normal" text-decoration="none" x="621" y="497.5">-login: String</text></g></g><g transform="translate(-86,-110) scale(1,1)"><path fill="none" stroke="#000000" d="M 546 304 L 624 304" stroke-miterlimit="10"/></g><g transform="translate(-86,-110) scale(1,1)"><path fill="#000000" stroke="none" d="M 613.8373251423759 308.209517756016 L 624 304 L 613.8373251423758 299.790482243984 L 602 304"/></g><g transform="translate(-86,-110) scale(1,1)"><path fill="none" stroke="#000000" d="M 613.8373251423759 308.209517756016 L 624 304 L 613.8373251423758 299.790482243984 L 602 304 L 613.8373251423759 308.209517756016" stroke-miterlimit="10"/></g><g transform="translate(-86,-110) scale(1,1)"><rect fill="#C0C0C0" stroke="none" x="199" y="303" width="126.74267578125" height="57" opacity="0.2"/></g><g transform="translate(-86,-110) scale(1,1)"><rect fill="#ffffff" stroke="none" x="192" y="296" width="126.74267578125" height="57"/></g><g transform="translate(-86,-110) scale(1,1)"><path fill="none" stroke="#000000" d="M 192 296 L 318.74267578125 296 L 318.74267578125 353 L 192 353 L 192 296 Z Z" stroke-miterlimit="10"/></g><g transform="translate(-86,-110) scale(1,1)"><path fill="none" stroke="#000000" d="M 192 321 L 318.74267578125 321" stroke-miterlimit="10"/></g><g transform="translate(-86,-110) scale(1,1)"><path fill="none" stroke="#000000" d="M 192 331 L 318.74267578125 331" stroke-miterlimit="10"/></g><g transform="translate(-86,-110) scale(1,1)"><g><path fill="none" stroke="none"/><text fill="#000000" stroke="none" font-family="Arial" font-size="13px" font-style="normal" font-weight="bold" text-decoration="none" x="201.543212890625" y="315.5">ProspectController</text></g></g><g transform="translate(-86,-110) scale(1,1)"><g><path fill="none" stroke="none"/><text fill="#000000" stroke="none" font-family="Arial" font-size="13px" font-style="normal" font-weight="normal" text-decoration="none" x="197" y="348.5">+analyseProspect()</text></g></g><g transform="translate(-86,-110) scale(1,1)"><rect fill="#C0C0C0" stroke="none" x="135" y="591" width="192" height="15" opacity="0.2"/></g><g transform="translate(-86,-110) scale(1,1)"><rect fill="#C0C0C0" stroke="none" x="135" y="605" width="480" height="146" opacity="0.2"/></g><g transform="translate(-86,-110) scale(1,1)"><rect fill="#ffffff" stroke="none" x="128" y="599" width="480" height="145"/></g><g transform="translate(-86,-110) scale(1,1)"><path fill="none" stroke="#000000" d="M 128 599 L 608 599 L 608 744 L 128 744 L 128 599 Z Z" stroke-miterlimit="10"/></g><g transform="translate(-86,-110) scale(1,1)"><rect fill="#ffffff" stroke="none" x="128" y="584" width="192" height="15"/></g><g transform="translate(-86,-110) scale(1,1)"><path fill="none" stroke="#000000" d="M 128 584 L 320 584 L 320 599 L 128 599 L 128 584 Z Z" stroke-miterlimit="10"/></g><g transform="translate(-86,-110) scale(1,1)"><rect fill="#ffffff" stroke="none" x="128" y="598" width="480" height="146"/></g><g transform="translate(-86,-110) scale(1,1)"><path fill="none" stroke="#000000" d="M 128 598 L 608 598 L 608 744 L 128 744 L 128 598 Z Z" stroke-miterlimit="10"/></g><g transform="translate(-86,-110) scale(1,1)"><g><path fill="none" stroke="none"/><text fill="#000000" stroke="none" font-family="Arial" font-size="13px" font-style="normal" font-weight="bold" text-decoration="none" x="357.155029296875" y="618.5">dao</text></g></g><g transform="translate(-86,-110) scale(1,1)"><rect fill="#C0C0C0" stroke="none" x="183" y="655" width="89.18994140625" height="44" opacity="0.2"/></g><g transform="translate(-86,-110) scale(1,1)"><rect fill="#ffffff" stroke="none" x="176" y="648" width="89.18994140625" height="44"/></g><g transform="translate(-86,-110) scale(1,1)"><path fill="none" stroke="#000000" d="M 176 648 L 265.18994140625 648 L 265.18994140625 692 L 176 692 L 176 648 Z Z" stroke-miterlimit="10"/></g><g transform="translate(-86,-110) scale(1,1)"><path fill="none" stroke="#000000" d="M 176 673 L 265.18994140625 673" stroke-miterlimit="10"/></g><g transform="translate(-86,-110) scale(1,1)"><path fill="none" stroke="#000000" d="M 176 683 L 265.18994140625 683" stroke-miterlimit="10"/></g><g transform="translate(-86,-110) scale(1,1)"><g><path fill="none" stroke="none"/><text fill="#000000" stroke="none" font-family="Arial" font-size="13px" font-style="normal" font-weight="bold" text-decoration="none" x="183.02001953125" y="667.5">ProspectDao</text></g></g><g transform="translate(-86,-110) scale(1,1)"><rect fill="#C0C0C0" stroke="none" x="343" y="655" width="67.53173828125" height="44" opacity="0.2"/></g><g transform="translate(-86,-110) scale(1,1)"><rect fill="#ffffff" stroke="none" x="336" y="648" width="67.53173828125" height="44"/></g><g transform="translate(-86,-110) scale(1,1)"><path fill="none" stroke="#000000" d="M 336 648 L 403.53173828125 648 L 403.53173828125 692 L 336 692 L 336 648 Z Z" stroke-miterlimit="10"/></g><g transform="translate(-86,-110) scale(1,1)"><path fill="none" stroke="#000000" d="M 336 673 L 403.53173828125 673" stroke-miterlimit="10"/></g><g transform="translate(-86,-110) scale(1,1)"><path fill="none" stroke="#000000" d="M 336 683 L 403.53173828125 683" stroke-miterlimit="10"/></g><g transform="translate(-86,-110) scale(1,1)"><g><path fill="none" stroke="none"/><text fill="#000000" stroke="none" font-family="Arial" font-size="13px" font-style="normal" font-weight="bold" text-decoration="none" x="341.582275390625" y="667.5">SalesDao</text></g></g><g transform="translate(-86,-110) scale(1,1)"><rect fill="#C0C0C0" stroke="none" x="471" y="655" width="110.841796875" height="44" opacity="0.2"/></g><g transform="translate(-86,-110) scale(1,1)"><rect fill="#ffffff" stroke="none" x="464" y="648" width="110.841796875" height="44"/></g><g transform="translate(-86,-110) scale(1,1)"><path fill="none" stroke="#000000" d="M 464 648 L 574.841796875 648 L 574.841796875 692 L 464 692 L 464 648 Z Z" stroke-miterlimit="10"/></g><g transform="translate(-86,-110) scale(1,1)"><path fill="none" stroke="#000000" d="M 464 673 L 574.841796875 673" stroke-miterlimit="10"/></g><g transform="translate(-86,-110) scale(1,1)"><path fill="none" stroke="#000000" d="M 464 683 L 574.841796875 683" stroke-miterlimit="10"/></g><g transform="translate(-86,-110) scale(1,1)"><g><path fill="none" stroke="none"/><text fill="#000000" stroke="none" font-family="Arial" font-size="13px" font-style="normal" font-weight="bold" text-decoration="none" x="472.089599609375" y="667.5">CollaboratorDao</text></g></g><g transform="translate(-86,-110) scale(1,1)"><path fill="none" stroke="#000000" d="M 319 336 L 424 336" stroke-miterlimit="10"/></g><g transform="translate(-86,-110) scale(1,1)"><path fill="none" stroke="#000000" d="M 413.83732514237585 340.209517756016 L 424 336 L 413.83732514237585 331.790482243984" stroke-miterlimit="10"/></g><g transform="translate(-86,-110) scale(1,1)"><path fill="none" stroke="#000000" d="M 319 336 L 376 336 L 376 472 L 616 472" stroke-miterlimit="10"/></g><g transform="translate(-86,-110) scale(1,1)"><path fill="none" stroke="#000000" d="M 605.8373251423759 476.209517756016 L 616 472 L 605.8373251423758 467.790482243984" stroke-miterlimit="10"/></g><g transform="translate(-86,-110) scale(1,1)"><path fill="none" stroke="#000000" d="M 319 336 L 376 336 L 376 192 L 704 192 L 704 264" stroke-miterlimit="10"/></g><g transform="translate(-86,-110) scale(1,1)"><path fill="none" stroke="#000000" d="M 699.790482243984 253.83732514237585 L 704 264 L 708.209517756016 253.83732514237585" stroke-miterlimit="10"/></g><g transform="translate(-86,-110) scale(1,1)"><path fill="none" stroke="#000000" d="M 256 353 L 256 552 L 216 552 L 216 648" stroke-miterlimit="10"/></g><g transform="translate(-86,-110) scale(1,1)"><path fill="none" stroke="#000000" d="M 211.790482243984 637.8373251423759 L 216 648 L 220.209517756016 637.8373251423759" stroke-miterlimit="10"/></g><g transform="translate(-86,-110) scale(1,1)"><path fill="none" stroke="#000000" d="M 256 353 L 256 552 L 368 552 L 368 648" stroke-miterlimit="10"/></g><g transform="translate(-86,-110) scale(1,1)"><path fill="none" stroke="#000000" d="M 363.790482243984 637.8373251423759 L 368 648 L 372.209517756016 637.8373251423759" stroke-miterlimit="10"/></g><g transform="translate(-86,-110) scale(1,1)"><path fill="none" stroke="#000000" d="M 256 353 L 256 552 L 520 552 L 520 648" stroke-miterlimit="10"/></g><g transform="translate(-86,-110) scale(1,1)"><path fill="none" stroke="#000000" d="M 515.790482243984 637.8373251423759 L 520 648 L 524.209517756016 637.8373251423759" stroke-miterlimit="10"/></g></g></svg>