<svg version="1.1" xmlns="http://www.w3.org/2000/svg" xmlns:xlink="http://www.w3.org/1999/xlink" width="1332" height="1468"><defs/><g><g transform="translate(-38,10) scale(1,1)"><rect fill="#C0C0C0" stroke="none" x="103" y="7" width="278.4" height="15" opacity="0.2"/></g><g transform="translate(-38,10) scale(1,1)"><rect fill="#C0C0C0" stroke="none" x="103" y="21" width="696" height="298" opacity="0.2"/></g><g transform="translate(-38,10) scale(1,1)"><rect fill="#8bb1ff" stroke="none" x="96" y="15" width="696" height="297"/></g><g transform="translate(-38,10) scale(1,1)"><path fill="none" stroke="#000000" d="M 96 15 L 792 15 L 792 312 L 96 312 L 96 15 Z Z" stroke-miterlimit="10"/></g><g transform="translate(-38,10) scale(1,1)"><rect fill="#8bb1ff" stroke="none" x="96" y="0" width="278.4" height="15"/></g><g transform="translate(-38,10) scale(1,1)"><path fill="none" stroke="#000000" d="M 96 0 L 374.4 0 L 374.4 15 L 96 15 L 96 0 Z Z" stroke-miterlimit="10"/></g><g transform="translate(-38,10) scale(1,1)"><rect fill="#8bb1ff" stroke="none" x="96" y="14" width="696" height="298"/></g><g transform="translate(-38,10) scale(1,1)"><path fill="none" stroke="#000000" d="M 96 14 L 792 14 L 792 312 L 96 312 L 96 14 Z Z" stroke-miterlimit="10"/></g><g transform="translate(-38,10) scale(1,1)"><g><path fill="none" stroke="none"/><text fill="#000000" stroke="none" font-family="Arial" font-size="13px" font-style="normal" font-weight="bold" text-decoration="none" x="411.128662109375" y="34.5">Services SI</text></g></g><g transform="translate(-38,10) scale(1,1)"><rect fill="#C0C0C0" stroke="none" x="543" y="327" width="272" height="15" opacity="0.2"/></g><g transform="translate(-38,10) scale(1,1)"><rect fill="#C0C0C0" stroke="none" x="543" y="341" width="680" height="306" opacity="0.2"/></g><g transform="translate(-38,10) scale(1,1)"><rect fill="#8bb1ff" stroke="none" x="536" y="335" width="680" height="305"/></g><g transform="translate(-38,10) scale(1,1)"><path fill="none" stroke="#000000" d="M 536 335 L 1216 335 L 1216 640 L 536 640 L 536 335 Z Z" stroke-miterlimit="10"/></g><g transform="translate(-38,10) scale(1,1)"><rect fill="#8bb1ff" stroke="none" x="536" y="320" width="272" height="15"/></g><g transform="translate(-38,10) scale(1,1)"><path fill="none" stroke="#000000" d="M 536 320 L 808 320 L 808 335 L 536 335 L 536 320 Z Z" stroke-miterlimit="10"/></g><g transform="translate(-38,10) scale(1,1)"><rect fill="#8bb1ff" stroke="none" x="536" y="334" width="680" height="306"/></g><g transform="translate(-38,10) scale(1,1)"><path fill="none" stroke="#000000" d="M 536 334 L 1216 334 L 1216 640 L 536 640 L 536 334 Z Z" stroke-miterlimit="10"/></g><g transform="translate(-38,10) scale(1,1)"><g><path fill="none" stroke="none"/><text fill="#000000" stroke="none" font-family="Arial" font-size="13px" font-style="normal" font-weight="bold" text-decoration="none" x="841.3291015625" y="354.5">Commercial</text></g></g><g transform="translate(-38,10) scale(1,1)"><rect fill="#C0C0C0" stroke="none" x="551" y="839" width="326.4" height="15" opacity="0.2"/></g><g transform="translate(-38,10) scale(1,1)"><rect fill="#C0C0C0" stroke="none" x="551" y="853" width="816" height="170" opacity="0.2"/></g><g transform="translate(-38,10) scale(1,1)"><rect fill="#8bb1ff" stroke="none" x="544" y="847" width="816" height="169"/></g><g transform="translate(-38,10) scale(1,1)"><path fill="none" stroke="#000000" d="M 544 847 L 1360 847 L 1360 1016 L 544 1016 L 544 847 Z Z" stroke-miterlimit="10"/></g><g transform="translate(-38,10) scale(1,1)"><rect fill="#8bb1ff" stroke="none" x="544" y="832" width="326.4" height="15"/></g><g transform="translate(-38,10) scale(1,1)"><path fill="none" stroke="#000000" d="M 544 832 L 870.4 832 L 870.4 847 L 544 847 L 544 832 Z Z" stroke-miterlimit="10"/></g><g transform="translate(-38,10) scale(1,1)"><rect fill="#8bb1ff" stroke="none" x="544" y="846" width="816" height="170"/></g><g transform="translate(-38,10) scale(1,1)"><path fill="none" stroke="#000000" d="M 544 846 L 1360 846 L 1360 1016 L 544 1016 L 544 846 Z Z" stroke-miterlimit="10"/></g><g transform="translate(-38,10) scale(1,1)"><g><path fill="none" stroke="none"/><text fill="#000000" stroke="none" font-family="Arial" font-size="13px" font-style="normal" font-weight="bold" text-decoration="none" x="937.911376953125" y="866.5">Suivi</text></g></g><g transform="translate(-38,10) scale(1,1)"><rect fill="#C0C0C0" stroke="none" x="199" y="631" width="115.19999999999999" height="15" opacity="0.2"/></g><g transform="translate(-38,10) scale(1,1)"><rect fill="#C0C0C0" stroke="none" x="199" y="645" width="288" height="218" opacity="0.2"/></g><g transform="translate(-38,10) scale(1,1)"><rect fill="#8bb1ff" stroke="none" x="192" y="639" width="288" height="217"/></g><g transform="translate(-38,10) scale(1,1)"><path fill="none" stroke="#000000" d="M 192 639 L 480 639 L 480 856 L 192 856 L 192 639 Z Z" stroke-miterlimit="10"/></g><g transform="translate(-38,10) scale(1,1)"><rect fill="#8bb1ff" stroke="none" x="192" y="624" width="115.19999999999999" height="15"/></g><g transform="translate(-38,10) scale(1,1)"><path fill="none" stroke="#000000" d="M 192 624 L 307.2 624 L 307.2 639 L 192 639 L 192 624 Z Z" stroke-miterlimit="10"/></g><g transform="translate(-38,10) scale(1,1)"><rect fill="#8bb1ff" stroke="none" x="192" y="638" width="288" height="218"/></g><g transform="translate(-38,10) scale(1,1)"><path fill="none" stroke="#000000" d="M 192 638 L 480 638 L 480 856 L 192 856 L 192 638 Z Z" stroke-miterlimit="10"/></g><g transform="translate(-38,10) scale(1,1)"><g><path fill="none" stroke="none"/><text fill="#000000" stroke="none" font-family="Arial" font-size="13px" font-style="normal" font-weight="bold" text-decoration="none" x="294.81640625" y="658.5">Administration</text></g></g><g transform="translate(-38,10) scale(1,1)"><rect fill="#C0C0C0" stroke="none" x="559" y="1047" width="284.79999999999995" height="15" opacity="0.2"/></g><g transform="translate(-38,10) scale(1,1)"><rect fill="#C0C0C0" stroke="none" x="559" y="1061" width="712" height="338" opacity="0.2"/></g><g transform="translate(-38,10) scale(1,1)"><rect fill="#8bb1ff" stroke="none" x="552" y="1055" width="712" height="337"/></g><g transform="translate(-38,10) scale(1,1)"><path fill="none" stroke="#000000" d="M 552 1055 L 1264 1055 L 1264 1392 L 552 1392 L 552 1055 Z Z" stroke-miterlimit="10"/></g><g transform="translate(-38,10) scale(1,1)"><rect fill="#8bb1ff" stroke="none" x="552" y="1040" width="284.79999999999995" height="15"/></g><g transform="translate(-38,10) scale(1,1)"><path fill="none" stroke="#000000" d="M 552 1040 L 836.8 1040 L 836.8 1055 L 552 1055 L 552 1040 Z Z" stroke-miterlimit="10"/></g><g transform="translate(-38,10) scale(1,1)"><rect fill="#8bb1ff" stroke="none" x="552" y="1054" width="712" height="338"/></g><g transform="translate(-38,10) scale(1,1)"><path fill="none" stroke="#000000" d="M 552 1054 L 1264 1054 L 1264 1392 L 552 1392 L 552 1054 Z Z" stroke-miterlimit="10"/></g><g transform="translate(-38,10) scale(1,1)"><g><path fill="none" stroke="none"/><text fill="#000000" stroke="none" font-family="Arial" font-size="13px" font-style="normal" font-weight="bold" text-decoration="none" x="862.8427734375" y="1074.5">Communication</text></g></g><g transform="translate(-38,10) scale(1,1)"><rect fill="#C0C0C0" stroke="none" x="63" y="1199" width="179.2" height="15" opacity="0.2"/></g><g transform="translate(-38,10) scale(1,1)"><rect fill="#C0C0C0" stroke="none" x="63" y="1213" width="448" height="242" opacity="0.2"/></g><g transform="translate(-38,10) scale(1,1)"><rect fill="#8bb1ff" stroke="none" x="56" y="1207" width="448" height="241"/></g><g transform="translate(-38,10) scale(1,1)"><path fill="none" stroke="#000000" d="M 56 1207 L 504 1207 L 504 1448 L 56 1448 L 56 1207 Z Z" stroke-miterlimit="10"/></g><g transform="translate(-38,10) scale(1,1)"><rect fill="#8bb1ff" stroke="none" x="56" y="1192" width="179.2" height="15"/></g><g transform="translate(-38,10) scale(1,1)"><path fill="none" stroke="#000000" d="M 56 1192 L 235.2 1192 L 235.2 1207 L 56 1207 L 56 1192 Z Z" stroke-miterlimit="10"/></g><g transform="translate(-38,10) scale(1,1)"><rect fill="#8bb1ff" stroke="none" x="56" y="1206" width="448" height="242"/></g><g transform="translate(-38,10) scale(1,1)"><path fill="none" stroke="#000000" d="M 56 1206 L 504 1206 L 504 1448 L 56 1448 L 56 1206 Z Z" stroke-miterlimit="10"/></g><g transform="translate(-38,10) scale(1,1)"><g><path fill="none" stroke="none"/><text fill="#000000" stroke="none" font-family="Arial" font-size="13px" font-style="normal" font-weight="bold" text-decoration="none" x="241.6982421875" y="1226.5">Collaboration</text></g></g><g transform="translate(-38,10) scale(1,1)"><path fill="#ffffff" stroke="none" d="M 113.03068821022728 449.68 C 113.03068821022728 444.886167936 116.91653053517274 441 121.7099609375 441 C 126.50339133982726 441 130.38923366477272 444.886167936 130.38923366477272 449.68 C 130.38923366477272 454.473832064 126.50339133982726 458.36 121.7099609375 458.36 C 116.91653053517274 458.36 113.03068821022728 454.473832064 113.03068821022728 449.68 Z"/></g><g transform="translate(-38,10) scale(1,1)"><path fill="none" stroke="#000000" d="M 113.03068821022728 449.68 C 113.03068821022728 444.886167936 116.91653053517274 441 121.7099609375 441 C 126.50339133982726 441 130.38923366477272 444.886167936 130.38923366477272 449.68 C 130.38923366477272 454.473832064 126.50339133982726 458.36 121.7099609375 458.36 C 116.91653053517274 458.36 113.03068821022728 454.473832064 113.03068821022728 449.68 Z" stroke-miterlimit="10"/></g><g transform="translate(-38,10) scale(1,1)"><path fill="none" stroke="#000000" d="M 121.7099609375 458.36 L 121.7099609375 475.64" stroke-miterlimit="10"/></g><g transform="translate(-38,10) scale(1,1)"><path fill="none" stroke="#000000" d="M 112.52014275568183 464.84 L 130.89977911931817 464.84" stroke-miterlimit="10"/></g><g transform="translate(-38,10) scale(1,1)"><path fill="none" stroke="#000000" d="M 121.7099609375 475.64 L 108.94632457386365 493" stroke-miterlimit="10"/></g><g transform="translate(-38,10) scale(1,1)"><path fill="none" stroke="#000000" d="M 121.7099609375 475.64 L 134.47359730113635 493" stroke-miterlimit="10"/></g><g transform="translate(-38,10) scale(1,1)"><g><path fill="none" stroke="none"/><text fill="#000000" stroke="none" font-family="Arial" font-size="13px" font-style="normal" font-weight="bold" text-decoration="none" x="87.0390625" y="513.5">Commercial</text></g></g><g transform="translate(-38,10) scale(1,1)"><path fill="#ffffff" stroke="none" d="M 1063.3756589133523 665.6800000000001 C 1063.3756589133523 660.8861679360001 1067.2615012382978 657 1072.054931640625 657 C 1076.8483620429522 657 1080.7342043678977 660.8861679360001 1080.7342043678977 665.6800000000001 C 1080.7342043678977 670.473832064 1076.8483620429522 674.36 1072.054931640625 674.36 C 1067.2615012382978 674.36 1063.3756589133523 670.473832064 1063.3756589133523 665.6800000000001 Z"/></g><g transform="translate(-38,10) scale(1,1)"><path fill="none" stroke="#000000" d="M 1063.3756589133523 665.6800000000001 C 1063.3756589133523 660.8861679360001 1067.2615012382978 657 1072.054931640625 657 C 1076.8483620429522 657 1080.7342043678977 660.8861679360001 1080.7342043678977 665.6800000000001 C 1080.7342043678977 670.473832064 1076.8483620429522 674.36 1072.054931640625 674.36 C 1067.2615012382978 674.36 1063.3756589133523 670.473832064 1063.3756589133523 665.6800000000001 Z" stroke-miterlimit="10"/></g><g transform="translate(-38,10) scale(1,1)"><path fill="none" stroke="#000000" d="M 1072.054931640625 674.36 L 1072.054931640625 691.64" stroke-miterlimit="10"/></g><g transform="translate(-38,10) scale(1,1)"><path fill="none" stroke="#000000" d="M 1062.8651134588067 680.84 L 1081.2447498224433 680.84" stroke-miterlimit="10"/></g><g transform="translate(-38,10) scale(1,1)"><path fill="none" stroke="#000000" d="M 1072.054931640625 691.64 L 1059.2912952769886 709" stroke-miterlimit="10"/></g><g transform="translate(-38,10) scale(1,1)"><path fill="none" stroke="#000000" d="M 1072.054931640625 691.64 L 1084.8185680042614 709" stroke-miterlimit="10"/></g><g transform="translate(-38,10) scale(1,1)"><g><path fill="none" stroke="none"/><text fill="#000000" stroke="none" font-family="Arial" font-size="13px" font-style="normal" font-weight="bold" text-decoration="none" x="1009.2099609375" y="729.5">Directeur Commercial</text></g></g><g transform="translate(-38,10) scale(1,1)"><path fill="none" stroke="#000000" d="M 999 694 L 552 688 L 464 600 L 164 494" stroke-miterlimit="10"/></g><g transform="translate(-38,10) scale(1,1)"><path fill="#FFFFFF" stroke="none" d="M 185.96904084138617 492.8332761639935 L 164 494 L 180.35945609132057 508.7094594188962"/></g><g transform="translate(-38,10) scale(1,1)"><path fill="none" stroke="#000000" d="M 185.96904084138617 492.8332761639935 L 164 494 L 180.35945609132057 508.7094594188962 L 185.96904084138617 492.8332761639935" stroke-miterlimit="10"/></g><g transform="translate(-38,10) scale(1,1)"><path fill="#ffffff" stroke="none" d="M 934.2343014914773 729.6800000000001 C 934.2343014914773 724.8861679360001 938.1201438164227 721 942.91357421875 721 C 947.7070046210773 721 951.5928469460227 724.8861679360001 951.5928469460227 729.6800000000001 C 951.5928469460227 734.473832064 947.7070046210773 738.36 942.91357421875 738.36 C 938.1201438164227 738.36 934.2343014914773 734.473832064 934.2343014914773 729.6800000000001 Z"/></g><g transform="translate(-38,10) scale(1,1)"><path fill="none" stroke="#000000" d="M 934.2343014914773 729.6800000000001 C 934.2343014914773 724.8861679360001 938.1201438164227 721 942.91357421875 721 C 947.7070046210773 721 951.5928469460227 724.8861679360001 951.5928469460227 729.6800000000001 C 951.5928469460227 734.473832064 947.7070046210773 738.36 942.91357421875 738.36 C 938.1201438164227 738.36 934.2343014914773 734.473832064 934.2343014914773 729.6800000000001 Z" stroke-miterlimit="10"/></g><g transform="translate(-38,10) scale(1,1)"><path fill="none" stroke="#000000" d="M 942.91357421875 738.36 L 942.91357421875 755.64" stroke-miterlimit="10"/></g><g transform="translate(-38,10) scale(1,1)"><path fill="none" stroke="#000000" d="M 933.7237560369318 744.84 L 952.1033924005682 744.84" stroke-miterlimit="10"/></g><g transform="translate(-38,10) scale(1,1)"><path fill="none" stroke="#000000" d="M 942.91357421875 755.64 L 930.1499378551136 773" stroke-miterlimit="10"/></g><g transform="translate(-38,10) scale(1,1)"><path fill="none" stroke="#000000" d="M 942.91357421875 755.64 L 955.6772105823864 773" stroke-miterlimit="10"/></g><g transform="translate(-38,10) scale(1,1)"><g><path fill="none" stroke="none"/><text fill="#000000" stroke="none" font-family="Arial" font-size="13px" font-style="normal" font-weight="bold" text-decoration="none" x="872.45458984375" y="793.5">Responsable de gamme</text></g></g><g transform="translate(-38,10) scale(1,1)"><path fill="none" stroke="#000000" d="M 163 520 L 309 663" stroke-miterlimit="10"/></g><g transform="translate(-38,10) scale(1,1)"><path fill="none" stroke="#000000" d="M 164 474 L 935 385" stroke-miterlimit="10"/></g><g transform="translate(-38,10) scale(1,1)"><path fill="none" stroke="#000000" d="M 164 478 L 583 469" stroke-miterlimit="10"/></g><g transform="translate(-38,10) scale(1,1)"><path fill="none" stroke="#000000" d="M 164 483 L 927 557" stroke-miterlimit="10"/></g><g transform="translate(-38,10) scale(1,1)"><path fill="none" stroke="#000000" d="M 164 479 L 895 488" stroke-miterlimit="10"/></g><g transform="translate(-38,10) scale(1,1)"><rect fill="#C0C0C0" stroke="none" x="1063" y="47" width="262.6162109375" height="56" opacity="0.2"/></g><g transform="translate(-38,10) scale(1,1)"><rect fill="#ffffff" stroke="none" x="1056" y="40" width="262.6162109375" height="56"/></g><g transform="translate(-38,10) scale(1,1)"><path fill="none" stroke="#000000" d="M 1056 40 L 1318.6162109375 40 L 1318.6162109375 96 L 1056 96 L 1056 40 Z Z" stroke-miterlimit="10"/></g><g transform="translate(-38,10) scale(1,1)"><path fill="#ffffff" stroke="none" d="M 1297.7587563920454 49.58 C 1297.7587563920454 47.602820416 1299.4857974253546 46 1301.6162109375 46 C 1303.7466244496454 46 1305.4736654829544 47.602820416 1305.4736654829544 49.58 C 1305.4736654829544 51.557179584 1303.7466244496454 53.16 1301.6162109375 53.16 C 1299.4857974253546 53.16 1297.7587563920454 51.557179584 1297.7587563920454 49.58 Z"/></g><g transform="translate(-38,10) scale(1,1)"><path fill="none" stroke="#000000" d="M 1297.7587563920454 49.58 C 1297.7587563920454 47.602820416 1299.4857974253546 46 1301.6162109375 46 C 1303.7466244496454 46 1305.4736654829544 47.602820416 1305.4736654829544 49.58 C 1305.4736654829544 51.557179584 1303.7466244496454 53.16 1301.6162109375 53.16 C 1299.4857974253546 53.16 1297.7587563920454 51.557179584 1297.7587563920454 49.58 Z" stroke-miterlimit="10"/></g><g transform="translate(-38,10) scale(1,1)"><path fill="none" stroke="#000000" d="M 1301.6162109375 53.16 L 1301.6162109375 60.84" stroke-miterlimit="10"/></g><g transform="translate(-38,10) scale(1,1)"><path fill="none" stroke="#000000" d="M 1297.5318473011362 56.04 L 1305.7005745738634 56.04" stroke-miterlimit="10"/></g><g transform="translate(-38,10) scale(1,1)"><path fill="none" stroke="#000000" d="M 1301.6162109375 60.84 L 1295.9434836647727 68" stroke-miterlimit="10"/></g><g transform="translate(-38,10) scale(1,1)"><path fill="none" stroke="#000000" d="M 1301.6162109375 60.84 L 1307.2889382102271 68" stroke-miterlimit="10"/></g><g transform="translate(-38,10) scale(1,1)"><g><path fill="none" stroke="none"/><text fill="#000000" stroke="none" font-family="Arial" font-size="13px" font-style="normal" font-weight="bold" text-decoration="none" x="1072.682373046875" y="59.5">SI publique des données médicales</text></g></g><g transform="translate(-38,10) scale(1,1)"><rect fill="#C0C0C0" stroke="none" x="1111" y="199" width="214.21533203125" height="79" opacity="0.2"/></g><g transform="translate(-38,10) scale(1,1)"><rect fill="#ffffff" stroke="none" x="1104" y="192" width="214.21533203125" height="79"/></g><g transform="translate(-38,10) scale(1,1)"><path fill="none" stroke="#000000" d="M 1104 192 L 1318.21533203125 192 L 1318.21533203125 271 L 1104 271 L 1104 192 Z Z" stroke-miterlimit="10"/></g><g transform="translate(-38,10) scale(1,1)"><path fill="#ffffff" stroke="none" d="M 1297.3578774857954 201.57999999999998 C 1297.3578774857954 199.602820416 1299.0849185191046 198 1301.21533203125 198 C 1303.3457455433954 198 1305.0727865767044 199.602820416 1305.0727865767044 201.57999999999998 C 1305.0727865767044 203.55717958399998 1303.3457455433954 205.16 1301.21533203125 205.16 C 1299.0849185191046 205.16 1297.3578774857954 203.55717958399998 1297.3578774857954 201.57999999999998 Z"/></g><g transform="translate(-38,10) scale(1,1)"><path fill="none" stroke="#000000" d="M 1297.3578774857954 201.57999999999998 C 1297.3578774857954 199.602820416 1299.0849185191046 198 1301.21533203125 198 C 1303.3457455433954 198 1305.0727865767044 199.602820416 1305.0727865767044 201.57999999999998 C 1305.0727865767044 203.55717958399998 1303.3457455433954 205.16 1301.21533203125 205.16 C 1299.0849185191046 205.16 1297.3578774857954 203.55717958399998 1297.3578774857954 201.57999999999998 Z" stroke-miterlimit="10"/></g><g transform="translate(-38,10) scale(1,1)"><path fill="none" stroke="#000000" d="M 1301.21533203125 205.16 L 1301.21533203125 212.84" stroke-miterlimit="10"/></g><g transform="translate(-38,10) scale(1,1)"><path fill="none" stroke="#000000" d="M 1297.1309683948862 208.04 L 1305.2996956676134 208.04" stroke-miterlimit="10"/></g><g transform="translate(-38,10) scale(1,1)"><path fill="none" stroke="#000000" d="M 1301.21533203125 212.84 L 1295.5426047585227 220" stroke-miterlimit="10"/></g><g transform="translate(-38,10) scale(1,1)"><path fill="none" stroke="#000000" d="M 1301.21533203125 212.84 L 1306.8880593039771 220" stroke-miterlimit="10"/></g><g transform="translate(-38,10) scale(1,1)"><g><path fill="none" stroke="none"/><text fill="#000000" stroke="none" font-family="Arial" font-size="13px" font-style="normal" font-weight="bold" text-decoration="none" x="1169.838623046875" y="211.5">Scheduler</text></g></g><g transform="translate(-38,10) scale(1,1)"><path fill="none" stroke="#000000" d="M 478 267 L 1103 236" stroke-miterlimit="10"/></g><g transform="translate(-38,10) scale(1,1)"><path fill="none" stroke="#000000" d="M 164 476 L 863 435" stroke-miterlimit="10"/></g><g transform="translate(-38,10) scale(1,1)"><path fill="none" stroke="#000000" d="M 1003 800 L 1107 871" stroke-miterlimit="10"/></g><g transform="translate(-38,10) scale(1,1)"><path fill="#ffffff" stroke="none" d="M 206.91252414772728 1041.6799999999998 C 206.91252414772728 1036.8861679359998 210.79836647267274 1033 215.591796875 1033 C 220.38522727732726 1033 224.27106960227272 1036.8861679359998 224.27106960227272 1041.6799999999998 C 224.27106960227272 1046.473832064 220.38522727732726 1050.36 215.591796875 1050.36 C 210.79836647267274 1050.36 206.91252414772728 1046.473832064 206.91252414772728 1041.6799999999998 Z"/></g><g transform="translate(-38,10) scale(1,1)"><path fill="none" stroke="#000000" d="M 206.91252414772728 1041.6799999999998 C 206.91252414772728 1036.8861679359998 210.79836647267274 1033 215.591796875 1033 C 220.38522727732726 1033 224.27106960227272 1036.8861679359998 224.27106960227272 1041.6799999999998 C 224.27106960227272 1046.473832064 220.38522727732726 1050.36 215.591796875 1050.36 C 210.79836647267274 1050.36 206.91252414772728 1046.473832064 206.91252414772728 1041.6799999999998 Z" stroke-miterlimit="10"/></g><g transform="translate(-38,10) scale(1,1)"><path fill="none" stroke="#000000" d="M 215.591796875 1050.36 L 215.591796875 1067.64" stroke-miterlimit="10"/></g><g transform="translate(-38,10) scale(1,1)"><path fill="none" stroke="#000000" d="M 206.40197869318183 1056.84 L 224.78161505681817 1056.84" stroke-miterlimit="10"/></g><g transform="translate(-38,10) scale(1,1)"><path fill="none" stroke="#000000" d="M 215.591796875 1067.64 L 202.82816051136365 1085" stroke-miterlimit="10"/></g><g transform="translate(-38,10) scale(1,1)"><path fill="none" stroke="#000000" d="M 215.591796875 1067.64 L 228.35543323863635 1085" stroke-miterlimit="10"/></g><g transform="translate(-38,10) scale(1,1)"><g><path fill="none" stroke="none"/><text fill="#000000" stroke="none" font-family="Arial" font-size="13px" font-style="normal" font-weight="bold" text-decoration="none" x="190.302734375" y="1105.5">Employe</text></g></g><g transform="translate(-38,10) scale(1,1)"><path fill="none" stroke="#000000" d="M 224 1112 L 278 1351" stroke-miterlimit="10"/></g><g transform="translate(-38,10) scale(1,1)"><path fill="none" stroke="#000000" d="M 248 1063 L 608 971" stroke-miterlimit="10"/></g><g transform="translate(-38,10) scale(1,1)"><path fill="none" stroke="#000000" d="M 120 520 L 112 1072 L 183 1071" stroke-miterlimit="10"/></g><g transform="translate(-38,10) scale(1,1)"><path fill="#FFFFFF" stroke="none" d="M 162.79523219395543 1079.7044447211654 L 183 1071 L 162.5580997832467 1062.8680435608458"/></g><g transform="translate(-38,10) scale(1,1)"><path fill="none" stroke="#000000" d="M 162.79523219395543 1079.7044447211654 L 183 1071 L 162.5580997832467 1062.8680435608458 L 162.79523219395543 1079.7044447211654" stroke-miterlimit="10"/></g><g transform="translate(-38,10) scale(1,1)"><path fill="none" stroke="#000000" d="M 680 599 L 164 488" stroke-miterlimit="10"/></g><g transform="translate(-38,10) scale(1,1)"><path fill="#ffffff" stroke="none" d="M 627.8439206321023 721.6800000000001 C 627.8439206321023 716.8861679360001 631.7297629570477 713 636.523193359375 713 C 641.3166237617023 713 645.2024660866477 716.8861679360001 645.2024660866477 721.6800000000001 C 645.2024660866477 726.473832064 641.3166237617023 730.36 636.523193359375 730.36 C 631.7297629570477 730.36 627.8439206321023 726.473832064 627.8439206321023 721.6800000000001 Z"/></g><g transform="translate(-38,10) scale(1,1)"><path fill="none" stroke="#000000" d="M 627.8439206321023 721.6800000000001 C 627.8439206321023 716.8861679360001 631.7297629570477 713 636.523193359375 713 C 641.3166237617023 713 645.2024660866477 716.8861679360001 645.2024660866477 721.6800000000001 C 645.2024660866477 726.473832064 641.3166237617023 730.36 636.523193359375 730.36 C 631.7297629570477 730.36 627.8439206321023 726.473832064 627.8439206321023 721.6800000000001 Z" stroke-miterlimit="10"/></g><g transform="translate(-38,10) scale(1,1)"><path fill="none" stroke="#000000" d="M 636.523193359375 730.36 L 636.523193359375 747.64" stroke-miterlimit="10"/></g><g transform="translate(-38,10) scale(1,1)"><path fill="none" stroke="#000000" d="M 627.3333751775568 736.84 L 645.7130115411932 736.84" stroke-miterlimit="10"/></g><g transform="translate(-38,10) scale(1,1)"><path fill="none" stroke="#000000" d="M 636.523193359375 747.64 L 623.7595569957386 765" stroke-miterlimit="10"/></g><g transform="translate(-38,10) scale(1,1)"><path fill="none" stroke="#000000" d="M 636.523193359375 747.64 L 649.2868297230114 765" stroke-miterlimit="10"/></g><g transform="translate(-38,10) scale(1,1)"><g><path fill="none" stroke="none"/><text fill="#000000" stroke="none" font-family="Arial" font-size="13px" font-style="normal" font-weight="bold" text-decoration="none" x="592.076904296875" y="785.5">Chef de produit</text></g></g><g transform="translate(-38,10) scale(1,1)"><path fill="none" stroke="#000000" d="M 499 741 L 583 747" stroke-miterlimit="10"/></g><g transform="translate(-38,10) scale(1,1)"><path fill="none" stroke="#000000" d="M 863 757 L 690 752" stroke-miterlimit="10"/></g><g transform="translate(-38,10) scale(1,1)"><path fill="#FFFFFF" stroke="none" d="M 710.5600892070232 744.1716712001062 L 690 752 L 710.0736428798493 761.0027141203236"/></g><g transform="translate(-38,10) scale(1,1)"><path fill="none" stroke="#000000" d="M 710.5600892070232 744.1716712001062 L 690 752 L 710.0736428798493 761.0027141203236 L 710.5600892070232 744.1716712001062" stroke-miterlimit="10"/></g><g transform="translate(-38,10) scale(1,1)"><path fill="none" stroke="#000000" d="M 1103 230 L 343 226" stroke-miterlimit="10"/></g><g transform="translate(-38,10) scale(1,1)"><path fill="none" stroke="#000000" d="M 1042 927 L 690 774" stroke-miterlimit="10"/></g><g transform="translate(-38,10) scale(1,1)"><path fill="none" stroke="#000000" d="M 224 1112 L 253 1255" stroke-miterlimit="10"/></g><g transform="translate(-38,10) scale(1,1)"><path fill="none" stroke="#000000" d="M 164 481 L 919 522" stroke-miterlimit="10"/></g><g transform="translate(-38,10) scale(1,1)"><path fill="none" stroke="#000000" d="M 248 1072 L 663 1089" stroke-miterlimit="10"/></g><g transform="translate(-38,10) scale(1,1)"><path fill="none" stroke="#000000" d="M 248 1081 L 657 1207" stroke-miterlimit="10"/></g><g transform="translate(-38,10) scale(1,1)"><path fill="none" stroke="#000000" d="M 248 1077 L 629 1143" stroke-miterlimit="10"/></g><g transform="translate(-38,10) scale(1,1)"><path fill="none" stroke="#000000" d="M 911 1221 L 849 1222" stroke-miterlimit="10" stroke-dasharray="3"/></g><g transform="translate(-38,10) scale(1,1)"><path fill="none" stroke="#000000" d="M 859.0934666094455 1217.6271368871173 L 849 1222 L 859.2292398455387 1226.045077524899" stroke-miterlimit="10"/></g><g transform="translate(-38,10) scale(1,1)"><g><path fill="none" stroke="none"/><text fill="#000000" stroke="none" font-family="Arial" font-size="13px" font-style="normal" font-weight="normal" text-decoration="none" x="867" y="1240">«extend»</text></g></g><g transform="translate(-38,10) scale(1,1)"><path fill="#C0C0C0" stroke="none" d="M 671 1104 C 671 1094.6111584 753.827312 1087 856 1087 C 958.172688 1087 1041 1094.6111584 1041 1104 C 1041 1113.3888416 958.172688 1121 856 1121 C 753.827312 1121 671 1113.3888416 671 1104 Z" opacity="0.2"/></g><g transform="translate(-38,10) scale(1,1)"><path fill="#ffffff" stroke="none" d="M 664 1097 C 664 1087.6111584 746.827312 1080 849 1080 C 951.172688 1080 1034 1087.6111584 1034 1097 C 1034 1106.3888416 951.172688 1114 849 1114 C 746.827312 1114 664 1106.3888416 664 1097 Z"/></g><g transform="translate(-38,10) scale(1,1)"><path fill="none" stroke="#000000" d="M 664 1097 C 664 1087.6111584 746.827312 1080 849 1080 C 951.172688 1080 1034 1087.6111584 1034 1097 C 1034 1106.3888416 951.172688 1114 849 1114 C 746.827312 1114 664 1106.3888416 664 1097 Z" stroke-miterlimit="10"/></g><g transform="translate(-38,10) scale(1,1)"><g><path fill="none" stroke="none"/><text fill="#000000" stroke="none" font-family="Arial" font-size="13px" font-style="normal" font-weight="bold" text-decoration="none" x="731.212890625" y="1104">envoyer ou recevoir  un message interne</text></g></g><g transform="translate(-38,10) scale(1,1)"><path fill="#C0C0C0" stroke="none" d="M 623 1168 C 623 1158.6111584 675.3826784 1151 740 1151 C 804.6173216 1151 857 1158.6111584 857 1168 C 857 1177.3888416 804.6173216 1185 740 1185 C 675.3826784 1185 623 1177.3888416 623 1168 Z" opacity="0.2"/></g><g transform="translate(-38,10) scale(1,1)"><path fill="#ffffff" stroke="none" d="M 616 1161 C 616 1151.6111584 668.3826784 1144 733 1144 C 797.6173216 1144 850 1151.6111584 850 1161 C 850 1170.3888416 797.6173216 1178 733 1178 C 668.3826784 1178 616 1170.3888416 616 1161 Z"/></g><g transform="translate(-38,10) scale(1,1)"><path fill="none" stroke="#000000" d="M 616 1161 C 616 1151.6111584 668.3826784 1144 733 1144 C 797.6173216 1144 850 1151.6111584 850 1161 C 850 1170.3888416 797.6173216 1178 733 1178 C 668.3826784 1178 616 1170.3888416 616 1161 Z" stroke-miterlimit="10"/></g><g transform="translate(-38,10) scale(1,1)"><g><path fill="none" stroke="none"/><text fill="#000000" stroke="none" font-family="Arial" font-size="13px" font-style="normal" font-weight="bold" text-decoration="none" x="662.195068359375" y="1168">envoyer recevoir un sms</text></g></g><g transform="translate(-38,10) scale(1,1)"><path fill="#C0C0C0" stroke="none" d="M 591 1232 C 591 1222.6111584 650.0984064 1215 723 1215 C 795.9015936 1215 855 1222.6111584 855 1232 C 855 1241.3888416 795.9015936 1249 723 1249 C 650.0984064 1249 591 1241.3888416 591 1232 Z" opacity="0.2"/></g><g transform="translate(-38,10) scale(1,1)"><path fill="#ffffff" stroke="none" d="M 584 1225 C 584 1215.6111584 643.0984064 1208 716 1208 C 788.9015936 1208 848 1215.6111584 848 1225 C 848 1234.3888416 788.9015936 1242 716 1242 C 643.0984064 1242 584 1234.3888416 584 1225 Z"/></g><g transform="translate(-38,10) scale(1,1)"><path fill="none" stroke="#000000" d="M 584 1225 C 584 1215.6111584 643.0984064 1208 716 1208 C 788.9015936 1208 848 1215.6111584 848 1225 C 848 1234.3888416 788.9015936 1242 716 1242 C 643.0984064 1242 584 1234.3888416 584 1225 Z" stroke-miterlimit="10"/></g><g transform="translate(-38,10) scale(1,1)"><g><path fill="none" stroke="none"/><text fill="#000000" stroke="none" font-family="Arial" font-size="13px" font-style="normal" font-weight="bold" text-decoration="none" x="644.820556640625" y="1232">passer recevoir un appel</text></g></g><g transform="translate(-38,10) scale(1,1)"><path fill="none" stroke="#000000" d="M 991 974 L 792 960" stroke-miterlimit="10" stroke-dasharray="3"/></g><g transform="translate(-38,10) scale(1,1)"><path fill="none" stroke="#000000" d="M 802.4330352273169 956.5140602492921 L 792 960 L 801.8422015941271 964.9123383210607" stroke-miterlimit="10"/></g><g transform="translate(-38,10) scale(1,1)"><g><path fill="none" stroke="none"/><text fill="#000000" stroke="none" font-family="Arial" font-size="13px" font-style="normal" font-weight="normal" text-decoration="none" x="862" y="1003">«extend»</text></g></g><g transform="translate(-38,10) scale(1,1)"><path fill="none" stroke="#000000" d="M 447 75 L 526 103" stroke-miterlimit="10" stroke-dasharray="3"/></g><g transform="translate(-38,10) scale(1,1)"><path fill="none" stroke="#000000" d="M 515.0149160506987 103.57265227390016 L 526 103 L 517.8274463414089 95.63729895368226" stroke-miterlimit="10"/></g><g transform="translate(-38,10) scale(1,1)"><g><path fill="none" stroke="none"/><text fill="#000000" stroke="none" font-family="Arial" font-size="13px" font-style="normal" font-weight="normal" text-decoration="none" x="431" y="96">«extend»</text></g></g><g transform="translate(-38,10) scale(1,1)"><path fill="none" stroke="#000000" d="M 340 105 L 431 111" stroke-miterlimit="10" stroke-dasharray="3"/></g><g transform="translate(-38,10) scale(1,1)"><path fill="none" stroke="#000000" d="M 420.5823941984464 114.53178274578671 L 431 111 L 421.1362927647697 106.13098782321656" stroke-miterlimit="10"/></g><g transform="translate(-38,10) scale(1,1)"><g><path fill="none" stroke="none"/><text fill="#000000" stroke="none" font-family="Arial" font-size="13px" font-style="normal" font-weight="normal" text-decoration="none" x="376" y="133">«extend»</text></g></g><g transform="translate(-38,10) scale(1,1)"><path fill="none" stroke="#000000" d="M 1055 96 L 686 175" stroke-miterlimit="10"/></g><g transform="translate(-38,10) scale(1,1)"><path fill="none" stroke="#000000" d="M 596 175 L 583 139" stroke-miterlimit="10" stroke-dasharray="3"/></g><g transform="translate(-38,10) scale(1,1)"><path fill="none" stroke="#000000" d="M 590.4109745938057 147.12880406763298 L 583 139 L 582.4924179113211 149.9882828696413" stroke-miterlimit="10"/></g><g transform="translate(-38,10) scale(1,1)"><g><path fill="none" stroke="none"/><text fill="#000000" stroke="none" font-family="Arial" font-size="13px" font-style="normal" font-weight="normal" text-decoration="none" x="586" y="153">«include»</text></g></g><g transform="translate(-38,10) scale(1,1)"><path fill="none" stroke="#000000" d="M 164 471 L 590 395" stroke-miterlimit="10"/></g><g transform="translate(-38,10) scale(1,1)"><path fill="#ffffff" stroke="none" d="M 210.05070774147728 921.6800000000001 C 210.05070774147728 916.8861679360001 213.93655006642274 913 218.72998046875 913 C 223.52341087107726 913 227.40925319602272 916.8861679360001 227.40925319602272 921.6800000000001 C 227.40925319602272 926.473832064 223.52341087107726 930.36 218.72998046875 930.36 C 213.93655006642274 930.36 210.05070774147728 926.473832064 210.05070774147728 921.6800000000001 Z"/></g><g transform="translate(-38,10) scale(1,1)"><path fill="none" stroke="#000000" d="M 210.05070774147728 921.6800000000001 C 210.05070774147728 916.8861679360001 213.93655006642274 913 218.72998046875 913 C 223.52341087107726 913 227.40925319602272 916.8861679360001 227.40925319602272 921.6800000000001 C 227.40925319602272 926.473832064 223.52341087107726 930.36 218.72998046875 930.36 C 213.93655006642274 930.36 210.05070774147728 926.473832064 210.05070774147728 921.6800000000001 Z" stroke-miterlimit="10"/></g><g transform="translate(-38,10) scale(1,1)"><path fill="none" stroke="#000000" d="M 218.72998046875 930.36 L 218.72998046875 947.64" stroke-miterlimit="10"/></g><g transform="translate(-38,10) scale(1,1)"><path fill="none" stroke="#000000" d="M 209.54016228693183 936.84 L 227.91979865056817 936.84" stroke-miterlimit="10"/></g><g transform="translate(-38,10) scale(1,1)"><path fill="none" stroke="#000000" d="M 218.72998046875 947.64 L 205.96634410511365 965" stroke-miterlimit="10"/></g><g transform="translate(-38,10) scale(1,1)"><path fill="none" stroke="#000000" d="M 218.72998046875 947.64 L 231.49361683238635 965" stroke-miterlimit="10"/></g><g transform="translate(-38,10) scale(1,1)"><g><path fill="none" stroke="none"/><text fill="#000000" stroke="none" font-family="Arial" font-size="13px" font-style="normal" font-weight="bold" text-decoration="none" x="176.825927734375" y="985.5">Administrateur</text></g></g><g transform="translate(-38,10) scale(1,1)"><rect fill="#C0C0C0" stroke="none" x="1151" y="111" width="172.3017578125" height="79" opacity="0.2"/></g><g transform="translate(-38,10) scale(1,1)"><rect fill="#ffffff" stroke="none" x="1144" y="104" width="172.3017578125" height="79"/></g><g transform="translate(-38,10) scale(1,1)"><path fill="none" stroke="#000000" d="M 1144 104 L 1316.3017578125 104 L 1316.3017578125 183 L 1144 183 L 1144 104 Z Z" stroke-miterlimit="10"/></g><g transform="translate(-38,10) scale(1,1)"><path fill="#ffffff" stroke="none" d="M 1295.4443032670454 113.58 C 1295.4443032670454 111.602820416 1297.1713443003546 110 1299.3017578125 110 C 1301.4321713246454 110 1303.1592123579544 111.602820416 1303.1592123579544 113.58 C 1303.1592123579544 115.557179584 1301.4321713246454 117.16 1299.3017578125 117.16 C 1297.1713443003546 117.16 1295.4443032670454 115.557179584 1295.4443032670454 113.58 Z"/></g><g transform="translate(-38,10) scale(1,1)"><path fill="none" stroke="#000000" d="M 1295.4443032670454 113.58 C 1295.4443032670454 111.602820416 1297.1713443003546 110 1299.3017578125 110 C 1301.4321713246454 110 1303.1592123579544 111.602820416 1303.1592123579544 113.58 C 1303.1592123579544 115.557179584 1301.4321713246454 117.16 1299.3017578125 117.16 C 1297.1713443003546 117.16 1295.4443032670454 115.557179584 1295.4443032670454 113.58 Z" stroke-miterlimit="10"/></g><g transform="translate(-38,10) scale(1,1)"><path fill="none" stroke="#000000" d="M 1299.3017578125 117.16 L 1299.3017578125 124.84" stroke-miterlimit="10"/></g><g transform="translate(-38,10) scale(1,1)"><path fill="none" stroke="#000000" d="M 1295.2173941761362 120.03999999999999 L 1303.3861214488634 120.03999999999999" stroke-miterlimit="10"/></g><g transform="translate(-38,10) scale(1,1)"><path fill="none" stroke="#000000" d="M 1299.3017578125 124.84 L 1293.6290305397727 132" stroke-miterlimit="10"/></g><g transform="translate(-38,10) scale(1,1)"><path fill="none" stroke="#000000" d="M 1299.3017578125 124.84 L 1304.9744850852271 132" stroke-miterlimit="10"/></g><g transform="translate(-38,10) scale(1,1)"><g><path fill="none" stroke="none"/><text fill="#000000" stroke="none" font-family="Arial" font-size="13px" font-style="normal" font-weight="bold" text-decoration="none" x="1158.5400390625" y="123.5">SI informatique prive</text></g></g><g transform="translate(-38,10) scale(1,1)"><path fill="none" stroke="#000000" d="M 1143 150 L 726 183" stroke-miterlimit="10"/></g><g transform="translate(-38,10) scale(1,1)"><path fill="none" stroke="#000000" d="M 306 803 L 242 911" stroke-miterlimit="10"/></g><g transform="translate(-38,10) scale(1,1)"><path fill="none" stroke="#000000" d="M 338 851 L 266 911" stroke-miterlimit="10"/></g><g transform="translate(-38,10) scale(1,1)"><path fill="#C0C0C0" stroke="none" d="M 263 840 C 263 830.6111584 309.5623808 823 367 823 C 424.4376192 823 471 830.6111584 471 840 C 471 849.3888416 424.4376192 857 367 857 C 309.5623808 857 263 849.3888416 263 840 Z" opacity="0.2"/></g><g transform="translate(-38,10) scale(1,1)"><path fill="#ffffff" stroke="none" d="M 256 833 C 256 823.6111584 302.5623808 816 360 816 C 417.4376192 816 464 823.6111584 464 833 C 464 842.3888416 417.4376192 850 360 850 C 302.5623808 850 256 842.3888416 256 833 Z"/></g><g transform="translate(-38,10) scale(1,1)"><path fill="none" stroke="#000000" d="M 256 833 C 256 823.6111584 302.5623808 816 360 816 C 417.4376192 816 464 823.6111584 464 833 C 464 842.3888416 417.4376192 850 360 850 C 302.5623808 850 256 842.3888416 256 833 Z" stroke-miterlimit="10"/></g><g transform="translate(-38,10) scale(1,1)"><g><path fill="none" stroke="none"/><text fill="#000000" stroke="none" font-family="Arial" font-size="13px" font-style="normal" font-weight="bold" text-decoration="none" x="298.5927734375" y="840">administrer les profils</text></g></g><g transform="translate(-38,10) scale(1,1)"><path fill="#C0C0C0" stroke="none" d="M 199 792 C 199 782.6111584 254.9644 775 324 775 C 393.0356 775 449 782.6111584 449 792 C 449 801.3888416 393.0356 809 324 809 C 254.9644 809 199 801.3888416 199 792 Z" opacity="0.2"/></g><g transform="translate(-38,10) scale(1,1)"><path fill="#ffffff" stroke="none" d="M 192 785 C 192 775.6111584 247.9644 768 317 768 C 386.0356 768 442 775.6111584 442 785 C 442 794.3888416 386.0356 802 317 802 C 247.9644 802 192 794.3888416 192 785 Z"/></g><g transform="translate(-38,10) scale(1,1)"><path fill="none" stroke="#000000" d="M 192 785 C 192 775.6111584 247.9644 768 317 768 C 386.0356 768 442 775.6111584 442 785 C 442 794.3888416 386.0356 802 317 802 C 247.9644 802 192 794.3888416 192 785 Z" stroke-miterlimit="10"/></g><g transform="translate(-38,10) scale(1,1)"><g><path fill="none" stroke="none"/><text fill="#000000" stroke="none" font-family="Arial" font-size="13px" font-style="normal" font-weight="bold" text-decoration="none" x="241.86279296875" y="792">administrer les utilisateurs</text></g></g><g transform="translate(-38,10) scale(1,1)"><path fill="#C0C0C0" stroke="none" d="M 199 736 C 199 726.6111584 267.50042559999997 719 352 719 C 436.49957440000003 719 505 726.6111584 505 736 C 505 745.3888416 436.49957440000003 753 352 753 C 267.50042559999997 753 199 745.3888416 199 736 Z" opacity="0.2"/></g><g transform="translate(-38,10) scale(1,1)"><path fill="#ffffff" stroke="none" d="M 192 729 C 192 719.6111584 260.50042559999997 712 345 712 C 429.49957440000003 712 498 719.6111584 498 729 C 498 738.3888416 429.49957440000003 746 345 746 C 260.50042559999997 746 192 738.3888416 192 729 Z"/></g><g transform="translate(-38,10) scale(1,1)"><path fill="none" stroke="#000000" d="M 192 729 C 192 719.6111584 260.50042559999997 712 345 712 C 429.49957440000003 712 498 719.6111584 498 729 C 498 738.3888416 429.49957440000003 746 345 746 C 260.50042559999997 746 192 738.3888416 192 729 Z" stroke-miterlimit="10"/></g><g transform="translate(-38,10) scale(1,1)"><g><path fill="none" stroke="none"/><text fill="#000000" stroke="none" font-family="Arial" font-size="13px" font-style="normal" font-weight="bold" text-decoration="none" x="250.346923828125" y="736">administrer le referentiel produits</text></g></g><g transform="translate(-38,10) scale(1,1)"><path fill="#C0C0C0" stroke="none" d="M 199 688 C 199 678.6111584 259.441552 671 334 671 C 408.558448 671 469 678.6111584 469 688 C 469 697.3888416 408.558448 705 334 705 C 259.441552 705 199 697.3888416 199 688 Z" opacity="0.2"/></g><g transform="translate(-38,10) scale(1,1)"><path fill="#ffffff" stroke="none" d="M 192 681 C 192 671.6111584 252.441552 664 327 664 C 401.558448 664 462 671.6111584 462 681 C 462 690.3888416 401.558448 698 327 698 C 252.441552 698 192 690.3888416 192 681 Z"/></g><g transform="translate(-38,10) scale(1,1)"><path fill="none" stroke="#000000" d="M 192 681 C 192 671.6111584 252.441552 664 327 664 C 401.558448 664 462 671.6111584 462 681 C 462 690.3888416 401.558448 698 327 698 C 252.441552 698 192 690.3888416 192 681 Z" stroke-miterlimit="10"/></g><g transform="translate(-38,10) scale(1,1)"><g><path fill="none" stroke="none"/><text fill="#000000" stroke="none" font-family="Arial" font-size="13px" font-style="normal" font-weight="bold" text-decoration="none" x="243.912353515625" y="688">administrer referentiel clients</text></g></g><g transform="translate(-38,10) scale(1,1)"><path fill="none" stroke="#000000" d="M 217 992 L 216 1031" stroke-miterlimit="10"/></g><g transform="translate(-38,10) scale(1,1)"><path fill="#FFFFFF" stroke="none" d="M 208.1047222980292 1010.4655267900839 L 216 1031 L 224.9372608524107 1010.8971303427603"/></g><g transform="translate(-38,10) scale(1,1)"><path fill="none" stroke="#000000" d="M 208.1047222980292 1010.4655267900839 L 216 1031 L 224.9372608524107 1010.8971303427603 L 208.1047222980292 1010.4655267900839" stroke-miterlimit="10"/></g><g transform="translate(-38,10) scale(1,1)"><path fill="none" stroke="#000000" d="M 1085 736 L 1128 871" stroke-miterlimit="10"/></g><g transform="translate(-38,10) scale(1,1)"><path fill="#C0C0C0" stroke="none" d="M 863 952 C 863 942.6111584 964.855208 935 1090.5 935 C 1216.144792 935 1318 942.6111584 1318 952 C 1318 961.3888416 1216.144792 969 1090.5 969 C 964.855208 969 863 961.3888416 863 952 Z" opacity="0.2"/></g><g transform="translate(-38,10) scale(1,1)"><path fill="#ffffff" stroke="none" d="M 856 945 C 856 935.6111584 957.855208 928 1083.5 928 C 1209.144792 928 1311 935.6111584 1311 945 C 1311 954.3888416 1209.144792 962 1083.5 962 C 957.855208 962 856 954.3888416 856 945 Z"/></g><g transform="translate(-38,10) scale(1,1)"><path fill="none" stroke="#000000" d="M 856 945 C 856 935.6111584 957.855208 928 1083.5 928 C 1209.144792 928 1311 935.6111584 1311 945 C 1311 954.3888416 1209.144792 962 1083.5 962 C 957.855208 962 856 954.3888416 856 945 Z" stroke-miterlimit="10"/></g><g transform="translate(-38,10) scale(1,1)"><g><path fill="none" stroke="none"/><text fill="#000000" stroke="none" font-family="Arial" font-size="13px" font-style="normal" font-weight="bold" text-decoration="none" x="938.979736328125" y="952">paramétrer la remontée d’information automatique</text></g></g><g transform="translate(-38,10) scale(1,1)"><path fill="#C0C0C0" stroke="none" d="M 575 960 C 575 950.6111584 624.9202448 943 686.5 943 C 748.0797552 943 798 950.6111584 798 960 C 798 969.3888416 748.0797552 977 686.5 977 C 624.9202448 977 575 969.3888416 575 960 Z" opacity="0.2"/></g><g transform="translate(-38,10) scale(1,1)"><path fill="#ffffff" stroke="none" d="M 568 953 C 568 943.6111584 617.9202448 936 679.5 936 C 741.0797552 936 791 943.6111584 791 953 C 791 962.3888416 741.0797552 970 679.5 970 C 617.9202448 970 568 962.3888416 568 953 Z"/></g><g transform="translate(-38,10) scale(1,1)"><path fill="none" stroke="#000000" d="M 568 953 C 568 943.6111584 617.9202448 936 679.5 936 C 741.0797552 936 791 943.6111584 791 953 C 791 962.3888416 741.0797552 970 679.5 970 C 617.9202448 970 568 962.3888416 568 953 Z" stroke-miterlimit="10"/></g><g transform="translate(-38,10) scale(1,1)"><g><path fill="none" stroke="none"/><text fill="#000000" stroke="none" font-family="Arial" font-size="13px" font-style="normal" font-weight="bold" text-decoration="none" x="624.935546875" y="960">utiliser son agenda</text></g></g><g transform="translate(-38,10) scale(1,1)"><path fill="#C0C0C0" stroke="none" d="M 927 896 C 927 886.6111584 1022.8110528 879 1141 879 C 1259.1889472 879 1355 886.6111584 1355 896 C 1355 905.3888416 1259.1889472 913 1141 913 C 1022.8110528 913 927 905.3888416 927 896 Z" opacity="0.2"/></g><g transform="translate(-38,10) scale(1,1)"><path fill="#ffffff" stroke="none" d="M 920 889 C 920 879.6111584 1015.8110528 872 1134 872 C 1252.1889472 872 1348 879.6111584 1348 889 C 1348 898.3888416 1252.1889472 906 1134 906 C 1015.8110528 906 920 898.3888416 920 889 Z"/></g><g transform="translate(-38,10) scale(1,1)"><path fill="none" stroke="#000000" d="M 920 889 C 920 879.6111584 1015.8110528 872 1134 872 C 1252.1889472 872 1348 879.6111584 1348 889 C 1348 898.3888416 1252.1889472 906 1134 906 C 1015.8110528 906 920 898.3888416 920 889 Z" stroke-miterlimit="10"/></g><g transform="translate(-38,10) scale(1,1)"><g><path fill="none" stroke="none"/><text fill="#000000" stroke="none" font-family="Arial" font-size="13px" font-style="normal" font-weight="bold" text-decoration="none" x="998.880615234375" y="896">consulter les analyses sur perimetre specifique</text></g></g><g transform="translate(-38,10) scale(1,1)"><path fill="#C0C0C0" stroke="none" d="M 999 992 C 999 982.6111584 1075.5592992 975 1170 975 C 1264.4407008 975 1341 982.6111584 1341 992 C 1341 1001.3888416 1264.4407008 1009 1170 1009 C 1075.5592992 1009 999 1001.3888416 999 992 Z" opacity="0.2"/></g><g transform="translate(-38,10) scale(1,1)"><path fill="#ffffff" stroke="none" d="M 992 985 C 992 975.6111584 1068.5592992 968 1163 968 C 1257.4407008 968 1334 975.6111584 1334 985 C 1334 994.3888416 1257.4407008 1002 1163 1002 C 1068.5592992 1002 992 994.3888416 992 985 Z"/></g><g transform="translate(-38,10) scale(1,1)"><path fill="none" stroke="#000000" d="M 992 985 C 992 975.6111584 1068.5592992 968 1163 968 C 1257.4407008 968 1334 975.6111584 1334 985 C 1334 994.3888416 1257.4407008 1002 1163 1002 C 1068.5592992 1002 992 994.3888416 992 985 Z" stroke-miterlimit="10"/></g><g transform="translate(-38,10) scale(1,1)"><g><path fill="none" stroke="none"/><text fill="#000000" stroke="none" font-family="Arial" font-size="13px" font-style="normal" font-weight="bold" text-decoration="none" x="1055.69287109375" y="992">enregistrer un compte rendu de visite</text></g></g><g transform="translate(-38,10) scale(1,1)"><path fill="#C0C0C0" stroke="none" d="M 551 384 C 551 374.6111584 616.8141344000001 367 698 367 C 779.1858655999999 367 845 374.6111584 845 384 C 845 393.3888416 779.1858655999999 401 698 401 C 616.8141344000001 401 551 393.3888416 551 384 Z" opacity="0.2"/></g><g transform="translate(-38,10) scale(1,1)"><path fill="#ffffff" stroke="none" d="M 544 377 C 544 367.6111584 609.8141344000001 360 691 360 C 772.1858655999999 360 838 367.6111584 838 377 C 838 386.3888416 772.1858655999999 394 691 394 C 609.8141344000001 394 544 386.3888416 544 377 Z"/></g><g transform="translate(-38,10) scale(1,1)"><path fill="none" stroke="#000000" d="M 544 377 C 544 367.6111584 609.8141344000001 360 691 360 C 772.1858655999999 360 838 367.6111584 838 377 C 838 386.3888416 772.1858655999999 394 691 394 C 609.8141344000001 394 544 386.3888416 544 377 Z" stroke-miterlimit="10"/></g><g transform="translate(-38,10) scale(1,1)"><g><path fill="none" stroke="none"/><text fill="#000000" stroke="none" font-family="Arial" font-size="13px" font-style="normal" font-weight="bold" text-decoration="none" x="599.235107421875" y="384">proposer une offre commerciale</text></g></g><g transform="translate(-38,10) scale(1,1)"><path fill="#C0C0C0" stroke="none" d="M 943 384 C 943 374.6111584 974.7877792 367 1014 367 C 1053.2122208 367 1085 374.6111584 1085 384 C 1085 393.3888416 1053.2122208 401 1014 401 C 974.7877792 401 943 393.3888416 943 384 Z" opacity="0.2"/></g><g transform="translate(-38,10) scale(1,1)"><path fill="#ffffff" stroke="none" d="M 936 377 C 936 367.6111584 967.7877792 360 1007 360 C 1046.2122208 360 1078 367.6111584 1078 377 C 1078 386.3888416 1046.2122208 394 1007 394 C 967.7877792 394 936 386.3888416 936 377 Z"/></g><g transform="translate(-38,10) scale(1,1)"><path fill="none" stroke="#000000" d="M 936 377 C 936 367.6111584 967.7877792 360 1007 360 C 1046.2122208 360 1078 367.6111584 1078 377 C 1078 386.3888416 1046.2122208 394 1007 394 C 967.7877792 394 936 386.3888416 936 377 Z" stroke-miterlimit="10"/></g><g transform="translate(-38,10) scale(1,1)"><g><path fill="none" stroke="none"/><text fill="#000000" stroke="none" font-family="Arial" font-size="13px" font-style="normal" font-weight="bold" text-decoration="none" x="963.997802734375" y="384">faire une vente</text></g></g><g transform="translate(-38,10) scale(1,1)"><path fill="#C0C0C0" stroke="none" d="M 871 432 C 871 422.6111584 947.7831568 415 1042.5 415 C 1137.2168432 415 1214 422.6111584 1214 432 C 1214 441.3888416 1137.2168432 449 1042.5 449 C 947.7831568 449 871 441.3888416 871 432 Z" opacity="0.2"/></g><g transform="translate(-38,10) scale(1,1)"><path fill="#ffffff" stroke="none" d="M 864 425 C 864 415.6111584 940.7831568 408 1035.5 408 C 1130.2168432 408 1207 415.6111584 1207 425 C 1207 434.3888416 1130.2168432 442 1035.5 442 C 940.7831568 442 864 434.3888416 864 425 Z"/></g><g transform="translate(-38,10) scale(1,1)"><path fill="none" stroke="#000000" d="M 864 425 C 864 415.6111584 940.7831568 408 1035.5 408 C 1130.2168432 408 1207 415.6111584 1207 425 C 1207 434.3888416 1130.2168432 442 1035.5 442 C 940.7831568 442 864 434.3888416 864 425 Z" stroke-miterlimit="10"/></g><g transform="translate(-38,10) scale(1,1)"><g><path fill="none" stroke="none"/><text fill="#000000" stroke="none" font-family="Arial" font-size="13px" font-style="normal" font-weight="bold" text-decoration="none" x="935.400634765625" y="432">realiser une campagne de phoning</text></g></g><g transform="translate(-38,10) scale(1,1)"><path fill="#C0C0C0" stroke="none" d="M 591 472 C 591 462.6111584 659.9481408 455 745 455 C 830.0518592 455 899 462.6111584 899 472 C 899 481.3888416 830.0518592 489 745 489 C 659.9481408 489 591 481.3888416 591 472 Z" opacity="0.2"/></g><g transform="translate(-38,10) scale(1,1)"><path fill="#ffffff" stroke="none" d="M 584 465 C 584 455.6111584 652.9481408 448 738 448 C 823.0518592 448 892 455.6111584 892 465 C 892 474.3888416 823.0518592 482 738 482 C 652.9481408 482 584 474.3888416 584 465 Z"/></g><g transform="translate(-38,10) scale(1,1)"><path fill="none" stroke="#000000" d="M 584 465 C 584 455.6111584 652.9481408 448 738 448 C 823.0518592 448 892 455.6111584 892 465 C 892 474.3888416 823.0518592 482 738 482 C 652.9481408 482 584 474.3888416 584 465 Z" stroke-miterlimit="10"/></g><g transform="translate(-38,10) scale(1,1)"><g><path fill="none" stroke="none"/><text fill="#000000" stroke="none" font-family="Arial" font-size="13px" font-style="normal" font-weight="bold" text-decoration="none" x="642.98193359375" y="472">administrer son portefeuille client</text></g></g><g transform="translate(-38,10) scale(1,1)"><path fill="#C0C0C0" stroke="none" d="M 903 496 C 903 486.6111584 960.5314032 479 1031.5 479 C 1102.4685968 479 1160 486.6111584 1160 496 C 1160 505.3888416 1102.4685968 513 1031.5 513 C 960.5314032 513 903 505.3888416 903 496 Z" opacity="0.2"/></g><g transform="translate(-38,10) scale(1,1)"><path fill="#ffffff" stroke="none" d="M 896 489 C 896 479.6111584 953.5314032 472 1024.5 472 C 1095.4685968 472 1153 479.6111584 1153 489 C 1153 498.3888416 1095.4685968 506 1024.5 506 C 953.5314032 506 896 498.3888416 896 489 Z"/></g><g transform="translate(-38,10) scale(1,1)"><path fill="none" stroke="#000000" d="M 896 489 C 896 479.6111584 953.5314032 472 1024.5 472 C 1095.4685968 472 1153 479.6111584 1153 489 C 1153 498.3888416 1095.4685968 506 1024.5 506 C 953.5314032 506 896 498.3888416 896 489 Z" stroke-miterlimit="10"/></g><g transform="translate(-38,10) scale(1,1)"><g><path fill="none" stroke="none"/><text fill="#000000" stroke="none" font-family="Arial" font-size="13px" font-style="normal" font-weight="bold" text-decoration="none" x="944.2783203125" y="496">partager des donnees client</text></g></g><g transform="translate(-38,10) scale(1,1)"><path fill="#C0C0C0" stroke="none" d="M 927 536 C 927 526.6111584 981.845112 519 1049.5 519 C 1117.154888 519 1172 526.6111584 1172 536 C 1172 545.3888416 1117.154888 553 1049.5 553 C 981.845112 553 927 545.3888416 927 536 Z" opacity="0.2"/></g><g transform="translate(-38,10) scale(1,1)"><path fill="#ffffff" stroke="none" d="M 920 529 C 920 519.6111584 974.845112 512 1042.5 512 C 1110.154888 512 1165 519.6111584 1165 529 C 1165 538.3888416 1110.154888 546 1042.5 546 C 974.845112 546 920 538.3888416 920 529 Z"/></g><g transform="translate(-38,10) scale(1,1)"><path fill="none" stroke="#000000" d="M 920 529 C 920 519.6111584 974.845112 512 1042.5 512 C 1110.154888 512 1165 519.6111584 1165 529 C 1165 538.3888416 1110.154888 546 1042.5 546 C 974.845112 546 920 538.3888416 920 529 Z" stroke-miterlimit="10"/></g><g transform="translate(-38,10) scale(1,1)"><g><path fill="none" stroke="none"/><text fill="#000000" stroke="none" font-family="Arial" font-size="13px" font-style="normal" font-weight="bold" text-decoration="none" x="966.27099609375" y="536">visualiser la carte d_accès</text></g></g><g transform="translate(-38,10) scale(1,1)"><path fill="#C0C0C0" stroke="none" d="M 639 624 C 639 614.6111584 698.0984064 607 771 607 C 843.9015936 607 903 614.6111584 903 624 C 903 633.3888416 843.9015936 641 771 641 C 698.0984064 641 639 633.3888416 639 624 Z" opacity="0.2"/></g><g transform="translate(-38,10) scale(1,1)"><path fill="#ffffff" stroke="none" d="M 632 617 C 632 607.6111584 691.0984064 600 764 600 C 836.9015936 600 896 607.6111584 896 617 C 896 626.3888416 836.9015936 634 764 634 C 691.0984064 634 632 626.3888416 632 617 Z"/></g><g transform="translate(-38,10) scale(1,1)"><path fill="none" stroke="#000000" d="M 632 617 C 632 607.6111584 691.0984064 600 764 600 C 836.9015936 600 896 607.6111584 896 617 C 896 626.3888416 836.9015936 634 764 634 C 691.0984064 634 632 626.3888416 632 617 Z" stroke-miterlimit="10"/></g><g transform="translate(-38,10) scale(1,1)"><g><path fill="none" stroke="none"/><text fill="#000000" stroke="none" font-family="Arial" font-size="13px" font-style="normal" font-weight="bold" text-decoration="none" x="681.985107421875" y="624">administrer les appel d_offre</text></g></g><g transform="translate(-38,10) scale(1,1)"><path fill="#C0C0C0" stroke="none" d="M 935 576 C 935 566.6111584 990.9644 559 1060 559 C 1129.0356 559 1185 566.6111584 1185 576 C 1185 585.3888416 1129.0356 593 1060 593 C 990.9644 593 935 585.3888416 935 576 Z" opacity="0.2"/></g><g transform="translate(-38,10) scale(1,1)"><path fill="#ffffff" stroke="none" d="M 928 569 C 928 559.6111584 983.9644 552 1053 552 C 1122.0356 552 1178 559.6111584 1178 569 C 1178 578.3888416 1122.0356 586 1053 586 C 983.9644 586 928 578.3888416 928 569 Z"/></g><g transform="translate(-38,10) scale(1,1)"><path fill="none" stroke="#000000" d="M 928 569 C 928 559.6111584 983.9644 552 1053 552 C 1122.0356 552 1178 559.6111584 1178 569 C 1178 578.3888416 1122.0356 586 1053 586 C 983.9644 586 928 578.3888416 928 569 Z" stroke-miterlimit="10"/></g><g transform="translate(-38,10) scale(1,1)"><g><path fill="none" stroke="none"/><text fill="#000000" stroke="none" font-family="Arial" font-size="13px" font-style="normal" font-weight="bold" text-decoration="none" x="977.8564453125" y="576">administrer un fournisseur</text></g></g><g transform="translate(-38,10) scale(1,1)"><path fill="none" stroke="#000000" d="M 583 791 L 248 1046" stroke-miterlimit="10"/></g><g transform="translate(-38,10) scale(1,1)"><path fill="#FFFFFF" stroke="none" d="M 259.0736810826138 1026.990171297969 L 248 1046 L 269.2722537706142 1040.3882962018126"/></g><g transform="translate(-38,10) scale(1,1)"><path fill="none" stroke="#000000" d="M 259.0736810826138 1026.990171297969 L 248 1046 L 269.2722537706142 1040.3882962018126 L 259.0736810826138 1026.990171297969" stroke-miterlimit="10"/></g><g transform="translate(-38,10) scale(1,1)"><path fill="#C0C0C0" stroke="none" d="M 103 64 C 103 54.6111584 237.9861328 47 404.5 47 C 571.0138672 47 706 54.6111584 706 64 C 706 73.3888416 571.0138672 81 404.5 81 C 237.9861328 81 103 73.3888416 103 64 Z" opacity="0.2"/></g><g transform="translate(-38,10) scale(1,1)"><path fill="#ffffff" stroke="none" d="M 96 57 C 96 47.6111584 230.9861328 40 397.5 40 C 564.0138672 40 699 47.6111584 699 57 C 699 66.3888416 564.0138672 74 397.5 74 C 230.9861328 74 96 66.3888416 96 57 Z"/></g><g transform="translate(-38,10) scale(1,1)"><path fill="none" stroke="#000000" d="M 96 57 C 96 47.6111584 230.9861328 40 397.5 40 C 564.0138672 40 699 47.6111584 699 57 C 699 66.3888416 564.0138672 74 397.5 74 C 230.9861328 74 96 66.3888416 96 57 Z" stroke-miterlimit="10"/></g><g transform="translate(-38,10) scale(1,1)"><g><path fill="none" stroke="none"/><text fill="#000000" stroke="none" font-family="Arial" font-size="13px" font-style="normal" font-weight="bold" text-decoration="none" x="203.493408203125" y="64">mettre a jour les seminaires et evenements professionels medicaux</text></g></g><g transform="translate(-38,10) scale(1,1)"><path fill="#C0C0C0" stroke="none" d="M 111 104 C 111 94.6111584 163.606536 87 228.5 87 C 293.393464 87 346 94.6111584 346 104 C 346 113.3888416 293.393464 121 228.5 121 C 163.606536 121 111 113.3888416 111 104 Z" opacity="0.2"/></g><g transform="translate(-38,10) scale(1,1)"><path fill="#ffffff" stroke="none" d="M 104 97 C 104 87.6111584 156.606536 80 221.5 80 C 286.393464 80 339 87.6111584 339 97 C 339 106.3888416 286.393464 114 221.5 114 C 156.606536 114 104 106.3888416 104 97 Z"/></g><g transform="translate(-38,10) scale(1,1)"><path fill="none" stroke="#000000" d="M 104 97 C 104 87.6111584 156.606536 80 221.5 80 C 286.393464 80 339 87.6111584 339 97 C 339 106.3888416 286.393464 114 221.5 114 C 156.606536 114 104 106.3888416 104 97 Z" stroke-miterlimit="10"/></g><g transform="translate(-38,10) scale(1,1)"><g><path fill="none" stroke="none"/><text fill="#000000" stroke="none" font-family="Arial" font-size="13px" font-style="normal" font-weight="bold" text-decoration="none" x="148.866943359375" y="104">proposer un appel d offre</text></g></g><g transform="translate(-38,10) scale(1,1)"><path fill="#C0C0C0" stroke="none" d="M 167 232 C 167 222.6111584 207.7420832 215 258 215 C 308.2579168 215 349 222.6111584 349 232 C 349 241.3888416 308.2579168 249 258 249 C 207.7420832 249 167 241.3888416 167 232 Z" opacity="0.2"/></g><g transform="translate(-38,10) scale(1,1)"><path fill="#ffffff" stroke="none" d="M 160 225 C 160 215.6111584 200.7420832 208 251 208 C 301.2579168 208 342 215.6111584 342 225 C 342 234.3888416 301.2579168 242 251 242 C 200.7420832 242 160 234.3888416 160 225 Z"/></g><g transform="translate(-38,10) scale(1,1)"><path fill="none" stroke="#000000" d="M 160 225 C 160 215.6111584 200.7420832 208 251 208 C 301.2579168 208 342 215.6111584 342 225 C 342 234.3888416 301.2579168 242 251 242 C 200.7420832 242 160 234.3888416 160 225 Z" stroke-miterlimit="10"/></g><g transform="translate(-38,10) scale(1,1)"><g><path fill="none" stroke="none"/><text fill="#000000" stroke="none" font-family="Arial" font-size="13px" font-style="normal" font-weight="bold" text-decoration="none" x="196.080078125" y="232">suggerer une visite</text></g></g><g transform="translate(-38,10) scale(1,1)"><path fill="#C0C0C0" stroke="none" d="M 263 280 C 263 270.6111584 312.4725296 263 373.5 263 C 434.5274704 263 484 270.6111584 484 280 C 484 289.3888416 434.5274704 297 373.5 297 C 312.4725296 297 263 289.3888416 263 280 Z" opacity="0.2"/></g><g transform="translate(-38,10) scale(1,1)"><path fill="#ffffff" stroke="none" d="M 256 273 C 256 263.6111584 305.4725296 256 366.5 256 C 427.5274704 256 477 263.6111584 477 273 C 477 282.3888416 427.5274704 290 366.5 290 C 305.4725296 290 256 282.3888416 256 273 Z"/></g><g transform="translate(-38,10) scale(1,1)"><path fill="none" stroke="#000000" d="M 256 273 C 256 263.6111584 305.4725296 256 366.5 256 C 427.5274704 256 477 263.6111584 477 273 C 477 282.3888416 427.5274704 290 366.5 290 C 305.4725296 290 256 282.3888416 256 273 Z" stroke-miterlimit="10"/></g><g transform="translate(-38,10) scale(1,1)"><g><path fill="none" stroke="none"/><text fill="#000000" stroke="none" font-family="Arial" font-size="13px" font-style="normal" font-weight="bold" text-decoration="none" x="297.48828125" y="280">suggerer partenariat ES</text></g></g><g transform="translate(-38,10) scale(1,1)"><path fill="#C0C0C0" stroke="none" d="M 487 200 C 487 190.6111584 541.845112 183 609.5 183 C 677.154888 183 732 190.6111584 732 200 C 732 209.3888416 677.154888 217 609.5 217 C 541.845112 217 487 209.3888416 487 200 Z" opacity="0.2"/></g><g transform="translate(-38,10) scale(1,1)"><path fill="#ffffff" stroke="none" d="M 480 193 C 480 183.6111584 534.845112 176 602.5 176 C 670.154888 176 725 183.6111584 725 193 C 725 202.3888416 670.154888 210 602.5 210 C 534.845112 210 480 202.3888416 480 193 Z"/></g><g transform="translate(-38,10) scale(1,1)"><path fill="none" stroke="#000000" d="M 480 193 C 480 183.6111584 534.845112 176 602.5 176 C 670.154888 176 725 183.6111584 725 193 C 725 202.3888416 670.154888 210 602.5 210 C 534.845112 210 480 202.3888416 480 193 Z" stroke-miterlimit="10"/></g><g transform="translate(-38,10) scale(1,1)"><g><path fill="none" stroke="none"/><text fill="#000000" stroke="none" font-family="Arial" font-size="13px" font-style="normal" font-weight="bold" text-decoration="none" x="526.25830078125" y="200">recuperer  donnees brutes</text></g></g><g transform="translate(-38,10) scale(1,1)"><path fill="#C0C0C0" stroke="none" d="M 887 1160 C 887 1150.6111584 936.4725296 1143 997.5 1143 C 1058.5274704 1143 1108 1150.6111584 1108 1160 C 1108 1169.3888416 1058.5274704 1177 997.5 1177 C 936.4725296 1177 887 1169.3888416 887 1160 Z" opacity="0.2"/></g><g transform="translate(-38,10) scale(1,1)"><path fill="#ffffff" stroke="none" d="M 880 1153 C 880 1143.6111584 929.4725296 1136 990.5 1136 C 1051.5274704 1136 1101 1143.6111584 1101 1153 C 1101 1162.3888416 1051.5274704 1170 990.5 1170 C 929.4725296 1170 880 1162.3888416 880 1153 Z"/></g><g transform="translate(-38,10) scale(1,1)"><path fill="none" stroke="#000000" d="M 880 1153 C 880 1143.6111584 929.4725296 1136 990.5 1136 C 1051.5274704 1136 1101 1143.6111584 1101 1153 C 1101 1162.3888416 1051.5274704 1170 990.5 1170 C 929.4725296 1170 880 1162.3888416 880 1153 Z" stroke-miterlimit="10"/></g><g transform="translate(-38,10) scale(1,1)"><g><path fill="none" stroke="none"/><text fill="#000000" stroke="none" font-family="Arial" font-size="13px" font-style="normal" font-weight="bold" text-decoration="none" x="921.84375" y="1160">traiter un appel manqué</text></g></g><g transform="translate(-38,10) scale(1,1)"><path fill="#C0C0C0" stroke="none" d="M 439 128 C 439 118.6111584 503.4709888 111 583 111 C 662.5290112 111 727 118.6111584 727 128 C 727 137.3888416 662.5290112 145 583 145 C 503.4709888 145 439 137.3888416 439 128 Z" opacity="0.2"/></g><g transform="translate(-38,10) scale(1,1)"><path fill="#ffffff" stroke="none" d="M 432 121 C 432 111.6111584 496.4709888 104 576 104 C 655.5290112 104 720 111.6111584 720 121 C 720 130.3888416 655.5290112 138 576 138 C 496.4709888 138 432 130.3888416 432 121 Z"/></g><g transform="translate(-38,10) scale(1,1)"><path fill="none" stroke="#000000" d="M 432 121 C 432 111.6111584 496.4709888 104 576 104 C 655.5290112 104 720 111.6111584 720 121 C 720 130.3888416 655.5290112 138 576 138 C 496.4709888 138 432 130.3888416 432 121 Z" stroke-miterlimit="10"/></g><g transform="translate(-38,10) scale(1,1)"><g><path fill="none" stroke="none"/><text fill="#000000" stroke="none" font-family="Arial" font-size="13px" font-style="normal" font-weight="bold" text-decoration="none" x="485.676025390625" y="128">retraiter les données médicales</text></g></g><g transform="translate(-38,10) scale(1,1)"><path fill="none" stroke="#000000" d="M 239 1112 L 358 1311" stroke-miterlimit="10"/></g><g transform="translate(-38,10) scale(1,1)"><path fill="none" stroke="#000000" d="M 248 1075 L 879 1141" stroke-miterlimit="10"/></g><g transform="translate(-38,10) scale(1,1)"><path fill="#C0C0C0" stroke="none" d="M 919 1224 C 919 1214.6111584 994.6638688 1207 1088 1207 C 1181.3361312 1207 1257 1214.6111584 1257 1224 C 1257 1233.3888416 1181.3361312 1241 1088 1241 C 994.6638688 1241 919 1233.3888416 919 1224 Z" opacity="0.2"/></g><g transform="translate(-38,10) scale(1,1)"><path fill="#ffffff" stroke="none" d="M 912 1217 C 912 1207.6111584 987.6638688 1200 1081 1200 C 1174.3361312 1200 1250 1207.6111584 1250 1217 C 1250 1226.3888416 1174.3361312 1234 1081 1234 C 987.6638688 1234 912 1226.3888416 912 1217 Z"/></g><g transform="translate(-38,10) scale(1,1)"><path fill="none" stroke="#000000" d="M 912 1217 C 912 1207.6111584 987.6638688 1200 1081 1200 C 1174.3361312 1200 1250 1207.6111584 1250 1217 C 1250 1226.3888416 1174.3361312 1234 1081 1234 C 987.6638688 1234 912 1226.3888416 912 1217 Z" stroke-miterlimit="10"/></g><g transform="translate(-38,10) scale(1,1)"><g><path fill="none" stroke="none"/><text fill="#000000" stroke="none" font-family="Arial" font-size="13px" font-style="normal" font-weight="bold" text-decoration="none" x="988.501953125" y="1224">editer un compte rendu de visite</text></g></g><g transform="translate(-38,10) scale(1,1)"><path fill="#C0C0C0" stroke="none" d="M 599 584 C 599 574.6111584 673.5445808 567 765.5 567 C 857.4554192 567 932 574.6111584 932 584 C 932 593.3888416 857.4554192 601 765.5 601 C 673.5445808 601 599 593.3888416 599 584 Z" opacity="0.2"/></g><g transform="translate(-38,10) scale(1,1)"><path fill="#ffffff" stroke="none" d="M 592 577 C 592 567.6111584 666.5445808 560 758.5 560 C 850.4554192 560 925 567.6111584 925 577 C 925 586.3888416 850.4554192 594 758.5 594 C 666.5445808 594 592 586.3888416 592 577 Z"/></g><g transform="translate(-38,10) scale(1,1)"><path fill="none" stroke="#000000" d="M 592 577 C 592 567.6111584 666.5445808 560 758.5 560 C 850.4554192 560 925 567.6111584 925 577 C 925 586.3888416 850.4554192 594 758.5 594 C 666.5445808 594 592 586.3888416 592 577 Z" stroke-miterlimit="10"/></g><g transform="translate(-38,10) scale(1,1)"><g><path fill="none" stroke="none"/><text fill="#000000" stroke="none" font-family="Arial" font-size="13px" font-style="normal" font-weight="bold" text-decoration="none" x="653.709716796875" y="584">accéder au catalogue de l’entreprise</text></g></g><g transform="translate(-38,10) scale(1,1)"><path fill="none" stroke="#000000" d="M 164 486 L 641 559" stroke-miterlimit="10"/></g><g transform="translate(-38,10) scale(1,1)"><path fill="#C0C0C0" stroke="none" d="M 543 896 C 543 886.6111584 627.6181728 879 732 879 C 836.3818272 879 921 886.6111584 921 896 C 921 905.3888416 836.3818272 913 732 913 C 627.6181728 913 543 905.3888416 543 896 Z" opacity="0.2"/></g><g transform="translate(-38,10) scale(1,1)"><path fill="#ffffff" stroke="none" d="M 536 889 C 536 879.6111584 620.6181728 872 725 872 C 829.3818272 872 914 879.6111584 914 889 C 914 898.3888416 829.3818272 906 725 906 C 620.6181728 906 536 898.3888416 536 889 Z"/></g><g transform="translate(-38,10) scale(1,1)"><path fill="none" stroke="#000000" d="M 536 889 C 536 879.6111584 620.6181728 872 725 872 C 829.3818272 872 914 879.6111584 914 889 C 914 898.3888416 829.3818272 906 725 906 C 620.6181728 906 536 898.3888416 536 889 Z" stroke-miterlimit="10"/></g><g transform="translate(-38,10) scale(1,1)"><g><path fill="none" stroke="none"/><text fill="#000000" stroke="none" font-family="Arial" font-size="13px" font-style="normal" font-weight="bold" text-decoration="none" x="605.3974609375" y="896">accéder aux données relatives à un client</text></g></g><g transform="translate(-38,10) scale(1,1)"><path fill="none" stroke="#000000" d="M 662 792 L 713 871" stroke-miterlimit="10"/></g><g transform="translate(-38,10) scale(1,1)"><path fill="none" stroke="#000000" d="M 214 1112 L 208 1399" stroke-miterlimit="10"/></g><g transform="translate(-38,10) scale(1,1)"><path fill="#C0C0C0" stroke="none" d="M 55 1376 C 55 1366.6111584 159.7653568 1359 289 1359 C 418.2346432 1359 523 1366.6111584 523 1376 C 523 1385.3888416 418.2346432 1393 289 1393 C 159.7653568 1393 55 1385.3888416 55 1376 Z" opacity="0.2"/></g><g transform="translate(-38,10) scale(1,1)"><path fill="#ffffff" stroke="none" d="M 48 1369 C 48 1359.6111584 152.7653568 1352 282 1352 C 411.2346432 1352 516 1359.6111584 516 1369 C 516 1378.3888416 411.2346432 1386 282 1386 C 152.7653568 1386 48 1378.3888416 48 1369 Z"/></g><g transform="translate(-38,10) scale(1,1)"><path fill="none" stroke="#000000" d="M 48 1369 C 48 1359.6111584 152.7653568 1352 282 1352 C 411.2346432 1352 516 1359.6111584 516 1369 C 516 1378.3888416 411.2346432 1386 282 1386 C 152.7653568 1386 48 1378.3888416 48 1369 Z" stroke-miterlimit="10"/></g><g transform="translate(-38,10) scale(1,1)"><g><path fill="none" stroke="none"/><text fill="#000000" stroke="none" font-family="Arial" font-size="13px" font-style="normal" font-weight="bold" text-decoration="none" x="133.515625" y="1376">visualiser l activite des collaborateurs en temps reel</text></g></g><g transform="translate(-38,10) scale(1,1)"><path fill="#C0C0C0" stroke="none" d="M 223 1336 C 223 1326.6111584 291.7242832 1319 376.5 1319 C 461.2757168 1319 530 1326.6111584 530 1336 C 530 1345.3888416 461.2757168 1353 376.5 1353 C 291.7242832 1353 223 1345.3888416 223 1336 Z" opacity="0.2"/></g><g transform="translate(-38,10) scale(1,1)"><path fill="#ffffff" stroke="none" d="M 216 1329 C 216 1319.6111584 284.7242832 1312 369.5 1312 C 454.2757168 1312 523 1319.6111584 523 1329 C 523 1338.3888416 454.2757168 1346 369.5 1346 C 284.7242832 1346 216 1338.3888416 216 1329 Z"/></g><g transform="translate(-38,10) scale(1,1)"><path fill="none" stroke="#000000" d="M 216 1329 C 216 1319.6111584 284.7242832 1312 369.5 1312 C 454.2757168 1312 523 1319.6111584 523 1329 C 523 1338.3888416 454.2757168 1346 369.5 1346 C 284.7242832 1346 216 1338.3888416 216 1329 Z" stroke-miterlimit="10"/></g><g transform="translate(-38,10) scale(1,1)"><g><path fill="none" stroke="none"/><text fill="#000000" stroke="none" font-family="Arial" font-size="13px" font-style="normal" font-weight="bold" text-decoration="none" x="275.564208984375" y="1336">voir l historique des  notifications</text></g></g><g transform="translate(-38,10) scale(1,1)"><path fill="#C0C0C0" stroke="none" d="M 599 1336 C 599 1326.6111584 668.8435712 1319 755 1319 C 841.1564288 1319 911 1326.6111584 911 1336 C 911 1345.3888416 841.1564288 1353 755 1353 C 668.8435712 1353 599 1345.3888416 599 1336 Z" opacity="0.2"/></g><g transform="translate(-38,10) scale(1,1)"><path fill="#ffffff" stroke="none" d="M 592 1329 C 592 1319.6111584 661.8435712 1312 748 1312 C 834.1564288 1312 904 1319.6111584 904 1329 C 904 1338.3888416 834.1564288 1346 748 1346 C 661.8435712 1346 592 1338.3888416 592 1329 Z"/></g><g transform="translate(-38,10) scale(1,1)"><path fill="none" stroke="#000000" d="M 592 1329 C 592 1319.6111584 661.8435712 1312 748 1312 C 834.1564288 1312 904 1319.6111584 904 1329 C 904 1338.3888416 834.1564288 1346 748 1346 C 661.8435712 1346 592 1338.3888416 592 1329 Z" stroke-miterlimit="10"/></g><g transform="translate(-38,10) scale(1,1)"><g><path fill="none" stroke="none"/><text fill="#000000" stroke="none" font-family="Arial" font-size="13px" font-style="normal" font-weight="bold" text-decoration="none" x="651.16650390625" y="1336">historiser un appel entrant sortant</text></g></g><g transform="translate(-38,10) scale(1,1)"><path fill="#C0C0C0" stroke="none" d="M 71 1424 C 71 1414.6111584 135.4709888 1407 215 1407 C 294.5290112 1407 359 1414.6111584 359 1424 C 359 1433.3888416 294.5290112 1441 215 1441 C 135.4709888 1441 71 1433.3888416 71 1424 Z" opacity="0.2"/></g><g transform="translate(-38,10) scale(1,1)"><path fill="#ffffff" stroke="none" d="M 64 1417 C 64 1407.6111584 128.4709888 1400 208 1400 C 287.5290112 1400 352 1407.6111584 352 1417 C 352 1426.3888416 287.5290112 1434 208 1434 C 128.4709888 1434 64 1426.3888416 64 1417 Z"/></g><g transform="translate(-38,10) scale(1,1)"><path fill="none" stroke="#000000" d="M 64 1417 C 64 1407.6111584 128.4709888 1400 208 1400 C 287.5290112 1400 352 1407.6111584 352 1417 C 352 1426.3888416 287.5290112 1434 208 1434 C 128.4709888 1434 64 1426.3888416 64 1417 Z" stroke-miterlimit="10"/></g><g transform="translate(-38,10) scale(1,1)"><g><path fill="none" stroke="none"/><text fill="#000000" stroke="none" font-family="Arial" font-size="13px" font-style="normal" font-weight="bold" text-decoration="none" x="118.025146484375" y="1424">basculer en mode offline online</text></g></g><g transform="translate(-38,10) scale(1,1)"><path fill="#C0C0C0" stroke="none" d="M 95 1280 C 95 1270.6111584 170.8877264 1263 264.5 1263 C 358.1122736 1263 434 1270.6111584 434 1280 C 434 1289.3888416 358.1122736 1297 264.5 1297 C 170.8877264 1297 95 1289.3888416 95 1280 Z" opacity="0.2"/></g><g transform="translate(-38,10) scale(1,1)"><path fill="#ffffff" stroke="none" d="M 88 1273 C 88 1263.6111584 163.8877264 1256 257.5 1256 C 351.1122736 1256 427 1263.6111584 427 1273 C 427 1282.3888416 351.1122736 1290 257.5 1290 C 163.8877264 1290 88 1282.3888416 88 1273 Z"/></g><g transform="translate(-38,10) scale(1,1)"><path fill="none" stroke="#000000" d="M 88 1273 C 88 1263.6111584 163.8877264 1256 257.5 1256 C 351.1122736 1256 427 1263.6111584 427 1273 C 427 1282.3888416 351.1122736 1290 257.5 1290 C 163.8877264 1290 88 1282.3888416 88 1273 Z" stroke-miterlimit="10"/></g><g transform="translate(-38,10) scale(1,1)"><g><path fill="none" stroke="none"/><text fill="#000000" stroke="none" font-family="Arial" font-size="13px" font-style="normal" font-weight="bold" text-decoration="none" x="150.913330078125" y="1280">notifier sa presence dans l entreprise</text></g></g><g transform="translate(-38,10) scale(1,1)"><path fill="none" stroke="#000000" d="M 722 1243 L 742 1311" stroke-miterlimit="10" stroke-dasharray="3"/></g><g transform="translate(-38,10) scale(1,1)"><path fill="none" stroke="#000000" d="M 735.0939692801294 1302.4380644889018 L 742 1311 L 743.1709015068762 1300.0624961869175" stroke-miterlimit="10"/></g><g transform="translate(-38,10) scale(1,1)"><g><path fill="none" stroke="none"/><text fill="#000000" stroke="none" font-family="Arial" font-size="13px" font-style="normal" font-weight="normal" text-decoration="none" x="733" y="1275">«include»</text></g></g><g transform="translate(-38,10) scale(1,1)"><path fill="#C0C0C0" stroke="none" d="M 543 296 C 543 286.6111584 588.2192352 279 644 279 C 699.7807648 279 745 286.6111584 745 296 C 745 305.3888416 699.7807648 313 644 313 C 588.2192352 313 543 305.3888416 543 296 Z" opacity="0.2"/></g><g transform="translate(-38,10) scale(1,1)"><path fill="#ffffff" stroke="none" d="M 536 289 C 536 279.6111584 581.2192352 272 637 272 C 692.7807648 272 738 279.6111584 738 289 C 738 298.3888416 692.7807648 306 637 306 C 581.2192352 306 536 298.3888416 536 289 Z"/></g><g transform="translate(-38,10) scale(1,1)"><path fill="none" stroke="#000000" d="M 536 289 C 536 279.6111584 581.2192352 272 637 272 C 692.7807648 272 738 279.6111584 738 289 C 738 298.3888416 692.7807648 306 637 306 C 581.2192352 306 536 298.3888416 536 289 Z" stroke-miterlimit="10"/></g><g transform="translate(-38,10) scale(1,1)"><g><path fill="none" stroke="none"/><text fill="#000000" stroke="none" font-family="Arial" font-size="13px" font-style="normal" font-weight="bold" text-decoration="none" x="575.938720703125" y="296">eliminer les doublons</text></g></g><g transform="translate(-38,10) scale(1,1)"><path fill="none" stroke="#000000" d="M 739 279 L 1103 242" stroke-miterlimit="10"/></g></g></svg>