<svg version="1.1" xmlns="http://www.w3.org/2000/svg" xmlns:xlink="http://www.w3.org/1999/xlink" width="819" height="307"><defs/><g><g transform="translate(-46,-54) scale(1,1)"><rect fill="#C0C0C0" stroke="none" x="63" y="71" width="124.80000000000001" height="15" opacity="0.2"/></g><g transform="translate(-46,-54) scale(1,1)"><rect fill="#C0C0C0" stroke="none" x="63" y="85" width="312" height="266" opacity="0.2"/></g><g transform="translate(-46,-54) scale(1,1)"><rect fill="#ffffff" stroke="none" x="56" y="79" width="312" height="265"/></g><g transform="translate(-46,-54) scale(1,1)"><path fill="none" stroke="#000000" d="M 56 79 L 368 79 L 368 344 L 56 344 L 56 79 Z Z" stroke-miterlimit="10"/></g><g transform="translate(-46,-54) scale(1,1)"><rect fill="#ffffff" stroke="none" x="56" y="64" width="124.80000000000001" height="15"/></g><g transform="translate(-46,-54) scale(1,1)"><path fill="none" stroke="#000000" d="M 56 64 L 180.8 64 L 180.8 79 L 56 79 L 56 64 Z Z" stroke-miterlimit="10"/></g><g transform="translate(-46,-54) scale(1,1)"><rect fill="#ffffff" stroke="none" x="56" y="78" width="312" height="266"/></g><g transform="translate(-46,-54) scale(1,1)"><path fill="none" stroke="#000000" d="M 56 78 L 368 78 L 368 344 L 56 344 L 56 78 Z Z" stroke-miterlimit="10"/></g><g transform="translate(-46,-54) scale(1,1)"><g><path fill="none" stroke="none"/><text fill="#000000" stroke="none" font-family="Arial" font-size="13px" font-style="normal" font-weight="bold" text-decoration="none" x="165.760498046875" y="98.5">Android crm-tab</text></g></g><g transform="translate(-46,-54) scale(1,1)"><rect fill="#C0C0C0" stroke="none" x="511" y="71" width="140.39999999999998" height="15" opacity="0.2"/></g><g transform="translate(-46,-54) scale(1,1)"><rect fill="#C0C0C0" stroke="none" x="511" y="85" width="351" height="273" opacity="0.2"/></g><g transform="translate(-46,-54) scale(1,1)"><rect fill="#ffffff" stroke="none" x="504" y="79" width="351" height="272"/></g><g transform="translate(-46,-54) scale(1,1)"><path fill="none" stroke="#000000" d="M 504 79 L 855 79 L 855 351 L 504 351 L 504 79 Z Z" stroke-miterlimit="10"/></g><g transform="translate(-46,-54) scale(1,1)"><rect fill="#ffffff" stroke="none" x="504" y="64" width="140.39999999999998" height="15"/></g><g transform="translate(-46,-54) scale(1,1)"><path fill="none" stroke="#000000" d="M 504 64 L 644.4 64 L 644.4 79 L 504 79 L 504 64 Z Z" stroke-miterlimit="10"/></g><g transform="translate(-46,-54) scale(1,1)"><rect fill="#ffffff" stroke="none" x="504" y="78" width="351" height="273"/></g><g transform="translate(-46,-54) scale(1,1)"><path fill="none" stroke="#000000" d="M 504 78 L 855 78 L 855 351 L 504 351 L 504 78 Z Z" stroke-miterlimit="10"/></g><g transform="translate(-46,-54) scale(1,1)"><g><path fill="none" stroke="none"/><text fill="#000000" stroke="none" font-family="Arial" font-size="13px" font-style="normal" font-weight="bold" text-decoration="none" x="627.474609375" y="98.5">Server notification</text></g></g><g transform="translate(-46,-54) scale(1,1)"><rect fill="#C0C0C0" stroke="none" x="183" y="143" width="147.67724609375" height="44" opacity="0.2"/></g><g transform="translate(-46,-54) scale(1,1)"><rect fill="#ffffff" stroke="none" x="176" y="136" width="147.67724609375" height="44"/></g><g transform="translate(-46,-54) scale(1,1)"><path fill="none" stroke="#000000" d="M 176 136 L 323.67724609375 136 L 323.67724609375 180 L 176 180 L 176 136 Z Z" stroke-miterlimit="10"/></g><g transform="translate(-46,-54) scale(1,1)"><path fill="none" stroke="#000000" d="M 176 161 L 323.67724609375 161" stroke-miterlimit="10"/></g><g transform="translate(-46,-54) scale(1,1)"><path fill="none" stroke="#000000" d="M 176 171 L 323.67724609375 171" stroke-miterlimit="10"/></g><g transform="translate(-46,-54) scale(1,1)"><g><path fill="none" stroke="none"/><text fill="#000000" stroke="none" font-family="Arial" font-size="13px" font-style="normal" font-weight="bold" text-decoration="none" x="186.61279296875" y="155.5">NotifitionIntentService</text></g></g><g transform="translate(-46,-54) scale(1,1)"><rect fill="#C0C0C0" stroke="none" x="623" y="159" width="151.2763671875" height="44" opacity="0.2"/></g><g transform="translate(-46,-54) scale(1,1)"><rect fill="#ffffff" stroke="none" x="616" y="152" width="151.2763671875" height="44"/></g><g transform="translate(-46,-54) scale(1,1)"><path fill="none" stroke="#000000" d="M 616 152 L 767.2763671875 152 L 767.2763671875 196 L 616 196 L 616 152 Z Z" stroke-miterlimit="10"/></g><g transform="translate(-46,-54) scale(1,1)"><path fill="none" stroke="#000000" d="M 616 177 L 767.2763671875 177" stroke-miterlimit="10"/></g><g transform="translate(-46,-54) scale(1,1)"><path fill="none" stroke="#000000" d="M 616 187 L 767.2763671875 187" stroke-miterlimit="10"/></g><g transform="translate(-46,-54) scale(1,1)"><g><path fill="none" stroke="none"/><text fill="#000000" stroke="none" font-family="Arial" font-size="13px" font-style="normal" font-weight="bold" text-decoration="none" x="626.241455078125" y="171.5">ProspectNotifEndPoint</text></g></g><g transform="translate(-46,-54) scale(1,1)"><path fill="none" stroke="#000000" d="M 324 171 L 616 171" stroke-miterlimit="10"/></g><g transform="translate(-46,-54) scale(1,1)"><rect fill="#C0C0C0" stroke="none" x="559" y="263" width="50.919921875" height="44" opacity="0.2"/></g><g transform="translate(-46,-54) scale(1,1)"><rect fill="#ffffff" stroke="none" x="552" y="256" width="50.919921875" height="44"/></g><g transform="translate(-46,-54) scale(1,1)"><path fill="none" stroke="#000000" d="M 552 256 L 602.919921875 256 L 602.919921875 300 L 552 300 L 552 256 Z Z" stroke-miterlimit="10"/></g><g transform="translate(-46,-54) scale(1,1)"><path fill="none" stroke="#000000" d="M 552 281 L 602.919921875 281" stroke-miterlimit="10"/></g><g transform="translate(-46,-54) scale(1,1)"><path fill="none" stroke="#000000" d="M 552 291 L 602.919921875 291" stroke-miterlimit="10"/></g><g transform="translate(-46,-54) scale(1,1)"><g><path fill="none" stroke="none"/><text fill="#000000" stroke="none" font-family="Arial" font-size="13px" font-style="normal" font-weight="bold" text-decoration="none" x="558.3154296875" y="275.5">Server</text></g></g><g transform="translate(-46,-54) scale(1,1)"><path fill="none" stroke="#000000" d="M 666 196 L 666 278 L 603 278" stroke-miterlimit="10" stroke-dasharray="3"/></g><g transform="translate(-46,-54) scale(1,1)"><path fill="none" stroke="#000000" d="M 613.1626748576241 273.790482243984 L 603 278 L 613.1626748576241 282.209517756016" stroke-miterlimit="10"/></g><g transform="translate(-46,-54) scale(1,1)"><rect fill="#C0C0C0" stroke="none" x="119" y="239" width="170.103515625" height="44" opacity="0.2"/></g><g transform="translate(-46,-54) scale(1,1)"><rect fill="#ffffff" stroke="none" x="112" y="232" width="170.103515625" height="44"/></g><g transform="translate(-46,-54) scale(1,1)"><path fill="none" stroke="#000000" d="M 112 232 L 282.103515625 232 L 282.103515625 276 L 112 276 L 112 232 Z Z" stroke-miterlimit="10"/></g><g transform="translate(-46,-54) scale(1,1)"><path fill="none" stroke="#000000" d="M 112 257 L 282.103515625 257" stroke-miterlimit="10"/></g><g transform="translate(-46,-54) scale(1,1)"><path fill="none" stroke="#000000" d="M 112 267 L 282.103515625 267" stroke-miterlimit="10"/></g><g transform="translate(-46,-54) scale(1,1)"><g><path fill="none" stroke="none"/><text fill="#000000" stroke="none" font-family="Arial" font-size="13px" font-style="normal" font-weight="bold" text-decoration="none" x="122.628662109375" y="251.5">NotificationEventReceiver</text></g></g><g transform="translate(-46,-54) scale(1,1)"><path fill="none" stroke="#000000" d="M 209 231 L 237 181" stroke-miterlimit="10"/></g></g></svg>