<svg version="1.1" xmlns="http://www.w3.org/2000/svg" xmlns:xlink="http://www.w3.org/1999/xlink" width="1780" height="772"><defs/><g><g transform="translate(-22,-86) scale(1,1)"><rect fill="#C0C0C0" stroke="none" x="39" y="103" width="438.4" height="15" opacity="0.2"/></g><g transform="translate(-22,-86) scale(1,1)"><rect fill="#C0C0C0" stroke="none" x="39" y="117" width="1096" height="738" opacity="0.2"/></g><g transform="translate(-22,-86) scale(1,1)"><rect fill="#ffffff" stroke="none" x="32" y="111" width="1096" height="737"/></g><g transform="translate(-22,-86) scale(1,1)"><path fill="none" stroke="#000000" d="M 32 111 L 1128 111 L 1128 848 L 32 848 L 32 111 Z Z" stroke-miterlimit="10"/></g><g transform="translate(-22,-86) scale(1,1)"><rect fill="#ffffff" stroke="none" x="32" y="96" width="438.4" height="15"/></g><g transform="translate(-22,-86) scale(1,1)"><path fill="none" stroke="#000000" d="M 32 96 L 470.4 96 L 470.4 111 L 32 111 L 32 96 Z Z" stroke-miterlimit="10"/></g><g transform="translate(-22,-86) scale(1,1)"><rect fill="#ffffff" stroke="none" x="32" y="110" width="1096" height="738"/></g><g transform="translate(-22,-86) scale(1,1)"><path fill="none" stroke="#000000" d="M 32 110 L 1128 110 L 1128 848 L 32 848 L 32 110 Z Z" stroke-miterlimit="10"/></g><g transform="translate(-22,-86) scale(1,1)"><g><path fill="none" stroke="none"/><text fill="#000000" stroke="none" font-family="Arial" font-size="13px" font-style="normal" font-weight="bold" text-decoration="none" x="540.9873046875" y="130.5">CRM Android</text></g></g><g transform="translate(-22,-86) scale(1,1)"><rect fill="#C0C0C0" stroke="none" x="63" y="135" width="194.66259765625" height="80" opacity="0.2"/></g><g transform="translate(-22,-86) scale(1,1)"><rect fill="#ffffff" stroke="none" x="56" y="128" width="194.66259765625" height="80"/></g><g transform="translate(-22,-86) scale(1,1)"><path fill="none" stroke="#000000" d="M 56 128 L 250.66259765625 128 L 250.66259765625 208 L 56 208 L 56 128 Z Z" stroke-miterlimit="10"/></g><g transform="translate(-22,-86) scale(1,1)"><path fill="none" stroke="#000000" d="M 56 153 L 250.66259765625 153" stroke-miterlimit="10"/></g><g transform="translate(-22,-86) scale(1,1)"><path fill="none" stroke="#000000" d="M 56 163 L 250.66259765625 163" stroke-miterlimit="10"/></g><g transform="translate(-22,-86) scale(1,1)"><g><path fill="none" stroke="none"/><text fill="#000000" stroke="none" font-family="Arial" font-size="13px" font-style="italic" font-weight="bold" text-decoration="none" x="125.1572265625" y="147.5">Customer</text></g></g><g transform="translate(-22,-86) scale(1,1)"><g><path fill="none" stroke="none"/><text fill="#000000" stroke="none" font-family="Arial" font-size="13px" font-style="normal" font-weight="normal" text-decoration="none" x="61" y="180.5">+getAdress()</text></g></g><g transform="translate(-22,-86) scale(1,1)"><path fill="none" stroke="#000000" d="M 154 303 L 153 209" stroke-miterlimit="10"/></g><g transform="translate(-22,-86) scale(1,1)"><path fill="#FFFFFF" stroke="none" d="M 161.63477403719733 229.2346405287206 L 153 209 L 144.79765574298528 229.41375880844626"/></g><g transform="translate(-22,-86) scale(1,1)"><path fill="none" stroke="#000000" d="M 161.63477403719733 229.2346405287206 L 153 209 L 144.79765574298528 229.41375880844626 L 161.63477403719733 229.2346405287206" stroke-miterlimit="10"/></g><g transform="translate(-22,-86) scale(1,1)"><rect fill="#C0C0C0" stroke="none" x="367" y="223" width="120.96630859375" height="72" opacity="0.2"/></g><g transform="translate(-22,-86) scale(1,1)"><rect fill="#ffffff" stroke="none" x="360" y="216" width="120.96630859375" height="72"/></g><g transform="translate(-22,-86) scale(1,1)"><path fill="none" stroke="#000000" d="M 360 216 L 480.96630859375 216 L 480.96630859375 288 L 360 288 L 360 216 Z Z" stroke-miterlimit="10"/></g><g transform="translate(-22,-86) scale(1,1)"><path fill="none" stroke="#000000" d="M 360 241 L 480.96630859375 241" stroke-miterlimit="10"/></g><g transform="translate(-22,-86) scale(1,1)"><path fill="none" stroke="#000000" d="M 360 279 L 480.96630859375 279" stroke-miterlimit="10"/></g><g transform="translate(-22,-86) scale(1,1)"><g><path fill="none" stroke="none"/><text fill="#000000" stroke="none" font-family="Arial" font-size="13px" font-style="normal" font-weight="bold" text-decoration="none" x="368.457763671875" y="235.5">EtablishmentType</text></g></g><g transform="translate(-22,-86) scale(1,1)"><g><path fill="none" stroke="none"/><text fill="#000000" stroke="none" font-family="Arial" font-size="13px" font-style="normal" font-weight="normal" text-decoration="none" x="365" y="258.5">-id: int</text></g></g><g transform="translate(-22,-86) scale(1,1)"><g><path fill="none" stroke="none"/><text fill="#000000" stroke="none" font-family="Arial" font-size="13px" font-style="normal" font-weight="normal" text-decoration="none" x="365" y="273.5">-name: String</text></g></g><g transform="translate(-22,-86) scale(1,1)"><rect fill="#C0C0C0" stroke="none" x="583" y="623" width="91.01806640625" height="88" opacity="0.2"/></g><g transform="translate(-22,-86) scale(1,1)"><rect fill="#ffffff" stroke="none" x="576" y="616" width="91.01806640625" height="88"/></g><g transform="translate(-22,-86) scale(1,1)"><path fill="none" stroke="#000000" d="M 576 616 L 667.01806640625 616 L 667.01806640625 704 L 576 704 L 576 616 Z Z" stroke-miterlimit="10"/></g><g transform="translate(-22,-86) scale(1,1)"><path fill="none" stroke="#000000" d="M 576 641 L 667.01806640625 641" stroke-miterlimit="10"/></g><g transform="translate(-22,-86) scale(1,1)"><path fill="none" stroke="#000000" d="M 576 679 L 667.01806640625 679" stroke-miterlimit="10"/></g><g transform="translate(-22,-86) scale(1,1)"><path fill="none" stroke="#000000" d="M 576 689 L 667.01806640625 689" stroke-miterlimit="10"/></g><g transform="translate(-22,-86) scale(1,1)"><g><path fill="none" stroke="none"/><text fill="#000000" stroke="none" font-family="Arial" font-size="13px" font-style="normal" font-weight="bold" text-decoration="none" x="599.466796875" y="635.5">Holding</text></g></g><g transform="translate(-22,-86) scale(1,1)"><g><path fill="none" stroke="none"/><text fill="#000000" stroke="none" font-family="Arial" font-size="13px" font-style="normal" font-weight="normal" text-decoration="none" x="581" y="658.5">-id</text></g></g><g transform="translate(-22,-86) scale(1,1)"><g><path fill="none" stroke="none"/><text fill="#000000" stroke="none" font-family="Arial" font-size="13px" font-style="normal" font-weight="normal" text-decoration="none" x="581" y="673.5">-name</text></g></g><g transform="translate(-22,-86) scale(1,1)"><rect fill="#C0C0C0" stroke="none" x="431" y="479" width="127.46630859375" height="87" opacity="0.2"/></g><g transform="translate(-22,-86) scale(1,1)"><rect fill="#ffffff" stroke="none" x="424" y="472" width="127.46630859375" height="87"/></g><g transform="translate(-22,-86) scale(1,1)"><path fill="none" stroke="#000000" d="M 424 472 L 551.46630859375 472 L 551.46630859375 559 L 424 559 L 424 472 Z Z" stroke-miterlimit="10"/></g><g transform="translate(-22,-86) scale(1,1)"><path fill="none" stroke="#000000" d="M 424 497 L 551.46630859375 497" stroke-miterlimit="10"/></g><g transform="translate(-22,-86) scale(1,1)"><path fill="none" stroke="#000000" d="M 424 550 L 551.46630859375 550" stroke-miterlimit="10"/></g><g transform="translate(-22,-86) scale(1,1)"><g><path fill="none" stroke="none"/><text fill="#000000" stroke="none" font-family="Arial" font-size="13px" font-style="normal" font-weight="bold" text-decoration="none" x="434.260498046875" y="491.5">PurchasingCentral</text></g></g><g transform="translate(-22,-86) scale(1,1)"><g><path fill="none" stroke="none"/><text fill="#000000" stroke="none" font-family="Arial" font-size="13px" font-style="normal" font-weight="normal" text-decoration="none" x="429" y="514.5">-id: int</text></g></g><g transform="translate(-22,-86) scale(1,1)"><g><path fill="none" stroke="none"/><text fill="#000000" stroke="none" font-family="Arial" font-size="13px" font-style="normal" font-weight="normal" text-decoration="none" x="429" y="529.5">-name: String</text></g></g><g transform="translate(-22,-86) scale(1,1)"><g><path fill="none" stroke="none"/><text fill="#000000" stroke="none" font-family="Arial" font-size="13px" font-style="normal" font-weight="normal" text-decoration="none" x="429" y="544.5">+type: String</text></g></g><g transform="translate(-22,-86) scale(1,1)"><rect fill="#C0C0C0" stroke="none" x="847" y="183" width="179.4853515625" height="57" opacity="0.2"/></g><g transform="translate(-22,-86) scale(1,1)"><rect fill="#ffffff" stroke="none" x="840" y="176" width="179.4853515625" height="57"/></g><g transform="translate(-22,-86) scale(1,1)"><path fill="none" stroke="#000000" d="M 840 176 L 1019.4853515625 176 L 1019.4853515625 233 L 840 233 L 840 176 Z Z" stroke-miterlimit="10"/></g><g transform="translate(-22,-86) scale(1,1)"><path fill="none" stroke="#000000" d="M 840 201 L 1019.4853515625 201" stroke-miterlimit="10"/></g><g transform="translate(-22,-86) scale(1,1)"><path fill="none" stroke="#000000" d="M 840 211 L 1019.4853515625 211" stroke-miterlimit="10"/></g><g transform="translate(-22,-86) scale(1,1)"><g><path fill="none" stroke="none"/><text fill="#000000" stroke="none" font-family="Arial" font-size="13px" font-style="normal" font-weight="bold" text-decoration="none" x="850.266845703125" y="195.5">CreateCustomerAlertDialog</text></g></g><g transform="translate(-22,-86) scale(1,1)"><g><path fill="none" stroke="none"/><text fill="#000000" stroke="none" font-family="Arial" font-size="13px" font-style="normal" font-weight="normal" text-decoration="none" x="845" y="228.5">+onCreateDialog()</text></g></g><g transform="translate(-22,-86) scale(1,1)"><rect fill="#C0C0C0" stroke="none" x="591" y="335" width="155.31982421875" height="72" opacity="0.2"/></g><g transform="translate(-22,-86) scale(1,1)"><rect fill="#ffffff" stroke="none" x="584" y="328" width="155.31982421875" height="72"/></g><g transform="translate(-22,-86) scale(1,1)"><path fill="none" stroke="#000000" d="M 584 328 L 739.31982421875 328 L 739.31982421875 400 L 584 400 L 584 328 Z Z" stroke-miterlimit="10"/></g><g transform="translate(-22,-86) scale(1,1)"><path fill="none" stroke="#000000" d="M 584 353 L 739.31982421875 353" stroke-miterlimit="10"/></g><g transform="translate(-22,-86) scale(1,1)"><path fill="none" stroke="#000000" d="M 584 363 L 739.31982421875 363" stroke-miterlimit="10"/></g><g transform="translate(-22,-86) scale(1,1)"><g><path fill="none" stroke="none"/><text fill="#000000" stroke="none" font-family="Arial" font-size="13px" font-style="normal" font-weight="bold" text-decoration="none" x="604.94677734375" y="347.5">CreateHCFragment</text></g></g><g transform="translate(-22,-86) scale(1,1)"><g><path fill="none" stroke="none"/><text fill="#000000" stroke="none" font-family="Arial" font-size="13px" font-style="normal" font-weight="normal" text-decoration="none" x="589" y="380.5">+checkFields()</text></g></g><g transform="translate(-22,-86) scale(1,1)"><g><path fill="none" stroke="none"/><text fill="#000000" stroke="none" font-family="Arial" font-size="13px" font-style="normal" font-weight="normal" text-decoration="none" x="589" y="395.5">+getIntFromRadiogroup()</text></g></g><g transform="translate(-22,-86) scale(1,1)"><rect fill="#C0C0C0" stroke="none" x="863" y="335" width="152.01904296875" height="57" opacity="0.2"/></g><g transform="translate(-22,-86) scale(1,1)"><rect fill="#ffffff" stroke="none" x="856" y="328" width="152.01904296875" height="57"/></g><g transform="translate(-22,-86) scale(1,1)"><path fill="none" stroke="#000000" d="M 856 328 L 1008.01904296875 328 L 1008.01904296875 385 L 856 385 L 856 328 Z Z" stroke-miterlimit="10"/></g><g transform="translate(-22,-86) scale(1,1)"><path fill="none" stroke="#000000" d="M 856 353 L 1008.01904296875 353" stroke-miterlimit="10"/></g><g transform="translate(-22,-86) scale(1,1)"><path fill="none" stroke="#000000" d="M 856 363 L 1008.01904296875 363" stroke-miterlimit="10"/></g><g transform="translate(-22,-86) scale(1,1)"><g><path fill="none" stroke="none"/><text fill="#000000" stroke="none" font-family="Arial" font-size="13px" font-style="normal" font-weight="bold" text-decoration="none" x="865.905029296875" y="347.5">ListCustomerFragment</text></g></g><g transform="translate(-22,-86) scale(1,1)"><g><path fill="none" stroke="none"/><text fill="#000000" stroke="none" font-family="Arial" font-size="13px" font-style="normal" font-weight="normal" text-decoration="none" x="861" y="380.5">+CreateHCFragment()</text></g></g><g transform="translate(-22,-86) scale(1,1)"><path fill="none" stroke="#000000" d="M 931 327 L 930 234" stroke-miterlimit="10"/></g><g transform="translate(-22,-86) scale(1,1)"><path fill="none" stroke="#000000" d="M 934.3185441812766 244.11682638747757 L 930 234 L 925.8999953327619 244.20734841810676" stroke-miterlimit="10"/></g><g transform="translate(-22,-86) scale(1,1)"><path fill="none" stroke="#000000" d="M 855 358 L 740 362" stroke-miterlimit="10"/></g><g transform="translate(-22,-86) scale(1,1)"><path fill="none" stroke="#000000" d="M 750.0102033575877 357.4397556271905 L 740 362 L 750.302862395088 365.85370295532516" stroke-miterlimit="10"/></g><g transform="translate(-22,-86) scale(1,1)"><rect fill="#C0C0C0" stroke="none" x="567" y="167" width="201.17529296875" height="57" opacity="0.2"/></g><g transform="translate(-22,-86) scale(1,1)"><rect fill="#ffffff" stroke="none" x="560" y="160" width="201.17529296875" height="57"/></g><g transform="translate(-22,-86) scale(1,1)"><path fill="none" stroke="#000000" d="M 560 160 L 761.17529296875 160 L 761.17529296875 217 L 560 217 L 560 160 Z Z" stroke-miterlimit="10"/></g><g transform="translate(-22,-86) scale(1,1)"><path fill="none" stroke="#000000" d="M 560 185 L 761.17529296875 185" stroke-miterlimit="10"/></g><g transform="translate(-22,-86) scale(1,1)"><path fill="none" stroke="#000000" d="M 560 195 L 761.17529296875 195" stroke-miterlimit="10"/></g><g transform="translate(-22,-86) scale(1,1)"><g><path fill="none" stroke="none"/><text fill="#000000" stroke="none" font-family="Arial" font-size="13px" font-style="normal" font-weight="bold" text-decoration="none" x="569.549560546875" y="179.5">EnumMessageCreateCustomer</text></g></g><g transform="translate(-22,-86) scale(1,1)"><g><path fill="none" stroke="none"/><text fill="#000000" stroke="none" font-family="Arial" font-size="13px" font-style="normal" font-weight="normal" text-decoration="none" x="565" y="212.5">+toString()</text></g></g><g transform="translate(-22,-86) scale(1,1)"><path fill="none" stroke="#000000" d="M 661 327 L 660 218" stroke-miterlimit="10"/></g><g transform="translate(-22,-86) scale(1,1)"><path fill="none" stroke="#000000" d="M 664.3025722395297 228.12362939481824 L 660 218 L 655.883891011821 228.20086500241192" stroke-miterlimit="10"/></g><g transform="translate(-22,-86) scale(1,1)"><path fill="none" stroke="#000000" d="M 583 328 L 482 281" stroke-miterlimit="10"/></g><g transform="translate(-22,-86) scale(1,1)"><path fill="none" stroke="#000000" d="M 492.98990594345827 281.4711341146011 L 482 281 L 489.4378948899389 289.1041791445045" stroke-miterlimit="10"/></g><g transform="translate(-22,-86) scale(1,1)"><path fill="none" stroke="#000000" d="M 656 401 L 627 615" stroke-miterlimit="10"/></g><g transform="translate(-22,-86) scale(1,1)"><path fill="none" stroke="#000000" d="M 624.1933209102278 604.3640913652365 L 627 615 L 632.5361013027294 605.4946550632858" stroke-miterlimit="10"/></g><g transform="translate(-22,-86) scale(1,1)"><path fill="none" stroke="#000000" d="M 618 401 L 538 471" stroke-miterlimit="10"/></g><g transform="translate(-22,-86) scale(1,1)"><path fill="none" stroke="#000000" d="M 542.8762054144906 461.13984681885256 L 538 471 L 548.4201790929724 467.4758167371174" stroke-miterlimit="10"/></g><g transform="translate(-22,-86) scale(1,1)"><path fill="none" stroke="#000000" d="M 583 377 L 265 428" stroke-miterlimit="10"/></g><g transform="translate(-22,-86) scale(1,1)"><path fill="none" stroke="#000000" d="M 274.3678535947142 422.2342980455108 L 265 428 L 275.701039752305 430.5471058516653" stroke-miterlimit="10"/></g><g transform="translate(-22,-86) scale(1,1)"><rect fill="#C0C0C0" stroke="none" x="895" y="519" width="211.96630859375" height="57" opacity="0.2"/></g><g transform="translate(-22,-86) scale(1,1)"><rect fill="#ffffff" stroke="none" x="888" y="512" width="211.96630859375" height="57"/></g><g transform="translate(-22,-86) scale(1,1)"><path fill="none" stroke="#000000" d="M 888 512 L 1099.96630859375 512 L 1099.96630859375 569 L 888 569 L 888 512 Z Z" stroke-miterlimit="10"/></g><g transform="translate(-22,-86) scale(1,1)"><path fill="none" stroke="#000000" d="M 888 537 L 1099.96630859375 537" stroke-miterlimit="10"/></g><g transform="translate(-22,-86) scale(1,1)"><path fill="none" stroke="#000000" d="M 888 547 L 1099.96630859375 547" stroke-miterlimit="10"/></g><g transform="translate(-22,-86) scale(1,1)"><g><path fill="none" stroke="none"/><text fill="#000000" stroke="none" font-family="Arial" font-size="13px" font-style="normal" font-weight="bold" text-decoration="none" x="898.6064453125" y="531.5">RESTCustomerHandlerSingleton</text></g></g><g transform="translate(-22,-86) scale(1,1)"><g><path fill="none" stroke="none"/><text fill="#000000" stroke="none" font-family="Arial" font-size="13px" font-style="normal" font-weight="normal" text-decoration="none" x="893" y="564.5">+getInstance()</text></g></g><g transform="translate(-22,-86) scale(1,1)"><path fill="none" stroke="#000000" d="M 731 401 L 938 511" stroke-miterlimit="10"/></g><g transform="translate(-22,-86) scale(1,1)"><path fill="none" stroke="#000000" d="M 927.0503885648593 509.94833017565577 L 938 511 L 931.0010983672173 502.5138126384912" stroke-miterlimit="10"/></g><g transform="translate(-22,-86) scale(1,1)"><path fill="none" stroke="#000000" d="M 976 570 L 912 679" stroke-miterlimit="10"/></g><g transform="translate(-22,-86) scale(1,1)"><path fill="none" stroke="#000000" d="M 913.515613256884 668.1049131965111 L 912 679 L 920.775690171962 672.3677106512358" stroke-miterlimit="10"/></g><g transform="translate(-22,-86) scale(1,1)"><rect fill="#C0C0C0" stroke="none" x="55" y="311" width="216" height="282" opacity="0.2"/></g><g transform="translate(-22,-86) scale(1,1)"><rect fill="#ffffff" stroke="none" x="48" y="304" width="216" height="282"/></g><g transform="translate(-22,-86) scale(1,1)"><path fill="none" stroke="#000000" d="M 48 304 L 264 304 L 264 586 L 48 586 L 48 304 Z Z" stroke-miterlimit="10"/></g><g transform="translate(-22,-86) scale(1,1)"><path fill="none" stroke="#000000" d="M 48 329 L 264 329" stroke-miterlimit="10"/></g><g transform="translate(-22,-86) scale(1,1)"><path fill="none" stroke="#000000" d="M 48 577 L 264 577" stroke-miterlimit="10"/></g><g transform="translate(-22,-86) scale(1,1)"><g><path fill="none" stroke="none"/><text fill="#000000" stroke="none" font-family="Arial" font-size="13px" font-style="normal" font-weight="bold" text-decoration="none" x="117.701416015625" y="323.5">HealthCenter</text></g></g><g transform="translate(-22,-86) scale(1,1)"><g><path fill="none" stroke="none"/><text fill="#000000" stroke="none" font-family="Arial" font-size="13px" font-style="normal" font-weight="normal" text-decoration="none" x="53" y="346.5">-id: int</text></g></g><g transform="translate(-22,-86) scale(1,1)"><g><path fill="none" stroke="none"/><text fill="#000000" stroke="none" font-family="Arial" font-size="13px" font-style="normal" font-weight="normal" text-decoration="none" x="53" y="361.5">-name: String</text></g></g><g transform="translate(-22,-86) scale(1,1)"><g><path fill="none" stroke="none"/><text fill="#000000" stroke="none" font-family="Arial" font-size="13px" font-style="normal" font-weight="normal" text-decoration="none" x="53" y="376.5">-finessNumber: int</text></g></g><g transform="translate(-22,-86) scale(1,1)"><g><path fill="none" stroke="none"/><text fill="#000000" stroke="none" font-family="Arial" font-size="13px" font-style="normal" font-weight="normal" text-decoration="none" x="53" y="391.5">-siretNumber: int</text></g></g><g transform="translate(-22,-86) scale(1,1)"><g><path fill="none" stroke="none"/><text fill="#000000" stroke="none" font-family="Arial" font-size="13px" font-style="normal" font-weight="normal" text-decoration="none" x="53" y="406.5">-streetNumber: String</text></g></g><g transform="translate(-22,-86) scale(1,1)"><g><path fill="none" stroke="none"/><text fill="#000000" stroke="none" font-family="Arial" font-size="13px" font-style="normal" font-weight="normal" text-decoration="none" x="53" y="421.5">-streetName: String</text></g></g><g transform="translate(-22,-86) scale(1,1)"><g><path fill="none" stroke="none"/><text fill="#000000" stroke="none" font-family="Arial" font-size="13px" font-style="normal" font-weight="normal" text-decoration="none" x="53" y="436.5">-city: String</text></g></g><g transform="translate(-22,-86) scale(1,1)"><g><path fill="none" stroke="none"/><text fill="#000000" stroke="none" font-family="Arial" font-size="13px" font-style="normal" font-weight="normal" text-decoration="none" x="53" y="451.5">-zipCode: int</text></g></g><g transform="translate(-22,-86) scale(1,1)"><g><path fill="none" stroke="none"/><text fill="#000000" stroke="none" font-family="Arial" font-size="13px" font-style="normal" font-weight="normal" text-decoration="none" x="53" y="466.5">-longitude: double</text></g></g><g transform="translate(-22,-86) scale(1,1)"><g><path fill="none" stroke="none"/><text fill="#000000" stroke="none" font-family="Arial" font-size="13px" font-style="normal" font-weight="normal" text-decoration="none" x="53" y="481.5">-latitude: double</text></g></g><g transform="translate(-22,-86) scale(1,1)"><g><path fill="none" stroke="none"/><text fill="#000000" stroke="none" font-family="Arial" font-size="13px" font-style="normal" font-weight="normal" text-decoration="none" x="53" y="496.5">-webSite: String</text></g></g><g transform="translate(-22,-86) scale(1,1)"><g><path fill="none" stroke="none"/><text fill="#000000" stroke="none" font-family="Arial" font-size="13px" font-style="normal" font-weight="normal" text-decoration="none" x="53" y="511.5">-serviceBuildingImage: int</text></g></g><g transform="translate(-22,-86) scale(1,1)"><g><path fill="none" stroke="none"/><text fill="#000000" stroke="none" font-family="Arial" font-size="13px" font-style="normal" font-weight="normal" text-decoration="none" x="53" y="526.5">-origin: String</text></g></g><g transform="translate(-22,-86) scale(1,1)"><g><path fill="none" stroke="none"/><text fill="#000000" stroke="none" font-family="Arial" font-size="13px" font-style="normal" font-weight="normal" text-decoration="none" x="53" y="541.5">-isPublic: boolean</text></g></g><g transform="translate(-22,-86) scale(1,1)"><g><path fill="none" stroke="none"/><text fill="#000000" stroke="none" font-family="Arial" font-size="13px" font-style="normal" font-weight="normal" text-decoration="none" x="53" y="556.5">-difficultyHaveContact: int</text></g></g><g transform="translate(-22,-86) scale(1,1)"><g><path fill="none" stroke="none"/><text fill="#000000" stroke="none" font-family="Arial" font-size="13px" font-style="normal" font-weight="normal" text-decoration="none" x="53" y="571.5">-bedNumber: int</text></g></g><g transform="translate(-22,-86) scale(1,1)"><rect fill="#C0C0C0" stroke="none" x="815" y="687" width="174.10888671875" height="57" opacity="0.2"/></g><g transform="translate(-22,-86) scale(1,1)"><rect fill="#ffffff" stroke="none" x="808" y="680" width="174.10888671875" height="57"/></g><g transform="translate(-22,-86) scale(1,1)"><path fill="none" stroke="#000000" d="M 808 680 L 982.10888671875 680 L 982.10888671875 737 L 808 737 L 808 680 Z Z" stroke-miterlimit="10"/></g><g transform="translate(-22,-86) scale(1,1)"><path fill="none" stroke="#000000" d="M 808 705 L 982.10888671875 705" stroke-miterlimit="10"/></g><g transform="translate(-22,-86) scale(1,1)"><path fill="none" stroke="#000000" d="M 808 715 L 982.10888671875 715" stroke-miterlimit="10"/></g><g transform="translate(-22,-86) scale(1,1)"><g><path fill="none" stroke="none"/><text fill="#000000" stroke="none" font-family="Arial" font-size="13px" font-style="normal" font-weight="bold" text-decoration="none" x="845.206298828125" y="699.5">CustomerService</text></g></g><g transform="translate(-22,-86) scale(1,1)"><g><path fill="none" stroke="none"/><text fill="#000000" stroke="none" font-family="Arial" font-size="13px" font-style="normal" font-weight="normal" text-decoration="none" x="813" y="732.5">+createHealthEtablishment()</text></g></g><g transform="translate(-22,-86) scale(1,1)"><rect fill="#C0C0C0" stroke="none" x="1263" y="199" width="214.4000000000001" height="15" opacity="0.2"/></g><g transform="translate(-22,-86) scale(1,1)"><rect fill="#C0C0C0" stroke="none" x="1263" y="213" width="536" height="554" opacity="0.2"/></g><g transform="translate(-22,-86) scale(1,1)"><rect fill="#ffffff" stroke="none" x="1256" y="207" width="536" height="553"/></g><g transform="translate(-22,-86) scale(1,1)"><path fill="none" stroke="#000000" d="M 1256 207 L 1792 207 L 1792 760 L 1256 760 L 1256 207 Z Z" stroke-miterlimit="10"/></g><g transform="translate(-22,-86) scale(1,1)"><rect fill="#ffffff" stroke="none" x="1256" y="192" width="214.4000000000001" height="15"/></g><g transform="translate(-22,-86) scale(1,1)"><path fill="none" stroke="#000000" d="M 1256 192 L 1470.4 192 L 1470.4 207 L 1256 207 L 1256 192 Z Z" stroke-miterlimit="10"/></g><g transform="translate(-22,-86) scale(1,1)"><rect fill="#ffffff" stroke="none" x="1256" y="206" width="536" height="554"/></g><g transform="translate(-22,-86) scale(1,1)"><path fill="none" stroke="#000000" d="M 1256 206 L 1792 206 L 1792 760 L 1256 760 L 1256 206 Z Z" stroke-miterlimit="10"/></g><g transform="translate(-22,-86) scale(1,1)"><g><path fill="none" stroke="none"/><text fill="#000000" stroke="none" font-family="Arial" font-size="13px" font-style="normal" font-weight="bold" text-decoration="none" x="1467.635986328125" y="226.5">Application Serveur</text></g></g><g transform="translate(-22,-86) scale(1,1)"><rect fill="#C0C0C0" stroke="none" x="1319" y="271" width="286.8369140625" height="57" opacity="0.2"/></g><g transform="translate(-22,-86) scale(1,1)"><rect fill="#ffffff" stroke="none" x="1312" y="264" width="286.8369140625" height="57"/></g><g transform="translate(-22,-86) scale(1,1)"><path fill="none" stroke="#000000" d="M 1312 264 L 1598.8369140625 264 L 1598.8369140625 321 L 1312 321 L 1312 264 Z Z" stroke-miterlimit="10"/></g><g transform="translate(-22,-86) scale(1,1)"><path fill="none" stroke="#000000" d="M 1312 289 L 1598.8369140625 289" stroke-miterlimit="10"/></g><g transform="translate(-22,-86) scale(1,1)"><path fill="none" stroke="#000000" d="M 1312 299 L 1598.8369140625 299" stroke-miterlimit="10"/></g><g transform="translate(-22,-86) scale(1,1)"><g><path fill="none" stroke="none"/><text fill="#000000" stroke="none" font-family="Arial" font-size="13px" font-style="normal" font-weight="bold" text-decoration="none" x="1385.7021484375" y="283.5">RestCustomerController</text></g></g><g transform="translate(-22,-86) scale(1,1)"><g><path fill="none" stroke="none"/><text fill="#000000" stroke="none" font-family="Arial" font-size="13px" font-style="normal" font-weight="normal" text-decoration="none" x="1317" y="316.5">+createHealthCenter(HealthCenter)</text></g></g><g transform="translate(-22,-86) scale(1,1)"><rect fill="#C0C0C0" stroke="none" x="1527" y="448" width="216" height="282" opacity="0.2"/></g><g transform="translate(-22,-86) scale(1,1)"><rect fill="#ffffff" stroke="none" x="1520" y="441" width="216" height="282"/></g><g transform="translate(-22,-86) scale(1,1)"><path fill="none" stroke="#000000" d="M 1520 441 L 1736 441 L 1736 723 L 1520 723 L 1520 441 Z Z" stroke-miterlimit="10"/></g><g transform="translate(-22,-86) scale(1,1)"><path fill="none" stroke="#000000" d="M 1520 466 L 1736 466" stroke-miterlimit="10"/></g><g transform="translate(-22,-86) scale(1,1)"><path fill="none" stroke="#000000" d="M 1520 714 L 1736 714" stroke-miterlimit="10"/></g><g transform="translate(-22,-86) scale(1,1)"><g><path fill="none" stroke="none"/><text fill="#000000" stroke="none" font-family="Arial" font-size="13px" font-style="normal" font-weight="bold" text-decoration="none" x="1589.701416015625" y="460.5">HealthCenter</text></g></g><g transform="translate(-22,-86) scale(1,1)"><g><path fill="none" stroke="none"/><text fill="#000000" stroke="none" font-family="Arial" font-size="13px" font-style="normal" font-weight="normal" text-decoration="none" x="1525" y="483.5">-id: int</text></g></g><g transform="translate(-22,-86) scale(1,1)"><g><path fill="none" stroke="none"/><text fill="#000000" stroke="none" font-family="Arial" font-size="13px" font-style="normal" font-weight="normal" text-decoration="none" x="1525" y="498.5">-name: String</text></g></g><g transform="translate(-22,-86) scale(1,1)"><g><path fill="none" stroke="none"/><text fill="#000000" stroke="none" font-family="Arial" font-size="13px" font-style="normal" font-weight="normal" text-decoration="none" x="1525" y="513.5">-finessNumber: int</text></g></g><g transform="translate(-22,-86) scale(1,1)"><g><path fill="none" stroke="none"/><text fill="#000000" stroke="none" font-family="Arial" font-size="13px" font-style="normal" font-weight="normal" text-decoration="none" x="1525" y="528.5">-siretNumber: int</text></g></g><g transform="translate(-22,-86) scale(1,1)"><g><path fill="none" stroke="none"/><text fill="#000000" stroke="none" font-family="Arial" font-size="13px" font-style="normal" font-weight="normal" text-decoration="none" x="1525" y="543.5">-streetNumber: String</text></g></g><g transform="translate(-22,-86) scale(1,1)"><g><path fill="none" stroke="none"/><text fill="#000000" stroke="none" font-family="Arial" font-size="13px" font-style="normal" font-weight="normal" text-decoration="none" x="1525" y="558.5">-streetName: String</text></g></g><g transform="translate(-22,-86) scale(1,1)"><g><path fill="none" stroke="none"/><text fill="#000000" stroke="none" font-family="Arial" font-size="13px" font-style="normal" font-weight="normal" text-decoration="none" x="1525" y="573.5">-city: String</text></g></g><g transform="translate(-22,-86) scale(1,1)"><g><path fill="none" stroke="none"/><text fill="#000000" stroke="none" font-family="Arial" font-size="13px" font-style="normal" font-weight="normal" text-decoration="none" x="1525" y="588.5">-zipCode: int</text></g></g><g transform="translate(-22,-86) scale(1,1)"><g><path fill="none" stroke="none"/><text fill="#000000" stroke="none" font-family="Arial" font-size="13px" font-style="normal" font-weight="normal" text-decoration="none" x="1525" y="603.5">-longitude: double</text></g></g><g transform="translate(-22,-86) scale(1,1)"><g><path fill="none" stroke="none"/><text fill="#000000" stroke="none" font-family="Arial" font-size="13px" font-style="normal" font-weight="normal" text-decoration="none" x="1525" y="618.5">-latitude: double</text></g></g><g transform="translate(-22,-86) scale(1,1)"><g><path fill="none" stroke="none"/><text fill="#000000" stroke="none" font-family="Arial" font-size="13px" font-style="normal" font-weight="normal" text-decoration="none" x="1525" y="633.5">-webSite: String</text></g></g><g transform="translate(-22,-86) scale(1,1)"><g><path fill="none" stroke="none"/><text fill="#000000" stroke="none" font-family="Arial" font-size="13px" font-style="normal" font-weight="normal" text-decoration="none" x="1525" y="648.5">-serviceBuildingImage: int</text></g></g><g transform="translate(-22,-86) scale(1,1)"><g><path fill="none" stroke="none"/><text fill="#000000" stroke="none" font-family="Arial" font-size="13px" font-style="normal" font-weight="normal" text-decoration="none" x="1525" y="663.5">-origin: String</text></g></g><g transform="translate(-22,-86) scale(1,1)"><g><path fill="none" stroke="none"/><text fill="#000000" stroke="none" font-family="Arial" font-size="13px" font-style="normal" font-weight="normal" text-decoration="none" x="1525" y="678.5">-isPublic: boolean</text></g></g><g transform="translate(-22,-86) scale(1,1)"><g><path fill="none" stroke="none"/><text fill="#000000" stroke="none" font-family="Arial" font-size="13px" font-style="normal" font-weight="normal" text-decoration="none" x="1525" y="693.5">-difficultyHaveContact: int</text></g></g><g transform="translate(-22,-86) scale(1,1)"><g><path fill="none" stroke="none"/><text fill="#000000" stroke="none" font-family="Arial" font-size="13px" font-style="normal" font-weight="normal" text-decoration="none" x="1525" y="708.5">-bedNumber: int</text></g></g><g transform="translate(-22,-86) scale(1,1)"><path fill="none" stroke="#000000" d="M 1473 322 L 1543 440" stroke-miterlimit="10"/></g><g transform="translate(-22,-86) scale(1,1)"><path fill="none" stroke="#000000" d="M 1534.1945685066173 433.40724820614753 L 1543 440 L 1541.4353991798685 429.1118401796427" stroke-miterlimit="10"/></g><g transform="translate(-22,-86) scale(1,1)"><path fill="none" stroke="#000000" d="M 265 365 L 369 289" stroke-miterlimit="10"/></g><g transform="translate(-22,-86) scale(1,1)"><path fill="none" stroke="#000000" d="M 363.2784318507412 298.39487402328456 L 369 289 L 358.31106123238027 291.59741949289594" stroke-miterlimit="10"/></g><g transform="translate(-22,-86) scale(1,1)"><path fill="none" stroke="#000000" d="M 265 468 L 423 501" stroke-miterlimit="10"/></g><g transform="translate(-22,-86) scale(1,1)"><path fill="none" stroke="#000000" d="M 412.19135734205406 503.04285190183526 L 423 501 L 413.9126210483967 494.8016499138918" stroke-miterlimit="10"/></g><g transform="translate(-22,-86) scale(1,1)"><path fill="none" stroke="#000000" d="M 265 495 L 575 639" stroke-miterlimit="10"/></g><g transform="translate(-22,-86) scale(1,1)"><path fill="none" stroke="#000000" d="M 564.0097749239172 638.5363699998468 L 575 639 L 567.5565732390053 630.9009014048656" stroke-miterlimit="10"/></g></g></svg>